# Exported from Godot Engine
o MS_Tree_C_Collider
v -0.000002 4.000000 0.040000
vn 0.382535 0.031556 -0.923402
v -0.000002 -0.100000 -0.100000
vn 0.382535 0.031556 -0.923402
v 0.042425 4.000000 0.057571
vn 0.382535 0.031556 -0.923402
v 0.070709 -0.100000 -0.070713
vn 0.382535 0.031556 -0.923402
v 0.042425 4.000000 0.057571
vn 0.923711 0.018339 -0.382651
v 0.070709 -0.100000 -0.070713
vn 0.923711 0.018339 -0.382651
v 0.059997 4.000000 0.099998
vn 0.923711 0.018339 -0.382651
v 0.100000 -0.100000 -0.000003
vn 0.923711 0.018339 -0.382651
v 0.059997 4.000000 0.099998
vn 0.923854 -0.000346 0.382744
v 0.100000 -0.100000 -0.000003
vn 0.923854 -0.000346 0.382744
v 0.042425 4.000000 0.142425
vn 0.923854 -0.000346 0.382744
v 0.070709 -0.100000 0.070711
vn 0.923854 -0.000346 0.382744
v 0.042425 4.000000 0.142425
vn 0.382585 -0.013512 0.923821
v 0.070709 -0.100000 0.070711
vn 0.382585 -0.013512 0.923821
v -0.000002 4.000000 0.160000
vn 0.382585 -0.013512 0.923821
v -0.000002 -0.100000 0.099998
vn 0.382585 -0.013512 0.923821
v -0.000002 4.000000 0.160000
vn -0.382574 -0.013519 0.923826
v -0.000002 -0.100000 0.099998
vn -0.382574 -0.013519 0.923826
v -0.042428 4.000000 0.142425
vn -0.382574 -0.013519 0.923826
v -0.070712 -0.100000 0.070711
vn -0.382574 -0.013519 0.923826
v -0.042428 4.000000 0.142425
vn -0.923851 -0.000342 0.382752
v -0.070712 -0.100000 0.070711
vn -0.923851 -0.000342 0.382752
v -0.060000 4.000000 0.099998
vn -0.923851 -0.000342 0.382752
v -0.100000 -0.100000 -0.000003
vn -0.923851 -0.000342 0.382752
v 0.070709 -0.100000 -0.070713
vn -0.000031 -1.000000 -0.000122
v -0.000002 -0.100000 -0.100000
vn -0.000031 -1.000000 -0.000122
v -0.000002 -0.100000 -0.000003
vn -0.000031 -1.000000 -0.000122
v -0.070712 -0.100000 -0.070713
vn -0.000031 -1.000000 -0.000122
v 0.100000 -0.100000 -0.000003
vn -0.000031 -1.000000 -0.000122
v -0.100000 -0.100000 -0.000003
vn -0.000031 -1.000000 -0.000122
v 0.070709 -0.100000 0.070711
vn -0.000031 -1.000000 -0.000122
v -0.070712 -0.100000 0.070711
vn -0.000031 -1.000000 -0.000122
v -0.000002 -0.100000 0.099998
vn -0.000031 -1.000000 -0.000122
v -0.060000 4.000000 0.099998
vn -0.923745 0.018253 -0.382574
v -0.100000 -0.100000 -0.000003
vn -0.923745 0.018253 -0.382574
v -0.042428 4.000000 0.057571
vn -0.923745 0.018253 -0.382574
v -0.070712 -0.100000 -0.070713
vn -0.923745 0.018253 -0.382574
v -0.042428 4.000000 0.057571
vn -0.382526 0.031404 -0.923411
v -0.070712 -0.100000 -0.070713
vn -0.382526 0.031404 -0.923411
v -0.000002 4.000000 0.040000
vn -0.382526 0.031404 -0.923411
v -0.000002 -0.100000 -0.100000
vn -0.382526 0.031404 -0.923411
v -0.000002 4.000000 0.040000
vn -0.000030 1.000000 -0.000000
v 0.042425 4.000000 0.057571
vn -0.000030 1.000000 -0.000000
v -0.000002 4.000000 0.099998
vn -0.000030 1.000000 -0.000000
v 0.059997 4.000000 0.099998
vn -0.000030 1.000000 -0.000000
v -0.042428 4.000000 0.057571
vn -0.000030 1.000000 -0.000000
v 0.042425 4.000000 0.142425
vn -0.000030 1.000000 -0.000000
v -0.060000 4.000000 0.099998
vn -0.000030 1.000000 -0.000000
v -0.000002 4.000000 0.160000
vn -0.000030 1.000000 -0.000000
v -0.042428 4.000000 0.142425
vn -0.000030 1.000000 -0.000000
f 3//3 2//2 1//1
f 4//4 2//2 3//3
f 7//7 6//6 5//5
f 8//8 6//6 7//7
f 11//11 10//10 9//9
f 12//12 10//10 11//11
f 15//15 14//14 13//13
f 16//16 14//14 15//15
f 19//19 18//18 17//17
f 20//20 18//18 19//19
f 23//23 22//22 21//21
f 24//24 22//22 23//23
f 27//27 26//26 25//25
f 27//27 28//28 26//26
f 27//27 25//25 29//29
f 27//27 30//30 28//28
f 27//27 29//29 31//31
f 27//27 32//32 30//30
f 27//27 31//31 33//33
f 27//27 33//33 32//32
f 36//36 35//35 34//34
f 37//37 35//35 36//36
f 40//40 39//39 38//38
f 41//41 39//39 40//40
f 44//44 43//43 42//42
f 44//44 45//45 43//43
f 44//44 42//42 46//46
f 44//44 47//47 45//45
f 44//44 46//46 48//48
f 44//44 49//49 47//47
f 44//44 48//48 50//50
f 44//44 50//50 49//49
