# Exported from Godot Engine
o MS_Tree_C_Shadow
v 2.000002 0.000000 -0.000030
vt 0.718746 0.375006
vn -0.000048 0.000000 1.000000
v -1.999998 0.000000 -0.000030
vt 0.531243 0.375006
vn -0.000048 0.000000 1.000000
v 2.000002 13.000000 -0.000030
vt 0.718746 0.968765
vn -0.000048 0.000000 1.000000
v -1.999998 13.000000 -0.000030
vt 0.531243 0.968765
vn -0.000048 0.000000 1.000000
v -0.000028 0.000000 -2.000000
vt 0.937499 0.375006
vn 1.000000 0.000015 0.000024
v -0.000028 0.000000 1.999941
vt 0.749996 0.375006
vn 1.000000 0.000015 0.000024
v -0.000028 13.000000 -2.000000
vt 0.937499 0.968765
vn 1.000000 0.000015 0.000024
v -0.000028 13.000000 2.000002
vt 0.749996 0.968765
vn 1.000000 0.000015 0.000024
v 1.414178 0.000000 -1.414236
vt 0.718746 0.375006
vn 0.707081 0.000004 0.707132
v -1.414235 0.000000 1.414177
vt 0.531243 0.375006
vn 0.707081 0.000004 0.707132
v 1.414178 13.000000 -1.414236
vt 0.718746 0.968765
vn 0.707081 0.000004 0.707132
v -1.414235 13.000000 1.414177
vt 0.531243 0.968765
vn 0.707081 0.000004 0.707132
v -1.414235 0.000000 -1.414236
vt 0.937499 0.375006
vn 0.707115 0.000026 -0.707098
v 1.414178 0.000000 1.414177
vt 0.749996 0.375006
vn 0.707115 0.000026 -0.707098
v -1.414235 13.000000 -1.414236
vt 0.937499 0.968765
vn 0.707115 0.000026 -0.707098
v 1.414178 13.000000 1.414177
vt 0.749996 0.968765
vn 0.707115 0.000026 -0.707098
f 3/3/3 2/2/2 1/1/1
f 4/4/4 2/2/2 3/3/3
f 7/7/7 6/6/6 5/5/5
f 8/8/8 6/6/6 7/7/7
f 11/11/11 10/10/10 9/9/9
f 12/12/12 10/10/10 11/11/11
f 15/15/15 14/14/14 13/13/13
f 16/16/16 14/14/14 15/15/15
