# Exported from Godot Engine
o MS_Tree_A_Billboard
v 1.000002 0.000000 -0.000015
vt 0.718746 0.031250
vn -0.000048 0.000000 1.000000
v -0.999998 0.000000 -0.000015
vt 0.531243 0.031250
vn -0.000048 0.000000 1.000000
v 1.000002 2.000000 -0.000015
vt 0.718746 0.218753
vn -0.000048 0.000000 1.000000
v -0.999998 2.000000 -0.000015
vt 0.531243 0.218753
vn -0.000048 0.000000 1.000000
v -0.000013 0.000000 -1.000000
vt 0.937499 0.031250
vn 1.000000 0.000015 0.000024
v -0.000013 0.000000 1.000000
vt 0.749996 0.031250
vn 1.000000 0.000015 0.000024
v -0.000013 2.000000 -1.000000
vt 0.937499 0.218753
vn 1.000000 0.000015 0.000024
v -0.000013 2.000000 1.000000
vt 0.749996 0.218753
vn 1.000000 0.000015 0.000024
f 3/3/3 2/2/2 1/1/1
f 4/4/4 2/2/2 3/3/3
f 7/7/7 6/6/6 5/5/5
f 8/8/8 6/6/6 7/7/7
