# Exported from Godot Engine
o MS_Tree_D_Shadow
v 3.000000 0.000000 -0.000044
vt 0.249989 0.375006
vn -0.000048 0.000000 1.000000
v -3.000000 0.000000 -0.000044
vt 0.031235 0.375006
vn -0.000048 0.000000 1.000000
v 3.000000 17.000000 -0.000044
vt 0.249989 0.968765
vn -0.000048 0.000000 1.000000
v -3.000000 17.000000 -0.000044
vt 0.031235 0.968765
vn -0.000048 0.000000 1.000000
v -0.000046 0.000000 -3.000000
vt 0.499992 0.375006
vn 1.000000 0.000015 0.000024
v -0.000046 0.000000 2.999911
vt 0.281239 0.375006
vn 1.000000 0.000015 0.000024
v -0.000046 17.000000 -3.000000
vt 0.499992 0.968765
vn 1.000000 0.000015 0.000024
v -0.000046 17.000000 3.000003
vt 0.281239 0.968765
vn 1.000000 0.000015 0.000024
v 2.121264 0.000000 -2.121355
vt 0.249989 0.375006
vn 0.707081 0.000004 0.707132
v -2.121355 0.000000 2.121266
vt 0.031235 0.375006
vn 0.707081 0.000004 0.707132
v 2.121264 17.000000 -2.121355
vt 0.249989 0.968765
vn 0.707081 0.000004 0.707132
v -2.121355 17.000000 2.121266
vt 0.031235 0.968765
vn 0.707081 0.000004 0.707132
v -2.121355 0.000000 -2.121355
vt 0.499992 0.375006
vn 0.707115 0.000026 -0.707098
v 2.121264 0.000000 2.121266
vt 0.281239 0.375006
vn 0.707115 0.000026 -0.707098
v -2.121355 17.000000 -2.121355
vt 0.499992 0.968765
vn 0.707115 0.000026 -0.707098
v 2.121264 17.000000 2.121266
vt 0.281239 0.968765
vn 0.707115 0.000026 -0.707098
f 3/3/3 2/2/2 1/1/1
f 4/4/4 2/2/2 3/3/3
f 7/7/7 6/6/6 5/5/5
f 8/8/8 6/6/6 7/7/7
f 11/11/11 10/10/10 9/9/9
f 12/12/12 10/10/10 11/11/11
f 15/15/15 14/14/14 13/13/13
f 16/16/16 14/14/14 15/15/15
