# Exported from Godot Engine
o MS_Tree_A_Collider
v -0.000000 1.500000 -0.002000
vn 0.382778 0.010948 -0.923775
v -0.000000 -0.010000 -0.020000
vn 0.382778 0.010948 -0.923775
v 0.001414 1.500000 -0.001415
vn 0.382778 0.010948 -0.923775
v 0.014142 -0.010000 -0.014142
vn 0.382778 0.010948 -0.923775
v 0.001414 1.500000 -0.001415
vn 0.923835 0.011038 -0.382632
v 0.014142 -0.010000 -0.014142
vn 0.923835 0.011038 -0.382632
v 0.002000 1.500000 -0.000000
vn 0.923835 0.011038 -0.382632
v 0.020000 -0.010000 -0.000000
vn 0.923835 0.011038 -0.382632
v 0.002000 1.500000 -0.000000
vn 0.923789 0.011014 0.382744
v 0.020000 -0.010000 -0.000000
vn 0.923789 0.011014 0.382744
v 0.001414 1.500000 0.001414
vn 0.923789 0.011014 0.382744
v 0.014142 -0.010000 0.014142
vn 0.923789 0.011014 0.382744
v 0.001414 1.500000 0.001414
vn 0.382674 0.010983 0.923818
v 0.014142 -0.010000 0.014142
vn 0.382674 0.010983 0.923818
v -0.000000 1.500000 0.002000
vn 0.382674 0.010983 0.923818
v -0.000000 -0.010000 0.020000
vn 0.382674 0.010983 0.923818
v -0.000000 1.500000 0.002000
vn -0.382694 0.010949 0.923810
v -0.000000 -0.010000 0.020000
vn -0.382694 0.010949 0.923810
v -0.001415 1.500000 0.001414
vn -0.382694 0.010949 0.923810
v -0.014142 -0.010000 0.014142
vn -0.382694 0.010949 0.923810
v -0.001415 1.500000 0.001414
vn -0.923788 0.010970 0.382747
v -0.014142 -0.010000 0.014142
vn -0.923788 0.010970 0.382747
v -0.002000 1.500000 -0.000000
vn -0.923788 0.010970 0.382747
v -0.020000 -0.010000 -0.000000
vn -0.923788 0.010970 0.382747
v -0.002000 1.500000 -0.000000
vn -0.923807 0.010970 -0.382702
v -0.020000 -0.010000 -0.000000
vn -0.923807 0.010970 -0.382702
v -0.001415 1.500000 -0.001415
vn -0.923807 0.010970 -0.382702
v -0.014142 -0.010000 -0.014142
vn -0.923807 0.010970 -0.382702
v -0.001415 1.500000 -0.001415
vn -0.382754 0.010964 -0.923785
v -0.014142 -0.010000 -0.014142
vn -0.382754 0.010964 -0.923785
v -0.000000 1.500000 -0.002000
vn -0.382754 0.010964 -0.923785
v -0.000000 -0.010000 -0.020000
vn -0.382754 0.010964 -0.923785
v -0.000000 1.500000 -0.002000
vn -0.000030 1.000000 -0.000000
v 0.001414 1.500000 -0.001415
vn -0.000030 1.000000 -0.000000
v -0.000000 1.500000 -0.000000
vn -0.000030 1.000000 -0.000000
v -0.001415 1.500000 -0.001415
vn -0.000030 1.000000 -0.000000
v -0.000000 1.500000 0.002000
vn -0.000030 1.000000 -0.000000
v -0.001415 1.500000 0.001414
vn -0.000030 1.000000 -0.000000
v 0.014142 -0.010000 -0.014142
vn -0.000031 -1.000000 -0.000122
v -0.000000 -0.010000 -0.020000
vn -0.000031 -1.000000 -0.000122
v -0.000000 -0.010000 -0.000000
vn -0.000031 -1.000000 -0.000122
v -0.014142 -0.010000 -0.014142
vn -0.000031 -1.000000 -0.000122
v 0.020000 -0.010000 -0.000000
vn -0.000031 -1.000000 -0.000122
v -0.020000 -0.010000 -0.000000
vn -0.000031 -1.000000 -0.000122
v 0.014142 -0.010000 0.014142
vn -0.000031 -1.000000 -0.000122
v -0.014142 -0.010000 0.014142
vn -0.000031 -1.000000 -0.000122
v -0.000000 -0.010000 0.020000
vn -0.000031 -1.000000 -0.000122
v -0.002000 1.500000 -0.000000
vn -0.000030 1.000000 0.000244
v -0.001415 1.500000 -0.001415
vn -0.000030 1.000000 0.000244
v -0.000000 1.500000 -0.000000
vn -0.000030 1.000000 0.000244
v -0.001415 1.500000 0.001414
vn -0.000000 1.000000 -0.000275
v -0.002000 1.500000 -0.000000
vn -0.000000 1.000000 -0.000275
v -0.000000 1.500000 -0.000000
vn -0.000000 1.000000 -0.000275
v 0.001414 1.500000 0.001414
vn -0.000000 1.000000 -0.000275
v -0.000000 1.500000 0.002000
vn -0.000000 1.000000 -0.000275
v 0.002000 1.500000 -0.000000
vn -0.000030 1.000000 -0.000000
v 0.001414 1.500000 0.001414
vn -0.000030 1.000000 -0.000000
f 3//3 2//2 1//1
f 4//4 2//2 3//3
f 7//7 6//6 5//5
f 8//8 6//6 7//7
f 11//11 10//10 9//9
f 12//12 10//10 11//11
f 15//15 14//14 13//13
f 16//16 14//14 15//15
f 19//19 18//18 17//17
f 20//20 18//18 19//19
f 23//23 22//22 21//21
f 24//24 22//22 23//23
f 27//27 26//26 25//25
f 28//28 26//26 27//27
f 31//31 30//30 29//29
f 32//32 30//30 31//31
f 35//35 34//34 33//33
f 35//35 33//33 36//36
f 35//35 38//38 37//37
f 41//41 40//40 39//39
f 41//41 42//42 40//40
f 41//41 39//39 43//43
f 41//41 44//44 42//42
f 41//41 43//43 45//45
f 41//41 46//46 44//44
f 41//41 45//45 47//47
f 41//41 47//47 46//46
f 50//50 49//49 48//48
f 53//53 52//52 51//51
f 53//53 55//55 54//54
f 35//35 57//57 56//56
f 35//35 56//56 34//34
