# Exported from Godot Engine
o MS_Tree_Damaged_LOD2
v 0.031925 -0.049998 0.169211
vt 0.906477 0.573991
vn -0.146441 0.273784 0.950577
v -0.105728 -0.050339 0.172134
vt 0.816191 0.570664
vn -0.172040 0.394178 0.902788
v -0.041144 0.016576 0.155952
vt 0.852529 0.621288
vn -0.074522 0.155664 0.984995
v -0.184332 -0.051218 0.151640
vt 0.776372 0.566639
vn -0.473849 0.550164 0.687594
v -0.123234 0.012749 0.134193
vt 0.804088 0.613724
vn -0.435543 0.322468 0.840427
v -0.098078 0.107300 0.142446
vt 0.812175 0.683146
vn -0.370945 0.028297 0.928224
v 0.054026 0.006609 0.156345
vt 0.925030 0.613395
vn 0.108183 0.313759 0.943319
v 0.096904 -0.049104 0.197826
vt 0.946003 0.572979
vn 0.151388 0.627891 0.763436
v 0.122803 -0.017334 0.146117
vt 0.963204 0.602419
vn 0.391528 0.600942 0.696832
v 0.079755 0.036062 0.136904
vt 0.940915 0.637061
vn 0.550599 0.338669 0.762983
v 0.046278 0.114028 0.144680
vt 0.915998 0.700178
vn 0.478684 0.131678 0.868057
v -0.050856 0.156023 0.153640
vt 0.841150 0.719393
vn -0.070225 0.028682 0.997119
v 0.077354 0.120508 0.095694
vt 0.955205 0.704979
vn 0.776508 0.202572 0.596657
v 0.108931 0.046893 0.098030
vt 0.963961 0.652871
vn 0.547134 0.503531 0.668656
v 0.042151 0.204332 0.138232
vt 0.911456 0.756565
vn 0.563651 0.063095 0.823600
v -0.086627 0.200871 0.143201
vt 0.809297 0.744539
vn -0.372707 0.066669 0.925551
v -0.134118 0.210284 0.114310
vt 0.765692 0.763233
vn -0.634903 0.127492 0.762000
v -0.124532 0.241950 0.110405
vt 0.774230 0.777680
vn -0.626347 0.187787 0.756588
v -0.155511 0.254199 0.083280
vt 0.762269 0.790831
vn -0.755143 0.356664 0.550046
v -0.021886 0.311555 0.148660
vt 0.860428 0.821115
vn 0.153260 0.054477 0.986683
v 0.013823 0.231920 0.145023
vt 0.891183 0.777804
vn 0.263782 0.065783 0.962337
v 0.069007 0.371881 0.094206
vt 0.924242 0.832390
vn 0.799761 0.029188 0.599608
v -0.229346 -0.049088 0.093001
vt 0.261941 0.754169
vn -0.818320 0.517648 0.249786
v -0.180150 0.005137 0.099248
vt 0.219684 0.770038
vn -0.563520 0.643072 0.518559
v -0.184332 -0.051218 0.151640
vt 0.269853 0.797043
vn -0.473849 0.550164 0.687594
v -0.123234 0.012749 0.134193
vt 0.204244 0.814572
vn -0.435543 0.322468 0.840427
v -0.180259 0.027822 0.066817
vt 0.199096 0.749114
vn -0.855678 0.347351 0.383618
v -0.134118 0.210284 0.114310
vt 0.078071 0.810576
vn -0.634903 0.127492 0.762000
v -0.098078 0.107300 0.142446
vt 0.158542 0.827405
vn -0.370945 0.028297 0.928224
v -0.155511 0.254199 0.083280
vt 0.047587 0.796808
vn -0.755143 0.356664 0.550046
v -0.196969 0.006839 0.021529
vt 0.214490 0.713631
vn -0.938346 0.283800 -0.197395
v -0.213162 -0.050566 0.014122
vt 0.249519 0.696533
vn -0.892605 0.297488 -0.338757
v -0.179371 0.098497 0.027093
vt 0.147067 0.731962
vn -0.984496 0.136885 0.109685
v -0.155461 0.002227 -0.054826
vt 0.188662 0.651927
vn -0.757218 0.208382 -0.619030
v -0.165237 -0.050760 -0.072205
vt 0.225578 0.633430
vn -0.744023 0.347258 -0.570825
v -0.165929 0.186673 -0.016831
vt 0.075370 0.708024
vn -0.911843 0.089285 -0.400712
v -0.151488 0.172328 -0.054248
vt 0.097359 0.683242
vn -0.759580 0.076478 -0.645903
v -0.168853 0.243841 0.036167
vt 0.045861 0.758740
vn -0.979800 0.192886 0.052789
v -0.150706 0.285284 0.058402
vt 0.007932 0.774841
vn -0.928977 0.196151 0.313890
v -0.157711 0.268005 -0.012259
vt 0.037831 0.724225
vn -0.935721 0.097093 -0.339115
v -0.129706 0.158541 -0.054939
vt 0.081814 0.668005
vn -0.657213 0.059079 -0.751386
v -0.021886 0.311555 0.148660
vt 0.692839 0.478971
vn 0.153260 0.054477 0.986683
v -0.086627 0.200871 0.143201
vt 0.724331 0.428099
vn -0.372707 0.066669 0.925551
v -0.078816 0.559244 0.136021
vt 0.521958 0.451752
vn -0.448355 0.030379 0.893339
v -0.124532 0.241950 0.110405
vt 0.714741 0.404879
vn -0.626347 0.187787 0.756588
v -0.150706 0.285284 0.058402
vt 0.699765 0.371942
vn -0.928977 0.196151 0.313890
v 0.031419 0.752712 0.131400
vt 0.386948 0.536303
vn 0.407994 -0.009113 0.912939
v 0.069007 0.371881 0.094206
vt 0.650756 0.548129
vn 0.799761 0.029188 0.599608
v 0.013823 0.231920 0.145023
vt 0.714222 0.510769
vn 0.263782 0.065783 0.962337
v -0.146653 0.714822 0.043890
vt 0.382552 0.388357
vn -0.984254 -0.005822 0.176662
v -0.157711 0.268005 -0.012259
vt 0.708824 0.323062
vn -0.935721 0.097093 -0.339115
v -0.123075 0.672365 -0.040029
vt 0.429181 0.325424
vn -0.804696 0.016273 -0.593464
v -0.129706 0.158541 -0.054939
vt 0.746194 0.290385
vn -0.657213 0.059079 -0.751386
v -0.061213 0.615508 -0.082938
vt 0.468316 0.260181
vn -0.418830 0.029166 -0.907596
v -0.098379 0.218048 -0.070210
vt 0.740179 0.259524
vn -0.520596 0.147360 -0.840990
v -0.052761 0.210831 -0.102548
vt 0.730152 0.227342
vn -0.292638 0.295883 -0.909294
v -0.013363 0.925692 -0.083851
vt 0.310356 0.239337
vn 0.133680 -0.051300 -0.989696
v 0.054272 0.291171 -0.083930
vt 0.672796 0.158940
vn 0.641543 0.127713 -0.756381
v 0.043424 0.971053 -0.064291
vt 0.304908 0.225333
vn 0.670277 -0.044327 -0.740786
v 0.070558 0.597758 -0.050237
vt 0.460920 0.159449
vn 0.850233 0.023536 -0.525880
v 0.088130 0.838161 0.000518
vt 0.308963 0.157629
vn 0.970589 0.007027 -0.240640
v 0.097483 0.296612 0.001274
vt 0.656817 0.084622
vn 0.981478 0.130930 -0.139854
v 0.075602 0.244785 -0.070455
vt 0.693506 0.129609
vn 0.849165 0.219027 -0.480568
v 0.108289 0.210714 -0.012671
vt 0.718334 0.090006
vn 0.928811 0.237804 -0.284182
v 0.109782 0.225590 0.020029
vt 0.710993 0.065720
vn 0.970382 0.144987 0.193230
v 0.069007 0.371881 0.094206
vt 0.606870 0.035897
vn 0.799761 0.029188 0.599608
v 0.085949 0.851945 0.066706
vt 0.277659 0.113735
vn 0.956105 -0.029803 0.291504
v 0.056096 0.831666 0.109011
vt 0.282466 0.087836
vn 0.719120 -0.018201 0.694648
v 0.031419 0.752712 0.131400
vt 0.534270 0.043291
vn 0.407994 -0.009113 0.912939
v 0.042151 0.204332 0.138232
vt 0.703222 0.002796
vn 0.563651 0.063095 0.823600
v 0.077354 0.120508 0.095694
vt 0.730358 0.015824
vn 0.776508 0.202572 0.596657
v 0.108094 0.169070 0.056919
vt 0.735416 0.055857
vn 0.685873 0.360159 0.632347
v -0.150706 0.285284 0.058402
vt 0.016048 0.791415
vn -0.928977 0.196151 0.313890
v -0.124532 0.241950 0.110405
vt 0.046915 0.812637
vn -0.626347 0.187787 0.756588
v 0.031419 0.752712 0.131400
vt 0.224767 0.629053
vn 0.407994 -0.009113 0.912939
v -0.078816 0.559244 0.136021
vt 0.247523 0.638342
vn -0.448355 0.030379 0.893339
v -0.014948 0.953856 0.141223
vt 0.215352 0.530988
vn 0.066575 -0.018722 0.997606
v -0.102038 1.001751 0.121196
vt 0.276529 0.494444
vn -0.616407 -0.021417 0.787137
v -0.132140 1.033427 0.076205
vt 0.305771 0.476499
vn -0.928039 -0.030041 0.371269
v -0.136467 1.108016 0.078517
vt 0.309934 0.426671
vn -0.909541 -0.029516 0.414565
v -0.065401 1.038471 0.141771
vt 0.243752 0.469424
vn -0.281921 -0.012415 0.959357
v -0.093141 1.155006 0.135707
vt 0.262047 0.387704
vn -0.466427 -0.002209 0.884557
v -0.133483 1.187118 0.081994
vt 0.307966 0.362205
vn -0.909609 -0.036630 0.413847
v -0.117303 1.209733 0.103339
vt 0.285695 0.348012
vn -0.718921 -0.009842 0.695022
v 0.017580 1.068691 0.137528
vt 0.191429 0.449602
vn 0.383851 0.023695 0.923091
v -0.072212 1.243921 0.136623
vt 0.247658 0.329732
vn -0.249728 0.008365 0.968280
v -0.119771 1.292789 0.112415
vt 0.278808 0.292091
vn -0.662470 -0.011836 0.748995
v -0.148959 1.281870 0.074670
vt 0.301825 0.306670
vn -0.943438 -0.038229 0.329336
v -0.088371 1.384085 0.131826
vt 0.248866 0.220634
vn -0.386814 0.037095 0.921411
v 0.066459 0.904131 0.108550
vt 0.155136 0.568524
vn 0.729065 0.003568 0.684435
v 0.024917 0.883580 0.131676
vt 0.189766 0.581191
vn 0.395158 0.026393 0.918234
v 0.056096 0.831666 0.109011
vt 0.170080 0.623422
vn 0.719120 -0.018201 0.694648
v 0.085949 0.851945 0.066706
vt 0.119005 0.610760
vn 0.956105 -0.029803 0.291504
v 0.088941 0.955526 0.047403
vt 0.105157 0.535018
vn 0.990157 0.070070 0.121158
v 0.088130 0.838161 0.000518
vt 0.070874 0.601483
vn 0.970589 0.007027 -0.240640
v 0.078593 1.008092 0.079588
vt 0.133031 0.494411
vn 0.908004 0.047364 0.416276
v 0.086958 0.958511 -0.000835
vt 0.073461 0.531446
vn 0.957573 0.014107 -0.287845
v 0.043424 0.971053 -0.064291
vt 0.022638 0.515088
vn 0.670277 -0.044327 -0.740786
v 0.075274 1.148805 -0.034854
vt 0.050574 0.398854
vn 0.879412 0.005024 -0.476035
v 0.023128 1.083276 -0.082629
vt 0.012020 0.423060
vn 0.417331 0.028304 -0.908314
v 0.027372 1.193487 -0.079598
vt 0.020296 0.350242
vn 0.427277 -0.020125 -0.903897
v 0.046515 1.490654 -0.059119
vt 0.019997 0.167825
vn 0.685643 0.010517 -0.727862
v 0.085618 1.177991 0.035296
vt 0.101373 0.378146
vn 0.993778 -0.004011 0.111307
v 0.061211 1.203919 0.093152
vt 0.141692 0.358519
vn 0.805795 -0.003014 0.592187
v 0.089465 1.270223 0.047674
vt 0.103302 0.313088
vn 0.977137 0.010677 0.212342
v 0.085481 1.355038 0.011807
vt 0.082534 0.253556
vn 0.995885 0.043016 -0.079767
v 0.083096 1.453234 -0.010330
vt 0.061903 0.185767
vn 0.944157 -0.023902 -0.328629
v 0.073062 1.613564 -0.016744
vt 0.040323 0.095196
vn 0.931907 0.020133 -0.362139
v 0.075261 1.528661 0.059975
vt 0.107542 0.132618
vn 0.949171 0.029998 0.313327
v 0.055801 1.361421 0.098739
vt 0.145340 0.252750
vn 0.795802 0.041595 0.604127
v 0.018142 1.262726 0.132817
vt 0.177594 0.313713
vn 0.376382 0.021477 0.926216
v 0.063085 1.425312 0.085756
vt 0.133414 0.204518
vn 0.842153 -0.005014 0.539216
v 0.017012 1.418307 0.126342
vt 0.171420 0.210467
vn 0.375253 0.007976 0.926888
v 0.034568 1.553065 0.116662
vt 0.157564 0.107323
vn 0.445888 0.047478 0.893829
v 0.051486 1.616396 0.095446
vt 0.134164 0.067812
vn 0.651385 0.156383 0.742456
v 0.070778 1.657105 0.074545
vt 0.107010 0.042649
vn 0.957881 0.052489 0.282328
v -0.022679 1.566927 0.136132
vt 0.206121 0.101755
vn 0.213640 0.344147 0.914287
v 0.073062 1.613564 -0.016744
vt 0.038286 0.065063
vn 0.931907 0.020133 -0.362139
v 0.080689 1.686056 0.029880
vt 0.078794 0.024599
vn 0.876562 0.453984 0.159803
v 0.058882 1.693154 0.051052
vt 0.105903 0.015757
vn -0.067928 0.850185 0.522083
v 0.075428 1.694439 -0.016843
vt 0.043164 0.022862
vn 0.848289 -0.025514 -0.528918
v -0.101241 1.503668 0.117439
vt 0.257404 0.149211
vn -0.681912 0.317385 0.658987
v -0.130896 1.475381 0.083647
vt 0.286744 0.181313
vn -0.868716 0.260863 0.421049
v -0.078717 1.552343 0.130213
vt 0.248066 0.115773
vn -0.090319 -0.056504 0.994309
v -0.061878 1.584653 0.119621
vt 0.232063 0.085359
vn -0.491437 0.258061 0.831802
v -0.029474 1.604510 0.115458
vt 0.208816 0.086374
vn 0.362273 0.253464 0.896947
v -0.078816 0.559244 0.136021
vt 0.287134 0.649379
vn -0.448355 0.030379 0.893339
v -0.146653 0.714822 0.043890
vt 0.299031 0.625803
vn -0.984254 -0.005822 0.176662
v -0.146653 0.714822 0.043890
vt 0.808276 0.554317
vn -0.984254 -0.005822 0.176662
v -0.132140 1.033427 0.076205
vt 0.779316 0.389359
vn -0.928039 -0.030041 0.371269
v -0.102038 1.001751 0.121196
vt 0.760054 0.495328
vn -0.616407 -0.021417 0.787137
v -0.146998 1.067417 -0.000254
vt 0.832975 0.356956
vn -0.982071 -0.004878 -0.188447
v -0.136467 1.108016 0.078517
vt 0.771715 0.336944
vn -0.909541 -0.029516 0.414565
v -0.123075 0.672365 -0.040029
vt 0.872020 0.529299
vn -0.804696 0.016273 -0.593464
v -0.146599 1.194064 0.001577
vt 0.818140 0.268875
vn -0.985328 -0.041894 -0.165447
v -0.118224 1.120836 -0.048484
vt 0.864356 0.319389
vn -0.714940 0.002594 -0.699181
v -0.061213 0.615508 -0.082938
vt 0.921228 0.519982
vn -0.418830 0.029166 -0.907596
v -0.133483 1.187118 0.081994
vt 0.772508 0.272216
vn -0.909609 -0.036630 0.413847
v -0.059785 1.178767 -0.084864
vt 0.915141 0.274691
vn -0.272352 -0.036880 -0.961491
v -0.013363 0.925692 -0.083851
vt 0.956904 0.446831
vn 0.133680 -0.051300 -0.989696
v -0.131147 1.236309 -0.035688
vt 0.849101 0.237016
vn -0.786142 -0.116169 -0.607030
v -0.148959 1.281870 0.074670
vt 0.772648 0.208313
vn -0.943438 -0.038229 0.329336
v -0.117303 1.209733 0.103339
vt 0.764391 0.233122
vn -0.718921 -0.009842 0.695022
v -0.142842 1.322042 -0.037704
vt 0.844276 0.179470
vn -0.873720 -0.027166 -0.485670
v -0.006780 0.961629 -0.095896
vt 0.964140 0.422940
vn -0.025280 -0.196882 -0.980101
v 0.043424 0.971053 -0.064291
vt 0.991148 0.413779
vn 0.670277 -0.044327 -0.740786
v 0.023128 1.083276 -0.082629
vt 0.971165 0.337181
vn 0.417331 0.028304 -0.908314
v 0.027372 1.193487 -0.079598
vt 0.977419 0.265809
vn 0.427277 -0.020125 -0.903897
v -0.100513 1.251058 -0.072158
vt 0.884870 0.229340
vn -0.557443 -0.110460 -0.822834
v -0.036963 1.232674 -0.092446
vt 0.932542 0.236388
vn -0.068984 -0.064573 -0.995526
v -0.004672 1.281451 -0.091267
vt 0.950907 0.203427
vn 0.211639 0.015101 -0.977231
v 0.046515 1.490654 -0.059119
vt 0.979666 0.067053
vn 0.685643 0.010517 -0.727862
v 0.003865 1.534141 -0.085399
vt 0.952498 0.025999
vn 0.310347 0.011533 -0.950553
v -0.076783 1.389699 -0.087107
vt 0.897785 0.131251
vn -0.326088 0.000000 -0.945340
v -0.048655 1.545768 -0.089956
vt 0.914893 0.018864
vn -0.097116 0.037991 -0.994548
v -0.118226 1.560603 -0.069476
vt 0.864054 0.015151
vn -0.563522 0.083090 -0.821912
v -0.094646 1.599679 -0.065906
vt 0.884161 0.003923
vn -0.478938 0.116269 -0.870115
v -0.145492 1.418519 -0.033290
vt 0.839033 0.110814
vn -0.871236 -0.022857 -0.490332
v -0.148912 1.537081 -0.012262
vt 0.818674 0.030839
vn -0.913656 -0.007984 -0.406409
v -0.157724 1.526181 0.019334
vt 0.795774 0.031964
vn -0.974038 0.000000 -0.226383
v -0.158240 1.427267 0.046276
vt 0.785212 0.111796
vn -0.965411 0.047270 0.256414
v -0.119771 1.292789 0.112415
vt 0.749724 0.194526
vn -0.662470 -0.011836 0.748995
v -0.088371 1.384085 0.131826
vt 0.735879 0.118586
vn -0.386814 0.037095 0.921411
v -0.130896 1.475381 0.083647
vt 0.749661 0.077409
vn -0.868716 0.260863 0.421049
v -0.119207 1.508409 0.051268
vt 0.761677 0.055891
vn -0.794112 0.381471 0.473146
v -0.157724 1.526181 0.019334
vt 0.795774 0.031964
vn -0.274919 0.741012 0.612635
v -0.087146 1.521452 0.104337
vt 0.698153 0.956043
vn -0.870955 0.473077 0.132799
v -0.061878 1.584653 0.119621
vt 0.652806 0.956032
vn -0.491437 0.258061 0.831802
v -0.078717 1.552343 0.130213
vt 0.668607 0.969780
vn -0.886238 0.414666 -0.206482
v -0.101241 1.503668 0.117439
vt 0.692818 0.978700
vn -0.681912 0.317385 0.658987
v -0.065170 1.731262 0.103291
vt 0.562650 0.896609
vn -0.419504 0.317759 0.850321
v -0.029474 1.604510 0.115458
vt 0.629289 0.967077
vn 0.362273 0.253464 0.896947
v -0.090304 1.708344 0.087753
vt 0.588069 0.883845
vn -0.663800 0.154884 0.731697
v -0.119207 1.508409 0.051268
vt 0.726486 0.925196
vn -0.794112 0.381471 0.473146
v -0.101241 1.503668 0.117439
vt 0.720484 0.970485
vn -0.681912 0.317385 0.658987
v -0.130896 1.475381 0.083647
vt 0.745498 0.946004
vn -0.868716 0.260863 0.421049
v -0.117319 1.747743 0.056946
vt 0.584177 0.846960
vn -0.780000 0.187474 0.597038
v -0.119176 1.677356 -0.004173
vt 0.644979 0.832865
vn -0.867006 -0.129637 0.481139
v -0.123065 1.727744 -0.000090
vt 0.600944 0.827679
vn -0.987725 -0.086836 0.129841
v -0.116270 1.539001 0.000623
vt 0.721412 0.883940
vn -0.749961 0.465469 0.469996
v -0.157724 1.526181 0.019334
vt 0.752240 0.892517
vn -0.274919 0.741012 0.612635
v -0.148912 1.537081 -0.012262
vt 0.735989 0.868079
vn -0.326218 0.667078 0.669768
v -0.133071 1.611164 -0.027289
vt 0.690579 0.840595
vn -0.725549 0.104802 0.680143
v -0.141835 1.689909 -0.017398
vt 0.647072 0.817330
vn -0.617951 -0.406347 0.673067
v -0.147633 1.610134 -0.038027
vt 0.704683 0.822849
vn -0.582602 0.279360 0.763238
v -0.022679 1.566927 0.136132
vt 0.161513 0.904227
vn 0.213640 0.344147 0.914287
v 0.008135 1.562579 0.094065
vt 0.150739 0.925128
vn 0.577301 0.658285 0.483099
v 0.034568 1.553065 0.116662
vt 0.159233 0.940053
vn 0.264595 0.959703 0.094652
v -0.029474 1.604510 0.115458
vt 0.138259 0.887486
vn 0.362273 0.253464 0.896947
v 0.031669 1.659004 0.052786
vt 0.069236 0.926485
vn 0.841136 0.113759 0.528724
v -0.034728 1.763059 0.099290
vt 0.030887 0.824000
vn 0.205686 0.305967 0.929558
v -0.065170 1.731262 0.103291
vt 0.061603 0.825966
vn -0.419504 0.317759 0.850321
v -0.009295 1.771652 0.075773
vt 0.023371 0.844372
vn 0.703090 0.112384 0.702164
v 0.025292 1.744686 0.036803
vt 0.014057 0.898539
vn 0.908556 0.140965 0.393262
v 0.022906 1.678880 -0.018195
vt 0.040358 0.937179
vn 0.992751 0.053815 -0.107471
v -0.090304 1.708344 0.087753
vt 0.766133 0.866946
vn -0.663800 0.154884 0.731697
v -0.117319 1.747743 0.056946
vt 0.790074 0.874115
vn -0.780000 0.187474 0.597038
v -0.070915 1.763979 0.064316
vt 0.773149 0.843100
vn -0.505938 0.523681 0.685409
v -0.065170 1.731262 0.103291
vt 0.754454 0.853998
vn -0.419504 0.317759 0.850321
v -0.065170 1.731262 0.103291
vt 0.365418 0.880462
vn -0.419504 0.317759 0.850321
v -0.070915 1.763979 0.064316
vt 0.392354 0.896709
vn -0.505938 0.523681 0.685409
v -0.034728 1.763059 0.099290
vt 0.381216 0.861992
vn 0.205686 0.305967 0.929558
v -0.034728 1.763059 0.099290
vt 0.381216 0.861992
vn -0.134637 0.968607 -0.208983
v -0.024820 1.750870 0.036433
vt 0.428831 0.880457
vn 0.182435 0.951201 -0.248865
v -0.009295 1.771652 0.075773
vt 0.397477 0.847644
vn -0.302021 0.886956 -0.349416
v -0.070915 1.763979 0.064316
vt 0.392354 0.896709
vn 0.395958 0.886979 0.237668
v 0.025292 1.744686 0.036803
vt 0.439349 0.845161
vn 0.094644 0.725622 -0.681554
v 0.022906 1.678880 -0.018195
vt 0.493295 0.856749
vn 0.084304 0.637206 -0.766069
v -0.070915 1.763979 0.064316
vt 0.153081 0.053161
vn -0.970982 0.183364 -0.153528
v -0.065883 1.757545 0.024809
vt 0.179168 0.059864
vn -0.863820 0.094975 -0.494768
v -0.055557 1.804687 0.015831
vt 0.187212 0.025063
vn -0.886043 0.108176 -0.450805
v -0.046099 1.750477 0.008953
vt 0.197873 0.059830
vn -0.627666 -0.010679 -0.778410
v -0.024820 1.750870 0.036433
vt 0.216289 0.060064
vn 0.182435 0.951201 -0.248865
v -0.070915 1.763979 0.064316
vt 0.244217 0.043709
vn 0.395958 0.886979 0.237668
v -0.055557 1.804687 0.015831
vt 0.203731 0.024853
vn 0.540876 0.551895 0.634717
v -0.117319 1.747743 0.056946
vt 0.790074 0.874115
vn -0.327818 0.912013 -0.246510
v -0.123065 1.727744 -0.000090
vt 0.831733 0.880358
vn -0.345315 0.895934 -0.279393
v -0.065883 1.757545 0.024809
vt 0.801918 0.838171
vn -0.322049 0.916911 -0.235708
v -0.070915 1.763979 0.064316
vt 0.773149 0.843100
vn -0.297238 0.935667 -0.190204
v -0.046099 1.750477 0.008953
vt 0.197873 0.059830
vn 0.771469 0.210822 -0.600324
v -0.024820 1.750870 0.036433
vt 0.216289 0.060064
vn 0.771469 0.210822 -0.600324
v -0.055557 1.804687 0.015831
vt 0.187212 0.025063
vn 0.771469 0.210822 -0.600324
v 0.096904 -0.049104 0.197826
vt 0.766884 0.690976
vn 0.151388 0.627891 0.763436
v 0.122803 -0.017334 0.146117
vt 0.743271 0.695286
vn 0.391528 0.600942 0.696832
v 0.163413 -0.049577 0.148155
vt 0.751550 0.730304
vn 0.533033 0.454738 0.713505
v 0.178751 -0.016495 0.120278
vt 0.718426 0.730129
vn 0.655804 0.452595 0.604218
v 0.240851 -0.048494 0.037233
vt 0.677389 0.793723
vn 0.873004 0.466776 0.141369
v 0.079755 0.036062 0.136904
vt 0.730260 0.668758
vn 0.550599 0.338669 0.762983
v 0.108931 0.046893 0.098030
vt 0.693173 0.668148
vn 0.547134 0.503531 0.668656
v 0.144376 0.047609 0.080335
vt 0.673606 0.690447
vn 0.547176 0.615597 0.567132
v 0.224672 -0.020000 0.032123
vt 0.664456 0.776227
vn 0.745508 0.657899 0.106712
v 0.219370 -0.050709 -0.072297
vt 0.603822 0.813682
vn 0.716090 0.620615 -0.319456
v 0.189695 -0.013657 0.072039
vt 0.685463 0.744923
vn 0.643376 0.740103 0.195743
v 0.192598 0.008953 -0.000885
vt 0.633524 0.756166
vn 0.819209 0.571015 -0.053282
v 0.176060 0.025950 0.052087
vt 0.660238 0.722953
vn 0.823623 0.529005 0.204450
v 0.125669 0.094247 0.049656
vt 0.636377 0.664477
vn 0.821274 0.391176 0.415319
v 0.077354 0.120508 0.095694
vt 0.649689 0.620824
vn 0.776508 0.202572 0.596657
v 0.108094 0.169070 0.056919
vt 0.613463 0.615316
vn 0.685873 0.360159 0.632347
v 0.125140 0.150413 -0.022604
vt 0.569897 0.660883
vn 0.945135 0.276312 -0.174276
v 0.109782 0.225590 0.020029
vt 0.573728 0.591461
vn 0.970382 0.144987 0.193230
v 0.108289 0.210714 -0.012671
vt 0.554529 0.618900
vn 0.928811 0.237804 -0.284182
v 0.094100 0.154712 -0.078589
vt 0.513322 0.663628
vn 0.723839 0.186920 -0.664168
v 0.075602 0.244785 -0.070455
vt 0.506948 0.604689
vn 0.849165 0.219027 -0.480568
v 0.054272 0.291171 -0.083930
vt 0.481375 0.571759
vn 0.641543 0.127713 -0.756381
v 0.041729 0.272040 -0.108267
vt 0.473873 0.592473
vn 0.607477 0.156448 -0.778779
v 0.025719 0.140139 -0.117968
vt 0.459422 0.677314
vn 0.245340 0.133417 -0.960213
v 0.000320 0.219782 -0.106149
vt 0.441241 0.618893
vn -0.107710 0.238755 -0.965088
v -0.060444 0.183149 -0.114159
vt 0.393910 0.649761
vn -0.315600 0.240175 -0.917994
v -0.052761 0.210831 -0.102548
vt 0.397081 0.615576
vn -0.292638 0.295883 -0.909294
v -0.098379 0.218048 -0.070210
vt 0.376736 0.603050
vn -0.520596 0.147360 -0.840990
v -0.151488 0.172328 -0.054248
vt 0.325854 0.647529
vn -0.759580 0.076478 -0.645903
v -0.107107 0.026625 -0.086545
vt 0.338501 0.742519
vn -0.607479 0.202140 -0.768185
v -0.155461 0.002227 -0.054826
vt 0.301397 0.746160
vn -0.757218 0.208382 -0.619030
v -0.165237 -0.050760 -0.072205
vt 0.290950 0.786799
vn -0.744023 0.347258 -0.570825
v -0.097683 -0.052729 -0.147315
vt 0.354111 0.805696
vn -0.609353 0.445216 -0.656104
v -0.036137 0.031667 -0.140831
vt 0.402749 0.751655
vn -0.282651 0.375911 -0.882496
v -0.042608 -0.049582 -0.193827
vt 0.404658 0.818689
vn -0.306139 0.475361 -0.824810
v -0.016826 -0.012463 -0.176871
vt 0.420521 0.789927
vn -0.004426 0.527010 -0.849847
v 0.044693 0.035824 -0.128771
vt 0.467596 0.748529
vn 0.185731 0.412756 -0.891704
v 0.035524 -0.049301 -0.186137
vt 0.452620 0.819795
vn 0.160333 0.463022 -0.871725
v 0.137676 0.027629 -0.122718
vt 0.532211 0.767284
vn 0.519455 0.503142 -0.690663
v 0.106980 0.088729 -0.086367
vt 0.529105 0.712280
vn 0.464550 0.471753 -0.749428
v 0.144278 0.096740 -0.032346
vt 0.576624 0.700420
vn 0.854549 0.503915 -0.125764
v 0.142800 0.068172 -0.093411
vt 0.550288 0.738873
vn 0.553957 0.579528 -0.597729
v 0.176073 0.047348 -0.049289
vt 0.587506 0.739119
vn 0.914338 0.346439 -0.209681
v 0.164910 -0.007763 -0.078873
vt 0.576911 0.780465
vn 0.811298 0.487739 -0.322347
v 0.146963 -0.003926 -0.146974
vt 0.532950 0.799910
vn 0.510462 0.466536 -0.722338
v 0.152352 -0.050358 -0.151472
vt 0.535118 0.823467
vn 0.549055 0.143509 -0.823374
v -0.014948 0.953856 0.141223
vt 0.326119 0.521671
vn 0.066575 -0.018722 0.997606
v 0.024917 0.883580 0.131676
vt 0.328707 0.538733
vn 0.395158 0.026393 0.918234
v 0.056096 0.831666 0.109011
vt 0.332537 0.560858
vn 0.719120 -0.018201 0.694648
v 0.034568 1.553065 0.116662
vt 0.159233 0.940053
vn 0.445888 0.047478 0.893829
v 0.008135 1.562579 0.094065
vt 0.150739 0.925128
vn -0.751330 0.129064 0.647183
v 0.024370 1.651954 0.095083
vt 0.090033 0.929659
vn -0.288922 0.798732 0.527780
v 0.031669 1.659004 0.052786
vt 0.069236 0.926485
vn -0.974162 0.178482 -0.138392
v 0.034568 1.553065 0.116662
vt 0.137632 0.962019
vn 0.445888 0.047478 0.893829
v 0.051486 1.616396 0.095446
vt 0.109475 0.965786
vn 0.651385 0.156383 0.742456
v 0.024370 1.651954 0.095083
vt 0.151664 0.039908
vn -0.288922 0.798732 0.527780
v 0.031669 1.659004 0.052786
vt 0.131615 0.021018
vn 0.772357 0.591362 0.231856
v 0.051486 1.616396 0.095446
vt 0.134164 0.067812
vn -0.382349 0.558925 0.735807
v 0.031669 1.659004 0.052786
vt 0.131615 0.021018
vn -0.581924 0.554977 0.594446
v 0.070778 1.657105 0.074545
vt 0.107010 0.042649
vn -0.405320 0.490755 0.771281
v 0.022906 1.678880 -0.018195
vt 0.040358 0.937179
vn -0.472339 0.879077 0.064175
v 0.058882 1.693154 0.051052
vt 0.055693 0.958435
vn -0.067928 0.850185 0.522083
v 0.031669 1.659004 0.052786
vt 0.069236 0.926485
vn -0.581924 0.554977 0.594446
v 0.075428 1.694439 -0.016843
vt 0.030771 0.970694
vn -0.136931 0.990473 -0.014585
v 0.080689 1.686056 0.029880
vt 0.049584 0.972143
vn 0.876562 0.453984 0.159803
v -0.151488 0.172328 -0.054248
vt 0.097359 0.683242
vn 0.528393 0.840708 -0.118367
v -0.129706 0.158541 -0.054939
vt 0.081814 0.668005
vn 0.528393 0.840708 -0.118367
v -0.165929 0.186673 -0.016831
vt 0.075370 0.708024
vn 0.528393 0.840708 -0.118367
v -0.129706 0.158541 -0.054939
vt 0.081814 0.668005
vn 0.141902 0.175284 0.974238
v -0.151488 0.172328 -0.054248
vt 0.053590 0.642728
vn 0.141902 0.175284 0.974238
v -0.098379 0.218048 -0.070210
vt 0.050731 0.662611
vn 0.141902 0.175284 0.974238
v -0.119176 1.677356 -0.004173
vt 0.842038 0.924586
vn -0.867006 -0.129637 0.481139
v -0.156865 1.726108 -0.001005
vt 0.816694 0.923954
vn -0.227693 -0.237415 0.944346
v -0.123065 1.727744 -0.000090
vt 0.824936 0.941973
vn -0.023018 -0.082538 0.996322
v -0.141835 1.689909 -0.017398
vt 0.855331 0.908721
vn -0.617951 -0.406347 0.673067
v -0.156865 1.726108 -0.001005
vt 0.822493 0.904246
vn -0.227693 -0.237415 0.944346
v -0.141835 1.689909 -0.017398
vt 0.855331 0.908721
vn 0.004623 0.414130 -0.910206
v -0.123065 1.727744 -0.000090
vt 0.831733 0.880358
vn 0.004623 0.414130 -0.910206
v -0.156865 1.726108 -0.001005
vt 0.822493 0.904246
vn 0.004623 0.414130 -0.910206
v -0.108685 1.739482 -0.051487
vt 0.870505 0.864287
vn -0.830686 0.078576 -0.551168
v -0.122067 1.760532 -0.016304
vt 0.843834 0.859025
vn -0.949402 -0.115497 -0.292055
v -0.123065 1.727744 -0.000090
vt 0.831733 0.880358
vn -0.940690 0.273549 -0.200682
v -0.141835 1.689909 -0.017398
vt 0.855331 0.908721
vn -0.812423 0.157186 -0.561482
v -0.108685 1.739482 -0.051487
vt 0.701031 0.619365
vn 0.331589 0.782622 -0.526831
v -0.046099 1.750477 0.008953
vt 0.694408 0.554636
vn 0.086816 0.964073 -0.251051
v -0.074422 1.771892 -0.013353
vt 0.675088 0.585679
vn 0.675294 0.138533 -0.724421
v -0.055324 1.731256 -0.043705
vt 0.717173 0.592648
vn -0.102136 0.858218 -0.503020
v -0.076543 1.718320 -0.077884
vt 0.728664 0.614358
vn -0.182541 0.477009 -0.859733
v -0.033600 1.748757 -0.047171
vt 0.730235 0.570122
vn -0.237109 0.835481 -0.495732
v -0.018491 1.700432 -0.079621
vt 0.767934 0.594614
vn -0.045336 0.218965 -0.974679
v -0.002037 1.745233 -0.045709
vt 0.749890 0.564905
vn 0.468594 0.842372 -0.266135
v -0.024820 1.750870 0.036433
vt 0.428831 0.880457
vn 0.515792 0.851039 0.098445
v -0.046099 1.750477 0.008953
vt 0.432480 0.896304
vn 0.086816 0.964073 -0.251051
v -0.033600 1.748757 -0.047171
vt 0.455549 0.911900
vn -0.237109 0.835481 -0.495732
v -0.002037 1.745233 -0.045709
vt 0.481345 0.912877
vn 0.468594 0.842372 -0.266135
v 0.022906 1.678880 -0.018195
vt 0.493295 0.856749
vn 0.881206 0.420677 0.215653
v -0.065883 1.757545 0.024809
vt 0.801918 0.838171
vn 0.061996 0.895147 0.441438
v -0.123065 1.727744 -0.000090
vt 0.831733 0.880358
vn -0.530610 0.388662 0.753256
v -0.122067 1.760532 -0.016304
vt 0.843834 0.859025
vn -0.423622 0.889771 0.169861
v -0.074422 1.771892 -0.013353
vt 0.832241 0.833578
vn -0.084111 0.986836 0.138130
v -0.108685 1.739482 -0.051487
vt 0.870505 0.864287
vn -0.161146 0.818720 -0.551116
v -0.046099 1.750477 0.008953
vt 0.694408 0.554636
vn 0.476161 0.852879 0.214168
v -0.065883 1.757545 0.024809
vt 0.675531 0.557786
vn 0.061996 0.895147 0.441438
v -0.074422 1.771892 -0.013353
vt 0.675088 0.585679
vn -0.084111 0.986836 0.138130
v -0.148912 1.537081 -0.012262
vt 0.735989 0.868079
vn -0.913656 -0.007984 -0.406409
v -0.118226 1.560603 -0.069476
vt 0.748166 0.816859
vn -0.563522 0.083090 -0.821912
v -0.147633 1.610134 -0.038027
vt 0.704683 0.822849
vn -0.697136 0.040588 -0.715789
v -0.094646 1.599679 -0.065906
vt 0.734972 0.789736
vn -0.478938 0.116269 -0.870115
v -0.133071 1.611164 -0.027289
vt 0.189217 0.914954
vn -0.696935 0.018667 -0.716892
v -0.108685 1.739482 -0.051487
vt 0.194767 0.836391
vn -0.830686 0.078576 -0.551168
v -0.141835 1.689909 -0.017398
vt 0.168585 0.865072
vn -0.812423 0.157186 -0.561482
v -0.076543 1.718320 -0.077884
vt 0.236313 0.832605
vn -0.182541 0.477009 -0.859733
v -0.094646 1.599679 -0.065906
vt 0.227656 0.917664
vn -0.478938 0.116269 -0.870115
v -0.048655 1.545768 -0.089956
vt 0.263481 0.943163
vn -0.097116 0.037991 -0.994548
v -0.018491 1.700432 -0.079621
vt 0.272458 0.841294
vn -0.045336 0.218965 -0.974679
v 0.003865 1.534141 -0.085399
vt 0.302027 0.940814
vn 0.310347 0.011533 -0.950553
v 0.003629 1.748511 -0.081332
vt 0.285519 0.808598
vn 0.483117 0.022632 -0.875263
v 0.046515 1.490654 -0.059119
vt 0.334823 0.969784
vn 0.685643 0.010517 -0.727862
v 0.073062 1.613564 -0.016744
vt 0.342999 0.895021
vn 0.931907 0.020133 -0.362139
v 0.075428 1.694439 -0.016843
vt 0.351640 0.838325
vn 0.848289 -0.025514 -0.528918
v -0.018491 1.700432 -0.079621
vt 0.767934 0.594614
vn -0.904789 0.412456 -0.106003
v 0.003629 1.748511 -0.081332
vt 0.769140 0.557285
vn -0.904789 0.412456 -0.106003
v -0.002037 1.745233 -0.045709
vt 0.749890 0.564905
vn -0.904789 0.412456 -0.106003
v 0.000320 0.219782 -0.106149
vt 0.441241 0.618893
vn -0.782825 0.616885 -0.081478
v 0.041729 0.272040 -0.108267
vt 0.473873 0.592473
vn -0.782825 0.616885 -0.081478
v 0.054272 0.291171 -0.083930
vt 0.481375 0.571759
vn -0.782825 0.616885 -0.081478
v 0.000320 0.219782 -0.106149
vt 0.691384 0.192176
vn -0.107710 0.238755 -0.965088
v 0.022906 1.678880 -0.018195
vt 0.493295 0.856749
vn -0.124646 0.339713 0.932233
v -0.002037 1.745233 -0.045709
vt 0.481345 0.912877
vn -0.124646 0.339713 0.932233
v 0.075428 1.694439 -0.016843
vt 0.529455 0.867702
vn -0.124646 0.339713 0.932233
v 0.003629 1.748511 -0.081332
vt 0.490148 0.932193
vn 0.499690 0.851687 0.157920
v 0.075428 1.694439 -0.016843
vt 0.529455 0.867702
vn 0.499690 0.851687 0.157920
v -0.002037 1.745233 -0.045709
vt 0.481345 0.912877
vn 0.499690 0.851687 0.157920
v -0.133071 1.611164 -0.027289
vt 0.698105 0.812136
vn 0.083510 0.974820 -0.206767
v -0.147633 1.610134 -0.038027
vt 0.704683 0.822849
vn 0.083510 0.974820 -0.206767
v -0.094646 1.599679 -0.065906
vt 0.734972 0.789736
vn 0.083510 0.974820 -0.206767
f 3/3/3 2/2/2 1/1/1
f 2/2/2 5/5/5 4/4/4
f 3/3/3 5/5/5 2/2/2
f 6/6/6 5/5/5 3/3/3
f 3/3/3 1/1/1 7/7/7
f 8/8/8 7/7/7 1/1/1
f 7/7/7 8/8/8 9/9/9
f 9/9/9 10/10/10 7/7/7
f 11/11/11 3/3/3 7/7/7
f 7/7/7 10/10/10 11/11/11
f 12/12/12 6/6/6 3/3/3
f 12/12/12 3/3/3 11/11/11
f 13/13/13 11/11/11 10/10/10
f 13/13/13 10/10/10 14/14/14
f 13/13/13 15/15/15 11/11/11
f 15/15/15 12/12/12 11/11/11
f 16/16/16 6/6/6 12/12/12
f 6/6/6 16/16/16 17/17/17
f 16/16/16 18/18/18 17/17/17
f 18/18/18 19/19/19 17/17/17
f 12/12/12 20/20/20 16/16/16
f 20/20/20 12/12/12 21/21/21
f 21/21/21 12/12/12 15/15/15
f 22/22/22 21/21/21 15/15/15
f 25/25/25 24/24/24 23/23/23
f 26/26/26 24/24/24 25/25/25
f 24/24/24 27/27/27 23/23/23
f 27/27/27 24/24/24 26/26/26
f 29/29/29 28/28/28 26/26/26
f 26/26/26 28/28/28 27/27/27
f 28/28/28 30/30/30 27/27/27
f 27/27/27 31/31/31 23/23/23
f 23/23/23 31/31/31 32/32/32
f 30/30/30 33/33/33 27/27/27
f 27/27/27 33/33/33 31/31/31
f 31/31/31 34/34/34 32/32/32
f 34/34/34 35/35/35 32/32/32
f 36/36/36 34/34/34 31/31/31
f 33/33/33 36/36/36 31/31/31
f 37/37/37 34/34/34 36/36/36
f 30/30/30 38/38/38 33/33/33
f 36/36/36 33/33/33 38/38/38
f 39/39/39 38/38/38 30/30/30
f 39/39/39 40/40/40 38/38/38
f 38/38/38 40/40/40 36/36/36
f 40/40/40 41/41/41 36/36/36
f 44/44/44 43/43/43 42/42/42
f 44/44/44 45/45/45 43/43/43
f 44/44/44 46/46/46 45/45/45
f 47/47/47 44/44/44 42/42/42
f 47/47/47 42/42/42 48/48/48
f 48/48/48 42/42/42 49/49/49
f 44/44/44 50/50/50 46/46/46
f 50/50/50 51/51/51 46/46/46
f 50/50/50 52/52/52 51/51/51
f 52/52/52 53/53/53 51/51/51
f 52/52/52 54/54/54 53/53/53
f 54/54/54 55/55/55 53/53/53
f 55/55/55 54/54/54 56/56/56
f 54/54/54 57/57/57 56/56/56
f 57/57/57 58/58/58 56/56/56
f 57/57/57 59/59/59 58/58/58
f 59/59/59 60/60/60 58/58/58
f 59/59/59 61/61/61 60/60/60
f 60/60/60 62/62/62 58/58/58
f 60/60/60 61/61/61 62/62/62
f 62/62/62 63/63/63 58/58/58
f 63/63/63 62/62/62 64/64/64
f 62/62/62 65/65/65 64/64/64
f 61/61/61 66/66/66 62/62/62
f 66/66/66 65/65/65 62/62/62
f 61/61/61 67/67/67 66/66/66
f 67/67/67 68/68/68 66/66/66
f 68/68/68 69/69/69 66/66/66
f 66/66/66 70/70/70 65/65/65
f 65/65/65 70/70/70 71/71/71
f 65/65/65 71/71/71 72/72/72
f 74/74/74 73/73/73 30/30/30
f 77/77/77 76/76/76 75/75/75
f 77/77/77 78/78/78 76/76/76
f 80/80/80 79/79/79 78/78/78
f 77/77/77 81/81/81 78/78/78
f 81/81/81 80/80/80 78/78/78
f 82/82/82 80/80/80 81/81/81
f 83/83/83 80/80/80 82/82/82
f 84/84/84 83/83/83 82/82/82
f 85/85/85 82/82/82 81/81/81
f 85/85/85 81/81/81 77/77/77
f 86/86/86 84/84/84 82/82/82
f 85/85/85 86/86/86 82/82/82
f 86/86/86 87/87/87 84/84/84
f 87/87/87 88/88/88 84/84/84
f 89/89/89 87/87/87 86/86/86
f 90/90/90 85/85/85 77/77/77
f 90/90/90 77/77/77 91/91/91
f 90/90/90 91/91/91 92/92/92
f 90/90/90 92/92/92 93/93/93
f 93/93/93 94/94/94 90/90/90
f 94/94/94 93/93/93 95/95/95
f 96/96/96 85/85/85 90/90/90
f 94/94/94 96/96/96 90/90/90
f 97/97/97 94/94/94 95/95/95
f 97/97/97 96/96/96 94/94/94
f 98/98/98 97/97/97 95/95/95
f 99/99/99 97/97/97 98/98/98
f 100/100/100 99/99/99 98/98/98
f 100/100/100 101/101/101 99/99/99
f 102/102/102 99/99/99 101/101/101
f 103/103/103 96/96/96 97/97/97
f 103/103/103 97/97/97 99/99/99
f 103/103/103 104/104/104 96/96/96
f 104/104/104 85/85/85 96/96/96
f 105/105/105 103/103/103 99/99/99
f 105/105/105 104/104/104 103/103/103
f 102/102/102 106/106/106 99/99/99
f 99/99/99 106/106/106 105/105/105
f 102/102/102 107/107/107 106/106/106
f 108/108/108 107/107/107 102/102/102
f 108/108/108 109/109/109 107/107/107
f 107/107/107 109/109/109 106/106/106
f 110/110/110 104/104/104 105/105/105
f 106/106/106 110/110/110 105/105/105
f 104/104/104 111/111/111 85/85/85
f 104/104/104 110/110/110 111/111/111
f 111/111/111 86/86/86 85/85/85
f 111/111/111 89/89/89 86/86/86
f 106/106/106 112/112/112 110/110/110
f 109/109/109 112/112/112 106/106/106
f 110/110/110 113/113/113 111/111/111
f 112/112/112 113/113/113 110/110/110
f 113/113/113 89/89/89 111/111/111
f 114/114/114 112/112/112 109/109/109
f 112/112/112 114/114/114 113/113/113
f 109/109/109 115/115/115 114/114/114
f 116/116/116 115/115/115 109/109/109
f 114/114/114 117/117/117 113/113/113
f 113/113/113 117/117/117 89/89/89
f 118/118/118 116/116/116 109/109/109
f 119/119/119 116/116/116 118/118/118
f 120/120/120 116/116/116 119/119/119
f 121/121/121 119/119/119 118/118/118
f 117/117/117 122/122/122 89/89/89
f 122/122/122 123/123/123 89/89/89
f 117/117/117 124/124/124 122/122/122
f 125/125/125 124/124/124 117/117/117
f 126/126/126 125/125/125 117/117/117
f 78/78/78 128/128/128 127/127/127
f 131/131/131 130/130/130 129/129/129
f 130/130/130 132/132/132 129/129/129
f 133/133/133 132/132/132 130/130/130
f 132/132/132 134/134/134 129/129/129
f 133/133/133 135/135/135 132/132/132
f 132/132/132 136/136/136 134/134/134
f 135/135/135 136/136/136 132/132/132
f 136/136/136 137/137/137 134/134/134
f 138/138/138 135/135/135 133/133/133
f 136/136/136 139/139/139 137/137/137
f 139/139/139 140/140/140 137/137/137
f 141/141/141 136/136/136 135/135/135
f 141/141/141 139/139/139 136/136/136
f 142/142/142 135/135/135 138/138/138
f 142/142/142 138/138/138 143/143/143
f 135/135/135 144/144/144 141/141/141
f 142/142/142 144/144/144 135/135/135
f 139/139/139 145/145/145 140/140/140
f 145/145/145 146/146/146 140/140/140
f 147/147/147 146/146/146 145/145/145
f 139/139/139 147/147/147 145/145/145
f 139/139/139 148/148/148 147/147/147
f 141/141/141 149/149/149 139/139/139
f 144/144/144 149/149/149 141/141/141
f 150/150/150 148/148/148 139/139/139
f 149/149/149 150/150/150 139/139/139
f 151/151/151 148/148/148 150/150/150
f 151/151/151 152/152/152 148/148/148
f 153/153/153 152/152/152 151/151/151
f 150/150/150 154/154/154 151/151/151
f 154/154/154 150/150/150 149/149/149
f 154/154/154 153/153/153 151/151/151
f 154/154/154 149/149/149 144/144/144
f 154/154/154 155/155/155 153/153/153
f 156/156/156 155/155/155 154/154/154
f 156/156/156 157/157/157 155/155/155
f 156/156/156 154/154/154 158/158/158
f 154/154/154 144/144/144 158/158/158
f 159/159/159 156/156/156 158/158/158
f 160/160/160 159/159/159 158/158/158
f 160/160/160 158/158/158 161/161/161
f 144/144/144 161/161/161 158/158/158
f 142/142/142 161/161/161 144/144/144
f 162/162/162 161/161/161 142/142/142
f 163/163/163 161/161/161 162/162/162
f 164/164/164 161/161/161 163/163/163
f 164/164/164 165/165/165 161/161/161
f 165/165/165 166/166/166 161/161/161
f 169/169/169 168/168/168 167/167/167
f 169/169/169 167/167/167 170/170/170
f 172/172/172 171/171/171 168/168/168
f 171/171/171 173/173/173 168/168/168
f 168/168/168 174/174/174 167/167/167
f 173/173/173 174/174/174 168/168/168
f 167/167/167 174/174/174 175/175/175
f 176/176/176 175/175/175 174/174/174
f 173/173/173 177/177/177 174/174/174
f 174/174/174 177/177/177 178/178/178
f 179/179/179 178/178/178 177/177/177
f 174/174/174 178/178/178 180/180/180
f 180/180/180 181/181/181 174/174/174
f 180/180/180 182/182/182 181/181/181
f 178/178/178 183/183/183 180/180/180
f 183/183/183 182/182/182 180/180/180
f 178/178/178 184/184/184 183/183/183
f 183/183/183 185/185/185 182/182/182
f 188/188/188 187/187/187 186/186/186
f 189/189/189 186/186/186 187/187/187
f 190/190/190 189/189/189 187/187/187
f 190/190/190 191/191/191 189/189/189
f 192/192/192 189/189/189 191/191/191
f 190/190/190 193/193/193 191/191/191
f 194/194/194 193/193/193 190/190/190
f 194/194/194 190/190/190 195/195/195
f 198/198/198 197/197/197 196/196/196
f 198/198/198 196/196/196 199/199/199
f 202/202/202 201/201/201 200/200/200
f 205/205/205 204/204/204 203/203/203
f 203/203/203 204/204/204 206/206/206
f 207/207/207 204/204/204 205/205/205
f 207/207/207 208/208/208 204/204/204
f 211/211/211 210/210/210 209/209/209
f 211/211/211 212/212/212 210/210/210
f 215/215/215 214/214/214 213/213/213
f 218/218/218 217/217/217 216/216/216
f 219/219/219 218/218/218 216/216/216
f 222/222/222 221/221/221 220/220/220
f 225/225/225 224/224/224 223/223/223
f 226/226/226 224/224/224 225/225/225
f 227/227/227 226/226/226 225/225/225
f 229/229/229 228/228/228 224/224/224
f 229/229/229 224/224/224 226/226/226
f 230/230/230 229/229/229 226/226/226
f 231/231/231 226/226/226 227/227/227
f 232/232/232 231/231/231 227/227/227
f 231/231/231 233/233/233 226/226/226
f 232/232/232 234/234/234 231/231/231
f 231/231/231 234/234/234 233/233/233
f 235/235/235 226/226/226 233/233/233
f 226/226/226 235/235/235 230/230/230
f 234/234/234 235/235/235 233/233/233
f 230/230/230 236/236/236 229/229/229
f 235/235/235 236/236/236 230/230/230
f 236/236/236 235/235/235 234/234/234
f 236/236/236 237/237/237 229/229/229
f 238/238/238 237/237/237 236/236/236
f 239/239/239 238/238/238 236/236/236
f 239/239/239 240/240/240 238/238/238
f 240/240/240 239/239/239 241/241/241
f 241/241/241 239/239/239 242/242/242
f 242/242/242 243/243/243 241/241/241
f 245/245/245 244/244/244 243/243/243
f 245/245/245 243/243/243 242/242/242
f 245/245/245 242/242/242 246/246/246
f 245/245/245 246/246/246 247/247/247
f 247/247/247 246/246/246 248/248/248
f 249/249/249 247/247/247 248/248/248
f 250/250/250 249/249/249 248/248/248
f 250/250/250 248/248/248 251/251/251
f 248/248/248 252/252/252 251/251/251
f 253/253/253 251/251/251 252/252/252
f 253/253/253 252/252/252 254/254/254
f 252/252/252 255/255/255 254/254/254
f 248/248/248 256/256/256 252/252/252
f 252/252/252 256/256/256 255/255/255
f 248/248/248 246/246/246 256/256/256
f 255/255/255 256/256/256 257/257/257
f 256/256/256 258/258/258 257/257/257
f 246/246/246 259/259/259 256/256/256
f 259/259/259 258/258/258 256/256/256
f 258/258/258 260/260/260 257/257/257
f 258/258/258 259/259/259 260/260/260
f 246/246/246 242/242/242 259/259/259
f 261/261/261 260/260/260 259/259/259
f 242/242/242 262/262/262 259/259/259
f 262/262/262 261/261/261 259/259/259
f 242/242/242 239/239/239 262/262/262
f 262/262/262 239/239/239 263/263/263
f 263/263/263 239/239/239 236/236/236
f 264/264/264 262/262/262 263/263/263
f 262/262/262 264/264/264 261/261/261
f 236/236/236 265/265/265 263/263/263
f 263/263/263 265/265/265 264/264/264
f 264/264/264 265/265/265 261/261/261
f 265/265/265 236/236/236 234/234/234
f 265/265/265 234/234/234 266/266/266
f 261/261/261 265/265/265 266/266/266
f 234/234/234 232/232/232 266/266/266
f 261/261/261 266/266/266 267/267/267
f 267/267/267 266/266/266 232/232/232
f 260/260/260 261/261/261 267/267/267
f 267/267/267 232/232/232 268/268/268
f 267/267/267 268/268/268 260/260/260
f 270/270/270 269/269/269 47/47/47
f 271/271/271 270/270/270 47/47/47
f 274/274/274 273/273/273 272/272/272
f 274/274/274 275/275/275 273/273/273
f 277/277/277 274/274/274 276/276/276
f 115/115/115 279/279/279 278/278/278
f 282/282/282 281/281/281 280/280/280
f 282/282/282 120/120/120 281/281/281
f 285/285/285 284/284/284 283/283/283
f 284/284/284 286/286/286 283/283/283
f 284/284/284 287/287/287 286/286/286
f 290/290/290 289/289/289 288/288/288
f 293/293/293 292/292/292 291/291/291
f 296/296/296 295/295/295 294/294/294
f 294/294/294 298/298/298 297/297/297
f 301/301/301 300/300/300 299/299/299
f 304/304/304 303/303/303 302/302/302
f 304/304/304 302/302/302 305/305/305
f 308/308/308 307/307/307 306/306/306
f 307/307/307 309/309/309 306/306/306
f 306/306/306 309/309/309 310/310/310
f 307/307/307 311/311/311 309/309/309
f 309/309/309 312/312/312 310/310/310
f 309/309/309 311/311/311 312/312/312
f 311/311/311 313/313/313 312/312/312
f 316/316/316 315/315/315 314/314/314
f 314/314/314 317/317/317 316/316/316
f 317/317/317 314/314/314 318/318/318
f 321/321/321 320/320/320 319/319/319
f 319/319/319 322/322/322 321/321/321
f 321/321/321 322/322/322 323/323/323
f 326/326/326 325/325/325 324/324/324
f 329/329/329 328/328/328 327/327/327
f 329/329/329 330/330/330 328/328/328
f 333/333/333 332/332/332 331/331/331
f 332/332/332 334/334/334 331/331/331
f 331/331/331 334/334/334 335/335/335
f 334/334/334 336/336/336 335/335/335
f 337/337/337 336/336/336 334/334/334
f 336/336/336 337/337/337 338/338/338
f 337/337/337 339/339/339 338/338/338
f 339/339/339 340/340/340 338/338/338
f 339/339/339 341/341/341 340/340/340
f 339/339/339 342/342/342 341/341/341
f 345/345/345 344/344/344 343/343/343
f 348/348/348 347/347/347 346/346/346
f 56/56/56 58/58/58 349/349/349
f 352/352/352 351/351/351 350/350/350
f 355/355/355 354/354/354 353/353/353
f 358/358/358 357/357/357 356/356/356
