# Exported from Godot Engine
o MS_Tree_C_Obstruction
v -0.000008 13.000000 -0.000008
vn 0.000049 0.242499 -0.970152
v -0.500000 10.999908 -0.500000
vn 0.000049 0.242499 -0.970152
v 0.500000 10.999908 -0.500000
vn 0.000049 0.242499 -0.970152
v -0.000008 13.000000 -0.000008
vn -0.970164 0.242449 0.000075
v -0.500000 10.999908 0.500000
vn -0.970164 0.242449 0.000075
v -0.500000 10.999908 -0.500000
vn -0.970164 0.242449 0.000075
v -0.000008 13.000000 -0.000008
vn -0.000028 0.242477 0.970157
v 0.500000 10.999908 0.500000
vn -0.000028 0.242477 0.970157
v -0.500000 10.999908 0.500000
vn -0.000028 0.242477 0.970157
v -0.000008 13.000000 -0.000008
vn 0.970175 0.242404 0.000083
v 0.500000 10.999908 -0.500000
vn 0.970175 0.242404 0.000083
v 0.500000 10.999908 0.500000
vn 0.970175 0.242404 0.000083
v 0.500000 10.999908 0.500000
vn 0.000000 -0.000031 1.000000
v 0.500000 2.999908 0.500000
vn 0.000000 -0.000031 1.000000
v -0.500000 10.999908 0.500000
vn 0.000000 -0.000031 1.000000
v -0.500000 2.999908 0.500000
vn 0.000000 -0.000031 1.000000
v -0.500000 10.999908 -0.500000
vn 0.000031 -0.000030 -1.000000
v -0.500000 2.999908 -0.500000
vn 0.000031 -0.000030 -1.000000
v 0.500000 10.999908 -0.500000
vn 0.000031 -0.000030 -1.000000
v 0.500000 2.999908 -0.500000
vn 0.000031 -0.000030 -1.000000
v 0.500000 10.999908 -0.500000
vn 1.000000 -0.000031 -0.000000
v 0.500000 2.999908 -0.500000
vn 1.000000 -0.000031 -0.000000
v 0.500000 10.999908 0.500000
vn 1.000000 -0.000031 -0.000000
v 0.500000 2.999908 0.500000
vn 1.000000 -0.000031 -0.000000
v -0.500000 10.999908 0.500000
vn -1.000000 -0.000015 0.000024
v -0.500000 2.999908 0.500000
vn -1.000000 -0.000015 0.000024
v -0.500000 10.999908 -0.500000
vn -1.000000 -0.000015 0.000024
v -0.500000 2.999908 -0.500000
vn -1.000000 -0.000015 0.000024
v -0.500000 2.999908 0.500000
vn -0.970161 -0.242463 0.000073
v -0.000008 1.000000 -0.000008
vn -0.970161 -0.242463 0.000073
v -0.500000 2.999908 -0.500000
vn -0.970161 -0.242463 0.000073
v 0.500000 2.999908 -0.500000
vn 0.970149 -0.242508 0.000023
v -0.000008 1.000000 -0.000008
vn 0.970149 -0.242508 0.000023
v 0.500000 2.999908 0.500000
vn 0.970149 -0.242508 0.000023
v -0.500000 2.999908 -0.500000
vn -0.000033 -0.242499 -0.970152
v -0.000008 1.000000 -0.000008
vn -0.000033 -0.242499 -0.970152
v 0.500000 2.999908 -0.500000
vn -0.000033 -0.242499 -0.970152
v 0.500000 2.999908 0.500000
vn 0.000027 -0.242567 0.970134
v -0.000008 1.000000 -0.000008
vn 0.000027 -0.242567 0.970134
v -0.500000 2.999908 0.500000
vn 0.000027 -0.242567 0.970134
f 3//3 2//2 1//1
f 6//6 5//5 4//4
f 9//9 8//8 7//7
f 12//12 11//11 10//10
f 15//15 14//14 13//13
f 16//16 14//14 15//15
f 19//19 18//18 17//17
f 20//20 18//18 19//19
f 23//23 22//22 21//21
f 24//24 22//22 23//23
f 27//27 26//26 25//25
f 28//28 26//26 27//27
f 31//31 30//30 29//29
f 34//34 33//33 32//32
f 37//37 36//36 35//35
f 40//40 39//39 38//38
