# Exported from Godot Engine
o MS_Tree_D_Collider
v -0.000003 4.000000 -0.100005
vn 0.382600 0.022585 -0.923638
v -0.000003 -0.100000 -0.200000
vn 0.382600 0.022585 -0.923638
v 0.070707 4.000000 -0.070713
vn 0.382600 0.022585 -0.923638
v 0.141418 -0.100000 -0.141424
vn 0.382600 0.022585 -0.923638
v 0.070707 4.000000 -0.070713
vn 0.923643 0.022504 -0.382593
v 0.141418 -0.100000 -0.141424
vn 0.923643 0.022504 -0.382593
v 0.099998 4.000000 -0.000003
vn 0.923643 0.022504 -0.382593
v 0.200000 -0.100000 -0.000003
vn 0.923643 0.022504 -0.382593
v 0.099998 4.000000 -0.000003
vn 0.923620 0.022476 0.382650
v 0.200000 -0.100000 -0.000003
vn 0.923620 0.022476 0.382650
v 0.070707 4.000000 0.070707
vn 0.923620 0.022476 0.382650
v 0.141418 -0.100000 0.141418
vn 0.923620 0.022476 0.382650
v 0.070707 4.000000 0.070707
vn 0.382548 0.022474 0.923662
v 0.141418 -0.100000 0.141418
vn 0.382548 0.022474 0.923662
v -0.000003 4.000000 0.099998
vn 0.382548 0.022474 0.923662
v -0.000003 -0.100000 0.200000
vn 0.382548 0.022474 0.923662
v -0.000003 4.000000 0.099998
vn -0.382624 0.022443 0.923631
v -0.000003 -0.100000 0.200000
vn -0.382624 0.022443 0.923631
v -0.070713 4.000000 0.070707
vn -0.382624 0.022443 0.923631
v -0.141424 -0.100000 0.141418
vn -0.382624 0.022443 0.923631
v -0.070713 4.000000 0.070707
vn -0.923628 0.022482 0.382631
v -0.141424 -0.100000 0.141418
vn -0.923628 0.022482 0.382631
v -0.100005 4.000000 -0.000003
vn -0.923628 0.022482 0.382631
v -0.200000 -0.100000 -0.000003
vn -0.923628 0.022482 0.382631
v 0.141418 -0.100000 -0.141424
vn -0.000031 -1.000000 -0.000122
v -0.000003 -0.100000 -0.200000
vn -0.000031 -1.000000 -0.000122
v -0.000003 -0.100000 -0.000003
vn -0.000031 -1.000000 -0.000122
v -0.141424 -0.100000 -0.141424
vn -0.000031 -1.000000 -0.000122
v 0.200000 -0.100000 -0.000003
vn -0.000031 -1.000000 -0.000122
v -0.200000 -0.100000 -0.000003
vn -0.000031 -1.000000 -0.000122
v 0.141418 -0.100000 0.141418
vn -0.000031 -1.000000 -0.000122
v -0.141424 -0.100000 0.141418
vn -0.000031 -1.000000 -0.000122
v -0.000003 -0.100000 0.200000
vn -0.000031 -1.000000 -0.000122
v -0.100005 4.000000 -0.000003
vn -0.923645 0.022505 -0.382588
v -0.200000 -0.100000 -0.000003
vn -0.923645 0.022505 -0.382588
v -0.070713 4.000000 -0.070713
vn -0.923645 0.022505 -0.382588
v -0.141424 -0.100000 -0.141424
vn -0.923645 0.022505 -0.382588
v -0.070713 4.000000 -0.070713
vn -0.382668 0.022422 -0.923614
v -0.141424 -0.100000 -0.141424
vn -0.382668 0.022422 -0.923614
v -0.000003 4.000000 -0.100005
vn -0.382668 0.022422 -0.923614
v -0.000003 -0.100000 -0.200000
vn -0.382668 0.022422 -0.923614
v -0.000003 4.000000 -0.100005
vn -0.000030 1.000000 -0.000000
v 0.070707 4.000000 -0.070713
vn -0.000030 1.000000 -0.000000
v -0.000003 4.000000 -0.000003
vn -0.000030 1.000000 -0.000000
v 0.099998 4.000000 -0.000003
vn -0.000030 1.000000 -0.000000
v -0.070713 4.000000 -0.070713
vn -0.000030 1.000000 -0.000000
v 0.070707 4.000000 0.070707
vn -0.000030 1.000000 -0.000000
v -0.100005 4.000000 -0.000003
vn -0.000030 1.000000 -0.000000
v -0.000003 4.000000 0.099998
vn -0.000030 1.000000 -0.000000
v -0.070713 4.000000 0.070707
vn -0.000030 1.000000 -0.000000
f 3//3 2//2 1//1
f 4//4 2//2 3//3
f 7//7 6//6 5//5
f 8//8 6//6 7//7
f 11//11 10//10 9//9
f 12//12 10//10 11//11
f 15//15 14//14 13//13
f 16//16 14//14 15//15
f 19//19 18//18 17//17
f 20//20 18//18 19//19
f 23//23 22//22 21//21
f 24//24 22//22 23//23
f 27//27 26//26 25//25
f 27//27 28//28 26//26
f 27//27 25//25 29//29
f 27//27 30//30 28//28
f 27//27 29//29 31//31
f 27//27 32//32 30//30
f 27//27 31//31 33//33
f 27//27 33//33 32//32
f 36//36 35//35 34//34
f 37//37 35//35 36//36
f 40//40 39//39 38//38
f 41//41 39//39 40//40
f 44//44 43//43 42//42
f 44//44 45//45 43//43
f 44//44 42//42 46//46
f 44//44 47//47 45//45
f 44//44 46//46 48//48
f 44//44 49//49 47//47
f 44//44 48//48 50//50
f 44//44 50//50 49//49
