# Exported from Godot Engine
o MS_Tree_D_Obstruction
v -0.000031 17.000000 -0.000031
vn -0.000006 0.447246 -0.894411
v -1.000046 14.999817 -1.000046
vn -0.000006 0.447246 -0.894411
v 0.999985 14.999817 -1.000046
vn -0.000006 0.447246 -0.894411
v -0.000031 17.000000 -0.000031
vn -0.894464 0.447140 0.000009
v -1.000046 14.999817 0.999985
vn -0.894464 0.447140 0.000009
v -1.000046 14.999817 -1.000046
vn -0.894464 0.447140 0.000009
v -0.000031 17.000000 -0.000031
vn -0.000020 0.447177 0.894445
v 0.999985 14.999817 0.999985
vn -0.000020 0.447177 0.894445
v -1.000046 14.999817 0.999985
vn -0.000020 0.447177 0.894445
v -0.000031 17.000000 -0.000031
vn 0.894443 0.447181 0.000170
v 0.999985 14.999817 -1.000046
vn 0.894443 0.447181 0.000170
v 0.999985 14.999817 0.999985
vn 0.894443 0.447181 0.000170
v 0.999985 14.999817 0.999985
vn -0.000013 0.099474 0.995040
v 2.000000 4.999969 2.000000
vn -0.000013 0.099474 0.995040
v -1.000046 14.999817 0.999985
vn -0.000013 0.099474 0.995040
v -2.000000 4.999969 2.000000
vn -0.000013 0.099474 0.995040
v -2.000000 4.999969 2.000000
vn 0.000020 -0.707168 0.707045
v 2.000000 4.999969 2.000000
vn 0.000020 -0.707168 0.707045
v -0.000031 3.000000 -0.000031
vn 0.000020 -0.707168 0.707045
v -1.000046 14.999817 -1.000046
vn 0.000030 0.099576 -0.995030
v -2.000000 4.999969 -2.000000
vn 0.000030 0.099576 -0.995030
v 0.999985 14.999817 -1.000046
vn 0.000030 0.099576 -0.995030
v 2.000000 4.999969 -2.000000
vn 0.000030 0.099576 -0.995030
v 0.999985 14.999817 -1.000046
vn 0.995048 0.099398 0.000167
v 2.000000 4.999969 -2.000000
vn 0.995048 0.099398 0.000167
v 0.999985 14.999817 0.999985
vn 0.995048 0.099398 0.000167
v 2.000000 4.999969 2.000000
vn 0.995048 0.099398 0.000167
v -1.000046 14.999817 0.999985
vn -0.995037 0.099502 0.000004
v -2.000000 4.999969 2.000000
vn -0.995037 0.099502 0.000004
v -1.000046 14.999817 -1.000046
vn -0.995037 0.099502 0.000004
v -2.000000 4.999969 -2.000000
vn -0.995037 0.099502 0.000004
v 2.000000 4.999969 -2.000000
vn 0.000034 -0.707096 -0.707117
v -2.000000 4.999969 -2.000000
vn 0.000034 -0.707096 -0.707117
v -0.000031 3.000000 -0.000031
vn 0.000034 -0.707096 -0.707117
v 2.000000 4.999969 2.000000
vn 0.707088 -0.707126 -0.000032
v 2.000000 4.999969 -2.000000
vn 0.707088 -0.707126 -0.000032
v -0.000031 3.000000 -0.000031
vn 0.707088 -0.707126 -0.000032
v -2.000000 4.999969 -2.000000
vn -0.707161 -0.707052 -0.000091
v -2.000000 4.999969 2.000000
vn -0.707161 -0.707052 -0.000091
v -0.000031 3.000000 -0.000031
vn -0.707161 -0.707052 -0.000091
f 3//3 2//2 1//1
f 6//6 5//5 4//4
f 9//9 8//8 7//7
f 12//12 11//11 10//10
f 15//15 14//14 13//13
f 16//16 14//14 15//15
f 19//19 18//18 17//17
f 22//22 21//21 20//20
f 23//23 21//21 22//22
f 26//26 25//25 24//24
f 27//27 25//25 26//26
f 30//30 29//29 28//28
f 31//31 29//29 30//30
f 34//34 33//33 32//32
f 37//37 36//36 35//35
f 40//40 39//39 38//38
