# Exported from Godot Engine
o MS_Tree_D_Billboard
v 3.000000 0.000000 -0.000044
vt 0.249989 0.375006
vn -0.000048 0.000000 1.000000
v -3.000000 0.000000 -0.000044
vt 0.031235 0.375006
vn -0.000048 0.000000 1.000000
v 3.000000 17.000000 -0.000044
vt 0.249989 0.968765
vn -0.000048 0.000000 1.000000
v -3.000000 17.000000 -0.000044
vt 0.031235 0.968765
vn -0.000048 0.000000 1.000000
v -0.000046 0.000000 -3.000000
vt 0.499992 0.375006
vn 1.000000 0.000015 0.000024
v -0.000046 0.000000 2.999911
vt 0.281239 0.375006
vn 1.000000 0.000015 0.000024
v -0.000046 17.000000 -3.000000
vt 0.499992 0.968765
vn 1.000000 0.000015 0.000024
v -0.000046 17.000000 3.000003
vt 0.281239 0.968765
vn 1.000000 0.000015 0.000024
f 3/3/3 2/2/2 1/1/1
f 4/4/4 2/2/2 3/3/3
f 7/7/7 6/6/6 5/5/5
f 8/8/8 6/6/6 7/7/7
