# Exported from Godot Engine
o MS_Tree_A_Optimized
v 0.309989 1.253881 0.438094
vt 0.439941 0.658203
vn -0.783921 0.550499 0.287089
v 0.173315 1.153437 0.257502
vt 0.442383 0.748291
vn -0.607809 0.785373 0.117293
v 0.304149 1.272955 0.432272
vt 0.433105 0.661621
vn -0.782777 -0.050319 0.620265
v 0.154942 1.081869 0.446322
vt 0.494873 0.688965
vn -0.681571 0.709005 0.181034
v 0.166407 1.176000 0.250615
vt 0.434326 0.748047
vn -0.798473 -0.061599 0.598871
v -0.030550 0.971680 0.295728
vt 0.520508 0.778931
vn -0.616214 0.764391 0.189702
v 0.070878 1.092574 0.105855
vt 0.441406 0.816284
vn -0.537432 0.828977 0.154802
v 0.063737 1.115896 0.098737
vt 0.433105 0.815430
vn -0.812009 -0.071818 0.579209
v -0.016434 1.067011 -0.019361
vt 0.440430 0.863892
vn -0.735859 0.545032 0.401810
v -0.022274 1.086085 -0.025183
vt 0.433594 0.868652
vn -0.811372 -0.071318 0.580164
v 0.221450 1.560531 0.129297
vt 0.019730 0.698486
vn -0.627159 0.628416 0.460179
v -0.002402 1.433226 -0.001898
vt 0.109253 0.699951
vn -0.321518 0.917284 0.234982
v 0.214651 1.582298 0.120756
vt 0.022980 0.705322
vn -0.560419 0.144868 0.815441
v -0.010445 1.458973 -0.012002
vt 0.108948 0.708008
vn -0.560419 0.144868 0.815441
v 0.015755 1.402594 0.203172
vt 0.063171 0.660156
vn -0.560800 0.810160 0.170717
v -0.497903 1.249074 0.224026
vt 0.439697 0.658447
vn 0.570892 0.596574 0.564076
v -0.490895 1.268207 0.219886
vt 0.432617 0.659912
vn 0.451856 0.031962 0.891518
v -0.296466 1.149475 0.125591
vt 0.442139 0.748291
vn 0.447085 0.840087 0.307196
v -0.366972 1.088500 0.310608
vt 0.494385 0.689209
vn 0.493497 0.760766 0.421540
v -0.288271 1.172097 0.120524
vt 0.433594 0.748047
vn 0.429653 0.044883 0.901878
v -0.129193 0.985536 0.282953
vt 0.520020 0.779053
vn 0.402023 0.825721 0.395681
v -0.130149 1.089531 0.054851
vt 0.441162 0.816284
vn 0.344474 0.882007 0.321561
v -0.121698 1.112911 0.049579
vt 0.432617 0.813232
vn 0.412144 0.066493 0.908689
v 0.007926 1.064739 -0.005875
vt 0.439941 0.863892
vn 0.402439 0.651449 0.643162
v 0.014420 1.083806 -0.010940
vt 0.432861 0.866577
vn 0.415465 0.074476 0.906555
v 0.169596 0.527955 0.001766
vt 0.441406 0.816284
vn -0.148315 0.844881 0.513984
v -0.018104 0.509607 -0.007263
vt 0.440430 0.863892
vn -0.094625 0.563982 0.820348
v 0.159191 0.557750 0.003287
vt 0.433105 0.815430
vn -0.039227 -0.074810 0.996426
v -0.026613 0.533976 -0.006019
vt 0.433594 0.868652
vn -0.041628 -0.065415 0.996989
v 0.261970 0.371966 0.250281
vt 0.520508 0.778931
vn -0.174750 0.788778 0.589315
v 0.386650 0.616265 0.017305
vt 0.434326 0.748047
vn -0.010419 -0.078232 0.996881
v 0.396645 0.587487 0.014512
vt 0.442383 0.748291
vn -0.226145 0.806000 0.547012
v 0.555803 0.487656 0.180170
vt 0.494873 0.688965
vn -0.228442 0.738350 0.634550
v 0.672156 0.716422 0.018980
vt 0.433105 0.661621
vn 0.016591 -0.070018 0.997408
v 0.680666 0.692054 0.017736
vt 0.439941 0.658203
vn -0.216956 0.569416 0.792903
v 0.018739 1.338780 0.189141
vt 0.442383 0.748291
vn -0.479749 0.840173 -0.252882
v -0.005969 1.263605 -0.000473
vt 0.441406 0.821167
vn -0.084405 0.994201 -0.066633
v 0.018123 1.361462 0.177873
vt 0.434326 0.748047
vn -0.986952 0.005969 0.160903
v -0.010529 1.283937 -0.005085
vt 0.433105 0.820312
vn -0.993825 0.068484 -0.087307
v -0.206054 1.179553 0.127305
vt 0.520508 0.778931
vn -0.523172 0.823630 -0.218916
v 0.062921 1.473897 0.404901
vt 0.433105 0.661621
vn -0.985046 0.072476 0.156306
v -0.101927 1.296222 0.351547
vt 0.494873 0.688965
vn -0.570680 0.784917 -0.241308
v 0.062562 1.454842 0.414605
vt 0.439941 0.658203
vn -0.746868 0.639489 -0.182325
v 0.125662 1.064107 -0.046192
vt 0.441162 0.816284
vn -0.101100 0.892185 -0.440209
v 0.122872 1.089292 -0.042384
vt 0.432617 0.813232
vn -0.329216 0.107990 -0.938059
v -0.016886 1.080201 0.005348
vt 0.439941 0.863892
vn -0.190311 0.656586 -0.729847
v -0.019089 1.100788 0.008641
vt 0.432861 0.866577
vn -0.327630 0.109798 -0.938405
v 0.301330 1.098456 -0.104342
vt 0.433594 0.748047
vn -0.356994 0.092457 -0.929520
v 0.116634 0.932586 -0.259543
vt 0.520020 0.779053
vn -0.171107 0.831611 -0.528343
v 0.304013 1.074092 -0.108060
vt 0.442139 0.748291
vn -0.211545 0.878116 -0.429139
v 0.524182 1.131167 -0.195309
vt 0.432617 0.659912
vn -0.384719 0.077965 -0.919735
v 0.370987 0.973569 -0.277183
vt 0.494385 0.689209
vn -0.272517 0.785592 -0.555499
v 0.526818 1.110523 -0.197635
vt 0.439697 0.658447
vn -0.369986 0.669736 -0.643866
v 0.147841 0.804983 0.550058
vt 0.439941 0.658203
vn -0.932615 0.274464 0.234303
v -0.014481 0.664970 0.468228
vt 0.494873 0.688965
vn -0.625944 0.773672 0.098112
v 0.076862 0.763355 0.316347
vt 0.442383 0.748291
vn -0.874228 0.438982 0.207414
v 0.146311 0.825582 0.546564
vt 0.433105 0.661621
vn -0.955586 -0.021115 0.293956
v -0.142246 0.617732 0.242889
vt 0.520508 0.778931
vn -0.561440 0.815498 0.140528
v 0.075052 0.787723 0.312213
vt 0.434326 0.748047
vn -0.963521 -0.026435 0.266323
v 0.030849 0.748947 0.129198
vt 0.441406 0.816284
vn -0.850110 0.472663 0.232168
v -0.007361 0.761541 -0.021262
vt 0.440430 0.863892
vn -0.931215 0.257455 0.257985
v 0.028978 0.774134 0.124925
vt 0.433105 0.815430
vn -0.969699 -0.030934 0.242335
v -0.008891 0.782140 -0.024757
vt 0.433594 0.868652
vn -0.969406 -0.030724 0.243533
v -0.002402 1.433226 -0.001898
vt 0.109314 0.700439
vn -0.321518 0.917284 0.234982
v 0.163905 1.385722 -0.045827
vt 0.066528 0.659668
vn 0.014342 0.705365 -0.708700
v 0.221450 1.560531 0.129297
vt 0.019836 0.698730
vn -0.627159 0.628416 0.460179
v 0.526818 1.110523 -0.197635
vt 0.439941 0.658203
vn -0.369986 0.669736 -0.643866
v 0.456107 0.968301 -0.028192
vt 0.494873 0.688965
vn 0.176577 0.762704 0.622176
v 0.304013 1.074092 -0.108060
vt 0.442383 0.748291
vn -0.211545 0.878116 -0.429139
v 0.246232 0.924248 0.119640
vt 0.520508 0.778931
vn 0.216774 0.802512 0.555863
v 0.125662 1.064107 -0.046192
vt 0.441406 0.816284
vn -0.101100 0.892185 -0.440209
v -0.016886 1.080201 0.005348
vt 0.440430 0.863892
vn -0.190311 0.656586 -0.729847
v -0.172186 1.387137 0.014303
vt 0.066528 0.659668
vn -0.131906 0.723952 0.677122
v -0.202344 1.556106 -0.172242
vt 0.019836 0.698730
vn -0.372052 0.486700 0.790380
v -0.196814 1.578130 -0.163391
vt 0.021332 0.706055
vn -0.678198 -0.098151 0.728295
v 0.004758 1.459054 0.007512
vt 0.109070 0.708740
vn -0.678198 -0.098151 0.728295
v -0.202344 1.556106 -0.172242
vt 0.019730 0.698486
vn -0.372052 0.486700 0.790380
v 0.012028 1.396053 -0.208329
vt 0.063171 0.660156
vn 0.583677 0.805273 -0.104191
v -0.025366 1.383906 -0.176224
vt 0.066528 0.659668
vn -0.702145 0.703991 -0.106721
v 0.152462 1.554891 -0.218093
vt 0.019836 0.698730
vn -0.824162 0.455193 -0.336980
v 0.144738 1.577106 -0.211638
vt 0.021332 0.706055
vn -0.771600 -0.121076 -0.624479
v -0.012040 1.459018 0.003787
vt 0.109070 0.708740
vn -0.771600 -0.121076 -0.624479
v 0.152462 1.554891 -0.218093
vt 0.019730 0.698486
vn -0.824162 0.455193 -0.336980
v 0.199145 1.399156 0.002802
vt 0.063171 0.660156
vn 0.126207 0.823129 0.553653
v 0.173315 1.153437 0.257502
vt 0.442139 0.748291
vn -0.607809 0.785373 0.117293
v 0.363087 1.089707 0.291629
vt 0.494385 0.689209
vn 0.337152 0.747276 -0.572632
v 0.309989 1.253881 0.438094
vt 0.439697 0.658447
vn -0.783921 0.550499 0.287089
v 0.286392 0.983930 0.060116
vt 0.520020 0.779053
vn 0.330035 0.813229 -0.479307
v 0.070878 1.092574 0.105855
vt 0.441162 0.816284
vn -0.537432 0.828977 0.154802
v -0.016434 1.067011 -0.019361
vt 0.439941 0.863892
vn -0.735859 0.545032 0.401810
v -0.497903 1.249074 0.224026
vt 0.439941 0.658203
vn 0.570892 0.596574 0.564076
v -0.471751 1.074234 0.070004
vt 0.494873 0.688965
vn -0.053404 0.703420 -0.708765
v -0.296466 1.149475 0.125591
vt 0.442383 0.748291
vn 0.447085 0.840087 0.307196
v -0.288794 0.963496 -0.083420
vt 0.520508 0.778931
vn -0.076114 0.757974 -0.647828
v -0.130149 1.089531 0.054851
vt 0.441406 0.816284
vn 0.344474 0.882007 0.321561
v 0.007926 1.064739 -0.005875
vt 0.440430 0.863892
vn 0.402439 0.651449 0.643162
v -0.108344 1.118676 -0.303652
vt 0.442139 0.748291
vn -0.344238 0.876785 0.335781
v -0.282097 1.047433 -0.381853
vt 0.494385 0.689209
vn -0.478366 0.789714 0.384080
v -0.193059 1.196728 -0.523775
vt 0.439697 0.658447
vn -0.593658 0.658803 0.462112
v -0.188796 1.216436 -0.518497
vt 0.432617 0.659912
vn -0.917323 0.094881 0.386674
v -0.268362 0.968064 -0.128574
vt 0.520020 0.779053
vn -0.445031 0.847560 0.289117
v -0.103301 1.141991 -0.297412
vt 0.433594 0.748047
vn -0.924471 0.113802 0.363871
v -0.048942 1.076220 -0.124472
vt 0.441162 0.816284
vn -0.352436 0.906976 0.230615
v 0.002897 1.065787 0.021776
vt 0.439941 0.863892
vn -0.677242 0.677943 0.285896
v -0.042802 1.100223 -0.118484
vt 0.432617 0.813232
vn -0.931188 0.133253 0.339313
v 0.007161 1.085495 0.027053
vt 0.432861 0.866577
vn -0.931904 0.134989 0.336649
v -0.193059 1.196728 -0.523775
vt 0.439941 0.658203
vn -0.593658 0.658803 0.462112
v -0.041618 1.028100 -0.473194
vt 0.494873 0.688965
vn 0.708633 0.701845 -0.072479
v -0.108344 1.118676 -0.303652
vt 0.442383 0.748291
vn -0.344238 0.876785 0.335781
v 0.097830 0.938304 -0.267686
vt 0.520508 0.778931
vn 0.648461 0.754147 -0.103733
v -0.048942 1.076220 -0.124472
vt 0.441406 0.816284
vn -0.352436 0.906976 0.230615
v 0.002897 1.065787 0.021776
vt 0.440430 0.863892
vn -0.677242 0.677943 0.285896
v 0.512963 0.771656 -0.195855
vt 0.439941 0.658203
vn 0.330679 0.245564 0.911235
v 0.442251 0.629434 -0.026412
vt 0.494873 0.688965
vn 0.178798 0.761209 0.623371
v 0.290592 0.735169 -0.105313
vt 0.442383 0.748291
vn 0.302061 0.413890 0.858752
v 0.510327 0.792300 -0.193529
vt 0.433105 0.661621
vn 0.384206 -0.054833 0.921618
v 0.232376 0.585380 0.121420
vt 0.520508 0.778931
vn 0.217878 0.800906 0.557745
v 0.287474 0.759589 -0.102563
vt 0.434326 0.748047
vn 0.356268 -0.059519 0.932486
v 0.112240 0.725184 -0.043447
vt 0.441406 0.816284
vn 0.326386 0.446364 0.833205
v -0.030308 0.741277 0.008095
vt 0.440430 0.863892
vn 0.353868 0.234993 0.905293
v 0.109017 0.750425 -0.040604
vt 0.433105 0.815430
vn 0.331767 -0.063612 0.941214
v -0.032944 0.761920 0.010421
vt 0.433594 0.868652
vn 0.332983 -0.063438 0.940796
v -0.196327 0.745338 -0.266340
vt 0.442139 0.748291
vn -0.345326 0.886609 0.307690
v -0.375087 0.647620 -0.280203
vt 0.494385 0.689209
vn -0.449061 0.797254 0.403397
v -0.345678 0.780719 -0.458404
vt 0.439697 0.658447
vn -0.506385 0.689032 0.518468
v -0.341630 0.801257 -0.457605
vt 0.432617 0.659912
vn -0.777652 0.101483 0.620451
v -0.284178 0.609783 -0.035164
vt 0.520020 0.779053
vn -0.451329 0.841501 0.296948
v -0.192450 0.769733 -0.264555
vt 0.433594 0.748047
vn -0.796412 0.094060 0.597394
v -0.086229 0.736469 -0.109487
vt 0.441162 0.816284
vn -0.391109 0.896205 0.209406
v 0.004104 0.753403 0.014808
vt 0.439941 0.863892
vn -0.660036 0.640608 0.392394
v -0.082220 0.761684 -0.107642
vt 0.432617 0.813232
vn -0.812192 0.086865 0.576887
v 0.007384 0.774024 0.016318
vt 0.432861 0.866577
vn -0.811500 0.086693 0.577886
v -0.345678 0.780719 -0.458404
vt 0.439941 0.658203
vn -0.506385 0.689032 0.518468
v -0.168694 0.635730 -0.437095
vt 0.494873 0.688965
vn 0.566642 0.741033 -0.360260
v -0.196327 0.745338 -0.266340
vt 0.442383 0.748291
vn -0.345326 0.886609 0.307690
v 0.030138 0.591360 -0.274056
vt 0.520508 0.778931
vn 0.493101 0.783093 -0.378969
v -0.086229 0.736469 -0.109487
vt 0.441406 0.816284
vn -0.391109 0.896205 0.209406
v 0.004104 0.753403 0.014808
vt 0.440430 0.863892
vn -0.660036 0.640608 0.392394
v -0.316997 0.798301 0.082880
vt 0.442139 0.748291
vn 0.056985 0.900296 0.431531
v -0.384171 0.692774 0.249365
vt 0.494385 0.689209
vn 0.116683 0.826672 0.550453
v -0.548473 0.804902 0.153788
vt 0.439697 0.658447
vn 0.224955 0.714806 0.662154
v -0.547806 0.825823 0.152032
vt 0.432617 0.659912
vn 0.296268 0.097771 0.950087
v -0.126484 0.687615 0.252734
vt 0.520020 0.779053
vn 0.011881 0.858585 0.512534
v -0.316621 0.822887 0.079624
vt 0.433594 0.748047
vn 0.270209 0.100378 0.957555
v -0.135098 0.812095 0.034335
vt 0.441162 0.816284
vn -0.054330 0.899813 0.432880
v 0.007848 0.847047 -0.006503
vt 0.439941 0.863892
vn 0.059580 0.651174 0.756587
v -0.134362 0.837644 0.031962
vt 0.432617 0.813232
vn 0.250442 0.101577 0.962788
v 0.008166 0.867831 -0.009256
vt 0.432861 0.866577
vn 0.253464 0.100554 0.962104
v -0.548473 0.804902 0.153788
vt 0.439941 0.658203
vn 0.224955 0.714806 0.662154
v -0.448579 0.670341 -0.005219
vt 0.494873 0.688965
vn -0.230263 0.719102 -0.655646
v -0.316997 0.798301 0.082880
vt 0.442383 0.748291
vn 0.056985 0.900296 0.431531
v -0.224503 0.653142 -0.134956
vt 0.520508 0.778931
vn -0.280723 0.753797 -0.594126
v -0.135098 0.812095 0.034335
vt 0.441406 0.816284
vn -0.054330 0.899813 0.432880
v 0.007848 0.847047 -0.006503
vt 0.440430 0.863892
vn 0.059580 0.651174 0.756587
v 0.042451 1.458680 0.170680
vt 0.066528 0.659668
vn 0.539950 0.801041 -0.258431
v -0.162089 1.598819 0.177757
vt 0.019836 0.698730
vn 0.748489 0.661273 0.049822
v -0.157209 1.618591 0.164573
vt 0.021332 0.706055
vn 0.822395 0.213201 0.527458
v 0.001755 1.455823 -0.019934
vt 0.109070 0.708740
vn 0.822395 0.213201 0.527458
v -0.162089 1.598819 0.177757
vt 0.019730 0.698486
vn 0.748489 0.661273 0.049822
v -0.191766 1.363535 0.031731
vt 0.063171 0.660156
vn -0.332920 0.527190 -0.781815
v -0.124905 0.816445 -0.548146
vt 0.494873 0.688965
vn 0.480111 0.860726 -0.169246
v 0.094393 0.764314 -0.339809
vt 0.520508 0.778931
vn 0.401450 0.896140 -0.189133
v -0.193186 0.901724 -0.336323
vt 0.442383 0.748291
vn 0.390716 0.911219 -0.130465
v -0.350684 0.957828 -0.572623
vt 0.439941 0.658203
vn 0.647619 0.715791 -0.261214
v -0.349426 0.981877 -0.567553
vt 0.433105 0.661621
vn 0.838049 0.074405 -0.540497
v -0.191879 0.930140 -0.330195
vt 0.434326 0.748047
vn 0.854685 0.070327 -0.514362
v -0.081536 0.876898 -0.141547
vt 0.441406 0.816284
vn 0.315206 0.932130 -0.178268
v 0.005456 0.885407 0.017760
vt 0.440430 0.863892
vn 0.644954 0.656422 -0.391337
v -0.080219 0.906263 -0.135186
vt 0.433105 0.815430
vn 0.872048 0.051517 -0.486702
v 0.007877 0.909256 0.022476
vt 0.433594 0.868652
vn 0.874074 0.039413 -0.484191
v -0.105296 0.521503 0.118142
vt 0.441406 0.816284
vn -0.312230 0.835266 -0.452596
v 0.000194 0.490599 -0.026628
vt 0.440430 0.863892
vn -0.622538 0.541172 -0.565313
v -0.099757 0.548858 0.107496
vt 0.433105 0.815430
vn -0.817413 -0.080196 -0.570442
v 0.003674 0.512944 -0.035972
vt 0.433594 0.868652
vn -0.815890 -0.082069 -0.572353
v -0.350331 0.383823 0.069566
vt 0.520508 0.778931
vn -0.363730 0.778485 -0.511529
v -0.227146 0.620576 0.280295
vt 0.434326 0.748047
vn -0.833377 -0.068563 -0.548436
v -0.231454 0.594137 0.291230
vt 0.442383 0.748291
vn -0.297725 0.794246 -0.529654
v -0.445725 0.513309 0.337177
vt 0.494873 0.688965
vn -0.375861 0.724424 -0.577875
v -0.373743 0.735601 0.504239
vt 0.433105 0.661621
vn -0.847674 -0.058670 -0.527264
v -0.378273 0.713229 0.512946
vt 0.439941 0.658203
vn -0.520546 0.560823 -0.643825
v -0.386856 1.445968 -0.173365
vt 0.439941 0.658203
vn 0.549546 0.622164 -0.557594
v -0.175932 1.334608 -0.089873
vt 0.442383 0.748291
vn 0.473451 0.834651 -0.281427
v -0.378869 1.465366 -0.169398
vt 0.433105 0.661621
vn 0.384250 0.035222 -0.922557
v -0.245337 1.286373 -0.279981
vt 0.494873 0.688965
vn 0.505138 0.784707 -0.359263
v -0.003750 1.173298 -0.248545
vt 0.520508 0.778931
vn 0.464607 0.821402 -0.330816
v -0.166554 1.357533 -0.084993
vt 0.434326 0.748047
vn 0.415787 -0.004219 -0.909452
v 0.005063 1.279012 0.002984
vt 0.433105 0.820312
vn 0.891082 0.019165 0.453438
v -0.530230 0.350247 -0.381319
vt 0.439941 0.658203
vn 0.507624 0.730608 -0.456650
v -0.296410 0.282855 -0.229426
vt 0.442383 0.748291
vn 0.325345 0.918026 -0.226669
v -0.526796 0.374014 -0.376100
vt 0.433105 0.661621
vn 0.562922 0.103133 -0.820051
v -0.315093 0.208729 -0.455348
vt 0.494873 0.688965
vn 0.389258 0.871956 -0.296937
v -0.292464 0.310929 -0.223061
vt 0.434326 0.748047
vn 0.588768 0.097833 -0.802360
v -0.034899 0.146981 -0.353726
vt 0.520508 0.778931
vn 0.309342 0.907598 -0.283854
v -0.120097 0.248622 -0.096013
vt 0.441406 0.816284
vn 0.235244 0.942229 -0.238463
v -0.116041 0.277632 -0.089395
vt 0.433105 0.815430
vn 0.613751 0.090443 -0.784302
v 0.021481 0.249206 0.015306
vt 0.440430 0.863892
vn 0.440679 0.697560 -0.564988
v 0.024916 0.272972 0.020525
vt 0.433594 0.868652
vn 0.614942 0.088445 -0.783596
v -0.225030 0.194677 0.502983
vt 0.494385 0.689209
vn 0.612947 0.734561 0.291059
v -0.239411 0.299138 0.282553
vt 0.442139 0.748291
vn -0.299808 0.839801 -0.452603
v 0.016718 0.101539 0.338648
vt 0.520020 0.779053
vn 0.520210 0.794904 0.312265
v -0.409267 0.381521 0.502151
vt 0.439697 0.658447
vn -0.491846 0.620263 -0.611034
v -0.095344 0.255506 0.115227
vt 0.441162 0.816284
vn -0.320443 0.872999 -0.367680
v 0.020832 0.248618 -0.023364
vt 0.439941 0.863892
vn -0.610262 0.576312 -0.543549
v -0.452327 0.203169 0.299265
vt 0.494873 0.688965
vn -0.367130 0.774907 -0.514524
v -0.329441 0.114097 0.028418
vt 0.520508 0.778931
vn -0.363761 0.821511 -0.439086
v -0.239411 0.299138 0.282553
vt 0.442383 0.748291
vn -0.299808 0.839801 -0.452603
v -0.409267 0.381521 0.502151
vt 0.439941 0.658203
vn -0.491846 0.620263 -0.611034
v -0.405169 0.405039 0.496518
vt 0.433105 0.661621
vn -0.797190 -0.029495 -0.603008
v -0.235557 0.326967 0.275163
vt 0.434326 0.748047
vn -0.780602 -0.047160 -0.623246
v -0.095344 0.255506 0.115227
vt 0.441406 0.816284
vn -0.320443 0.872999 -0.367680
v 0.020832 0.248618 -0.023364
vt 0.440430 0.863892
vn -0.610262 0.576312 -0.543549
v -0.091324 0.284270 0.107614
vt 0.433105 0.815430
vn -0.764580 -0.052974 -0.642348
v 0.024929 0.272136 -0.028997
vt 0.433594 0.868652
vn -0.764693 -0.044080 -0.642885
v 0.414549 0.204877 0.359258
vt 0.494385 0.689209
vn 0.456845 0.737592 -0.497243
v 0.203571 0.309966 0.313806
vt 0.442139 0.748291
vn -0.517199 0.842582 0.150204
v 0.326471 0.111972 0.075594
vt 0.520020 0.779053
vn 0.452434 0.796932 -0.400253
v 0.364013 0.391887 0.540833
vt 0.439697 0.658447
vn -0.726710 0.623390 0.288578
v 0.086128 0.266663 0.125748
vt 0.441162 0.816284
vn -0.443261 0.875144 0.194017
v -0.010952 0.260038 -0.027703
vt 0.439941 0.863892
vn -0.691550 0.593367 0.411916
v 0.166391 0.515429 0.523044
vt 0.494873 0.688965
vn -0.667924 0.729290 0.148367
v -0.050039 0.387767 0.343343
vt 0.520508 0.778931
vn -0.601060 0.783522 0.157542
v 0.195245 0.593681 0.300296
vt 0.442383 0.748291
vn -0.590652 0.802416 0.085197
v 0.353275 0.712245 0.513948
vt 0.439941 0.658203
vn -0.777106 0.575144 0.255568
v 0.347110 0.734651 0.506476
vt 0.433105 0.661621
vn -0.798746 -0.019210 0.601361
v 0.187952 0.620186 0.291457
vt 0.434326 0.748047
vn -0.814200 -0.030629 0.579776
v 0.077656 0.521294 0.120696
vt 0.441406 0.816284
vn -0.519871 0.845298 0.123307
v -0.021961 0.490585 -0.028283
vt 0.440430 0.863892
vn -0.732118 0.570663 0.371949
v 0.070118 0.548690 0.111559
vt 0.433105 0.815430
vn -0.827447 -0.040911 0.560052
v -0.028127 0.512991 -0.035755
vt 0.433594 0.868652
vn -0.826761 -0.040339 0.561105
v 0.152263 0.289194 -0.023375
vt 0.441406 0.816284
vn -0.082102 0.922267 0.377735
v -0.024345 0.273322 -0.003013
vt 0.440430 0.863892
vn 0.020993 0.691976 0.721615
v 0.142476 0.317364 -0.025032
vt 0.433105 0.815430
vn 0.104289 0.094493 0.990048
v -0.032349 0.296361 -0.004368
vt 0.433594 0.868652
vn 0.105583 0.094866 0.989875
v 0.272643 0.183581 0.216507
vt 0.520508 0.778931
vn -0.096009 0.879695 0.465747
v 0.356588 0.370919 -0.052346
vt 0.434326 0.748047
vn 0.129482 0.102964 0.986221
v 0.366057 0.343665 -0.050743
vt 0.442383 0.748291
vn -0.153709 0.890458 0.428321
v 0.537305 0.275545 0.093845
vt 0.494873 0.688965
vn -0.140913 0.837731 0.527590
v 0.623024 0.460399 -0.105337
vt 0.433105 0.661621
vn 0.157372 0.112365 0.981126
v 0.631028 0.437360 -0.103982
vt 0.439941 0.658203
vn -0.109030 0.705982 0.699787
v 0.569928 0.494821 -0.147325
vt 0.494385 0.689209
vn -0.196138 0.760606 -0.618876
v 0.396645 0.587487 0.014512
vt 0.442139 0.748291
vn -0.226145 0.806000 0.547012
v 0.283446 0.383272 -0.248444
vt 0.520020 0.779053
vn -0.123950 0.821446 -0.556653
v 0.680666 0.692054 0.017736
vt 0.439697 0.658447
vn -0.216956 0.569416 0.792903
v 0.169596 0.527955 0.001766
vt 0.441162 0.816284
vn -0.148315 0.844881 0.513984
v -0.018104 0.509607 -0.007263
vt 0.439941 0.863892
vn -0.094625 0.563982 0.820348
v 0.025649 0.897646 0.160795
vt 0.441406 0.816284
vn -0.339835 0.939774 0.036572
v -0.007146 0.900729 -0.019160
vt 0.440430 0.863892
vn -0.702442 0.697835 0.140009
v 0.027800 0.926593 0.153117
vt 0.433105 0.815430
vn -0.976559 0.120005 0.178694
v -0.005387 0.924404 -0.025439
vt 0.433594 0.868652
vn -0.976283 0.120285 0.180008
v -0.203320 0.790666 0.292222
vt 0.520508 0.778931
vn -0.437242 0.898982 0.025495
v 0.071606 0.956874 0.374047
vt 0.434326 0.748047
vn -0.971116 0.125874 0.202703
v 0.069525 0.928868 0.381475
vt 0.442383 0.748291
vn -0.397350 0.917110 -0.031989
v -0.061781 0.849892 0.560947
vt 0.494873 0.688965
vn -0.506536 0.862037 -0.017705
v 0.145551 1.016452 0.649525
vt 0.433105 0.661621
vn -0.964096 0.132586 0.230087
v 0.143792 0.992777 0.655804
vt 0.439941 0.658203
vn -0.673172 0.739419 0.009920
v -0.578961 0.452357 0.054569
vt 0.494873 0.688965
vn -0.103600 0.861771 -0.496606
v -0.339635 0.390341 -0.155612
vt 0.520508 0.778931
vn -0.132739 0.896201 -0.423325
v -0.369149 0.540207 0.153272
vt 0.442383 0.748291
vn -0.073106 0.910086 -0.407919
v -0.629403 0.605900 0.293273
vt 0.439941 0.658203
vn -0.179105 0.719292 -0.671223
v -0.623646 0.631237 0.292226
vt 0.433105 0.661621
vn -0.458109 0.071771 -0.885994
v -0.362227 0.570145 0.152245
vt 0.434326 0.748047
vn -0.429648 0.078172 -0.899606
v -0.157114 0.509192 0.056047
vt 0.441406 0.816284
vn -0.127925 0.932227 -0.338508
v 0.017168 0.513808 -0.018393
vt 0.440430 0.863892
vn -0.304439 0.684674 -0.662222
v -0.149322 0.539943 0.056174
vt 0.433105 0.815430
vn -0.399387 0.082278 -0.913083
v 0.022925 0.539145 -0.019440
vt 0.433594 0.868652
vn -0.396849 0.080797 -0.914321
v 0.217150 0.770586 -0.507858
vt 0.494385 0.689209
vn -0.673208 0.636468 -0.376431
v 0.232821 0.912007 -0.306583
vt 0.442139 0.748291
vn 0.253203 0.921294 0.295138
v -0.012217 0.689705 -0.320293
vt 0.520020 0.779053
vn -0.582825 0.698986 -0.414407
v 0.387389 0.967458 -0.544999
vt 0.439697 0.658447
vn 0.467266 0.743568 0.478298
v 0.097629 0.887258 -0.128210
vt 0.441162 0.816284
vn 0.277485 0.936960 0.212386
v -0.016336 0.895574 0.013896
vt 0.439941 0.863892
vn 0.616379 0.660211 0.429183
v 0.364013 0.391887 0.540833
vt 0.439941 0.658203
vn -0.726710 0.623390 0.288578
v 0.203571 0.309966 0.313806
vt 0.442383 0.748291
vn -0.517199 0.842582 0.150204
v 0.359946 0.415416 0.535227
vt 0.433105 0.661621
vn -0.816145 -0.003433 0.577837
v 0.161517 0.214131 0.527932
vt 0.494873 0.688965
vn -0.603536 0.770779 0.204069
v 0.198760 0.337799 0.307175
vt 0.434326 0.748047
vn -0.831945 -0.011629 0.554737
v -0.058864 0.125690 0.332479
vt 0.520508 0.778931
vn -0.531638 0.817922 0.219921
v 0.086128 0.266663 0.125748
vt 0.441406 0.816284
vn -0.443261 0.875144 0.194017
v 0.081155 0.295432 0.118893
vt 0.433105 0.815430
vn -0.845301 -0.018838 0.533958
v -0.010952 0.260038 -0.027703
vt 0.440430 0.863892
vn -0.691550 0.593367 0.411916
v -0.015018 0.283567 -0.033309
vt 0.433594 0.868652
vn -0.844636 -0.018540 0.535021
v -0.005969 1.263605 -0.000473
vt 0.441162 0.821289
vn -0.084405 0.994201 -0.066633
v 0.191920 1.126503 0.088505
vt 0.520020 0.779053
vn 0.651570 0.685551 -0.324771
v 0.018739 1.338780 0.189141
vt 0.442139 0.748291
vn -0.479749 0.840173 -0.252882
v 0.159385 1.261179 0.326116
vt 0.494385 0.689209
vn 0.686944 0.622429 -0.375087
v 0.062562 1.454842 0.414605
vt 0.439697 0.658447
vn -0.746868 0.639489 -0.182325
v -0.069635 0.582545 -0.378439
vt 0.442383 0.748291
vn 0.584031 0.801138 0.130713
v -0.032863 0.516205 -0.163563
vt 0.441406 0.816284
vn 0.534706 0.842424 0.066412
v -0.065073 0.609316 -0.368447
vt 0.434326 0.748047
vn 0.975258 -0.065325 -0.211199
v -0.029357 0.543901 -0.152875
vt 0.433105 0.815430
vn 0.980805 -0.063015 -0.184529
v -0.124240 0.716426 -0.634611
vt 0.433105 0.661621
vn 0.970075 -0.056333 -0.236180
v -0.127107 0.693775 -0.643352
vt 0.439941 0.658203
vn 0.825432 0.561799 0.055178
v 0.045479 0.497524 -0.567800
vt 0.494873 0.688965
vn 0.677544 0.727351 0.109062
v 0.170839 0.376361 -0.309562
vt 0.520508 0.778931
vn 0.620283 0.781199 0.070552
v -0.001177 0.490526 0.014975
vt 0.440430 0.863892
vn 0.828853 0.555419 -0.067174
v 0.001690 0.513178 0.023717
vt 0.433594 0.868652
vn 0.981811 -0.054002 -0.182020
v 0.407323 1.446615 -0.072927
vt 0.439941 0.658203
vn -0.182328 0.656327 0.732115
v 0.185395 1.335086 -0.028772
vt 0.442383 0.748291
vn -0.256751 0.860817 0.439401
v 0.398192 1.465826 -0.073669
vt 0.433105 0.661621
vn 0.154985 0.085576 0.984203
v 0.341540 1.291575 0.097477
vt 0.494873 0.688965
vn -0.236746 0.803911 0.545599
v 0.120145 1.180320 0.203561
vt 0.520508 0.778931
vn -0.208823 0.839904 0.500953
v 0.174791 1.357963 -0.028582
vt 0.434326 0.748047
vn 0.119778 0.108688 0.986833
v 0.000060 1.367254 -0.002170
vt 0.194458 0.070312
vn 0.829799 0.052459 0.555591
v -0.086227 1.508615 0.113365
vt 0.145142 0.120605
vn 0.829799 0.052459 0.555591
v 0.088213 1.615124 -0.157278
vt 0.112122 0.004883
vn 0.829799 0.052459 0.555591
v -0.075426 1.811607 0.068596
vt 0.042938 0.103027
vn 0.829799 0.052459 0.555591
v -0.008776 1.889929 -0.038368
vt 0.017578 0.057129
vn 0.829799 0.052459 0.555591
v -0.251316 0.500448 -0.511620
vt 0.494385 0.689209
vn -0.573908 0.736259 0.358543
v -0.069635 0.582545 -0.378439
vt 0.442139 0.748291
vn 0.584031 0.801138 0.130713
v -0.281128 0.381184 -0.223960
vt 0.520020 0.779053
vn -0.527890 0.802451 0.278218
v -0.127107 0.693775 -0.643352
vt 0.439697 0.658447
vn 0.825432 0.561799 0.055178
v -0.032863 0.516205 -0.163563
vt 0.441162 0.816284
vn 0.534706 0.842424 0.066412
v -0.001177 0.490526 0.014975
vt 0.439941 0.863892
vn 0.828853 0.555419 -0.067174
v -0.105296 0.521503 0.118142
vt 0.441162 0.816284
vn -0.312230 0.835266 -0.452596
v 0.000194 0.490599 -0.026628
vt 0.439941 0.863892
vn -0.622538 0.541172 -0.565313
v 0.020386 0.390595 0.348444
vt 0.520020 0.779053
vn 0.580262 0.798004 0.162742
v -0.231454 0.594137 0.291230
vt 0.442139 0.748291
vn -0.297725 0.794246 -0.529654
v -0.202311 0.517514 0.520338
vt 0.494385 0.689209
vn 0.669318 0.729347 0.141657
v -0.378273 0.713229 0.512946
vt 0.439697 0.658447
vn -0.520546 0.560823 -0.643825
v -0.157114 0.509192 0.056047
vt 0.441162 0.816284
vn -0.127925 0.932227 -0.338508
v 0.017168 0.513808 -0.018393
vt 0.439941 0.863892
vn -0.304439 0.684674 -0.662222
v -0.150247 0.307075 0.297450
vt 0.520020 0.779053
vn 0.323661 0.717074 0.617291
v -0.369149 0.540207 0.153272
vt 0.442139 0.748291
vn -0.073106 0.910086 -0.407919
v -0.454609 0.397424 0.352037
vt 0.494385 0.689209
vn 0.419155 0.654573 0.629161
v -0.629403 0.605900 0.293273
vt 0.439697 0.658447
vn -0.179105 0.719292 -0.671223
v 0.152263 0.289194 -0.023375
vt 0.441162 0.816284
vn -0.082102 0.922267 0.377735
v -0.024345 0.273322 -0.003013
vt 0.439941 0.863892
vn 0.020993 0.691976 0.721615
v 0.227125 0.111325 -0.247924
vt 0.520020 0.779053
vn -0.210621 0.717859 -0.663564
v 0.366057 0.343665 -0.050743
vt 0.442139 0.748291
vn -0.153709 0.890458 0.428321
v 0.507439 0.227855 -0.211095
vt 0.494385 0.689209
vn -0.291020 0.649782 -0.702204
v 0.631028 0.437360 -0.103982
vt 0.439697 0.658447
vn -0.109030 0.705982 0.699787
v 0.501243 0.775428 -0.202042
vt 0.494385 0.689209
vn -0.209914 0.638859 -0.740131
v 0.372364 0.916279 -0.049024
vt 0.442139 0.748291
vn -0.047230 0.924591 0.378022
v 0.210715 0.691118 -0.235259
vt 0.520020 0.779053
vn -0.121138 0.699697 -0.704095
v 0.645474 0.974667 -0.104708
vt 0.439697 0.658447
vn -0.028911 0.757408 0.652302
v 0.154217 0.889256 -0.020736
vt 0.441162 0.816284
vn 0.032896 0.940201 0.339028
v -0.024386 0.895699 -0.001948
vt 0.439941 0.863892
vn 0.119181 0.720410 0.683231
v -0.120097 0.248622 -0.096013
vt 0.441162 0.816284
vn 0.235244 0.942229 -0.238463
v 0.021481 0.249206 0.015306
vt 0.439941 0.863892
vn 0.440679 0.697560 -0.564988
v -0.308709 0.052572 0.014568
vt 0.520020 0.779053
vn -0.393632 0.691726 0.605450
v -0.296410 0.282855 -0.229426
vt 0.442139 0.748291
vn 0.325345 0.918026 -0.226669
v -0.494865 0.146493 -0.213541
vt 0.494385 0.689209
vn -0.357461 0.628621 0.690693
v -0.530230 0.350247 -0.381319
vt 0.439697 0.658447
vn 0.507624 0.730608 -0.456650
v 0.415215 0.513923 0.347668
vt 0.494385 0.689209
vn 0.370957 0.725545 -0.579633
v 0.195245 0.593681 0.300296
vt 0.442139 0.748291
vn -0.590652 0.802416 0.085197
v 0.328856 0.385843 0.076219
vt 0.520020 0.779053
vn 0.363331 0.793435 -0.488316
v 0.353275 0.712245 0.513948
vt 0.439697 0.658447
vn -0.777106 0.575144 0.255568
v 0.077656 0.521294 0.120696
vt 0.441162 0.816284
vn -0.519871 0.845298 0.123307
v -0.021961 0.490585 -0.028283
vt 0.439941 0.863892
vn -0.732118 0.570663 0.371949
v -0.081536 0.876898 -0.141547
vt 0.441162 0.816284
vn 0.315206 0.932130 -0.178268
v 0.005456 0.885407 0.017760
vt 0.439941 0.863892
vn 0.644954 0.656422 -0.391337
v -0.297821 0.683303 -0.106124
vt 0.520020 0.779053
vn -0.600037 0.709298 0.369934
v -0.193186 0.901724 -0.336323
vt 0.442139 0.748291
vn 0.390716 0.911219 -0.130465
v -0.382418 0.763006 -0.394706
vt 0.494385 0.689209
vn -0.600233 0.649578 0.466656
v -0.350684 0.957828 -0.572623
vt 0.439697 0.658447
vn 0.647619 0.715791 -0.261214
v 0.229971 0.792353 0.503804
vt 0.494385 0.689209
vn 0.723338 0.635822 -0.269282
v 0.069525 0.928868 0.381475
vt 0.442139 0.748291
vn -0.397350 0.917110 -0.031989
v 0.241041 0.703410 0.205194
vt 0.520020 0.779053
vn 0.692521 0.698183 -0.181539
v 0.143792 0.992777 0.655804
vt 0.439697 0.658447
vn -0.673172 0.739419 0.009920
v 0.025649 0.897646 0.160795
vt 0.441162 0.816284
vn -0.339835 0.939774 0.036572
v -0.007146 0.900729 -0.019160
vt 0.439941 0.863892
vn -0.702442 0.697835 0.140009
v 0.085747 1.121985 -0.204678
vt 0.520020 0.779053
vn -0.319157 0.687575 -0.652211
v 0.185395 1.335086 -0.028772
vt 0.442139 0.748291
vn -0.256751 0.860817 0.439401
v 0.318994 1.253060 -0.170572
vt 0.494385 0.689209
vn -0.369823 0.626024 -0.686531
v 0.407323 1.446615 -0.072927
vt 0.439697 0.658447
vn -0.182328 0.656327 0.732115
v 0.154217 0.889256 -0.020736
vt 0.441406 0.816284
vn 0.032896 0.940201 0.339028
v -0.024386 0.895699 -0.001948
vt 0.440430 0.863892
vn 0.119181 0.720410 0.683231
v 0.147403 0.918287 -0.023907
vt 0.433105 0.815430
vn 0.121270 0.050492 0.991335
v -0.021965 0.919548 0.002767
vt 0.433594 0.868652
vn 0.129092 -0.018228 0.991465
v 0.262446 0.783636 0.225175
vt 0.520508 0.778931
vn 0.007998 0.909060 0.416587
v 0.365772 0.944366 -0.052092
vt 0.434326 0.748047
vn 0.138478 0.139553 0.980484
v 0.372364 0.916279 -0.049024
vt 0.442383 0.748291
vn -0.047230 0.924591 0.378022
v 0.535214 0.836421 0.100260
vt 0.494873 0.688965
vn -0.041317 0.875942 0.480643
v 0.639901 0.998411 -0.107302
vt 0.433105 0.661621
vn 0.167598 0.145776 0.975018
v 0.645474 0.974667 -0.104708
vt 0.439941 0.658203
vn -0.028911 0.757408 0.652302
v 0.080379 1.431837 0.039054
vt 0.359619 0.740234
vn 0.471583 -0.026824 -0.881413
v -0.103710 1.747138 -0.069027
vt 0.256836 0.822266
vn 0.471583 -0.026824 -0.881413
v -0.010529 1.283937 -0.005085
vt 0.411377 0.774292
vn -0.993825 0.068484 -0.087307
v 0.087286 1.745234 0.033217
vt 0.253662 0.743896
vn 0.471583 -0.026824 -0.881413
v -0.000220 1.866954 -0.017302
vt 0.214233 0.782227
vn 0.471583 -0.026824 -0.881413
v -0.175932 1.334608 -0.089873
vt 0.442139 0.748291
vn 0.473451 0.834651 -0.281427
v -0.362831 1.256095 -0.038342
vt 0.494385 0.689209
vn -0.054929 0.648946 0.758849
v -0.386856 1.445968 -0.173365
vt 0.439697 0.658447
vn 0.549546 0.622164 -0.557594
v -0.182637 1.127508 0.119494
vt 0.520020 0.779053
vn -0.089151 0.709528 0.699015
v 0.097629 0.887258 -0.128210
vt 0.441406 0.816284
vn 0.277485 0.936960 0.212386
v -0.016336 0.895574 0.013896
vt 0.440430 0.863892
vn 0.616379 0.660211 0.429183
v 0.090948 0.916380 -0.125614
vt 0.433105 0.815430
vn 0.790752 0.045497 0.610443
v -0.013915 0.919423 0.018612
vt 0.433594 0.868652
vn 0.793968 -0.020022 0.607629
v 0.342251 0.779065 -0.032330
vt 0.520508 0.778931
vn 0.317677 0.904275 0.285250
v 0.226358 0.940183 -0.304072
vt 0.434326 0.748047
vn 0.800752 0.119967 0.586859
v 0.232821 0.912007 -0.306583
vt 0.442383 0.748291
vn 0.253203 0.921294 0.295138
v 0.449888 0.829506 -0.318799
vt 0.494873 0.688965
vn 0.329251 0.871359 0.363768
v 0.382938 0.991478 -0.542206
vt 0.433105 0.661621
vn 0.819892 0.114377 0.560977
v 0.387389 0.967458 -0.544999
vt 0.439941 0.658203
vn 0.467266 0.743568 0.478298
v 0.009746 0.217275 -0.012025
vt 0.543457 -0.162109
vn 0.714236 0.015707 -0.699729
v 0.012436 -0.010071 -0.016587
vt 0.543457 -0.509766
vn 0.712657 0.022531 -0.701150
v 0.014385 0.217201 -0.000529
vt 0.517578 -0.162109
vn 0.999938 0.010985 0.001622
v 0.017591 -0.010071 -0.003815
vt 0.517578 -0.509766
vn 0.999895 0.014124 -0.003151
v -0.000001 -0.010071 -0.021884
vt 0.569336 -0.509766
vn 0.001719 0.022404 -0.999748
v 0.009742 0.217082 0.010964
vt 0.491943 -0.162109
vn 0.712512 0.003873 0.701650
v 0.012433 -0.010071 0.008955
vt 0.491943 -0.509766
vn 0.715996 0.002269 0.698101
v 0.011634 0.564556 0.000316
vt 0.517578 0.282715
vn 0.998131 0.009797 0.060328
v -0.001454 0.216988 0.015727
vt 0.466064 -0.162109
vn -0.000719 -0.001606 0.999998
v -0.000006 -0.010071 0.014247
vt 0.466064 -0.509766
vn 0.001399 -0.006505 0.999978
v -0.002295 0.564540 0.014613
vt 0.466064 0.282715
vn -0.000507 0.005480 0.999985
v 0.007551 0.564552 0.010424
vt 0.491943 0.282715
vn 0.670537 0.009263 0.741818
v -0.002346 0.790408 0.012853
vt 0.466064 0.571289
vn -0.000704 0.024987 0.999687
v -0.002346 0.790408 0.012853
vt 0.491943 0.571289
vn -0.000704 0.024987 0.999687
v 0.010551 0.790352 -0.000384
vt 0.517578 0.571289
vn 0.994421 0.016798 0.104141
v -0.001961 1.001876 0.008162
vt 0.491943 0.841919
vn -0.001029 0.005792 0.999983
v 0.007555 0.564548 -0.009793
vt 0.543457 0.282715
vn 0.669666 0.009109 -0.742606
v 0.007287 1.001807 -0.001329
vt 0.517578 0.841919
vn 0.999044 0.002376 0.043646
v -0.001448 0.217260 -0.016793
vt 0.569336 -0.162109
vn -0.000310 0.015184 -0.999885
v -0.012440 -0.010071 -0.016592
vt 0.595215 -0.509766
vn -0.710985 0.013462 -0.703078
v 0.006774 0.790317 -0.009744
vt 0.543457 0.571289
vn 0.547917 0.009101 -0.836483
v 0.004666 1.156614 0.004049
vt 0.491943 1.039978
vn 0.706682 0.016568 0.707337
v -0.006951 1.156710 0.004046
vt 0.466064 1.039978
vn -0.658358 0.017369 0.752505
v -0.005220 1.279128 0.002981
vt 0.466064 1.196655
vn -0.559195 0.011382 0.828958
v 0.005063 1.279012 0.002984
vt 0.491943 1.196655
vn 0.891082 0.019165 0.453438
v -0.002365 1.393417 0.000878
vt 0.491943 1.342773
vn -0.008316 0.999622 0.026211
v -0.001957 1.001812 -0.010824
vt 0.543457 0.841919
vn -0.000707 0.006795 -0.999977
v -0.011457 0.790322 -0.009747
vt 0.569336 0.571289
vn -0.487909 0.010167 -0.872835
v 0.004668 1.156584 -0.007879
vt 0.543457 1.039978
vn 0.691410 0.015131 -0.722304
v -0.002289 0.564535 -0.013986
vt 0.569336 0.282715
vn -0.061430 0.007785 -0.998081
v 0.004666 1.156614 0.004049
vt 0.517578 1.039978
vn 0.706682 0.016568 0.707337
v 0.005063 1.279012 0.002984
vt 0.517578 1.196655
vn 0.891082 0.019165 0.453438
v 0.005065 1.278992 -0.007575
vt 0.543457 1.196655
vn 0.668164 0.046243 -0.742575
v -0.002365 1.393417 0.000878
vt 0.543457 1.342773
vn -0.008316 0.999622 0.026211
v -0.006949 1.156680 -0.007882
vt 0.569336 1.039978
vn -0.755765 0.017385 -0.654612
v -0.001957 1.001812 -0.010824
vt 0.569336 0.841919
vn -0.000707 0.006795 -0.999977
v -0.010529 1.283937 -0.005085
vt 0.595215 1.196655
vn -0.993825 0.068484 -0.087307
v -0.012644 0.217166 -0.012029
vt 0.595215 -0.162109
vn -0.714562 0.009471 -0.699508
v -0.012135 0.564523 -0.009797
vt 0.595215 0.282715
vn -0.714045 0.003895 -0.700089
v -0.011457 0.790322 -0.009747
vt 0.595215 0.571289
vn -0.487909 0.010167 -0.872835
v -0.017287 0.217047 -0.000536
vt 0.621094 -0.162109
vn -0.999997 0.002190 0.001302
v -0.017599 -0.010071 -0.003823
vt 0.621094 -0.509766
vn -0.999992 0.001380 -0.003604
v -0.016218 0.564519 0.000311
vt 0.621094 0.282715
vn -0.998178 0.007070 0.059927
v -0.012444 -0.010071 0.008949
vt 0.646973 -0.509766
vn -0.714788 -0.006830 0.699308
v -0.015238 0.790360 -0.000389
vt 0.621094 0.571289
vn -0.994449 0.018278 0.103620
v -0.011204 1.001880 -0.001333
vt 0.595215 0.841919
vn -0.999023 0.009290 0.043210
v -0.006949 1.156680 -0.007882
vt 0.595215 1.039978
vn -0.755765 0.017385 -0.654612
v -0.002346 0.790408 0.012853
vt 0.646973 0.571289
vn -0.000704 0.024987 0.999687
v -0.001961 1.001876 0.008162
vt 0.646973 0.841919
vn -0.001029 0.005792 0.999983
v -0.011204 1.001880 -0.001333
vt 0.621094 0.841919
vn -0.999023 0.009290 0.043210
v -0.006951 1.156710 0.004046
vt 0.646973 1.039978
vn -0.658358 0.017369 0.752505
v -0.012139 0.564526 0.010420
vt 0.646973 0.282715
vn -0.671116 0.007475 0.741315
v -0.002346 0.790408 0.012853
vt 0.672852 0.571289
vn -0.000704 0.024987 0.999687
v -0.002295 0.564540 0.014613
vt 0.672852 0.282715
vn -0.000507 0.005480 0.999985
v -0.001454 0.216988 0.015727
vt 0.672852 -0.162109
vn -0.000719 -0.001606 0.999998
v -0.012648 0.216973 0.010960
vt 0.646973 -0.162109
vn -0.713367 -0.002313 0.700787
v -0.000006 -0.010071 0.014247
vt 0.672852 -0.509766
vn 0.001399 -0.006505 0.999978
v -0.002365 1.393417 0.000878
vt 0.595215 1.342773
vn -0.008316 0.999622 0.026211
v 0.005065 1.278992 -0.007575
vt 0.569336 1.196655
vn 0.668164 0.046243 -0.742575
v -0.005220 1.279128 0.002981
vt 0.621094 1.196655
vn -0.559195 0.011382 0.828958
v -0.006951 1.156710 0.004046
vt 0.621094 1.039978
vn -0.658358 0.017369 0.752505
f 3/3/3 2/2/2 1/1/1
f 2/2/2 4/4/4 1/1/1
f 5/5/5 2/2/2 3/3/3
f 2/2/2 6/6/6 4/4/4
f 5/5/5 7/7/7 2/2/2
f 7/7/7 6/6/6 2/2/2
f 8/8/8 7/7/7 5/5/5
f 7/7/7 9/9/9 6/6/6
f 8/8/8 9/9/9 7/7/7
f 10/10/10 9/9/9 8/8/8
f 13/13/13 12/12/12 11/11/11
f 14/14/14 12/12/12 13/13/13
f 12/12/12 15/15/15 11/11/11
f 18/18/18 17/17/17 16/16/16
f 16/16/16 19/19/19 18/18/18
f 20/20/20 17/17/17 18/18/18
f 19/19/19 21/21/21 18/18/18
f 22/22/22 20/20/20 18/18/18
f 18/18/18 21/21/21 22/22/22
f 23/23/23 20/20/20 22/22/22
f 21/21/21 24/24/24 22/22/22
f 24/24/24 23/23/23 22/22/22
f 25/25/25 23/23/23 24/24/24
f 28/28/28 27/27/27 26/26/26
f 29/29/29 27/27/27 28/28/28
f 26/26/26 27/27/27 30/30/30
f 28/28/28 26/26/26 31/31/31
f 26/26/26 30/30/30 32/32/32
f 31/31/31 26/26/26 32/32/32
f 32/32/32 30/30/30 33/33/33
f 31/31/31 32/32/32 34/34/34
f 32/32/32 33/33/33 35/35/35
f 34/34/34 32/32/32 35/35/35
f 38/38/38 37/37/37 36/36/36
f 39/39/39 37/37/37 38/38/38
f 37/37/37 40/40/40 36/36/36
f 38/38/38 36/36/36 41/41/41
f 36/36/36 40/40/40 42/42/42
f 41/41/41 36/36/36 43/43/43
f 36/36/36 42/42/42 43/43/43
f 46/46/46 45/45/45 44/44/44
f 47/47/47 45/45/45 46/46/46
f 45/45/45 48/48/48 44/44/44
f 49/49/49 46/46/46 44/44/44
f 44/44/44 48/48/48 50/50/50
f 50/50/50 49/49/49 44/44/44
f 48/48/48 51/51/51 50/50/50
f 52/52/52 49/49/49 50/50/50
f 50/50/50 51/51/51 53/53/53
f 53/53/53 52/52/52 50/50/50
f 56/56/56 55/55/55 54/54/54
f 57/57/57 56/56/56 54/54/54
f 56/56/56 58/58/58 55/55/55
f 59/59/59 56/56/56 57/57/57
f 60/60/60 58/58/58 56/56/56
f 59/59/59 60/60/60 56/56/56
f 60/60/60 61/61/61 58/58/58
f 62/62/62 60/60/60 59/59/59
f 62/62/62 61/61/61 60/60/60
f 63/63/63 61/61/61 62/62/62
f 66/66/66 65/65/65 64/64/64
f 69/69/69 68/68/68 67/67/67
f 69/69/69 70/70/70 68/68/68
f 71/71/71 70/70/70 69/69/69
f 71/71/71 72/72/72 70/70/70
f 74/74/74 73/73/73 64/64/64
f 64/64/64 75/75/75 74/74/74
f 76/76/76 75/75/75 64/64/64
f 12/12/12 78/78/78 77/77/77
f 80/80/80 79/79/79 64/64/64
f 64/64/64 81/81/81 80/80/80
f 82/82/82 81/81/81 64/64/64
f 12/12/12 84/84/84 83/83/83
f 87/87/87 86/86/86 85/85/85
f 86/86/86 88/88/88 85/85/85
f 85/85/85 88/88/88 89/89/89
f 88/88/88 90/90/90 89/89/89
f 93/93/93 92/92/92 91/91/91
f 93/93/93 94/94/94 92/92/92
f 95/95/95 94/94/94 93/93/93
f 95/95/95 96/96/96 94/94/94
f 99/99/99 98/98/98 97/97/97
f 97/97/97 100/100/100 99/99/99
f 98/98/98 101/101/101 97/97/97
f 102/102/102 100/100/100 97/97/97
f 97/97/97 101/101/101 103/103/103
f 103/103/103 102/102/102 97/97/97
f 101/101/101 104/104/104 103/103/103
f 105/105/105 102/102/102 103/103/103
f 104/104/104 105/105/105 103/103/103
f 106/106/106 105/105/105 104/104/104
f 109/109/109 108/108/108 107/107/107
f 109/109/109 110/110/110 108/108/108
f 111/111/111 110/110/110 109/109/109
f 111/111/111 112/112/112 110/110/110
f 115/115/115 114/114/114 113/113/113
f 116/116/116 115/115/115 113/113/113
f 115/115/115 117/117/117 114/114/114
f 118/118/118 115/115/115 116/116/116
f 119/119/119 117/117/117 115/115/115
f 118/118/118 119/119/119 115/115/115
f 119/119/119 120/120/120 117/117/117
f 121/121/121 119/119/119 118/118/118
f 121/121/121 120/120/120 119/119/119
f 122/122/122 120/120/120 121/121/121
f 125/125/125 124/124/124 123/123/123
f 123/123/123 126/126/126 125/125/125
f 124/124/124 127/127/127 123/123/123
f 128/128/128 126/126/126 123/123/123
f 123/123/123 127/127/127 129/129/129
f 129/129/129 128/128/128 123/123/123
f 127/127/127 130/130/130 129/129/129
f 131/131/131 128/128/128 129/129/129
f 130/130/130 131/131/131 129/129/129
f 132/132/132 131/131/131 130/130/130
f 135/135/135 134/134/134 133/133/133
f 135/135/135 136/136/136 134/134/134
f 137/137/137 136/136/136 135/135/135
f 137/137/137 138/138/138 136/136/136
f 141/141/141 140/140/140 139/139/139
f 139/139/139 142/142/142 141/141/141
f 140/140/140 143/143/143 139/139/139
f 144/144/144 142/142/142 139/139/139
f 139/139/139 143/143/143 145/145/145
f 145/145/145 144/144/144 139/139/139
f 143/143/143 146/146/146 145/145/145
f 147/147/147 144/144/144 145/145/145
f 146/146/146 147/147/147 145/145/145
f 148/148/148 147/147/147 146/146/146
f 151/151/151 150/150/150 149/149/149
f 151/151/151 152/152/152 150/150/150
f 153/153/153 152/152/152 151/151/151
f 153/153/153 154/154/154 152/152/152
f 156/156/156 155/155/155 64/64/64
f 64/64/64 157/157/157 156/156/156
f 158/158/158 157/157/157 64/64/64
f 12/12/12 160/160/160 159/159/159
f 163/163/163 162/162/162 161/161/161
f 163/163/163 161/161/161 164/164/164
f 165/165/165 163/163/163 164/164/164
f 166/166/166 163/163/163 165/165/165
f 167/167/167 162/162/162 163/163/163
f 166/166/166 167/167/167 163/163/163
f 167/167/167 168/168/168 162/162/162
f 169/169/169 167/167/167 166/166/166
f 169/169/169 168/168/168 167/167/167
f 170/170/170 168/168/168 169/169/169
f 173/173/173 172/172/172 171/171/171
f 174/174/174 172/172/172 173/173/173
f 171/171/171 172/172/172 175/175/175
f 173/173/173 171/171/171 176/176/176
f 171/171/171 175/175/175 177/177/177
f 176/176/176 171/171/171 177/177/177
f 177/177/177 175/175/175 178/178/178
f 176/176/176 177/177/177 179/179/179
f 177/177/177 178/178/178 180/180/180
f 179/179/179 177/177/177 180/180/180
f 183/183/183 182/182/182 181/181/181
f 182/182/182 184/184/184 181/181/181
f 182/182/182 185/185/185 184/184/184
f 186/186/186 182/182/182 183/183/183
f 37/37/37 185/185/185 182/182/182
f 186/186/186 37/37/37 182/182/182
f 187/187/187 37/37/37 186/186/186
f 190/190/190 189/189/189 188/188/188
f 189/189/189 191/191/191 188/188/188
f 192/192/192 189/189/189 190/190/190
f 189/189/189 193/193/193 191/191/191
f 192/192/192 194/194/194 189/189/189
f 194/194/194 193/193/193 189/189/189
f 195/195/195 194/194/194 192/192/192
f 194/194/194 196/196/196 193/193/193
f 195/195/195 196/196/196 194/194/194
f 197/197/197 196/196/196 195/195/195
f 200/200/200 199/199/199 198/198/198
f 201/201/201 198/198/198 199/199/199
f 202/202/202 199/199/199 200/200/200
f 200/200/200 203/203/203 202/202/202
f 206/206/206 205/205/205 204/204/204
f 206/206/206 204/204/204 207/207/207
f 208/208/208 206/206/206 207/207/207
f 209/209/209 206/206/206 208/208/208
f 210/210/210 205/205/205 206/206/206
f 209/209/209 210/210/210 206/206/206
f 210/210/210 211/211/211 205/205/205
f 212/212/212 210/210/210 209/209/209
f 212/212/212 211/211/211 210/210/210
f 213/213/213 211/211/211 212/212/212
f 216/216/216 215/215/215 214/214/214
f 217/217/217 214/214/214 215/215/215
f 218/218/218 215/215/215 216/216/216
f 216/216/216 219/219/219 218/218/218
f 222/222/222 221/221/221 220/220/220
f 222/222/222 220/220/220 223/223/223
f 224/224/224 222/222/222 223/223/223
f 225/225/225 222/222/222 224/224/224
f 226/226/226 221/221/221 222/222/222
f 225/225/225 226/226/226 222/222/222
f 226/226/226 227/227/227 221/221/221
f 228/228/228 226/226/226 225/225/225
f 228/228/228 227/227/227 226/226/226
f 229/229/229 227/227/227 228/228/228
f 232/232/232 231/231/231 230/230/230
f 233/233/233 231/231/231 232/232/232
f 230/230/230 231/231/231 234/234/234
f 232/232/232 230/230/230 235/235/235
f 230/230/230 234/234/234 236/236/236
f 235/235/235 230/230/230 236/236/236
f 236/236/236 234/234/234 237/237/237
f 235/235/235 236/236/236 238/238/238
f 236/236/236 237/237/237 239/239/239
f 238/238/238 236/236/236 239/239/239
f 242/242/242 241/241/241 240/240/240
f 243/243/243 240/240/240 241/241/241
f 244/244/244 241/241/241 242/242/242
f 242/242/242 245/245/245 244/244/244
f 248/248/248 247/247/247 246/246/246
f 249/249/249 247/247/247 248/248/248
f 246/246/246 247/247/247 250/250/250
f 248/248/248 246/246/246 251/251/251
f 246/246/246 250/250/250 252/252/252
f 251/251/251 246/246/246 252/252/252
f 252/252/252 250/250/250 253/253/253
f 251/251/251 252/252/252 254/254/254
f 252/252/252 253/253/253 255/255/255
f 254/254/254 252/252/252 255/255/255
f 258/258/258 257/257/257 256/256/256
f 258/258/258 256/256/256 259/259/259
f 260/260/260 258/258/258 259/259/259
f 261/261/261 258/258/258 260/260/260
f 262/262/262 257/257/257 258/258/258
f 261/261/261 262/262/262 258/258/258
f 262/262/262 263/263/263 257/257/257
f 264/264/264 262/262/262 261/261/261
f 264/264/264 263/263/263 262/262/262
f 265/265/265 263/263/263 264/264/264
f 268/268/268 267/267/267 266/266/266
f 269/269/269 266/266/266 267/267/267
f 270/270/270 267/267/267 268/268/268
f 268/268/268 271/271/271 270/270/270
f 274/274/274 273/273/273 272/272/272
f 273/273/273 275/275/275 272/272/272
f 276/276/276 273/273/273 274/274/274
f 273/273/273 277/277/277 275/275/275
f 276/276/276 278/278/278 273/273/273
f 278/278/278 277/277/277 273/273/273
f 279/279/279 278/278/278 276/276/276
f 278/278/278 280/280/280 277/277/277
f 279/279/279 280/280/280 278/278/278
f 281/281/281 280/280/280 279/279/279
f 284/284/284 283/283/283 282/282/282
f 285/285/285 283/283/283 284/284/284
f 286/286/286 285/285/285 284/284/284
f 289/289/289 288/288/288 287/287/287
f 290/290/290 288/288/288 289/289/289
f 289/289/289 287/287/287 291/291/291
f 291/291/291 287/287/287 292/292/292
f 287/287/287 293/293/293 292/292/292
f 287/287/287 294/294/294 293/293/293
f 288/288/288 294/294/294 287/287/287
f 288/288/288 295/295/295 294/294/294
f 290/290/290 295/295/295 288/288/288
f 296/296/296 295/295/295 290/290/290
f 299/299/299 298/298/298 297/297/297
f 298/298/298 300/300/300 297/297/297
f 298/298/298 301/301/301 300/300/300
f 302/302/302 298/298/298 299/299/299
f 37/37/37 301/301/301 298/298/298
f 302/302/302 37/37/37 298/298/298
f 39/39/39 37/37/37 302/302/302
f 305/305/305 304/304/304 303/303/303
f 306/306/306 304/304/304 305/305/305
f 307/307/307 306/306/306 305/305/305
f 310/310/310 309/309/309 308/308/308
f 311/311/311 308/308/308 309/309/309
f 312/312/312 309/309/309 310/310/310
f 310/310/310 313/313/313 312/312/312
f 316/316/316 315/315/315 314/314/314
f 314/314/314 317/317/317 316/316/316
f 316/316/316 317/317/317 318/318/318
f 319/319/319 318/318/318 317/317/317
f 322/322/322 321/321/321 320/320/320
f 320/320/320 323/323/323 322/322/322
f 322/322/322 323/323/323 324/324/324
f 325/325/325 324/324/324 323/323/323
f 328/328/328 327/327/327 326/326/326
f 326/326/326 329/329/329 328/328/328
f 328/328/328 329/329/329 330/330/330
f 331/331/331 330/330/330 329/329/329
f 334/334/334 333/333/333 332/332/332
f 335/335/335 332/332/332 333/333/333
f 336/336/336 333/333/333 334/334/334
f 334/334/334 337/337/337 336/336/336
f 340/340/340 339/339/339 338/338/338
f 338/338/338 341/341/341 340/340/340
f 340/340/340 341/341/341 342/342/342
f 343/343/343 342/342/342 341/341/341
f 346/346/346 345/345/345 344/344/344
f 347/347/347 344/344/344 345/345/345
f 348/348/348 345/345/345 346/346/346
f 346/346/346 349/349/349 348/348/348
f 352/352/352 351/351/351 350/350/350
f 350/350/350 353/353/353 352/352/352
f 352/352/352 353/353/353 354/354/354
f 355/355/355 354/354/354 353/353/353
f 358/358/358 357/357/357 356/356/356
f 359/359/359 356/356/356 357/357/357
f 360/360/360 357/357/357 358/358/358
f 358/358/358 361/361/361 360/360/360
f 363/363/363 362/362/362 282/282/282
f 364/364/364 362/362/362 363/363/363
f 365/365/365 364/364/364 363/363/363
f 368/368/368 367/367/367 366/366/366
f 369/369/369 367/367/367 368/368/368
f 366/366/366 367/367/367 370/370/370
f 368/368/368 366/366/366 371/371/371
f 366/366/366 370/370/370 372/372/372
f 371/371/371 366/366/366 372/372/372
f 372/372/372 370/370/370 373/373/373
f 371/371/371 372/372/372 374/374/374
f 372/372/372 373/373/373 375/375/375
f 374/374/374 372/372/372 375/375/375
f 378/378/378 377/377/377 376/376/376
f 379/379/379 376/376/376 377/377/377
f 379/379/379 377/377/377 380/380/380
f 383/383/383 382/382/382 381/381/381
f 382/382/382 384/384/384 381/381/381
f 381/381/381 384/384/384 282/282/282
f 387/387/387 386/386/386 385/385/385
f 388/388/388 386/386/386 387/387/387
f 385/385/385 386/386/386 389/389/389
f 387/387/387 385/385/385 390/390/390
f 385/385/385 389/389/389 391/391/391
f 390/390/390 385/385/385 391/391/391
f 391/391/391 389/389/389 392/392/392
f 390/390/390 391/391/391 393/393/393
f 391/391/391 392/392/392 394/394/394
f 393/393/393 391/391/391 394/394/394
f 397/397/397 396/396/396 395/395/395
f 398/398/398 396/396/396 397/397/397
f 396/396/396 399/399/399 395/395/395
f 400/400/400 398/398/398 397/397/397
f 401/401/401 398/398/398 400/400/400
f 395/395/395 402/402/402 397/397/397
f 397/397/397 402/402/402 400/400/400
f 403/403/403 401/401/401 400/400/400
f 404/404/404 401/401/401 403/403/403
f 403/403/403 400/400/400 405/405/405
f 405/405/405 400/400/400 406/406/406
f 405/405/405 406/406/406 407/407/407
f 400/400/400 402/402/402 406/406/406
f 406/406/406 402/402/402 408/408/408
f 408/408/408 402/402/402 409/409/409
f 408/408/408 409/409/409 410/410/410
f 411/411/411 409/409/409 402/402/402
f 411/411/411 402/402/402 395/395/395
f 410/410/410 409/409/409 412/412/412
f 413/413/413 411/411/411 395/395/395
f 395/395/395 399/399/399 413/413/413
f 414/414/414 413/413/413 399/399/399
f 415/415/415 409/409/409 411/411/411
f 415/415/415 412/412/412 409/409/409
f 410/410/410 412/412/412 416/416/416
f 416/416/416 417/417/417 410/410/410
f 417/417/417 416/416/416 418/418/418
f 418/418/418 416/416/416 419/419/419
f 418/418/418 419/419/419 420/420/420
f 421/421/421 412/412/412 415/415/415
f 415/415/415 422/422/422 421/421/421
f 412/412/412 421/421/421 423/423/423
f 415/415/415 424/424/424 422/422/422
f 411/411/411 424/424/424 415/415/415
f 424/424/424 411/411/411 413/413/413
f 423/423/423 425/425/425 412/412/412
f 425/425/425 423/423/423 426/426/426
f 426/426/426 423/423/423 427/427/427
f 426/426/426 427/427/427 428/428/428
f 423/423/423 429/429/429 427/427/427
f 429/429/429 423/423/423 430/430/430
f 427/427/427 429/429/429 431/431/431
f 432/432/432 424/424/424 413/413/413
f 432/432/432 413/413/413 414/414/414
f 433/433/433 424/424/424 432/432/432
f 424/424/424 433/433/433 434/434/434
f 414/414/414 435/435/435 432/432/432
f 436/436/436 435/435/435 414/414/414
f 432/432/432 437/437/437 433/433/433
f 433/433/433 437/437/437 434/434/434
f 435/435/435 437/437/437 432/432/432
f 436/436/436 438/438/438 435/435/435
f 434/434/434 437/437/437 439/439/439
f 439/439/439 430/430/430 434/434/434
f 440/440/440 430/430/430 439/439/439
f 430/430/430 440/440/440 441/441/441
f 437/437/437 442/442/442 439/439/439
f 442/442/442 443/443/443 439/439/439
f 439/439/439 443/443/443 444/444/444
f 443/443/443 445/445/445 444/444/444
f 446/446/446 442/442/442 437/437/437
f 435/435/435 446/446/446 437/437/437
f 446/446/446 448/448/448 447/447/447
f 448/448/448 446/446/446 449/449/449
f 450/450/450 446/446/446 435/435/435
f 449/449/449 446/446/446 450/450/450
f 435/435/435 438/438/438 450/450/450
f 449/449/449 450/450/450 451/451/451
f 451/451/451 450/450/450 438/438/438
f 453/453/453 431/431/431 452/452/452
f 431/431/431 454/454/454 452/452/452
f 431/431/431 455/455/455 454/454/454
f 441/441/441 455/455/455 431/431/431
f 455/455/455 441/441/441 444/444/444
