# Exported from Godot Engine
o MS_Tree_B_Collider
v -0.005859 3.000000 -0.014143
vn 0.923667 0.020896 -0.382625
v 0.049496 -0.100000 -0.049498
vn 0.923667 0.020896 -0.382625
v -0.000001 3.000000 -0.000001
vn 0.923667 0.020896 -0.382625
v 0.070000 -0.100000 -0.000001
vn 0.923667 0.020896 -0.382625
v -0.000001 3.000000 -0.000001
vn 0.923640 0.020912 0.382689
v 0.070000 -0.100000 -0.000001
vn 0.923640 0.020912 0.382689
v -0.005859 3.000000 0.014141
vn 0.923640 0.020912 0.382689
v 0.049496 -0.100000 0.049496
vn 0.923640 0.020912 0.382689
v -0.005859 3.000000 0.014141
vn 0.382645 0.017346 0.923733
v 0.049496 -0.100000 0.049496
vn 0.382645 0.017346 0.923733
v -0.020001 3.000000 0.019999
vn 0.382645 0.017346 0.923733
v -0.000001 -0.100000 0.070000
vn 0.382645 0.017346 0.923733
v -0.020001 3.000000 0.019999
vn -0.382658 0.012375 0.923807
v -0.000001 -0.100000 0.070000
vn -0.382658 0.012375 0.923807
v -0.034145 3.000000 0.014141
vn -0.382658 0.012375 0.923807
v -0.049498 -0.100000 0.049496
vn -0.382658 0.012375 0.923807
v -0.034145 3.000000 0.014141
vn -0.923824 0.008892 0.382714
v -0.049498 -0.100000 0.049496
vn -0.923824 0.008892 0.382714
v -0.040000 3.000000 -0.000001
vn -0.923824 0.008892 0.382714
v -0.070000 -0.100000 -0.000001
vn -0.923824 0.008892 0.382714
v -0.040000 3.000000 -0.000001
vn -0.923852 0.008857 -0.382648
v -0.070000 -0.100000 -0.000001
vn -0.923852 0.008857 -0.382648
v -0.034145 3.000000 -0.014143
vn -0.923852 0.008857 -0.382648
v -0.049498 -0.100000 -0.049498
vn -0.923852 0.008857 -0.382648
v 0.049496 -0.100000 -0.049498
vn -0.000031 -1.000000 -0.000122
v -0.000001 -0.100000 -0.070000
vn -0.000031 -1.000000 -0.000122
v -0.000001 -0.100000 -0.000001
vn -0.000031 -1.000000 -0.000122
v -0.049498 -0.100000 -0.049498
vn -0.000031 -1.000000 -0.000122
v 0.070000 -0.100000 -0.000001
vn -0.000031 -1.000000 -0.000122
v -0.070000 -0.100000 -0.000001
vn -0.000031 -1.000000 -0.000122
v 0.049496 -0.100000 0.049496
vn -0.000031 -1.000000 -0.000122
v -0.049498 -0.100000 0.049496
vn -0.000031 -1.000000 -0.000122
v -0.000001 -0.100000 0.070000
vn -0.000031 -1.000000 -0.000122
v -0.034145 3.000000 -0.014143
vn -0.382734 0.012387 -0.923776
v -0.049498 -0.100000 -0.049498
vn -0.382734 0.012387 -0.923776
v -0.020001 3.000000 -0.020001
vn -0.382734 0.012387 -0.923776
v -0.000001 -0.100000 -0.070000
vn -0.382734 0.012387 -0.923776
v -0.020001 3.000000 -0.020001
vn -0.000030 1.000000 -0.000000
v -0.005859 3.000000 -0.014143
vn -0.000030 1.000000 -0.000000
v -0.020001 3.000000 -0.000001
vn -0.000030 1.000000 -0.000000
v -0.000001 3.000000 -0.000001
vn -0.000030 1.000000 -0.000000
v -0.005859 3.000000 0.014141
vn -0.000030 1.000000 -0.000000
v -0.034145 3.000000 -0.014143
vn -0.000030 1.000000 -0.000000
v -0.040000 3.000000 -0.000001
vn -0.000030 1.000000 -0.000000
v -0.034145 3.000000 0.014141
vn -0.000030 1.000000 -0.000000
v -0.020001 3.000000 0.019999
vn -0.000030 1.000000 -0.000000
v -0.005859 3.000000 0.014141
vn -0.000030 1.000000 0.000122
v -0.020001 3.000000 0.019999
vn -0.000030 1.000000 0.000122
v -0.020001 3.000000 -0.000001
vn -0.000030 1.000000 0.000122
v -0.020001 3.000000 -0.020001
vn 0.382653 0.017461 -0.923727
v -0.000001 -0.100000 -0.070000
vn 0.382653 0.017461 -0.923727
v -0.005859 3.000000 -0.014143
vn 0.382653 0.017461 -0.923727
v 0.049496 -0.100000 -0.049498
vn 0.382653 0.017461 -0.923727
f 3//3 2//2 1//1
f 4//4 2//2 3//3
f 7//7 6//6 5//5
f 8//8 6//6 7//7
f 11//11 10//10 9//9
f 12//12 10//10 11//11
f 15//15 14//14 13//13
f 16//16 14//14 15//15
f 19//19 18//18 17//17
f 20//20 18//18 19//19
f 23//23 22//22 21//21
f 24//24 22//22 23//23
f 27//27 26//26 25//25
f 27//27 28//28 26//26
f 27//27 25//25 29//29
f 27//27 30//30 28//28
f 27//27 29//29 31//31
f 27//27 32//32 30//30
f 27//27 31//31 33//33
f 27//27 33//33 32//32
f 36//36 35//35 34//34
f 37//37 35//35 36//36
f 40//40 39//39 38//38
f 40//40 41//41 39//39
f 40//40 42//42 41//41
f 40//40 38//38 43//43
f 40//40 43//43 44//44
f 40//40 44//44 45//45
f 40//40 45//45 46//46
f 49//49 48//48 47//47
f 52//52 51//51 50//50
f 53//53 51//51 52//52
