# Exported from Godot Engine
o MS_Tree_Damaged_LOD3
v 0.107877 -0.051591 0.178515
vt 0.943200 0.576352
vn 0.449987 0.326494 0.831212
v -0.220157 -0.055351 0.110081
vt 0.786540 0.569933
vn -0.204231 -0.003931 0.978915
v -0.119745 0.244263 0.132213
vt 0.836684 0.757225
vn -0.564826 0.084792 0.820842
v 0.083258 0.078837 0.111852
vt 0.947155 0.690446
vn 0.688570 0.365967 0.626050
v -0.220157 -0.055351 0.110081
vt 0.261178 0.760026
vn -0.964141 0.068898 -0.256292
v -0.165672 0.179933 -0.031671
vt 0.079695 0.691212
vn -0.917480 0.112563 -0.381522
v -0.119745 0.244263 0.132213
vt 0.101615 0.807238
vn -0.564826 0.084792 0.820842
v -0.053840 -0.050356 -0.197330
vt 0.225439 0.633501
vn -0.219141 0.211711 -0.952447
v -0.119745 0.244263 0.132213
vt 0.287134 0.649379
vn -0.564826 0.084792 0.820842
v -0.155816 1.204160 -0.029075
vt 0.299031 0.625803
vn -0.942125 -0.054213 0.330850
v -0.001351 0.859292 0.150855
vt 0.191949 0.585006
vn 0.040996 0.051074 0.997853
v -0.119745 0.244263 0.132213
vt 0.709182 0.413324
vn -0.564826 0.084792 0.820842
v -0.165672 0.179933 -0.031671
vt 0.733912 0.301124
vn -0.917480 0.112563 -0.381522
v -0.155816 1.204160 -0.029075
vt 0.382552 0.388357
vn -0.942125 -0.054213 0.330850
v -0.118643 1.210818 0.120699
vt 0.279821 0.353755
vn 0.175962 0.070374 0.981878
v 0.087283 1.296926 0.077610
vt 0.123709 0.297456
vn 0.291195 0.050898 0.955309
v 0.099511 0.915430 0.045807
vt 0.108109 0.561059
vn 0.990304 0.035094 0.134413
v -0.094756 1.545881 0.123901
vt 0.244436 0.124522
vn 0.350543 0.086189 0.932572
v 0.079796 1.651493 0.035044
vt 0.082958 0.108675
vn 0.390553 0.122196 0.912435
v -0.155816 1.204160 -0.029075
vt 0.308019 0.449592
vn -0.942125 -0.054213 0.330850
v -0.118643 1.210818 0.120699
vt 0.279821 0.353755
vn -0.962917 -0.115001 0.244063
v -0.155816 1.204160 -0.029075
vt 0.842522 0.270115
vn -0.942125 -0.054213 0.330850
v -0.094756 1.545881 0.123901
vt 0.768605 0.095733
vn -0.950342 0.136693 0.279579
v -0.118643 1.210818 0.120699
vt 0.753654 0.190072
vn -0.962917 -0.115001 0.244063
v -0.139133 1.567597 -0.034004
vt 0.844245 0.020717
vn -0.952165 0.183476 0.244374
v -0.094756 1.545881 0.123901
vt 0.148869 0.895124
vn 0.350543 0.086189 0.932572
v -0.052381 1.763911 0.075770
vt 0.047600 0.838572
vn 0.388361 0.125984 0.912855
v 0.079796 1.651493 0.035044
vt 0.066475 0.951990
vn 0.390553 0.122196 0.912435
v -0.094756 1.545881 0.123901
vt 0.681615 0.959463
vn -0.950342 0.136693 0.279579
v -0.139133 1.567597 -0.034004
vt 0.709824 0.855717
vn -0.952165 0.183476 0.244374
v -0.052381 1.763911 0.075770
vt 0.578953 0.865892
vn -0.933014 0.313697 0.176293
v -0.076125 1.731219 -0.063411
vt 0.630065 0.822359
vn -0.926472 0.369575 0.071161
v 0.240743 -0.047425 -0.035814
vt 0.623784 0.800146
vn 0.773987 0.472374 0.421673
v 0.107877 -0.051591 0.178515
vt 0.763320 0.694296
vn 0.449987 0.326494 0.831212
v 0.083258 0.078837 0.111852
vt 0.659936 0.669939
vn 0.688570 0.365967 0.626050
v 0.097353 0.180828 -0.063425
vt 0.537578 0.638338
vn 0.799474 0.214058 -0.561266
v 0.083258 0.078837 0.111852
vt 0.712413 0.511834
vn 0.688570 0.365967 0.626050
v -0.001351 0.859292 0.150855
vt 0.336858 0.554401
vn 0.040996 0.051074 0.997853
v 0.083258 0.078837 0.111852
vt 0.724573 0.028120
vn 0.688570 0.365967 0.626050
v -0.001351 0.859292 0.150855
vt 0.305809 0.083706
vn 0.040996 0.051074 0.997853
v 0.099511 0.915430 0.045807
vt 0.292441 0.128737
vn 0.990304 0.035094 0.134413
v 0.097353 0.180828 -0.063425
vt 0.702552 0.098477
vn 0.799474 0.214058 -0.561266
v 0.017026 1.114393 -0.087955
vt 0.308832 0.235420
vn 0.387545 0.051830 -0.920393
v -0.058366 0.161157 -0.107293
vt 0.734848 0.247479
vn -0.177711 0.225181 -0.957973
v -0.155816 1.204160 -0.029075
vt 0.382552 0.388357
vn -0.334508 0.007368 -0.942364
v -0.058366 0.161157 -0.107293
vt 0.391554 0.660811
vn -0.177711 0.225181 -0.957973
v -0.165672 0.179933 -0.031671
vt 0.325854 0.647529
vn -0.917480 0.112563 -0.381522
v -0.053840 -0.050356 -0.197330
vt 0.398356 0.814029
vn -0.219141 0.211711 -0.952447
v 0.240743 -0.047425 -0.035814
vt 0.623784 0.800146
vn 0.470432 0.191334 -0.861444
v -0.058366 0.161157 -0.107293
vt 0.895509 0.524852
vn -0.177711 0.225181 -0.957973
v 0.017026 1.114393 -0.087955
vt 0.961091 0.320084
vn 0.387545 0.051830 -0.920393
v -0.155816 1.204160 -0.029075
vt 0.842522 0.270115
vn -0.334508 0.007368 -0.942364
v -0.076125 1.731219 -0.063411
vt 0.935095 0.022697
vn 0.461745 0.431353 -0.775065
v -0.139133 1.567597 -0.034004
vt 0.844245 0.020717
vn -0.439898 0.007968 -0.898012
v 0.079796 1.651493 0.035044
vt 0.979666 0.067053
vn 0.677090 0.301561 -0.671275
v 0.017026 1.114393 -0.087955
vt 0.019586 0.423362
vn 0.387545 0.051830 -0.920393
v 0.087283 1.296926 0.077610
vt 0.123709 0.297456
vn 0.921574 -0.002603 -0.388194
v 0.079796 1.651493 0.035044
vt 0.082958 0.108675
vn 0.677090 0.301561 -0.671275
v 0.079796 1.651493 0.035044
vt 0.520773 0.865072
vn 0.677090 0.301561 -0.671275
v -0.052381 1.763911 0.075770
vt 0.424314 0.882293
vn 0.570914 0.772223 -0.278799
v -0.076125 1.731219 -0.063411
vt 0.468174 0.917043
vn 0.461745 0.431353 -0.775065
f 3/3/3 2/2/2 1/1/1
f 3/3/3 1/1/1 4/4/4
f 7/7/7 6/6/6 5/5/5
f 6/6/6 8/8/8 5/5/5
f 11/11/11 10/10/10 9/9/9
f 14/14/14 13/13/13 12/12/12
f 16/16/16 15/15/15 11/11/11
f 17/17/17 16/16/16 11/11/11
f 16/16/16 18/18/18 15/15/15
f 19/19/19 18/18/18 16/16/16
f 21/21/21 20/20/20 11/11/11
f 24/24/24 23/23/23 22/22/22
f 25/25/25 22/22/22 23/23/23
f 28/28/28 27/27/27 26/26/26
f 31/31/31 30/30/30 29/29/29
f 30/30/30 31/31/31 32/32/32
f 35/35/35 34/34/34 33/33/33
f 36/36/36 35/35/35 33/33/33
f 38/38/38 12/12/12 37/37/37
f 41/41/41 40/40/40 39/39/39
f 41/41/41 39/39/39 42/42/42
f 43/43/43 41/41/41 42/42/42
f 43/43/43 42/42/42 44/44/44
f 45/45/45 44/44/44 13/13/13
f 48/48/48 47/47/47 46/46/46
f 36/36/36 48/48/48 46/46/46
f 36/36/36 49/49/49 48/48/48
f 52/52/52 51/51/51 50/50/50
f 52/52/52 53/53/53 51/51/51
f 54/54/54 53/53/53 52/52/52
f 53/53/53 55/55/55 51/51/51
f 57/57/57 17/17/17 56/56/56
f 58/58/58 57/57/57 56/56/56
f 61/61/61 60/60/60 59/59/59
