# Exported from Godot Engine
o MS_Tree_A_Obstruction
v -0.000008 2.000000 -0.000008
vn -0.000006 0.447246 -0.894411
v -0.500000 0.999985 -0.500000
vn -0.000006 0.447246 -0.894411
v 0.500000 0.999985 -0.500000
vn -0.000006 0.447246 -0.894411
v -0.000008 2.000000 -0.000008
vn -0.894464 0.447140 0.000009
v -0.500000 0.999985 0.500000
vn -0.894464 0.447140 0.000009
v -0.500000 0.999985 -0.500000
vn -0.894464 0.447140 0.000009
v -0.000008 2.000000 -0.000008
vn -0.000020 0.447177 0.894445
v 0.500000 0.999985 0.500000
vn -0.000020 0.447177 0.894445
v -0.500000 0.999985 0.500000
vn -0.000020 0.447177 0.894445
v -0.000008 2.000000 -0.000008
vn 0.894443 0.447181 0.000170
v 0.500000 0.999985 -0.500000
vn 0.894443 0.447181 0.000170
v 0.500000 0.999985 0.500000
vn 0.894443 0.447181 0.000170
v 0.500000 0.999985 0.500000
vn 0.000000 -0.000031 1.000000
v 0.500000 0.000000 0.500000
vn 0.000000 -0.000031 1.000000
v -0.500000 0.999985 0.500000
vn 0.000000 -0.000031 1.000000
v -0.500000 0.000000 0.500000
vn 0.000000 -0.000031 1.000000
v 0.500000 0.000000 -0.500000
vn -0.000031 -1.000000 -0.000122
v -0.500000 0.000000 -0.500000
vn -0.000031 -1.000000 -0.000122
v 0.500000 0.000000 0.500000
vn -0.000031 -1.000000 -0.000122
v -0.500000 0.000000 0.500000
vn -0.000031 -1.000000 -0.000122
v -0.500000 0.999985 -0.500000
vn 0.000031 -0.000030 -1.000000
v -0.500000 0.000000 -0.500000
vn 0.000031 -0.000030 -1.000000
v 0.500000 0.999985 -0.500000
vn 0.000031 -0.000030 -1.000000
v 0.500000 0.000000 -0.500000
vn 0.000031 -0.000030 -1.000000
v 0.500000 0.999985 -0.500000
vn 1.000000 -0.000031 -0.000000
v 0.500000 0.000000 -0.500000
vn 1.000000 -0.000031 -0.000000
v 0.500000 0.999985 0.500000
vn 1.000000 -0.000031 -0.000000
v 0.500000 0.000000 0.500000
vn 1.000000 -0.000031 -0.000000
v -0.500000 0.999985 0.500000
vn -1.000000 -0.000015 0.000024
v -0.500000 0.000000 0.500000
vn -1.000000 -0.000015 0.000024
v -0.500000 0.999985 -0.500000
vn -1.000000 -0.000015 0.000024
v -0.500000 0.000000 -0.500000
vn -1.000000 -0.000015 0.000024
f 3//3 2//2 1//1
f 6//6 5//5 4//4
f 9//9 8//8 7//7
f 12//12 11//11 10//10
f 15//15 14//14 13//13
f 16//16 14//14 15//15
f 19//19 18//18 17//17
f 20//20 18//18 19//19
f 23//23 22//22 21//21
f 24//24 22//22 23//23
f 27//27 26//26 25//25
f 28//28 26//26 27//27
f 31//31 30//30 29//29
f 32//32 30//30 31//31
