# Exported from Godot Engine
o MS_Rock_D_LOD2
v -1.799400 -0.454620 1.676533
vt 0.096452 0.598245
vn -0.775397 -0.385534 0.500123
v -1.930856 -0.044643 1.619137
vt 0.153643 0.604852
vn -0.765590 -0.045638 0.641708
v -1.424622 0.067688 1.822515
vt 0.153475 0.525689
vn -0.370706 0.130510 0.919535
v -1.455190 -0.698380 1.815899
vt 0.022324 0.563226
vn -0.422642 -0.153115 0.893269
v -1.525830 -0.698560 1.723533
vt 0.027436 0.591012
vn -0.682028 -0.666988 0.299942
v -1.111814 -0.653757 1.917802
vt 0.016938 0.478981
vn -0.321246 -0.014189 0.946889
v -1.760163 -0.485745 1.254054
vt 0.099260 0.669734
vn -0.809367 -0.570467 -0.139614
v -1.516840 -0.736075 1.527630
vt 0.024506 0.635096
vn -0.743480 -0.668257 0.025902
v -0.956148 -0.609743 1.976745
vt 0.026032 0.439231
vn -0.357550 0.023408 0.933600
v -1.689202 -0.404898 0.766446
vt 0.143038 0.733883
vn -0.896319 -0.439131 -0.061452
v -1.060439 0.117553 1.910499
vt 0.164660 0.470253
vn -0.201821 0.197533 0.959296
v -1.448383 -0.829128 0.924714
vt 0.048615 0.771054
vn -0.863689 -0.502128 0.043687
v -1.444979 -0.790284 1.334735
vt 0.012650 0.684001
vn -0.437744 -0.894759 0.088246
v -1.616571 -0.520460 0.463312
vt 0.160281 0.801862
vn -0.878457 -0.462129 0.121447
v -1.544261 -0.769929 0.590048
vt 0.106615 0.822797
vn -0.900719 -0.404821 0.157561
v -1.416402 -0.917800 0.714291
vt 0.058335 0.821195
vn -0.792610 -0.601594 0.099268
v -1.743081 -0.475693 -0.164263
vt 0.261265 0.839048
vn -0.847619 -0.478683 0.228923
v -1.458529 -0.883911 0.453088
vt 0.102007 0.861738
vn -0.756935 -0.649691 0.070371
v -1.486207 -0.890157 0.147291
vt 0.155703 0.905882
vn -0.672111 -0.731798 0.112865
v -1.434833 -0.941315 0.237079
vt 0.129976 0.903792
vn -0.771983 -0.630258 0.082573
v -1.591654 -0.853504 -0.167012
vt 0.225254 0.931991
vn -0.896934 -0.423311 0.127737
v -1.643735 -0.780196 -0.289194
vt 0.258244 0.930159
vn -0.893163 -0.397363 0.210625
v -1.766778 -0.682548 -0.520324
vt 0.319875 0.923674
vn -0.840595 -0.472039 0.265668
v -1.912040 -0.443024 -0.552029
vt 0.343755 0.868910
vn -0.978970 -0.202937 -0.020851
v -1.744237 -0.812685 -0.705916
vt 0.365148 0.959640
vn -0.941789 -0.306332 -0.138540
v -1.779364 -0.083523 0.536604
vt 0.208133 0.738094
vn -0.908561 -0.413969 0.056095
v -1.777052 -0.451173 -0.954832
vt 0.421729 0.888167
vn -0.991030 -0.117908 -0.062915
v -1.659533 -0.897050 -1.046339
vt 0.438025 0.982650
vn -0.955140 -0.292998 0.043116
v -1.871518 -0.521896 -1.525699
vt 0.502403 0.890501
vn -0.986783 -0.118657 0.110362
v -1.651313 -1.007442 -1.306082
vt 0.503670 0.986786
vn -0.835650 -0.544880 0.069245
v -1.763117 -0.028201 -0.907403
vt 0.417243 0.822278
vn -0.981376 0.164422 -0.099327
v -1.870362 -0.316405 -0.141923
vt 0.287007 0.825055
vn -0.925835 -0.334208 0.176448
v -1.878646 -0.020805 -0.407938
vt 0.344915 0.801999
vn -0.981725 0.138844 -0.130150
v -1.956479 -0.065752 0.131481
vt 0.268894 0.764019
vn -0.951257 -0.305480 0.042330
v -1.808391 -0.031863 -0.178354
vt 0.311788 0.792889
vn -0.980155 -0.198009 -0.009472
v -1.971570 0.188958 0.015744
vt 0.301396 0.745800
vn -0.987300 0.061776 -0.146365
v -1.904526 0.142359 0.496049
vt 0.248875 0.706950
vn -0.979461 -0.198382 0.036057
v -1.994560 0.135862 0.984344
vt 0.208652 0.662913
vn -0.948370 -0.249416 -0.195924
v -1.679184 0.212975 -0.593358
vt 0.390005 0.776471
vn -0.991470 0.094723 -0.089527
v -1.716430 0.567163 -0.459319
vt 0.387625 0.742519
vn -0.961977 0.227826 -0.150651
v -1.673853 0.565691 -1.165685
vt 0.466392 0.757504
vn -0.974255 0.222994 -0.033183
v -1.875371 0.660862 0.692037
vt 0.276509 0.643290
vn -0.942173 -0.080861 -0.325224
v -2.022495 0.584144 0.984000
vt 0.243580 0.629801
vn -0.836655 0.531830 0.131019
v -1.851546 0.777142 0.558686
vt 0.303227 0.651667
vn -0.697579 0.715431 0.039262
v -1.738072 0.559373 -0.304316
vt 0.370367 0.721859
vn -0.900252 0.417673 -0.122864
v -1.756695 0.684161 0.117046
vt 0.335424 0.682139
vn -0.909082 0.334505 -0.248345
v -1.567508 0.900350 -0.980609
vt 0.461875 0.720882
vn -0.596559 0.796272 -0.100340
v -1.496289 0.948743 -0.828699
vt 0.440055 0.693416
vn -0.368397 0.922622 -0.114246
v -1.527949 0.984033 -0.237812
vt 0.394461 0.668696
vn -0.517837 0.855146 -0.023872
v -1.722082 0.882328 0.108798
vt 0.347158 0.664317
vn -0.703888 0.700773 -0.116015
v -1.113034 1.059782 -0.165809
vt 0.420035 0.626978
vn -0.027717 0.996560 0.078107
v -1.245709 0.895073 -0.979148
vt 0.482002 0.686015
vn 0.080160 0.973470 -0.214314
v -1.218481 0.926916 0.157688
vt 0.375982 0.610605
vn -0.035163 0.969886 0.241007
v -1.140263 0.930542 0.593227
vt 0.343877 0.581079
vn -0.034594 0.999401 0.000958
v -1.564233 0.860968 -1.352136
vt 0.497185 0.732982
vn -0.562467 0.815450 -0.136645
v -0.977019 0.961093 -0.673609
vt 0.468956 0.644266
vn 0.077726 0.985798 -0.148868
v -0.578929 0.869404 -0.569472
vt 0.483696 0.614130
vn -0.112618 0.990163 -0.083036
v -0.533463 0.924295 -0.798196
vt 0.504646 0.622675
vn -0.229661 0.972675 -0.034057
v -0.628057 1.051991 -0.126887
vt 0.445762 0.585702
vn -0.026773 0.993488 0.110746
v -0.834519 0.806975 0.379195
vt 0.384451 0.565850
vn 0.042314 0.996972 0.065236
v -0.117905 1.156891 -0.413523
vt 0.499138 0.551888
vn -0.316945 0.948020 -0.028367
v -0.293735 1.045924 -0.857397
vt 0.524407 0.605905
vn -0.247611 0.968530 0.025281
v -0.969827 0.807226 -1.079334
vt 0.501060 0.673747
vn 0.057510 0.973742 -0.220270
v -0.162666 1.031995 -0.746213
vt 0.523842 0.589548
vn -0.412252 0.907868 -0.076318
v -0.092154 1.035441 -1.294912
vt 0.570397 0.615152
vn -0.371252 0.901132 -0.223903
v -0.351147 0.878164 -1.305910
vt 0.553689 0.642756
vn -0.283644 0.948414 -0.141623
v -1.059155 0.802666 -1.430325
vt 0.523720 0.698833
vn 0.056499 0.994924 -0.083269
v 0.184692 0.933737 -1.792058
vt 0.621485 0.635859
vn 0.281394 0.865992 -0.413370
v 0.258543 1.112447 -1.582579
vt 0.612696 0.609293
vn 0.091472 0.838308 -0.537469
v 0.240690 1.255939 -1.230041
vt 0.590204 0.581399
vn -0.132700 0.943163 -0.304686
v 0.607763 0.945261 -1.385388
vt 0.636851 0.568246
vn 0.680250 0.585050 -0.441563
v 0.546819 1.258272 -1.019532
vt 0.591028 0.538766
vn 0.321830 0.831455 -0.452889
v 0.625616 0.985110 -1.091534
vt 0.622126 0.544945
vn 0.619379 0.632668 -0.464867
v 1.087860 0.700783 -0.863497
vt 0.653895 0.487694
vn 0.812287 0.346458 -0.469209
v 0.457877 0.720276 -1.670822
vt 0.658106 0.610147
vn 0.675755 0.545059 -0.496252
v 0.772034 0.571722 -1.362361
vt 0.686961 0.565164
vn 0.791861 0.201093 -0.576644
v 1.114254 0.343902 -0.991349
vt 0.711818 0.487694
vn 0.817801 0.163141 -0.551893
v 0.350311 0.654149 -1.977564
vt 0.668086 0.645914
vn 0.779868 0.410149 -0.472847
v -0.041036 0.848582 -2.374867
vt 0.634867 0.683726
vn 0.357264 0.871757 -0.335264
v 0.939258 -0.140496 -1.204007
vt 0.780682 0.533104
vn 0.717209 0.148709 -0.680806
v -0.048036 0.349753 -2.666058
vt 0.667689 0.715816
vn 0.759814 0.059867 -0.647379
v 0.652651 0.185870 -1.542368
vt 0.738689 0.590646
vn 0.814750 0.021144 -0.579427
v -0.022091 0.706275 -2.548860
vt 0.651713 0.701610
vn 0.664128 0.459521 -0.589724
v -0.343055 0.903904 -1.853234
vt 0.592187 0.671595
vn -0.090848 0.995284 -0.034008
v -0.465648 0.806292 -2.710136
vt 0.630137 0.722560
vn -0.082278 0.830959 -0.550216
v -0.806327 0.818929 -1.429896
vt 0.545113 0.683986
vn -0.108261 0.986768 -0.120701
v -0.891224 0.812970 -2.337921
vt 0.596078 0.728954
vn -0.241821 0.961919 -0.127417
v -0.856417 0.754525 -2.574207
vt 0.610452 0.736355
vn -0.476112 0.547370 -0.688262
v -0.322248 0.667647 -2.844432
vt 0.642420 0.724605
vn 0.141785 0.373766 -0.916622
v -0.973295 0.748673 -1.976790
vt 0.566979 0.720760
vn -0.253245 0.967307 -0.013568
v -1.326303 0.697408 -2.121999
vt 0.565255 0.747738
vn -0.584013 0.698874 -0.412921
v -1.272617 0.779116 -1.852117
vt 0.547784 0.738567
vn -0.216524 0.941213 -0.259299
v -1.431622 0.876189 -1.563247
vt 0.516533 0.734005
vn -0.423962 0.839344 -0.340233
v -1.534435 0.514965 -1.978595
vt 0.546441 0.772625
vn -0.746408 0.437365 -0.501584
v -1.274415 0.316546 -2.298483
vt 0.584649 0.778561
vn -0.610488 0.189447 -0.769035
v -0.327900 0.452714 -2.839878
vt 0.650599 0.736767
vn 0.042488 0.212764 -0.976180
v -0.827968 0.216098 -2.561147
vt 0.630076 0.770550
vn -0.544799 0.039827 -0.837620
v -1.697165 0.492240 -1.662831
vt 0.517937 0.779522
vn -0.916166 0.350306 -0.194743
v -1.718678 -0.007702 -1.263808
vt 0.465324 0.828840
vn -0.979756 0.199648 0.014768
v -1.847436 -0.104309 -1.757173
vt 0.519829 0.841321
vn -0.962213 0.202646 -0.181883
v -1.586966 -0.133316 -2.151470
vt 0.568490 0.833448
vn -0.660298 0.003060 -0.750997
v -1.888728 -0.556719 -1.846704
vt 0.540032 0.882139
vn -0.885025 -0.213670 -0.413613
v -1.350514 0.075155 -2.314550
vt 0.589899 0.802121
vn -0.559146 0.084657 -0.824735
v -1.142253 -0.226404 -2.375813
vt 0.620325 0.821042
vn -0.472609 -0.104299 -0.875079
v -1.700889 -0.964757 -1.771093
vt 0.558953 0.936965
vn -0.580047 -0.718696 -0.383434
v -1.513372 -1.027905 -1.503617
vt 0.549599 0.989090
vn -0.179076 -0.978172 -0.105412
v -1.255149 -1.038424 -1.633703
vt 0.610483 0.987243
vn -0.084844 -0.966361 -0.242792
v -0.991854 -1.024962 -1.753650
vt 0.666880 0.974517
vn 0.153364 -0.843854 -0.514189
v -1.478373 -0.744547 -1.975415
vt 0.588449 0.902464
vn -0.447516 -0.394419 -0.802597
v -1.096080 -0.763000 -2.178449
vt 0.648524 0.891585
vn -0.134033 -0.676430 -0.724208
v -1.278589 -0.409314 -2.308192
vt 0.615991 0.848020
vn -0.496602 -0.172062 -0.850753
v -0.836638 -0.950433 -1.744715
vt 0.699229 0.968200
vn 0.091118 -0.874454 -0.476474
v -0.942470 -0.402421 -2.431404
vt 0.651591 0.824765
vn -0.233905 -0.554574 -0.798584
v -0.505399 -0.964255 -1.878667
vt 0.770657 0.922850
vn -0.203651 -0.861459 -0.465203
v -0.652074 -0.961634 -1.787504
vt 0.742885 0.952667
vn -0.085080 -0.990483 -0.108192
v -0.541811 -0.776821 -2.190650
vt 0.728298 0.855222
vn -0.132750 -0.684710 -0.716624
v -0.347165 -0.916113 -2.017517
vt 0.787762 0.877790
vn -0.200514 -0.861021 -0.467372
v -0.181546 -0.965583 -2.002567
vt 0.821912 0.857450
vn -0.026682 -0.730631 -0.682251
v 0.084640 -0.876659 -2.085224
vt 0.838880 0.791913
vn 0.061561 -0.808756 -0.584914
v -0.750007 -0.542718 -2.252686
vt 0.685359 0.843229
vn -0.025818 -0.593007 -0.804783
v 0.000192 -0.761815 -2.268840
vt 0.791531 0.785519
vn 0.292963 -0.580749 -0.759541
v -0.276717 -0.494720 -2.404940
vt 0.726497 0.794400
vn -0.165121 -0.642338 -0.748422
v 0.264965 -0.859499 -2.067438
vt 0.849348 0.753689
vn 0.584079 0.064905 -0.809098
v -0.150336 -0.257673 -2.668549
vt 0.698299 0.762371
vn 0.419207 -0.515313 -0.747475
v -0.733889 -0.222024 -2.673275
vt 0.659052 0.791760
vn -0.367505 -0.424420 -0.827531
v 0.679880 -0.596891 -1.650974
vt 0.871565 0.634302
vn 0.729100 0.079067 -0.679825
v 0.460767 -0.908143 -1.971893
vt 0.876432 0.719493
vn 0.623849 0.303501 -0.720208
v 0.573984 -0.947238 -1.762329
vt 0.914733 0.680323
vn 0.833258 -0.077670 -0.547401
v 0.918387 -0.936037 -1.345177
vt 0.959854 0.568261
vn 0.029190 -0.751000 -0.659657
v -0.549260 0.071026 -2.814531
vt 0.656916 0.760540
vn -0.521649 -0.085382 -0.848877
v 0.947542 -0.854868 -1.484199
vt 0.928603 0.572457
vn 0.230742 -0.411497 -0.881719
v 1.125106 -0.980123 -1.325586
vt 0.957504 0.516793
vn 0.629664 -0.180650 -0.755572
v 0.269396 -0.250349 -2.091926
vt 0.771435 0.695689
vn 0.787560 -0.079837 -0.611044
v -0.259443 0.016136 -2.908874
vt 0.672999 0.749645
vn 0.307956 -0.295030 -0.904500
v -0.360715 0.267686 -2.956818
vt 0.659175 0.744106
vn -0.047081 0.219629 -0.974447
v 1.274350 -0.789781 -1.172731
vt 0.907057 0.469001
vn 0.776390 0.130589 -0.616576
v 1.264075 -1.012899 -1.149274
vt 0.957565 0.464897
vn 0.805500 -0.098504 -0.584352
v 1.475546 -0.950541 -0.834885
vt 0.933440 0.383017
vn 0.835843 -0.248229 -0.489643
v 1.701146 -0.873428 -0.486213
vt 0.884703 0.298238
vn 0.870090 -0.161353 -0.465734
v 1.460712 -0.971471 -0.678593
vt 0.936614 0.348821
vn 0.465192 -0.874767 -0.135568
v 1.644248 -0.964757 -0.422631
vt 0.905547 0.282612
vn 0.581314 -0.676549 -0.452057
v 1.813078 -0.991000 -0.188235
vt 0.874846 0.225559
vn 0.922016 0.087726 -0.377081
v 1.776345 -0.584613 -0.035809
vt 0.782834 0.244389
vn 0.852746 0.167959 -0.494585
v 1.892003 -0.831066 0.049512
vt 0.811307 0.192935
vn 0.801206 0.116879 -0.586863
v 1.497766 -0.430351 -0.519035
vt 0.796414 0.363546
vn 0.853765 0.252937 -0.455092
v 2.140592 -0.641192 0.307192
vt 0.732677 0.163058
vn 0.925483 0.089076 -0.368166
v 2.122033 -0.733526 0.373696
vt 0.737621 0.139239
vn 0.966156 -0.257121 0.020789
v 2.100199 -0.317913 0.630001
vt 0.649012 0.179004
vn 0.983596 0.125980 0.129102
v 1.850389 -0.272966 0.094363
vt 0.712154 0.267109
vn 0.884649 0.153799 -0.440161
v 1.256369 -0.330047 -0.958871
vt 0.814649 0.453880
vn 0.807753 0.228689 -0.543357
v 1.449088 0.259681 -0.293833
vt 0.689677 0.379004
vn 0.859462 0.270310 -0.433886
v 2.035917 -0.721464 0.598038
vt 0.692668 0.105852
vn 0.894129 -0.163078 0.417059
v 2.067448 -0.758010 0.512460
vt 0.714443 0.112154
vn 0.932156 -0.040131 0.359825
v 1.875178 -0.771006 0.869209
vt 0.630671 0.063920
vn 0.842906 -0.099819 0.528721
v 1.819372 -0.464241 0.998779
vt 0.576089 0.115267
vn 0.798789 -0.023687 0.601145
v 1.770823 -0.875833 1.027133
vt 0.591440 0.031495
vn 0.831425 -0.089993 0.548301
v 2.031742 -0.036530 0.708534
vt 0.616632 0.210269
vn 0.941330 0.323923 0.094721
v 1.438107 -0.771401 1.530551
vt 0.457328 0.045823
vn 0.811999 -0.161998 0.560727
v 1.554728 -0.883301 1.297788
vt 0.514427 0.012390
vn 0.697795 -0.443293 0.562648
v 1.440804 -0.848693 1.440075
vt 0.470802 0.014908
vn 0.595414 -0.601897 0.532167
v 1.156317 -0.911733 1.891854
vt 0.358251 0.017227
vn 0.771320 -0.184657 0.609071
v 1.798501 0.137800 0.475943
vt 0.615930 0.261143
vn 0.921469 0.360102 -0.145675
v 1.774483 0.384684 0.392942
vt 0.608606 0.299107
vn 0.958208 0.283998 -0.034393
v 1.892452 0.209492 0.916036
vt 0.566766 0.230701
vn 0.933221 0.250875 0.257217
v 1.177316 -0.652967 1.927340
vt 0.357427 0.070283
vn 0.778568 0.093782 0.620514
v 1.613423 0.617028 0.624073
vt 0.561242 0.311467
vn 0.946132 0.323051 0.021729
v 1.544581 0.179696 1.363862
vt 0.486793 0.210086
vn 0.724633 0.052486 0.687133
v 1.029999 0.010140 1.816071
vt 0.386587 0.191455
vn 0.661475 0.166554 0.731239
v 1.441061 0.408988 1.413526
vt 0.471901 0.245716
vn 0.703126 0.133475 0.698425
v 1.768446 0.520529 1.058839
vt 0.526406 0.264408
vn 0.849915 0.381393 0.363571
v 1.662101 0.705773 0.982626
vt 0.524285 0.289982
vn 0.938064 0.306162 0.162177
v 1.561856 1.069546 0.734483
vt 0.522072 0.339574
vn 0.772757 0.577126 -0.264144
v 1.421153 0.763751 1.376837
vt 0.470268 0.287297
vn 0.824781 0.104788 0.555658
v 1.417364 1.107780 0.551125
vt 0.530297 0.364416
vn 0.420069 0.907024 0.029158
v 1.576498 1.100851 1.074133
vt 0.495323 0.321981
vn 0.683358 0.689482 0.240076
v 1.301514 0.991751 1.496784
vt 0.452628 0.310796
vn 0.525694 0.549164 0.649665
v 0.879856 0.353702 1.870803
vt 0.369787 0.256352
vn 0.524194 0.212980 0.824536
v 1.160298 1.121171 1.193995
vt 0.462318 0.343236
vn 0.041785 0.986226 0.160040
v 0.947478 1.025713 1.630994
vt 0.421500 0.324407
vn 0.115706 0.764078 0.634663
v 0.806391 1.131366 0.589360
vt 0.485588 0.406287
vn 0.147095 0.977482 0.151299
v 0.681357 0.841079 1.798628
vt 0.378225 0.322774
vn 0.141023 0.601997 0.785947
v 1.532508 1.046104 0.471733
vt 0.549844 0.359670
vn 0.806083 0.581251 0.111254
v 1.152399 1.231275 -0.029279
vt 0.557641 0.426505
vn 0.525723 0.840617 -0.130299
v 1.451336 0.716650 0.038513
vt 0.615351 0.381628
vn 0.822563 0.356995 -0.442656
v 1.039889 1.221044 -0.327343
vt 0.579309 0.457893
vn 0.671132 0.734699 -0.098993
v 0.798491 1.255364 0.174872
vt 0.518517 0.443961
vn 0.024603 0.966215 0.256560
v 0.690412 1.314276 -0.091315
vt 0.534646 0.466926
vn 0.015254 0.999368 0.032120
v 0.984661 1.287243 -0.538625
vt 0.584375 0.475578
vn 0.549297 0.805604 -0.221980
v 0.428272 1.266206 -0.286186
vt 0.527810 0.508324
vn -0.183048 0.983048 -0.010472
v -0.218728 0.955456 0.462453
vt 0.420432 0.510933
vn -0.396474 0.915083 -0.073700
v 0.221296 1.223808 0.185698
vt 0.478355 0.485924
vn -0.392525 0.918128 -0.054450
v 0.338623 1.186042 1.042342
vt 0.418494 0.418616
vn 0.038966 0.990503 0.131852
v -0.162858 1.043232 0.639281
vt 0.412863 0.488869
vn -0.380123 0.917838 -0.114367
v -0.619901 0.875112 0.714463
vt 0.369970 0.524163
vn -0.145423 0.973981 -0.173821
v 0.677119 1.071593 1.231886
vt 0.422446 0.373129
vn 0.032719 0.977062 0.210426
v -0.726375 0.936178 1.134021
vt 0.334524 0.507836
vn -0.175548 0.984097 0.027119
v 0.609561 0.927849 1.643453
vt 0.384756 0.342962
vn -0.027173 0.884630 0.465501
v -0.152134 1.049478 1.219513
vt 0.362264 0.445609
vn -0.306234 0.951613 0.025543
v 0.218214 0.989920 1.690366
vt 0.351751 0.377417
vn 0.121340 0.874680 0.469266
v 0.146097 1.175308 1.191417
vt 0.390204 0.423392
vn -0.094948 0.987375 0.126785
v -0.343248 0.954882 1.789005
vt 0.301915 0.421775
vn -0.211923 0.862277 0.459963
v -1.272745 0.805826 1.262302
vt 0.274144 0.541894
vn -0.396449 0.845441 0.357852
v -0.079246 0.757181 2.071775
vt 0.289219 0.371313
vn -0.124663 0.341115 0.931719
v -0.680972 0.763069 1.809970
vt 0.266682 0.446494
vn -0.396628 0.457827 0.795664
v 0.156950 0.607658 2.100387
vt 0.293553 0.341024
vn 0.055329 0.449848 0.891390
v -0.408430 0.528930 1.875443
vt 0.245365 0.402060
vn -0.316017 0.113027 0.941997
v -1.059412 0.568061 1.677478
vt 0.227451 0.494942
vn -0.385740 0.743589 0.546150
v 0.548489 0.252716 2.130975
vt 0.300679 0.261570
vn 0.522219 0.397596 0.754456
v -0.697348 0.588703 1.828701
vt 0.242023 0.443305
vn -0.201922 0.194188 0.959958
v -0.250837 0.246828 2.059316
vt 0.215900 0.361181
vn -0.359025 0.336998 0.870364
v 1.053567 -0.340530 1.919950
vt 0.355978 0.143908
vn 0.625708 0.267573 0.732731
v 0.276653 0.284057 2.292939
vt 0.258137 0.285222
vn 0.097849 0.468503 0.878027
v 0.632037 -0.389677 2.312787
vt 0.265827 0.155612
vn 0.591230 0.352283 0.725495
v 0.294570 -0.261909 2.523811
vt 0.190753 0.204822
vn 0.090627 0.367845 0.925461
v -0.041164 0.046040 2.260116
vt 0.196338 0.300801
vn -0.438532 0.317142 0.840899
v -0.448438 -0.527748 2.186481
vt 0.076371 0.319402
vn -0.444030 0.152756 0.882895
v -0.807932 0.279497 1.868999
vt 0.192660 0.445121
vn -0.164269 0.373307 0.913048
v -1.338120 0.429882 1.798800
vt 0.200046 0.519966
vn -0.374853 0.558534 0.739949
v -0.608662 -0.766410 2.141887
vt 0.009705 0.343084
vn -0.407028 0.103911 0.907486
v -0.258030 -0.840580 2.319660
vt 0.026215 0.249500
vn -0.611027 -0.085489 0.786980
v -0.135887 -0.620585 2.480592
vt 0.091539 0.235920
vn -0.573161 0.149358 0.805716
v 0.044118 -0.746737 2.578372
vt 0.091005 0.181094
vn -0.416687 -0.100975 0.903425
v 0.183600 -0.658818 2.638861
vt 0.128511 0.167636
vn -0.238154 0.065323 0.969028
v 0.229645 -0.811752 2.588081
vt 0.107073 0.140078
vn -0.318879 -0.383335 0.866817
v 0.398925 -0.804895 2.674089
vt 0.135241 0.118486
vn 0.226845 0.213409 0.950262
v 0.731961 -0.569643 2.357810
vt 0.246235 0.113573
vn 0.633401 0.314542 0.707012
v 0.544058 -0.828589 2.600969
vt 0.165698 0.093172
vn 0.598586 0.321953 0.733513
v 0.799583 -0.884234 2.296031
vt 0.241321 0.044404
vn 0.734478 -0.052862 0.676570
v 0.621185 -0.911554 2.551048
vt 0.175982 0.070390
vn 0.747189 0.356171 0.561116
v 0.840234 -0.916616 2.211312
vt 0.258701 0.029419
vn 0.528127 -0.677361 0.512116
v -1.818794 -0.166415 1.012355
vt 0.164096 0.678965
vn -0.881721 -0.437228 -0.177198
v -2.029495 -0.069988 1.371252
vt 0.167422 0.635157
vn -0.777940 -0.616464 0.121578
v -2.067962 0.331301 1.325541
vt 0.201740 0.616587
vn -0.872294 0.364155 0.326335
v -2.002909 0.506456 1.137630
vt 0.227497 0.619974
vn -0.734102 0.598498 0.320771
v -1.638662 0.347204 1.579784
vt 0.194034 0.565286
vn -0.466347 0.591957 0.657349
v -1.523775 0.501000 1.404589
vt 0.228031 0.555444
vn -0.402430 0.777788 0.482801
v -1.601094 0.724261 0.991304
vt 0.271427 0.592508
vn -0.329663 0.885648 0.327033
v -1.766778 -0.682548 -0.520324
vt 0.319875 0.923674
vn -0.840573 -0.472088 0.265651
v -1.643735 -0.780196 -0.289194
vt 0.258244 0.930159
vn -0.893155 -0.397402 0.210587
v -1.708210 -0.700247 -0.397455
vt 0.290089 0.922469
vn 0.897696 0.179083 -0.402580
f 3/3/3 2/2/2 1/1/1
f 3/3/3 1/1/1 4/4/4
f 1/1/1 5/5/5 4/4/4
f 3/3/3 4/4/4 6/6/6
f 5/5/5 1/1/1 7/7/7
f 1/1/1 2/2/2 7/7/7
f 8/8/8 5/5/5 7/7/7
f 3/3/3 6/6/6 9/9/9
f 8/8/8 7/7/7 10/10/10
f 11/11/11 3/3/3 9/9/9
f 10/10/10 12/12/12 8/8/8
f 12/12/12 13/13/13 8/8/8
f 10/10/10 14/14/14 12/12/12
f 12/12/12 14/14/14 15/15/15
f 12/12/12 15/15/15 16/16/16
f 17/17/17 14/14/14 10/10/10
f 17/17/17 15/15/15 14/14/14
f 18/18/18 16/16/16 15/15/15
f 15/15/15 19/19/19 18/18/18
f 19/19/19 20/20/20 18/18/18
f 21/21/21 19/19/19 15/15/15
f 17/17/17 21/21/21 15/15/15
f 17/17/17 22/22/22 21/21/21
f 17/17/17 23/23/23 22/22/22
f 23/23/23 17/17/17 24/24/24
f 24/24/24 25/25/25 23/23/23
f 26/26/26 17/17/17 10/10/10
f 27/27/27 25/25/25 24/24/24
f 27/27/27 28/28/28 25/25/25
f 27/27/27 29/29/29 28/28/28
f 30/30/30 28/28/28 29/29/29
f 31/31/31 27/27/27 24/24/24
f 27/27/27 31/31/31 29/29/29
f 32/32/32 24/24/24 17/17/17
f 33/33/33 24/24/24 32/32/32
f 33/33/33 31/31/31 24/24/24
f 17/17/17 34/34/34 32/32/32
f 26/26/26 34/34/34 17/17/17
f 34/34/34 35/35/35 32/32/32
f 32/32/32 35/35/35 33/33/33
f 34/34/34 36/36/36 35/35/35
f 35/35/35 36/36/36 33/33/33
f 34/34/34 26/26/26 37/37/37
f 36/36/36 34/34/34 37/37/37
f 26/26/26 38/38/38 37/37/37
f 39/39/39 31/31/31 33/33/33
f 40/40/40 39/39/39 33/33/33
f 39/39/39 40/40/40 31/31/31
f 40/40/40 33/33/33 36/36/36
f 41/41/41 31/31/31 40/40/40
f 42/42/42 36/36/36 37/37/37
f 42/42/42 37/37/37 43/43/43
f 37/37/37 38/38/38 43/43/43
f 44/44/44 36/36/36 42/42/42
f 43/43/43 44/44/44 42/42/42
f 36/36/36 45/45/45 40/40/40
f 36/36/36 46/46/46 45/45/45
f 44/44/44 46/46/46 36/36/36
f 45/45/45 47/47/47 40/40/40
f 41/41/41 40/40/40 47/47/47
f 48/48/48 45/45/45 46/46/46
f 48/48/48 47/47/47 45/45/45
f 49/49/49 48/48/48 46/46/46
f 49/49/49 46/46/46 50/50/50
f 46/46/46 44/44/44 50/50/50
f 49/49/49 51/51/51 48/48/48
f 49/49/49 50/50/50 51/51/51
f 48/48/48 52/52/52 47/47/47
f 51/51/51 52/52/52 48/48/48
f 53/53/53 50/50/50 44/44/44
f 51/51/51 50/50/50 53/53/53
f 54/54/54 53/53/53 44/44/44
f 41/41/41 47/47/47 55/55/55
f 55/55/55 47/47/47 52/52/52
f 51/51/51 56/56/56 52/52/52
f 56/56/56 51/51/51 57/57/57
f 52/52/52 56/56/56 58/58/58
f 57/57/57 58/58/58 56/56/56
f 59/59/59 51/51/51 53/53/53
f 51/51/51 59/59/59 57/57/57
f 59/59/59 53/53/53 60/60/60
f 60/60/60 53/53/53 54/54/54
f 59/59/59 61/61/61 57/57/57
f 61/61/61 59/59/59 60/60/60
f 58/58/58 57/57/57 62/62/62
f 63/63/63 52/52/52 58/58/58
f 57/57/57 64/64/64 62/62/62
f 57/57/57 61/61/61 64/64/64
f 58/58/58 62/62/62 65/65/65
f 62/62/62 64/64/64 65/65/65
f 63/63/63 58/58/58 66/66/66
f 58/58/58 65/65/65 66/66/66
f 67/67/67 52/52/52 63/63/63
f 66/66/66 67/67/67 63/63/63
f 67/67/67 55/55/55 52/52/52
f 66/66/66 65/65/65 68/68/68
f 65/65/65 64/64/64 69/69/69
f 68/68/68 65/65/65 69/69/69
f 70/70/70 69/69/69 64/64/64
f 61/61/61 70/70/70 64/64/64
f 70/70/70 71/71/71 69/69/69
f 61/61/61 72/72/72 70/70/70
f 70/70/70 72/72/72 73/73/73
f 71/71/71 70/70/70 73/73/73
f 72/72/72 74/74/74 73/73/73
f 74/74/74 71/71/71 73/73/73
f 71/71/71 75/75/75 69/69/69
f 75/75/75 68/68/68 69/69/69
f 75/75/75 71/71/71 76/76/76
f 74/74/74 77/77/77 71/71/71
f 71/71/71 77/77/77 76/76/76
f 68/68/68 75/75/75 78/78/78
f 75/75/75 76/76/76 78/78/78
f 79/79/79 68/68/68 78/78/78
f 77/77/77 80/80/80 76/76/76
f 76/76/76 81/81/81 78/78/78
f 76/76/76 80/80/80 82/82/82
f 82/82/82 81/81/81 76/76/76
f 83/83/83 78/78/78 81/81/81
f 79/79/79 78/78/78 83/83/83
f 84/84/84 68/68/68 79/79/79
f 68/68/68 84/84/84 66/66/66
f 79/79/79 83/83/83 85/85/85
f 86/86/86 66/66/66 84/84/84
f 84/84/84 79/79/79 87/87/87
f 79/79/79 85/85/85 87/87/87
f 86/86/86 84/84/84 87/87/87
f 67/67/67 66/66/66 86/86/86
f 88/88/88 87/87/87 85/85/85
f 83/83/83 89/89/89 85/85/85
f 85/85/85 89/89/89 88/88/88
f 81/81/81 89/89/89 83/83/83
f 86/86/86 90/90/90 67/67/67
f 87/87/87 90/90/90 86/86/86
f 87/87/87 91/91/91 90/90/90
f 91/91/91 87/87/87 88/88/88
f 90/90/90 92/92/92 67/67/67
f 90/90/90 91/91/91 92/92/92
f 67/67/67 92/92/92 93/93/93
f 93/93/93 55/55/55 67/67/67
f 93/93/93 92/92/92 55/55/55
f 92/92/92 91/91/91 94/94/94
f 55/55/55 92/92/92 94/94/94
f 91/91/91 88/88/88 95/95/95
f 91/91/91 95/95/95 94/94/94
f 88/88/88 89/89/89 96/96/96
f 89/89/89 81/81/81 96/96/96
f 97/97/97 95/95/95 88/88/88
f 88/88/88 96/96/96 97/97/97
f 94/94/94 98/98/98 55/55/55
f 55/55/55 98/98/98 41/41/41
f 41/41/41 98/98/98 99/99/99
f 31/31/31 41/41/41 99/99/99
f 99/99/99 29/29/29 31/31/31
f 98/98/98 100/100/100 99/99/99
f 94/94/94 100/100/100 98/98/98
f 99/99/99 100/100/100 29/29/29
f 94/94/94 101/101/101 100/100/100
f 101/101/101 94/94/94 95/95/95
f 100/100/100 102/102/102 29/29/29
f 100/100/100 101/101/101 102/102/102
f 95/95/95 103/103/103 101/101/101
f 95/95/95 97/97/97 103/103/103
f 103/103/103 104/104/104 101/101/101
f 103/103/103 97/97/97 104/104/104
f 102/102/102 101/101/101 104/104/104
f 102/102/102 105/105/105 29/29/29
f 30/30/30 29/29/29 105/105/105
f 30/30/30 105/105/105 106/106/106
f 105/105/105 107/107/107 106/106/106
f 107/107/107 105/105/105 108/108/108
f 109/109/109 105/105/105 102/102/102
f 110/110/110 108/108/108 105/105/105
f 109/109/109 110/110/110 105/105/105
f 102/102/102 111/111/111 109/109/109
f 104/104/104 111/111/111 102/102/102
f 111/111/111 110/110/110 109/109/109
f 110/110/110 112/112/112 108/108/108
f 104/104/104 113/113/113 111/111/111
f 110/110/110 111/111/111 113/113/113
f 115/115/115 112/112/112 114/114/114
f 116/116/116 114/114/114 112/112/112
f 110/110/110 116/116/116 112/112/112
f 114/114/114 116/116/116 117/117/117
f 116/116/116 118/118/118 117/117/117
f 118/118/118 116/116/116 119/119/119
f 120/120/120 116/116/116 110/110/110
f 113/113/113 120/120/120 110/110/110
f 116/116/116 121/121/121 119/119/119
f 116/116/116 120/120/120 122/122/122
f 120/120/120 113/113/113 122/122/122
f 122/122/122 121/121/121 116/116/116
f 123/123/123 119/119/119 121/121/121
f 122/122/122 113/113/113 124/124/124
f 121/121/121 122/122/122 124/124/124
f 113/113/113 125/125/125 124/124/124
f 113/113/113 104/104/104 125/125/125
f 104/104/104 97/97/97 125/125/125
f 126/126/126 123/123/123 121/121/121
f 123/123/123 126/126/126 127/127/127
f 127/127/127 126/126/126 128/128/128
f 128/128/128 126/126/126 129/129/129
f 125/125/125 97/97/97 130/130/130
f 126/126/126 131/131/131 129/129/129
f 131/131/131 132/132/132 129/129/129
f 133/133/133 126/126/126 121/121/121
f 121/121/121 124/124/124 133/133/133
f 125/125/125 134/134/134 124/124/124
f 125/125/125 130/130/130 134/134/134
f 133/133/133 124/124/124 134/134/134
f 97/97/97 135/135/135 130/130/130
f 130/130/130 135/135/135 134/134/134
f 96/96/96 135/135/135 97/97/97
f 96/96/96 81/81/81 135/135/135
f 81/81/81 134/134/134 135/135/135
f 134/134/134 81/81/81 133/133/133
f 81/81/81 82/82/82 133/133/133
f 82/82/82 80/80/80 133/133/133
f 133/133/133 80/80/80 126/126/126
f 80/80/80 131/131/131 126/126/126
f 131/131/131 80/80/80 136/136/136
f 131/131/131 136/136/136 132/132/132
f 136/136/136 137/137/137 132/132/132
f 136/136/136 138/138/138 137/137/137
f 136/136/136 139/139/139 138/138/138
f 138/138/138 139/139/139 140/140/140
f 139/139/139 141/141/141 140/140/140
f 139/139/139 142/142/142 141/141/141
f 139/139/139 143/143/143 142/142/142
f 143/143/143 144/144/144 142/142/142
f 136/136/136 145/145/145 139/139/139
f 145/145/145 143/143/143 139/139/139
f 143/143/143 146/146/146 144/144/144
f 144/144/144 146/146/146 147/147/147
f 148/148/148 146/146/146 143/143/143
f 146/146/146 148/148/148 147/147/147
f 145/145/145 149/149/149 143/143/143
f 143/143/143 149/149/149 148/148/148
f 150/150/150 145/145/145 136/136/136
f 136/136/136 80/80/80 150/150/150
f 150/150/150 80/80/80 77/77/77
f 151/151/151 145/145/145 150/150/150
f 77/77/77 151/151/151 150/150/150
f 151/151/151 149/149/149 145/145/145
f 74/74/74 151/151/151 77/77/77
f 147/147/147 148/148/148 152/152/152
f 152/152/152 153/153/153 147/147/147
f 148/148/148 154/154/154 152/152/152
f 148/148/148 155/155/155 154/154/154
f 156/156/156 154/154/154 155/155/155
f 157/157/157 148/148/148 149/149/149
f 148/148/148 157/157/157 155/155/155
f 156/156/156 155/155/155 158/158/158
f 158/158/158 159/159/159 156/156/156
f 160/160/160 159/159/159 158/158/158
f 158/158/158 161/161/161 160/160/160
f 162/162/162 157/157/157 149/149/149
f 163/163/163 162/162/162 149/149/149
f 151/151/151 163/163/163 149/149/149
f 164/164/164 157/157/157 162/162/162
f 158/158/158 165/165/165 161/161/161
f 163/163/163 166/166/166 162/162/162
f 166/166/166 164/164/164 162/162/162
f 164/164/164 167/167/167 157/157/157
f 155/155/155 157/157/157 167/167/167
f 155/155/155 168/168/168 158/158/158
f 155/155/155 167/167/167 168/168/168
f 168/168/168 165/165/165 158/158/158
f 169/169/169 167/167/167 164/164/164
f 169/169/169 168/168/168 167/167/167
f 170/170/170 164/164/164 166/166/166
f 164/164/164 170/170/170 169/169/169
f 166/166/166 171/171/171 170/170/170
f 170/170/170 171/171/171 169/169/169
f 172/172/172 171/171/171 166/166/166
f 171/171/171 173/173/173 169/169/169
f 174/174/174 172/172/172 166/166/166
f 172/172/172 175/175/175 171/171/171
f 175/175/175 173/173/173 171/171/171
f 175/175/175 172/172/172 174/174/174
f 169/169/169 173/173/173 176/176/176
f 173/173/173 175/175/175 176/176/176
f 176/176/176 177/177/177 169/169/169
f 177/177/177 168/168/168 169/169/169
f 178/178/178 176/176/176 175/175/175
f 175/175/175 174/174/174 178/178/178
f 178/178/178 179/179/179 176/176/176
f 179/179/179 177/177/177 176/176/176
f 180/180/180 178/178/178 174/174/174
f 177/177/177 179/179/179 181/181/181
f 166/166/166 182/182/182 174/174/174
f 182/182/182 166/166/166 163/163/163
f 182/182/182 183/183/183 174/174/174
f 174/174/174 183/183/183 180/180/180
f 184/184/184 182/182/182 163/163/163
f 183/183/183 182/182/182 184/184/184
f 184/184/184 163/163/163 151/151/151
f 183/183/183 184/184/184 185/185/185
f 151/151/151 185/185/185 184/184/184
f 180/180/180 183/183/183 186/186/186
f 187/187/187 186/186/186 183/183/183
f 180/180/180 186/186/186 187/187/187
f 185/185/185 187/187/187 183/183/183
f 151/151/151 188/188/188 185/185/185
f 188/188/188 187/187/187 185/185/185
f 188/188/188 151/151/151 74/74/74
f 188/188/188 74/74/74 72/72/72
f 188/188/188 72/72/72 189/189/189
f 189/189/189 187/187/187 188/188/188
f 61/61/61 189/189/189 72/72/72
f 61/61/61 190/190/190 189/189/189
f 61/61/61 60/60/60 190/190/190
f 187/187/187 189/189/189 191/191/191
f 189/189/189 190/190/190 191/191/191
f 187/187/187 191/191/191 192/192/192
f 187/187/187 192/192/192 180/180/180
f 191/191/191 190/190/190 193/193/193
f 193/193/193 192/192/192 191/191/191
f 60/60/60 194/194/194 190/190/190
f 193/193/193 190/190/190 194/194/194
f 54/54/54 194/194/194 60/60/60
f 180/180/180 192/192/192 195/195/195
f 180/180/180 195/195/195 178/178/178
f 178/178/178 195/195/195 179/179/179
f 54/54/54 196/196/196 194/194/194
f 193/193/193 194/194/194 196/196/196
f 179/179/179 195/195/195 197/197/197
f 197/197/197 181/181/181 179/179/179
f 198/198/198 193/193/193 196/196/196
f 199/199/199 197/197/197 195/195/195
f 195/195/195 192/192/192 199/199/199
f 193/193/193 200/200/200 192/192/192
f 200/200/200 199/199/199 192/192/192
f 198/198/198 200/200/200 193/193/193
f 201/201/201 200/200/200 198/198/198
f 198/198/198 196/196/196 201/201/201
f 199/199/199 200/200/200 201/201/201
f 202/202/202 201/201/201 196/196/196
f 196/196/196 54/54/54 202/202/202
f 199/199/199 201/201/201 203/203/203
f 199/199/199 203/203/203 197/197/197
f 201/201/201 204/204/204 203/203/203
f 204/204/204 201/201/201 202/202/202
f 197/197/197 203/203/203 205/205/205
f 181/181/181 197/197/197 205/205/205
f 177/177/177 181/181/181 205/205/205
f 204/204/204 206/206/206 203/203/203
f 203/203/203 206/206/206 205/205/205
f 202/202/202 207/207/207 204/204/204
f 177/177/177 205/205/205 208/208/208
f 177/177/177 208/208/208 168/168/168
f 204/204/204 209/209/209 206/206/206
f 209/209/209 204/204/204 207/207/207
f 206/206/206 210/210/210 205/205/205
f 168/168/168 208/208/208 211/211/211
f 211/211/211 165/165/165 168/168/168
f 205/205/205 212/212/212 208/208/208
f 205/205/205 210/210/210 212/212/212
f 211/211/211 208/208/208 213/213/213
f 211/211/211 213/213/213 165/165/165
f 208/208/208 212/212/212 214/214/214
f 208/208/208 214/214/214 213/213/213
f 212/212/212 210/210/210 215/215/215
f 212/212/212 215/215/215 214/214/214
f 216/216/216 215/215/215 210/210/210
f 216/216/216 214/214/214 215/215/215
f 217/217/217 210/210/210 206/206/206
f 206/206/206 209/209/209 217/217/217
f 210/210/210 217/217/217 11/11/11
f 210/210/210 11/11/11 216/216/216
f 209/209/209 218/218/218 217/217/217
f 218/218/218 11/11/11 217/217/217
f 218/218/218 209/209/209 207/207/207
f 11/11/11 218/218/218 3/3/3
f 11/11/11 9/9/9 216/216/216
f 9/9/9 219/219/219 216/216/216
f 216/216/216 219/219/219 220/220/220
f 216/216/216 220/220/220 221/221/221
f 216/216/216 221/221/221 214/214/214
f 222/222/222 221/221/221 220/220/220
f 223/223/223 221/221/221 222/222/222
f 223/223/223 214/214/214 221/221/221
f 222/222/222 224/224/224 223/223/223
f 224/224/224 225/225/225 223/223/223
f 225/225/225 214/214/214 223/223/223
f 213/213/213 214/214/214 225/225/225
f 213/213/213 225/225/225 226/226/226
f 226/226/226 225/225/225 227/227/227
f 213/213/213 226/226/226 165/165/165
f 227/227/227 228/228/228 226/226/226
f 165/165/165 226/226/226 228/228/228
f 228/228/228 227/227/227 229/229/229
f 228/228/228 161/161/161 165/165/165
f 161/161/161 228/228/228 230/230/230
f 2/2/2 231/231/231 7/7/7
f 7/7/7 231/231/231 10/10/10
f 26/26/26 10/10/10 231/231/231
f 38/38/38 26/26/26 231/231/231
f 2/2/2 232/232/232 231/231/231
f 231/231/231 232/232/232 38/38/38
f 232/232/232 2/2/2 233/233/233
f 233/233/233 38/38/38 232/232/232
f 234/234/234 38/38/38 233/233/233
f 2/2/2 235/235/235 233/233/233
f 235/235/235 234/234/234 233/233/233
f 38/38/38 234/234/234 43/43/43
f 234/234/234 235/235/235 43/43/43
f 2/2/2 3/3/3 235/235/235
f 218/218/218 235/235/235 3/3/3
f 218/218/218 236/236/236 235/235/235
f 43/43/43 235/235/235 236/236/236
f 218/218/218 207/207/207 236/236/236
f 202/202/202 236/236/236 207/207/207
f 237/237/237 43/43/43 236/236/236
f 237/237/237 236/236/236 202/202/202
f 237/237/237 44/44/44 43/43/43
f 54/54/54 237/237/237 202/202/202
f 54/54/54 44/44/44 237/237/237
f 240/240/240 239/239/239 238/238/238
