# Exported from Godot Engine
o MS_Rock_A_LOD2
v 0.496136 -0.072815 -1.029891
vt 0.583139 0.285954
vn -0.240503 -0.063106 -0.968595
v 0.677162 -0.128710 -1.045914
vt 0.559655 0.262455
vn 0.186355 -0.165157 -0.968501
v 0.630380 0.124907 -1.017470
vt 0.544869 0.299245
vn 0.169358 0.387130 -0.906338
v 0.439376 0.118558 -0.922714
vt 0.573892 0.322896
vn -0.302066 0.349288 -0.886991
v 0.175224 0.038947 -0.903358
vt 0.616083 0.345617
vn -0.127467 0.177945 -0.975750
v 0.418690 0.307814 -0.850510
vt 0.556939 0.344091
vn -0.051399 0.407006 -0.911978
v 0.102115 -0.108764 -0.907297
vt 0.651881 0.334051
vn -0.230342 -0.241565 -0.942650
v 0.363197 -0.346552 -0.845999
vt 0.655192 0.253361
vn -0.122614 -0.574324 -0.809393
v 0.838846 -0.020862 -0.876227
vt 0.517510 0.265782
vn 0.682847 0.337700 -0.647826
v -0.002540 0.158885 -0.892587
vt 0.612085 0.388022
vn -0.187745 0.356237 -0.915340
v -0.167832 0.106439 -0.875857
vt 0.655268 0.409445
vn -0.268653 0.320216 -0.908453
v 0.681307 0.339327 -0.837887
vt 0.516915 0.331624
vn 0.374309 0.472207 -0.798069
v 0.836506 0.225681 -0.733705
vt 0.493065 0.309712
vn 0.672368 0.338983 -0.658036
v 0.587628 0.535455 -0.724819
vt 0.511208 0.366308
vn -0.042358 0.631405 -0.774296
v 0.299567 0.390439 -0.825735
vt 0.559503 0.372412
vn -0.143665 0.582860 -0.799772
v 0.165438 0.518639 -0.592799
vt 0.546349 0.415824
vn -0.297025 0.707782 -0.640953
v 0.380121 0.552907 -0.612053
vt 0.524559 0.394690
vn -0.236604 0.724251 -0.647672
v 0.782892 0.498374 -0.728454
vt 0.492851 0.348165
vn 0.598048 0.316805 -0.736188
v 0.541575 0.701141 -0.569573
vt 0.495567 0.395346
vn -0.133168 0.608051 -0.782650
v 0.770918 0.401282 -0.700212
vt 0.494423 0.332235
vn 0.788190 0.068033 -0.611660
v 0.705101 0.704939 -0.552001
vt 0.478584 0.379767
vn 0.247494 0.664401 -0.705208
v 0.374480 0.672439 -0.480976
vt 0.509468 0.409476
vn -0.244869 0.376286 -0.893559
v 0.258964 0.708359 -0.461654
vt 0.514611 0.424231
vn -0.359864 0.413638 -0.836302
v 0.356097 0.800088 -0.492926
vt 0.500847 0.418463
vn -0.219079 0.331542 -0.917651
v 0.556158 0.861405 -0.431696
vt 0.479118 0.408499
vn 0.163308 0.803198 -0.572890
v 0.210032 0.895963 -0.393524
vt 0.498558 0.440574
vn -0.348494 0.574424 -0.740668
v 0.196178 0.738076 -0.394433
vt 0.514687 0.436881
vn -0.451745 0.321742 -0.832111
v -0.003538 0.511247 -0.490267
vt 0.554192 0.442603
vn -0.222907 0.699407 -0.679074
v 0.376514 0.876423 -0.431258
vt 0.489982 0.423697
vn 0.037882 0.723520 -0.689263
v -0.175200 0.415517 -0.561292
vt 0.579339 0.453742
vn -0.385618 0.652259 -0.652577
v -0.122738 0.654145 -0.384233
vt 0.540429 0.464378
vn -0.433821 0.578510 -0.690743
v 0.053721 0.817512 -0.339699
vt 0.512963 0.456199
vn -0.381237 0.493517 -0.781729
v -0.011137 0.872248 -0.234777
vt 0.501823 0.464729
vn -0.501243 0.734515 -0.457432
v -0.387274 0.362173 -0.457548
vt 0.596597 0.495872
vn -0.421145 0.723341 -0.547188
v -0.325793 0.612311 -0.168868
vt 0.542443 0.515663
vn -0.680387 0.725684 -0.102255
v -0.187941 0.747498 -0.198019
vt 0.519921 0.488426
vn -0.687965 0.670986 -0.276553
v -0.524818 0.471731 -0.163718
vt 0.565347 0.541146
vn -0.667761 0.743797 0.029357
v 0.204736 0.983053 -0.241981
vt 0.485679 0.451225
vn -0.076790 0.975366 -0.206799
v -0.183797 0.736220 -0.027457
vt 0.503059 0.502541
vn -0.734493 0.608273 0.300871
v 0.380889 0.941683 -0.355891
vt 0.482292 0.431495
vn 0.185647 0.899053 -0.396534
v -0.067206 0.893615 -0.097338
vt 0.495689 0.481910
vn -0.614719 0.783964 0.086720
v 0.104072 0.987402 -0.106022
vt 0.483940 0.466773
vn -0.225448 0.974244 0.004736
v 0.339211 0.932724 -0.128205
vt 0.469795 0.448920
vn 0.079282 0.994206 -0.072592
v 0.163058 0.958788 0.062284
vt 0.467430 0.474098
vn -0.156984 0.942209 0.295970
v 0.499436 0.915880 -0.228482
vt 0.463859 0.431739
vn 0.261977 0.951859 0.159163
v 0.499168 0.926172 -0.288602
vt 0.470146 0.423774
vn 0.183162 0.980890 -0.065629
v 0.408021 0.960179 -0.054958
vt 0.456382 0.453651
vn 0.329642 0.940886 0.077905
v 0.641164 0.877727 -0.347879
vt 0.465583 0.408240
vn 0.206230 0.943207 -0.260442
v 0.733385 0.837168 -0.204280
vt 0.444602 0.413077
vn 0.334470 0.878914 0.340060
v 0.524804 0.749324 0.136844
vt 0.424903 0.449348
vn 0.507543 0.733077 0.452768
v 0.360856 0.873234 0.180233
vt 0.441459 0.469429
vn 0.384805 0.808112 0.445960
v 0.150471 0.872161 0.264017
vt 0.453651 0.490837
vn -0.224232 0.782002 0.581544
v 0.647957 0.768691 0.051681
vt 0.426612 0.434272
vn 0.400189 0.758410 0.514455
v 0.756258 0.645593 0.081841
vt 0.409171 0.425406
vn 0.508759 0.709826 0.487145
v 0.419381 0.623704 0.505570
vt 0.397284 0.493568
vn 0.361062 0.620537 0.696109
v 0.225575 0.788086 0.345174
vt 0.436393 0.495323
vn -0.075849 0.720714 0.689071
v 0.482589 0.492025 0.577201
vt 0.379202 0.495949
vn 0.171465 0.559900 0.810625
v 0.282489 0.690356 0.471808
vt 0.416312 0.502602
vn -0.077347 0.669196 0.739050
v 0.206502 0.414647 0.594133
vt 0.395697 0.540322
vn -0.283963 0.405417 0.868909
v 0.101616 0.641099 0.399436
vt 0.435706 0.521675
vn -0.492104 0.441073 0.750525
v -0.116790 0.656204 0.262334
vt 0.469673 0.527459
vn -0.666155 0.443113 0.599907
v 0.002334 0.361999 0.399739
vt 0.429770 0.563012
vn -0.642957 0.417663 0.641999
v -0.156741 0.659480 0.081336
vt 0.495079 0.522469
vn -0.890869 0.339977 0.301278
v 0.055947 0.209736 0.666337
vt 0.383459 0.590890
vn -0.331954 0.491006 0.805431
v -0.298200 0.563054 -0.034862
vt 0.520150 0.529320
vn -0.641645 0.672597 0.368654
v -0.268649 0.506869 0.143206
vt 0.497917 0.548974
vn -0.665943 0.494131 0.558886
v -0.134942 0.364898 0.266070
vt 0.463203 0.571191
vn -0.537374 0.364441 0.760534
v -0.286571 0.056922 0.433535
vt 0.455650 0.647486
vn -0.425587 0.660576 0.618478
v -0.303189 0.378321 0.203796
vt 0.501930 0.579141
vn -0.458359 0.529977 0.713464
v -0.392186 0.248845 0.254356
vt 0.504875 0.611490
vn -0.517180 0.549716 0.656001
v -0.516797 0.390787 -0.073371
vt 0.554086 0.566873
vn -0.633287 0.574327 0.518745
v -0.699282 0.251512 -0.140963
vt 0.598367 0.580850
vn -0.752993 0.625832 0.203313
v -0.724381 0.169293 -0.042537
vt 0.594263 0.603540
vn -0.752536 0.406688 0.517972
v -0.474774 0.083884 0.321140
vt 0.504341 0.651362
vn -0.546200 0.646024 0.533216
v -0.556480 0.088783 0.128126
vt 0.553597 0.631113
vn -0.688478 0.481620 0.542254
v -0.822934 0.037903 -0.117804
vt 0.624201 0.623819
vn -0.751649 0.492839 0.438330
v -0.634347 0.330862 -0.227271
vt 0.597314 0.549447
vn -0.706280 0.679621 -0.198198
v -0.525778 0.311699 -0.415471
vt 0.614191 0.525917
vn -0.473325 0.749228 -0.463271
v -0.753778 0.178338 -0.372755
vt 0.644800 0.557946
vn -0.691183 0.677527 -0.251442
v -0.988187 -0.095776 -0.250194
vt 0.684886 0.629572
vn -0.993927 0.105982 0.029615
v -0.740806 0.061705 -0.604244
vt 0.681315 0.522286
vn -0.621466 0.570665 -0.536770
v -0.467406 0.180193 -0.654197
vt 0.653758 0.476890
vn -0.343648 0.709763 -0.614933
v -0.393222 -0.019964 -0.837517
vt 0.686336 0.442863
vn -0.210508 0.010278 -0.977538
v -0.537560 -0.012107 -0.813281
vt 0.691936 0.470893
vn -0.337567 0.127855 -0.932578
v -0.249959 -0.156484 -0.791367
vt 0.705730 0.404303
vn -0.158425 -0.444776 -0.881519
v -0.819941 -0.117665 -0.627369
vt 0.723873 0.535409
vn -0.660376 0.112882 -0.742402
v -0.969613 -0.083687 -0.340945
vt 0.704265 0.602029
vn -0.778328 0.616619 -0.118261
v -0.948620 -0.223136 -0.525308
vt 0.755230 0.577615
vn -0.639455 0.048431 -0.767301
v -0.410415 -0.345682 -0.642113
vt 0.777707 0.432303
vn -0.277112 -0.404850 -0.871381
v -0.082941 -0.235689 -0.769588
vt 0.705425 0.363180
vn -0.210735 -0.437712 -0.874070
v 0.098085 -0.306138 -0.789112
vt 0.700816 0.306401
vn -0.231267 -0.433416 -0.871015
v -0.256906 -0.404158 -0.685805
vt 0.775998 0.380514
vn -0.275194 -0.300503 -0.913218
v -0.827271 -0.511571 -0.466603
vt 0.848066 0.556725
vn -0.294408 -0.306372 -0.905240
v 0.159489 -0.607011 -0.664397
vt 0.767651 0.240055
vn -0.250788 -0.226328 -0.941213
v -0.448025 -0.686100 -0.483770
vt 0.902831 0.419928
vn -0.231485 -0.355535 -0.905544
v -0.197037 -0.856598 -0.489896
vt 0.938491 0.299626
vn -0.273822 -0.322015 -0.906272
v -0.304148 -0.831637 -0.470474
vt 0.948043 0.352544
vn -0.278116 -0.356180 -0.892069
v -0.344099 -0.857584 -0.441559
vt 0.967071 0.369192
vn -0.270720 -0.381650 -0.883773
v -0.532264 -0.797166 -0.435668
vt 0.955352 0.454032
vn -0.168498 -0.301626 -0.938419
v -0.097140 -0.867180 -0.535440
vt 0.918166 0.253788
vn -0.502180 0.067944 -0.862090
v -0.848570 -0.824882 -0.351313
vt 0.960952 0.592096
vn -0.267019 -0.307569 -0.913292
v -0.059224 -0.851931 -0.577550
vt 0.899031 0.239643
vn -0.640562 0.336549 -0.690228
v -0.953724 -0.852801 -0.308462
vt 0.962814 0.641505
vn -0.274413 -0.344507 -0.897782
v -1.095107 -0.811401 -0.281129
vt 0.932647 0.698589
vn -0.406736 -0.373260 -0.833812
v -1.174510 -0.603706 -0.311727
vt 0.849561 0.693355
vn -0.763037 0.026944 -0.645793
v -1.246851 -0.741589 -0.196706
vt 0.881651 0.754788
vn -0.832209 -0.087477 -0.547518
v -1.133676 -0.799224 -0.229391
vt 0.924758 0.725246
vn -0.483631 -0.860999 -0.157421
v 0.386223 -0.624957 -0.747473
vt 0.712551 0.173236
vn -0.400660 -0.066588 -0.913804
v 0.022981 -0.912552 -0.612962
vt 0.888167 0.193423
vn -0.342795 -0.018736 -0.939223
v 0.357095 -0.478086 -0.716100
vt 0.690242 0.218204
vn -0.230085 -0.350414 -0.907894
v 0.356941 -0.826911 -0.715293
vt 0.759182 0.116075
vn -0.262213 -0.126808 -0.956642
v 0.218322 -0.907913 -0.657530
vt 0.832639 0.130465
vn -0.204194 -0.312296 -0.927780
v 0.462364 -0.892403 -0.737004
vt 0.732540 0.068437
vn -0.240050 -0.106063 -0.964949
v 0.559881 -0.863122 -0.762890
vt 0.686778 0.059739
vn -0.307637 -0.245752 -0.919220
v 0.553779 -0.306660 -0.894842
vt 0.612985 0.233631
vn -0.133608 -0.465307 -0.875008
v 0.692360 -0.719614 -0.870842
vt 0.608026 0.097902
vn -0.075562 -0.277542 -0.957737
v 0.729931 -0.821838 -0.817253
vt 0.606302 0.058228
vn 0.116756 -0.564425 -0.817186
v 0.833013 -0.211394 -0.982900
vt 0.540169 0.234379
vn 0.356076 -0.058197 -0.932643
v 0.750732 -0.552072 -0.870572
vt 0.581857 0.150668
vn 0.091537 -0.022861 -0.995539
v 0.799778 -0.401317 -0.867442
vt 0.554604 0.189960
vn -0.059135 -0.268704 -0.961406
v 0.917942 -0.307588 -0.946680
vt 0.524346 0.209934
vn 0.373136 -0.085336 -0.923844
v 0.961155 -0.539490 -0.851789
vt 0.517205 0.150851
vn 0.285073 -0.214201 -0.934265
v 0.993623 -0.220526 -0.798503
vt 0.493980 0.225208
vn 0.743069 0.332518 -0.580759
v 0.987060 -0.649252 -0.813011
vt 0.504692 0.117327
vn 0.529917 -0.262242 -0.806484
v 1.071414 -0.431787 -0.815469
vt 0.486213 0.174548
vn 0.812234 -0.066457 -0.579533
v 1.065004 -0.109982 -0.645142
vt 0.459846 0.244801
vn 0.832985 0.254396 -0.491344
v 0.772569 -0.798761 -0.782480
vt 0.583307 0.049485
vn 0.385847 -0.912964 0.132733
v 0.846177 -0.769450 -0.794868
vt 0.551247 0.063905
vn 0.335942 -0.546789 -0.766919
v 0.935596 -0.842451 -0.755888
vt 0.507927 0.042573
vn 0.504965 -0.484480 -0.714346
v 1.076902 -0.714193 -0.711590
vt 0.469596 0.099062
vn 0.804503 -0.253146 -0.537301
v 0.958085 -0.862774 -0.687051
vt 0.474235 0.025422
vn 0.580414 -0.742178 -0.335100
v 1.104265 -0.506034 -0.638444
vt 0.442924 0.156832
vn 0.924346 -0.148387 -0.351519
v 1.116200 -0.826302 -0.485487
vt 0.386328 0.065034
vn 0.692843 -0.711005 -0.120171
v 1.154769 -0.725441 -0.471214
vt 0.388525 0.102892
vn 0.976311 -0.199380 -0.084054
v 0.992279 -0.852859 -0.468151
vt 0.382818 0.020340
vn 0.180040 -0.981776 0.060847
v 0.950908 -0.848481 -0.565298
vt 0.426337 0.009689
vn -0.316784 -0.944009 0.092168
v 0.986216 -0.845930 -0.387263
vt 0.346883 0.019669
vn 0.067638 -0.991759 -0.108808
v 1.055218 -0.868166 -0.293954
vt 0.312123 0.049699
vn 0.514504 -0.855787 0.053982
v 1.085153 -0.822968 -0.191657
vt 0.280324 0.082979
vn 0.722273 -0.630147 0.285019
v 1.010086 -0.828303 -0.155538
vt 0.251438 0.066773
vn 0.241981 -0.896824 0.370339
v 1.036490 -0.788150 -0.080575
vt 0.234318 0.102800
vn -0.501202 -0.863822 0.051064
v 1.033727 -0.795427 0.075176
vt 0.175296 0.164874
vn 0.954321 -0.281710 0.099556
v 1.184090 -0.373021 -0.477408
vt 0.403265 0.199969
vn 0.994155 0.004664 -0.107859
v 1.146979 -0.203305 0.015293
vt 0.309438 0.284825
vn 0.998194 -0.032087 0.050793
v 1.116123 -0.231514 -0.578695
vt 0.440925 0.226184
vn 0.916846 0.189180 -0.351575
v 1.151239 -0.256012 -0.287558
vt 0.369726 0.237354
vn 0.993125 -0.042724 0.108985
v 1.176145 -0.214960 -0.417726
vt 0.402380 0.238361
vn 0.982933 0.149309 -0.107465
v 1.059632 0.035149 -0.590510
vt 0.452995 0.276905
vn 0.889258 0.373108 -0.264595
v 1.172308 -0.001786 -0.213739
vt 0.379553 0.294285
vn 0.985011 0.056649 -0.162923
v 1.002296 0.314192 -0.550958
vt 0.458747 0.317296
vn 0.881674 0.440764 0.168459
v 0.943540 0.174569 -0.494542
vt 0.440909 0.304662
vn 0.943587 0.269430 0.192486
v 1.055103 0.129719 -0.284596
vt 0.405707 0.307210
vn 0.778789 0.295276 -0.553443
v 0.891846 0.447958 -0.545909
vt 0.464622 0.339803
vn 0.886270 0.308300 -0.345653
v 0.998727 0.342227 -0.283721
vt 0.422919 0.335866
vn 0.802926 0.172813 -0.570479
v 0.865711 0.611673 -0.496999
vt 0.462287 0.364767
vn 0.777794 0.265911 -0.569498
v 0.927306 0.439232 -0.353702
vt 0.439658 0.344198
vn 0.881717 0.208063 -0.423421
v 0.862487 0.764284 -0.452027
vt 0.459403 0.381048
vn 0.510540 0.552284 -0.659038
v 1.035953 0.719927 -0.250093
vt 0.431098 0.380865
vn 0.800550 0.581685 -0.144090
v 0.761516 0.883033 -0.360536
vt 0.456580 0.399405
vn 0.168486 0.938143 -0.302490
v 0.930837 0.657914 -0.081281
vt 0.416373 0.398627
vn 0.328664 0.718311 0.613196
v 1.119769 0.629126 -0.087946
vt 0.410224 0.377264
vn 0.711800 0.677327 0.185929
v 1.242999 0.450655 -0.044557
vt 0.391058 0.365011
vn 0.927474 0.372930 0.026745
v 0.918288 0.570331 -0.015608
vt 0.403616 0.402197
vn 0.396054 0.636467 0.661855
v 1.012312 0.460251 0.081606
vt 0.384939 0.390829
vn 0.302476 0.667625 0.680283
v 0.827870 0.486604 0.285290
vt 0.373739 0.428092
vn 0.554119 0.716519 0.423737
v 0.973052 0.386902 0.182421
vt 0.366949 0.404211
vn 0.562349 0.677092 0.474668
v 1.194451 0.342603 0.074907
vt 0.370886 0.368627
vn 0.822980 0.265949 0.501971
v 1.153349 0.148564 0.105270
vt 0.349569 0.350134
vn 0.980947 -0.157770 0.113367
v 1.115394 0.149723 0.369376
vt 0.316365 0.389075
vn 0.855456 0.445561 0.263951
v 1.128941 -0.033271 -0.068154
vt 0.351553 0.303517
vn 0.989728 -0.107143 0.094649
v 1.143218 0.066257 0.241329
vt 0.314656 0.359030
vn 0.996791 0.010460 0.079365
v 1.083541 -0.496380 0.307574
vt 0.197177 0.288060
vn 0.992045 -0.117951 0.043983
v 1.121534 0.072200 0.521997
vt 0.288884 0.404013
vn 0.871228 0.325120 0.367775
v 1.064697 -0.694391 0.377186
vt 0.128893 0.255680
vn 0.949860 -0.304845 0.069535
v 0.983644 -0.828071 0.322217
vt 0.089845 0.209995
vn 0.846125 -0.531152 0.044161
v 0.995081 -0.815605 0.406909
vt 0.076280 0.243931
vn 0.879233 -0.451536 0.151870
v 0.915525 -0.791774 0.676637
vt 0.023117 0.350759
vn 0.725699 -0.604242 0.329017
v 0.961654 -0.832217 0.498804
vt 0.048478 0.274922
vn 0.925696 -0.237794 0.294177
v 1.047121 -0.674793 0.629915
vt 0.108721 0.353887
vn 0.885412 -0.430802 0.174517
v 0.847597 -0.772320 0.816399
vt 0.010330 0.421180
vn 0.616514 -0.741890 0.263646
v 1.075904 -0.240356 0.745710
vt 0.203571 0.405737
vn 0.882557 0.114914 0.455947
v 0.952136 -0.658094 0.937815
vt 0.071015 0.452949
vn 0.665290 -0.438197 0.604461
v 0.850360 -0.740082 0.927683
vt 0.030869 0.466590
vn 0.584796 -0.760742 0.281575
v 0.788956 -0.764000 0.978344
vt 0.019989 0.501152
vn 0.544743 -0.626218 0.557769
v 0.752497 -0.734400 1.039001
vt 0.034684 0.530220
vn 0.472495 -0.135603 0.870839
v 1.008436 -0.507686 0.942023
vt 0.119326 0.450126
vn 0.725608 0.048995 0.686362
v 0.835009 -0.484001 0.987264
vt 0.127581 0.501381
vn 0.281474 0.278194 0.918358
v 1.012044 -0.329041 0.846189
vt 0.168200 0.441276
vn 0.655581 0.247878 0.713281
v 0.942811 -0.060407 0.764796
vt 0.242298 0.454078
vn 0.225958 0.433511 0.872360
v 0.892191 -0.242386 0.821852
vt 0.201816 0.474250
vn 0.200063 0.399785 0.894509
v 0.557118 -0.744344 1.130964
vt 0.050050 0.621088
vn 0.243060 -0.024202 0.969709
v 0.733001 -0.384734 0.964071
vt 0.160922 0.529671
vn 0.046396 0.510932 0.858368
v 0.418192 -0.832623 1.150791
vt 0.030655 0.687984
vn -0.001357 0.137476 0.990504
v 0.180904 -0.754694 1.121673
vt 0.107317 0.749554
vn 0.020951 0.259305 0.965568
v 0.202817 -0.858512 1.113696
vt 0.065309 0.777966
vn 0.002447 -0.076061 0.997100
v 0.012504 -0.816126 1.160081
vt 0.130877 0.835431
vn -0.025656 0.389355 0.920731
v 0.854312 0.047471 0.702556
vt 0.271031 0.467201
vn 0.108457 0.461634 0.880415
v 0.941045 0.237365 0.545762
vt 0.309590 0.437842
vn 0.552335 0.644588 0.528614
v 0.608697 -0.308660 0.865107
vt 0.202838 0.550484
vn -0.129618 0.586167 0.799755
v 0.819044 0.370232 0.461945
vt 0.342351 0.447578
vn 0.557111 0.689131 0.463385
v 0.627655 0.461294 0.547108
vt 0.358618 0.473732
vn 0.354692 0.771580 0.528070
v 0.735726 0.304219 0.630992
vt 0.326040 0.474083
vn 0.321941 0.498702 0.804767
v 0.570012 -0.014194 0.724167
vt 0.281453 0.530404
vn -0.009748 0.346393 0.938039
v 0.543033 0.285461 0.661994
vt 0.337972 0.505379
vn -0.059322 0.274034 0.959889
v 0.380850 0.320976 0.608877
vt 0.358648 0.529015
vn -0.059540 0.268123 0.961543
v 0.451349 -0.324403 0.862279
vt 0.213184 0.591089
vn -0.040172 0.526629 0.849145
v 0.199939 -0.217105 0.802934
vt 0.278630 0.636271
vn -0.097321 0.402985 0.910017
v 0.551553 -0.624116 1.085252
vt 0.101076 0.608072
vn 0.012552 0.435034 0.900327
v 0.292237 -0.437788 0.950607
vt 0.188190 0.662745
vn -0.018425 0.554252 0.832145
v -0.028253 -0.541722 1.015438
vt 0.231693 0.767132
vn -0.028422 0.495919 0.867903
v 0.041517 -0.197942 0.754563
vt 0.315328 0.669093
vn -0.134666 0.260211 0.956115
v -0.099405 -0.849728 1.157758
vt 0.161349 0.875959
vn -0.208456 0.385584 0.898817
v -0.213578 -0.090268 0.692189
vt 0.389425 0.687022
vn -0.356009 0.611804 0.706366
v -0.236259 -0.212206 0.822963
vt 0.349676 0.733776
vn -0.199219 0.645517 0.737306
v -0.255678 -0.622812 1.029610
vt 0.269245 0.838163
vn -0.159063 0.381457 0.910599
v -0.278320 -0.809313 1.063911
vt 0.234058 0.917952
vn -0.294155 0.084114 0.952049
v -0.486825 -0.727355 1.035164
vt 0.312505 0.913405
vn -0.470001 0.044074 0.881565
v -0.434133 -0.817112 0.981811
vt 0.298375 0.954559
vn -0.267648 -0.603656 0.750975
v -0.493502 -0.833260 0.956430
vt 0.320760 0.969177
vn -0.160281 -0.582449 0.796909
v -0.585186 -0.829579 0.942360
vt 0.354452 0.969024
vn -0.655054 -0.051899 0.753797
v -0.414138 -0.064088 0.528965
vt 0.456809 0.694392
vn -0.434969 0.634604 0.638811
v -0.446644 -0.203392 0.606756
vt 0.447120 0.738231
vn -0.550505 0.540615 0.636144
v -0.652577 -0.080556 0.357528
vt 0.536751 0.698299
vn -0.783351 0.448066 0.430811
v -0.683931 -0.041939 0.205311
vt 0.570184 0.684901
vn -0.648471 0.635187 0.419550
v -0.639490 -0.263376 0.489042
vt 0.512551 0.759701
vn -0.645953 0.485046 0.589470
v -0.722654 -0.503947 0.613219
vt 0.512566 0.839414
vn -0.637447 0.484138 0.599393
v -0.437625 -0.249489 0.666539
vt 0.423941 0.755489
vn -0.610510 0.586541 0.532210
v -0.619879 -0.579643 0.766176
vt 0.436728 0.870039
vn -0.595734 0.493855 0.633410
v -0.393414 -0.326519 0.803574
vt 0.391073 0.779828
vn -0.590333 0.522538 0.615192
v -0.434478 -0.442891 0.786777
vt 0.391791 0.811749
vn -0.596483 0.219244 0.772101
v -0.895007 -0.750200 0.579558
vt 0.562951 0.956023
vn -0.610125 0.485971 0.625763
v -0.747714 -0.760840 0.800309
vt 0.455619 0.960937
vn -0.728753 -0.162742 0.665157
v -0.636919 -0.808386 0.827002
vt 0.408087 0.987671
vn -0.407189 -0.910858 0.067338
v -0.743378 -0.788266 0.730495
vt 0.468956 0.987823
vn -0.336644 -0.883390 0.326026
v -0.902145 -0.775915 0.628737
vt 0.546166 0.970443
vn -0.542878 0.724321 0.425022
v -1.037617 -0.694391 0.445047
vt 0.643824 0.924712
vn -0.684096 0.516068 0.515448
v -0.938258 -0.471418 0.257150
vt 0.633143 0.807477
vn -0.692958 0.535703 0.482527
v -1.170250 -0.690072 0.189389
vt 0.750973 0.866865
vn -0.886123 0.053788 0.460319
v -1.110266 -0.721556 0.249441
vt 0.728344 0.902525
vn -0.693313 -0.620185 0.366999
v -1.196730 -0.744141 0.090863
vt 0.799969 0.865797
vn -0.917480 -0.220304 0.331203
v -0.925786 -0.189679 0.068579
vt 0.646082 0.704036
vn -0.773462 0.512780 0.372575
v -1.049399 -0.366034 -0.003658
vt 0.702022 0.736049
vn -0.810109 0.514149 0.281735
v -1.272065 -0.716715 -0.125714
vt 0.862486 0.783734
vn -0.955225 0.293672 -0.036075
v -1.221982 -0.729877 -0.055362
vt 0.846571 0.819852
vn -0.163559 -0.984209 -0.067682
v -0.948889 -0.218381 -0.107167
vt 0.684657 0.674296
vn -0.850138 0.487414 0.199230
v -1.157201 -0.510180 -0.113394
vt 0.785443 0.736645
vn -0.885563 0.456186 0.087593
v -1.086932 -0.347915 -0.254301
vt 0.758114 0.661387
vn -0.887881 0.438112 0.140443
v -1.090540 -0.309878 -0.400626
vt 0.766262 0.630472
vn -0.863516 0.181925 -0.470366
f 3/3/3 2/2/2 1/1/1
f 4/4/4 3/3/3 1/1/1
f 1/1/1 5/5/5 4/4/4
f 6/6/6 3/3/3 4/4/4
f 6/6/6 4/4/4 5/5/5
f 7/7/7 5/5/5 1/1/1
f 1/1/1 2/2/2 8/8/8
f 7/7/7 1/1/1 8/8/8
f 3/3/3 9/9/9 2/2/2
f 10/10/10 6/6/6 5/5/5
f 11/11/11 5/5/5 7/7/7
f 5/5/5 11/11/11 10/10/10
f 12/12/12 3/3/3 6/6/6
f 13/13/13 9/9/9 3/3/3
f 13/13/13 3/3/3 12/12/12
f 12/12/12 6/6/6 14/14/14
f 6/6/6 10/10/10 15/15/15
f 14/14/14 6/6/6 15/15/15
f 16/16/16 15/15/15 10/10/10
f 15/15/15 17/17/17 14/14/14
f 16/16/16 17/17/17 15/15/15
f 14/14/14 18/18/18 12/12/12
f 17/17/17 19/19/19 14/14/14
f 12/12/12 18/18/18 20/20/20
f 20/20/20 13/13/13 12/12/12
f 14/14/14 21/21/21 18/18/18
f 19/19/19 21/21/21 14/14/14
f 22/22/22 19/19/19 17/17/17
f 22/22/22 17/17/17 23/23/23
f 23/23/23 17/17/17 16/16/16
f 19/19/19 22/22/22 24/24/24
f 24/24/24 22/22/22 23/23/23
f 19/19/19 24/24/24 25/25/25
f 25/25/25 21/21/21 19/19/19
f 26/26/26 24/24/24 23/23/23
f 23/23/23 16/16/16 27/27/27
f 26/26/26 23/23/23 27/27/27
f 28/28/28 27/27/27 16/16/16
f 29/29/29 25/25/25 24/24/24
f 26/26/26 29/29/29 24/24/24
f 28/28/28 16/16/16 30/30/30
f 16/16/16 10/10/10 30/30/30
f 31/31/31 27/27/27 28/28/28
f 28/28/28 30/30/30 31/31/31
f 32/32/32 26/26/26 27/27/27
f 27/27/27 31/31/31 32/32/32
f 26/26/26 32/32/32 33/33/33
f 31/31/31 33/33/33 32/32/32
f 30/30/30 10/10/10 34/34/34
f 30/30/30 35/35/35 31/31/31
f 35/35/35 30/30/30 34/34/34
f 11/11/11 34/34/34 10/10/10
f 31/31/31 35/35/35 36/36/36
f 36/36/36 33/33/33 31/31/31
f 34/34/34 37/37/37 35/35/35
f 26/26/26 33/33/33 38/38/38
f 36/36/36 35/35/35 39/39/39
f 38/38/38 40/40/40 26/26/26
f 26/26/26 40/40/40 29/29/29
f 41/41/41 33/33/33 36/36/36
f 36/36/36 39/39/39 41/41/41
f 42/42/42 38/38/38 33/33/33
f 42/42/42 33/33/33 41/41/41
f 38/38/38 43/43/43 40/40/40
f 42/42/42 43/43/43 38/38/38
f 42/42/42 41/41/41 44/44/44
f 42/42/42 44/44/44 43/43/43
f 39/39/39 44/44/44 41/41/41
f 43/43/43 45/45/45 40/40/40
f 40/40/40 46/46/46 29/29/29
f 46/46/46 40/40/40 45/45/45
f 25/25/25 29/29/29 46/46/46
f 44/44/44 47/47/47 43/43/43
f 47/47/47 45/45/45 43/43/43
f 46/46/46 48/48/48 25/25/25
f 25/25/25 48/48/48 21/21/21
f 46/46/46 45/45/45 49/49/49
f 46/46/46 49/49/49 48/48/48
f 47/47/47 50/50/50 45/45/45
f 51/51/51 47/47/47 44/44/44
f 47/47/47 51/51/51 50/50/50
f 52/52/52 51/51/51 44/44/44
f 39/39/39 52/52/52 44/44/44
f 45/45/45 50/50/50 53/53/53
f 49/49/49 45/45/45 53/53/53
f 54/54/54 53/53/53 50/50/50
f 49/49/49 53/53/53 54/54/54
f 51/51/51 55/55/55 50/50/50
f 56/56/56 51/51/51 52/52/52
f 56/56/56 55/55/55 51/51/51
f 55/55/55 57/57/57 50/50/50
f 50/50/50 57/57/57 54/54/54
f 56/56/56 58/58/58 55/55/55
f 59/59/59 55/55/55 58/58/58
f 55/55/55 59/59/59 57/57/57
f 60/60/60 58/58/58 56/56/56
f 59/59/59 58/58/58 60/60/60
f 52/52/52 61/61/61 56/56/56
f 61/61/61 60/60/60 56/56/56
f 61/61/61 52/52/52 39/39/39
f 60/60/60 62/62/62 59/59/59
f 62/62/62 60/60/60 61/61/61
f 61/61/61 39/39/39 63/63/63
f 64/64/64 59/59/59 62/62/62
f 39/39/39 65/65/65 63/63/63
f 35/35/35 65/65/65 39/39/39
f 35/35/35 37/37/37 65/65/65
f 66/66/66 63/63/63 65/65/65
f 66/66/66 61/61/61 63/63/63
f 66/66/66 65/65/65 37/37/37
f 67/67/67 62/62/62 61/61/61
f 61/61/61 66/66/66 67/67/67
f 62/62/62 67/67/67 68/68/68
f 62/62/62 68/68/68 64/64/64
f 67/67/67 66/66/66 69/69/69
f 37/37/37 69/69/69 66/66/66
f 69/69/69 70/70/70 67/67/67
f 68/68/68 67/67/67 70/70/70
f 37/37/37 71/71/71 69/69/69
f 69/69/69 71/71/71 70/70/70
f 37/37/37 72/72/72 71/71/71
f 70/70/70 71/71/71 73/73/73
f 72/72/72 73/73/73 71/71/71
f 74/74/74 68/68/68 70/70/70
f 75/75/75 70/70/70 73/73/73
f 70/70/70 75/75/75 74/74/74
f 73/73/73 76/76/76 75/75/75
f 73/73/73 72/72/72 76/76/76
f 77/77/77 72/72/72 37/37/37
f 37/37/37 78/78/78 77/77/77
f 37/37/37 34/34/34 78/78/78
f 79/79/79 72/72/72 77/77/77
f 78/78/78 79/79/79 77/77/77
f 72/72/72 79/79/79 80/80/80
f 80/80/80 76/76/76 72/72/72
f 78/78/78 81/81/81 79/79/79
f 79/79/79 81/81/81 80/80/80
f 78/78/78 34/34/34 82/82/82
f 78/78/78 82/82/82 81/81/81
f 82/82/82 34/34/34 11/11/11
f 83/83/83 82/82/82 11/11/11
f 81/81/81 82/82/82 84/84/84
f 82/82/82 83/83/83 84/84/84
f 11/11/11 85/85/85 83/83/83
f 84/84/84 83/83/83 85/85/85
f 7/7/7 85/85/85 11/11/11
f 81/81/81 84/84/84 86/86/86
f 80/80/80 81/81/81 87/87/87
f 87/87/87 81/81/81 86/86/86
f 84/84/84 88/88/88 86/86/86
f 88/88/88 87/87/87 86/86/86
f 84/84/84 85/85/85 89/89/89
f 89/89/89 88/88/88 84/84/84
f 90/90/90 85/85/85 7/7/7
f 89/89/89 85/85/85 90/90/90
f 7/7/7 91/91/91 90/90/90
f 7/7/7 8/8/8 91/91/91
f 89/89/89 90/90/90 92/92/92
f 92/92/92 90/90/90 91/91/91
f 88/88/88 89/89/89 93/93/93
f 91/91/91 8/8/8 94/94/94
f 92/92/92 91/91/91 94/94/94
f 95/95/95 89/89/89 92/92/92
f 93/93/93 89/89/89 95/95/95
f 92/92/92 94/94/94 96/96/96
f 96/96/96 95/95/95 92/92/92
f 97/97/97 95/95/95 96/96/96
f 97/97/97 98/98/98 95/95/95
f 95/95/95 98/98/98 99/99/99
f 93/93/93 95/95/95 99/99/99
f 96/96/96 94/94/94 100/100/100
f 93/93/93 99/99/99 101/101/101
f 94/94/94 102/102/102 100/100/100
f 104/104/104 101/101/101 103/103/103
f 93/93/93 101/101/101 105/105/105
f 101/101/101 104/104/104 105/105/105
f 107/107/107 106/106/106 104/104/104
f 104/104/104 106/106/106 105/105/105
f 94/94/94 108/108/108 102/102/102
f 102/102/102 108/108/108 109/109/109
f 94/94/94 110/110/110 108/108/108
f 94/94/94 8/8/8 110/110/110
f 108/108/108 111/111/111 109/109/109
f 111/111/111 112/112/112 109/109/109
f 111/111/111 108/108/108 113/113/113
f 108/108/108 114/114/114 113/113/113
f 110/110/110 8/8/8 115/115/115
f 108/108/108 110/110/110 115/115/115
f 2/2/2 115/115/115 8/8/8
f 108/108/108 116/116/116 114/114/114
f 116/116/116 108/108/108 115/115/115
f 114/114/114 116/116/116 117/117/117
f 118/118/118 115/115/115 2/2/2
f 9/9/9 118/118/118 2/2/2
f 116/116/116 115/115/115 119/119/119
f 120/120/120 115/115/115 118/118/118
f 115/115/115 120/120/120 119/119/119
f 118/118/118 9/9/9 121/121/121
f 121/121/121 120/120/120 118/118/118
f 120/120/120 122/122/122 119/119/119
f 116/116/116 119/119/119 122/122/122
f 121/121/121 122/122/122 120/120/120
f 123/123/123 121/121/121 9/9/9
f 116/116/116 122/122/122 124/124/124
f 124/124/124 117/117/117 116/116/116
f 121/121/121 125/125/125 122/122/122
f 123/123/123 125/125/125 121/121/121
f 125/125/125 124/124/124 122/122/122
f 9/9/9 126/126/126 123/123/123
f 126/126/126 125/125/125 123/123/123
f 9/9/9 13/13/13 126/126/126
f 117/117/117 128/128/128 127/127/127
f 117/117/117 124/124/124 128/128/128
f 124/124/124 129/129/129 128/128/128
f 124/124/124 130/130/130 129/129/129
f 130/130/130 131/131/131 129/129/129
f 132/132/132 130/130/130 124/124/124
f 124/124/124 125/125/125 132/132/132
f 130/130/130 133/133/133 131/131/131
f 130/130/130 132/132/132 134/134/134
f 130/130/130 134/134/134 133/133/133
f 136/136/136 131/131/131 135/135/135
f 133/133/133 135/135/135 131/131/131
f 137/137/137 135/135/135 133/133/133
f 133/133/133 138/138/138 137/137/137
f 139/139/139 138/138/138 133/133/133
f 133/133/133 134/134/134 139/139/139
f 138/138/138 139/139/139 140/140/140
f 140/140/140 139/139/139 141/141/141
f 139/139/139 142/142/142 141/141/141
f 139/139/139 134/134/134 142/142/142
f 143/143/143 134/134/134 132/132/132
f 125/125/125 143/143/143 132/132/132
f 144/144/144 142/142/142 134/134/134
f 145/145/145 143/143/143 125/125/125
f 126/126/126 145/145/145 125/125/125
f 146/146/146 134/134/134 143/143/143
f 146/146/146 144/144/144 134/134/134
f 147/147/147 143/143/143 145/145/145
f 146/146/146 143/143/143 147/147/147
f 148/148/148 145/145/145 126/126/126
f 145/145/145 148/148/148 147/147/147
f 126/126/126 13/13/13 148/148/148
f 149/149/149 146/146/146 147/147/147
f 13/13/13 150/150/150 148/148/148
f 20/20/20 150/150/150 13/13/13
f 151/151/151 147/147/147 148/148/148
f 151/151/151 148/148/148 150/150/150
f 151/151/151 152/152/152 147/147/147
f 152/152/152 149/149/149 147/147/147
f 153/153/153 150/150/150 20/20/20
f 150/150/150 153/153/153 151/151/151
f 18/18/18 153/153/153 20/20/20
f 154/154/154 152/152/152 151/151/151
f 154/154/154 151/151/151 153/153/153
f 152/152/152 154/154/154 149/149/149
f 153/153/153 18/18/18 155/155/155
f 21/21/21 155/155/155 18/18/18
f 153/153/153 155/155/155 156/156/156
f 153/153/153 156/156/156 154/154/154
f 155/155/155 21/21/21 157/157/157
f 48/48/48 157/157/157 21/21/21
f 155/155/155 158/158/158 156/156/156
f 155/155/155 157/157/157 158/158/158
f 158/158/158 154/154/154 156/156/156
f 48/48/48 159/159/159 157/157/157
f 158/158/158 157/157/157 159/159/159
f 49/49/49 159/159/159 48/48/48
f 49/49/49 158/158/158 159/159/159
f 160/160/160 158/158/158 49/49/49
f 54/54/54 160/160/160 49/49/49
f 158/158/158 161/161/161 154/154/154
f 158/158/158 160/160/160 161/161/161
f 161/161/161 162/162/162 154/154/154
f 162/162/162 149/149/149 154/154/154
f 160/160/160 163/163/163 161/161/161
f 54/54/54 163/163/163 160/160/160
f 162/162/162 161/161/161 164/164/164
f 164/164/164 161/161/161 163/163/163
f 165/165/165 163/163/163 54/54/54
f 163/163/163 166/166/166 164/164/164
f 165/165/165 166/166/166 163/163/163
f 167/167/167 162/162/162 164/164/164
f 164/164/164 166/166/166 167/167/167
f 162/162/162 167/167/167 168/168/168
f 162/162/162 168/168/168 149/149/149
f 166/166/166 169/169/169 167/167/167
f 167/167/167 169/169/169 168/168/168
f 165/165/165 169/169/169 166/166/166
f 168/168/168 170/170/170 149/149/149
f 170/170/170 146/146/146 149/149/149
f 170/170/170 144/144/144 146/146/146
f 168/168/168 171/171/171 170/170/170
f 144/144/144 170/170/170 171/171/171
f 169/169/169 171/171/171 168/168/168
f 54/54/54 57/57/57 165/165/165
f 171/171/171 172/172/172 144/144/144
f 144/144/144 172/172/172 142/142/142
f 169/169/169 173/173/173 171/171/171
f 172/172/172 174/174/174 142/142/142
f 142/142/142 174/174/174 175/175/175
f 174/174/174 176/176/176 175/175/175
f 177/177/177 176/176/176 174/174/174
f 177/177/177 178/178/178 176/176/176
f 179/179/179 177/177/177 174/174/174
f 179/179/179 174/174/174 172/172/172
f 179/179/179 180/180/180 177/177/177
f 181/181/181 172/172/172 171/171/171
f 181/181/181 171/171/171 173/173/173
f 181/181/181 179/179/179 172/172/172
f 180/180/180 179/179/179 182/182/182
f 183/183/183 180/180/180 182/182/182
f 184/184/184 183/183/183 182/182/182
f 185/185/185 184/184/184 182/182/182
f 186/186/186 182/182/182 179/179/179
f 187/187/187 185/185/185 182/182/182
f 187/187/187 182/182/182 186/186/186
f 179/179/179 188/188/188 186/186/186
f 181/181/181 188/188/188 179/179/179
f 186/186/186 188/188/188 187/187/187
f 188/188/188 181/181/181 189/189/189
f 173/173/173 189/189/189 181/181/181
f 187/187/187 188/188/188 190/190/190
f 188/188/188 189/189/189 190/190/190
f 185/185/185 187/187/187 191/191/191
f 192/192/192 187/187/187 190/190/190
f 187/187/187 192/192/192 191/191/191
f 191/191/191 193/193/193 185/185/185
f 194/194/194 193/193/193 191/191/191
f 194/194/194 195/195/195 193/193/193
f 194/194/194 196/196/196 195/195/195
f 189/189/189 197/197/197 190/190/190
f 197/197/197 192/192/192 190/190/190
f 189/189/189 173/173/173 198/198/198
f 189/189/189 198/198/198 197/197/197
f 198/198/198 173/173/173 169/169/169
f 197/197/197 199/199/199 192/192/192
f 198/198/198 169/169/169 200/200/200
f 165/165/165 200/200/200 169/169/169
f 165/165/165 201/201/201 200/200/200
f 198/198/198 200/200/200 202/202/202
f 200/200/200 201/201/201 202/202/202
f 198/198/198 202/202/202 197/197/197
f 165/165/165 57/57/57 201/201/201
f 202/202/202 201/201/201 57/57/57
f 202/202/202 203/203/203 197/197/197
f 203/203/203 199/199/199 197/197/197
f 57/57/57 204/204/204 202/202/202
f 204/204/204 203/203/203 202/202/202
f 204/204/204 57/57/57 205/205/205
f 204/204/204 205/205/205 203/203/203
f 59/59/59 205/205/205 57/57/57
f 64/64/64 205/205/205 59/59/59
f 64/64/64 203/203/203 205/205/205
f 206/206/206 199/199/199 203/203/203
f 199/199/199 206/206/206 192/192/192
f 203/203/203 64/64/64 207/207/207
f 203/203/203 207/207/207 206/206/206
f 206/206/206 208/208/208 192/192/192
f 208/208/208 191/191/191 192/192/192
f 208/208/208 194/194/194 191/191/191
f 209/209/209 208/208/208 206/206/206
f 208/208/208 209/209/209 194/194/194
f 206/206/206 207/207/207 209/209/209
f 210/210/210 194/194/194 209/209/209
f 196/196/196 194/194/194 210/210/210
f 211/211/211 209/209/209 207/207/207
f 209/209/209 211/211/211 210/210/210
f 210/210/210 212/212/212 196/196/196
f 213/213/213 211/211/211 207/207/207
f 64/64/64 213/213/213 207/207/207
f 210/210/210 211/211/211 214/214/214
f 214/214/214 211/211/211 213/213/213
f 215/215/215 212/212/212 210/210/210
f 214/214/214 215/215/215 210/210/210
f 215/215/215 216/216/216 212/212/212
f 68/68/68 213/213/213 64/64/64
f 217/217/217 216/216/216 215/215/215
f 214/214/214 217/217/217 215/215/215
f 217/217/217 218/218/218 216/216/216
f 219/219/219 218/218/218 217/217/217
f 217/217/217 220/220/220 219/219/219
f 68/68/68 221/221/221 213/213/213
f 74/74/74 221/221/221 68/68/68
f 213/213/213 221/221/221 222/222/222
f 221/221/221 74/74/74 223/223/223
f 221/221/221 223/223/223 222/222/222
f 75/75/75 223/223/223 74/74/74
f 224/224/224 223/223/223 75/75/75
f 224/224/224 75/75/75 76/76/76
f 225/225/225 222/222/222 223/223/223
f 224/224/224 225/225/225 223/223/223
f 226/226/226 222/222/222 225/225/225
f 226/226/226 225/225/225 224/224/224
f 227/227/227 213/213/213 222/222/222
f 214/214/214 213/213/213 227/227/227
f 227/227/227 222/222/222 228/228/228
f 226/226/226 228/228/228 222/222/222
f 227/227/227 229/229/229 214/214/214
f 227/227/227 228/228/228 229/229/229
f 217/217/217 214/214/214 229/229/229
f 230/230/230 217/217/217 229/229/229
f 228/228/228 230/230/230 229/229/229
f 230/230/230 228/228/228 217/217/217
f 228/228/228 220/220/220 217/217/217
f 228/228/228 226/226/226 231/231/231
f 220/220/220 228/228/228 232/232/232
f 228/228/228 231/231/231 232/232/232
f 220/220/220 232/232/232 233/233/233
f 232/232/232 234/234/234 233/233/233
f 232/232/232 235/235/235 234/234/234
f 235/235/235 232/232/232 231/231/231
f 231/231/231 226/226/226 236/236/236
f 237/237/237 236/236/236 226/226/226
f 226/226/226 224/224/224 237/237/237
f 236/236/236 237/237/237 238/238/238
f 238/238/238 239/239/239 236/236/236
f 238/238/238 240/240/240 239/239/239
f 241/241/241 237/237/237 224/224/224
f 224/224/224 76/76/76 241/241/241
f 237/237/237 242/242/242 238/238/238
f 241/241/241 242/242/242 237/237/237
f 238/238/238 243/243/243 240/240/240
f 244/244/244 240/240/240 243/243/243
f 243/243/243 238/238/238 242/242/242
f 241/241/241 76/76/76 245/245/245
f 241/241/241 245/245/245 242/242/242
f 245/245/245 76/76/76 80/80/80
f 80/80/80 87/87/87 245/245/245
f 246/246/246 243/243/243 242/242/242
f 245/245/245 247/247/247 242/242/242
f 87/87/87 247/247/247 245/245/245
f 242/242/242 247/247/247 246/246/246
f 246/246/246 105/105/105 243/243/243
f 246/246/246 247/247/247 105/105/105
f 243/243/243 105/105/105 106/106/106
f 87/87/87 248/248/248 247/247/247
f 247/247/247 248/248/248 105/105/105
f 87/87/87 88/88/88 248/248/248
f 248/248/248 93/93/93 105/105/105
f 88/88/88 93/93/93 248/248/248
