# Exported from Godot Engine
o MS_Rock_B_Collider
v -0.481223 -0.234028 -1.208920
vn -0.627855 -0.768043 -0.126125
v -0.869109 0.136864 -1.536902
vn -0.627855 -0.768043 -0.126125
v -1.031313 0.194585 -1.080995
vn -0.627855 -0.768043 -0.126125
v -0.880488 -0.277180 -0.357901
vn -0.672728 -0.652625 -0.348594
v -0.424471 -0.611522 -0.611844
vn -0.672728 -0.652625 -0.348594
v -0.481223 -0.234028 -1.208920
vn -0.672728 -0.652625 -0.348594
v -0.481223 -0.234028 -1.208920
vn -0.826531 -0.507939 -0.242579
v -0.424471 -0.611522 -0.611844
vn -0.826531 -0.507939 -0.242579
v -0.264736 -0.664182 -1.045691
vn -0.826531 -0.507939 -0.242579
v -0.701180 -0.825334 -0.040829
vn -0.673952 -0.522599 -0.522187
v -0.424471 -0.611522 -0.611844
vn -0.673952 -0.522599 -0.522187
v -0.880488 -0.277180 -0.357901
vn -0.673952 -0.522599 -0.522187
v -1.031313 0.194585 -1.080995
vn -0.932927 -0.186020 -0.308292
v -0.869109 0.136864 -1.536902
vn -0.932927 -0.186020 -0.308292
v -0.982755 0.519650 -1.424033
vn -0.932927 -0.186020 -0.308292
v -0.940245 0.864925 -0.984516
vn -0.707807 0.587183 -0.392716
v -0.982755 0.519650 -1.424033
vn -0.707807 0.587183 -0.392716
v -0.483620 1.007001 -1.594885
vn -0.707807 0.587183 -0.392716
v -0.994027 -0.016465 1.506366
vn -0.521211 0.782533 0.340560
v -1.180062 0.317469 0.454098
vn -0.521211 0.782533 0.340560
v -0.833255 0.310985 0.999814
vn -0.521211 0.782533 0.340560
v -0.994027 -0.016465 1.506366
vn -0.285510 0.843569 0.454836
v -0.833255 0.310985 0.999814
vn -0.285510 0.843569 0.454836
v -0.263949 0.482110 1.039835
vn -0.285510 0.843569 0.454836
v -0.481223 -0.234028 -1.208920
vn -0.626828 -0.705849 -0.329945
v -1.031313 0.194585 -1.080995
vn -0.626828 -0.705849 -0.329945
v -0.880488 -0.277180 -0.357901
vn -0.626828 -0.705849 -0.329945
v -0.869109 0.136864 -1.536902
vn 0.336615 -0.210260 -0.917867
v 0.575839 0.931020 -1.189052
vn 0.336615 -0.210260 -0.917867
v -0.483620 1.007001 -1.594885
vn 0.336615 -0.210260 -0.917867
v -0.483620 1.007001 -1.594885
vn -0.435142 0.133393 -0.890426
v -0.982755 0.519650 -1.424033
vn -0.435142 0.133393 -0.890426
v -0.869109 0.136864 -1.536902
vn -0.435142 0.133393 -0.890426
v -0.869109 0.136864 -1.536902
vn 0.402773 -0.332952 -0.852594
v -0.481223 -0.234028 -1.208920
vn 0.402773 -0.332952 -0.852594
v 0.003242 0.069781 -1.098671
vn 0.402773 -0.332952 -0.852594
v -0.264736 -0.664182 -1.045691
vn 0.327760 -0.186506 -0.926169
v 0.003242 0.069781 -1.098671
vn 0.327760 -0.186506 -0.926169
v -0.481223 -0.234028 -1.208920
vn 0.327760 -0.186506 -0.926169
v 0.123257 -0.878721 -0.756730
vn 0.482594 -0.255498 -0.837749
v 0.769532 -0.707800 -0.436513
vn 0.482594 -0.255498 -0.837749
v -0.264736 -0.664182 -1.045691
vn 0.482594 -0.255498 -0.837749
v 1.145753 0.463675 -0.650197
vn 0.435438 -0.294976 -0.850519
v 0.003242 0.069781 -1.098671
vn 0.435438 -0.294976 -0.850519
v 0.769532 -0.707800 -0.436513
vn 0.435438 -0.294976 -0.850519
v 0.003242 0.069781 -1.098671
vn 0.485466 -0.237906 -0.841263
v -0.264736 -0.664182 -1.045691
vn 0.485466 -0.237906 -0.841263
v 0.769532 -0.707800 -0.436513
vn 0.485466 -0.237906 -0.841263
v -0.869109 0.136864 -1.536902
vn 0.398056 -0.353505 -0.846514
v 0.003242 0.069781 -1.098671
vn 0.398056 -0.353505 -0.846514
v 0.575839 0.931020 -1.189052
vn 0.398056 -0.353505 -0.846514
v 1.145753 0.463675 -0.650197
vn 0.448999 -0.383188 -0.807197
v 0.575839 0.931020 -1.189052
vn 0.448999 -0.383188 -0.807197
v 0.003242 0.069781 -1.098671
vn 0.448999 -0.383188 -0.807197
v -0.880488 -0.277180 -0.357901
vn -0.726123 -0.635218 -0.263142
v -1.031313 0.194585 -1.080995
vn -0.726123 -0.635218 -0.263142
v -1.131576 -0.366102 0.549863
vn -0.726123 -0.635218 -0.263142
v -1.045697 0.541313 -0.322834
vn -0.997668 0.052860 -0.043173
v -1.131576 -0.366102 0.549863
vn -0.997668 0.052860 -0.043173
v -1.031313 0.194585 -1.080995
vn -0.997668 0.052860 -0.043173
v -1.131576 -0.366102 0.549863
vn -0.975700 -0.096834 -0.196551
v -1.045697 0.541313 -0.322834
vn -0.975700 -0.096834 -0.196551
v -1.180062 0.317469 0.454098
vn -0.975700 -0.096834 -0.196551
v -1.131576 -0.366102 0.549863
vn -0.853242 -0.440528 -0.279131
v -0.701180 -0.825334 -0.040829
vn -0.853242 -0.440528 -0.279131
v -0.880488 -0.277180 -0.357901
vn -0.853242 -0.440528 -0.279131
v -0.701180 -0.825334 -0.040829
vn -0.710562 -0.703046 0.028788
v -1.131576 -0.366102 0.549863
vn -0.710562 -0.703046 0.028788
v -0.588285 -0.876308 1.492931
vn -0.710562 -0.703046 0.028788
v -0.616732 -0.444933 1.527473
vn -0.883903 -0.094916 0.457936
v -0.588285 -0.876308 1.492931
vn -0.883903 -0.094916 0.457936
v -1.131576 -0.366102 0.549863
vn -0.883903 -0.094916 0.457936
v -0.616732 -0.444933 1.527473
vn -0.716982 -0.615124 0.327962
v -1.131576 -0.366102 0.549863
vn -0.716982 -0.615124 0.327962
v -0.994027 -0.016465 1.506366
vn -0.716982 -0.615124 0.327962
v -1.180062 0.317469 0.454098
vn -0.986081 -0.047707 0.159271
v -0.994027 -0.016465 1.506366
vn -0.986081 -0.047707 0.159271
v -1.131576 -0.366102 0.549863
vn -0.986081 -0.047707 0.159271
v 0.134207 0.996475 0.744442
vn 0.221292 0.975049 0.017617
v 0.575839 0.931020 -1.189052
vn 0.221292 0.975049 0.017617
v 1.164968 0.760970 0.833155
vn 0.221292 0.975049 0.017617
v 0.134207 0.996475 0.744442
vn 0.011754 0.999443 -0.031244
v -0.442828 0.977341 -0.086281
vn 0.011754 0.999443 -0.031244
v 0.575839 0.931020 -1.189052
vn 0.011754 0.999443 -0.031244
v -0.483620 1.007001 -1.594885
vn 0.064714 0.997743 0.017900
v 0.575839 0.931020 -1.189052
vn 0.064714 0.997743 0.017900
v -0.442828 0.977341 -0.086281
vn 0.064714 0.997743 0.017900
v -0.442828 0.977341 -0.086281
vn -0.265102 0.963868 0.026080
v -0.940245 0.864925 -0.984516
vn -0.265102 0.963868 0.026080
v -0.483620 1.007001 -1.594885
vn -0.265102 0.963868 0.026080
v 1.012569 0.027443 1.125309
vn 0.004400 0.369207 0.929337
v 0.134207 0.996475 0.744442
vn 0.004400 0.369207 0.929337
v 1.164968 0.760970 0.833155
vn 0.004400 0.369207 0.929337
v -0.616732 -0.444933 1.527473
vn 0.002401 -0.079611 0.996823
v 0.930232 -0.771016 1.497743
vn 0.002401 -0.079611 0.996823
v -0.588285 -0.876308 1.492931
vn 0.002401 -0.079611 0.996823
v -0.994027 -0.016465 1.506366
vn 0.036113 0.080766 0.996079
v 0.930232 -0.771016 1.497743
vn 0.036113 0.080766 0.996079
v -0.616732 -0.444933 1.527473
vn 0.036113 0.080766 0.996079
v 0.930232 -0.771016 1.497743
vn 0.199087 0.498032 0.843996
v -0.994027 -0.016465 1.506366
vn 0.199087 0.498032 0.843996
v -0.263949 0.482110 1.039835
vn 0.199087 0.498032 0.843996
v 0.930232 -0.771016 1.497743
vn 0.108410 0.430616 0.896001
v -0.263949 0.482110 1.039835
vn 0.108410 0.430616 0.896001
v 0.134207 0.996475 0.744442
vn 0.108410 0.430616 0.896001
v 0.930232 -0.771016 1.497743
vn 0.065981 0.416161 0.906894
v 0.134207 0.996475 0.744442
vn 0.065981 0.416161 0.906894
v 1.012569 0.027443 1.125309
vn 0.065981 0.416161 0.906894
v 1.012569 0.027443 1.125309
vn 0.993486 -0.056219 0.099119
v 1.052001 -0.607073 0.370245
vn 0.993486 -0.056219 0.099119
v 0.930232 -0.771016 1.497743
vn 0.993486 -0.056219 0.099119
v 1.052001 -0.607073 0.370245
vn 0.976599 -0.136790 0.165961
v 1.012569 0.027443 1.125309
vn 0.976599 -0.136790 0.165961
v 1.164968 0.760970 0.833155
vn 0.976599 -0.136790 0.165961
v 1.164968 0.760970 0.833155
vn 0.706904 0.691710 -0.147732
v 0.575839 0.931020 -1.189052
vn 0.706904 0.691710 -0.147732
v 1.145753 0.463675 -0.650197
vn 0.706904 0.691710 -0.147732
v 1.164968 0.760970 0.833155
vn 0.996503 -0.083464 0.003975
v 1.145753 0.463675 -0.650197
vn 0.996503 -0.083464 0.003975
v 1.052001 -0.607073 0.370245
vn 0.996503 -0.083464 0.003975
v 0.123257 -0.878721 -0.756730
vn -0.450069 -0.891138 -0.057550
v -0.264736 -0.664182 -1.045691
vn -0.450069 -0.891138 -0.057550
v -0.424471 -0.611522 -0.611844
vn -0.450069 -0.891138 -0.057550
v -0.424471 -0.611522 -0.611844
vn -0.482852 -0.717191 -0.502485
v -0.701180 -0.825334 -0.040829
vn -0.482852 -0.717191 -0.502485
v 0.123257 -0.878721 -0.756730
vn -0.482852 -0.717191 -0.502485
v -0.701180 -0.825334 -0.040829
vn -0.062364 -0.998050 0.002672
v 0.509175 -0.898640 0.769598
vn -0.062364 -0.998050 0.002672
v 0.123257 -0.878721 -0.756730
vn -0.062364 -0.998050 0.002672
v 0.509175 -0.898640 0.769598
vn -0.040326 -0.998728 -0.030272
v -0.701180 -0.825334 -0.040829
vn -0.040326 -0.998728 -0.030272
v -0.588285 -0.876308 1.492931
vn -0.040326 -0.998728 -0.030272
v 0.509175 -0.898640 0.769598
vn 0.068056 -0.988672 0.133773
v -0.588285 -0.876308 1.492931
vn 0.068056 -0.988672 0.133773
v 0.930232 -0.771016 1.497743
vn 0.068056 -0.988672 0.133773
v 1.052001 -0.607073 0.370245
vn 0.446846 -0.893484 -0.044880
v 0.769532 -0.707800 -0.436513
vn 0.446846 -0.893484 -0.044880
v 0.509175 -0.898640 0.769598
vn 0.446846 -0.893484 -0.044880
v 0.123257 -0.878721 -0.756730
vn 0.294829 -0.951587 -0.086941
v 0.509175 -0.898640 0.769598
vn 0.294829 -0.951587 -0.086941
v 0.769532 -0.707800 -0.436513
vn 0.294829 -0.951587 -0.086941
v 0.930232 -0.771016 1.497743
vn 0.421765 -0.902641 -0.085755
v 1.052001 -0.607073 0.370245
vn 0.421765 -0.902641 -0.085755
v 0.509175 -0.898640 0.769598
vn 0.421765 -0.902641 -0.085755
v -0.263949 0.482110 1.039835
vn -0.599093 0.693427 0.400307
v -0.442828 0.977341 -0.086281
vn -0.599093 0.693427 0.400307
v 0.134207 0.996475 0.744442
vn -0.599093 0.693427 0.400307
v -1.045697 0.541313 -0.322834
vn -0.630621 0.732091 0.257605
v -0.940245 0.864925 -0.984516
vn -0.630621 0.732091 0.257605
v -0.442828 0.977341 -0.086281
vn -0.630621 0.732091 0.257605
v -1.031313 0.194585 -1.080995
vn -0.990626 0.136151 -0.011128
v -0.982755 0.519650 -1.424033
vn -0.990626 0.136151 -0.011128
v -0.940245 0.864925 -0.984516
vn -0.990626 0.136151 -0.011128
v -1.031313 0.194585 -1.080995
vn -0.985554 0.146162 -0.085556
v -0.940245 0.864925 -0.984516
vn -0.985554 0.146162 -0.085556
v -1.045697 0.541313 -0.322834
vn -0.985554 0.146162 -0.085556
v -1.045697 0.541313 -0.322834
vn -0.612221 0.781630 0.119327
v -0.442828 0.977341 -0.086281
vn -0.612221 0.781630 0.119327
v -1.180062 0.317469 0.454098
vn -0.612221 0.781630 0.119327
v -0.263949 0.482110 1.039835
vn -0.414097 0.807080 0.420886
v -1.180062 0.317469 0.454098
vn -0.414097 0.807080 0.420886
v -0.442828 0.977341 -0.086281
vn -0.414097 0.807080 0.420886
v -1.180062 0.317469 0.454098
vn -0.294913 0.934655 0.198611
v -0.263949 0.482110 1.039835
vn -0.294913 0.934655 0.198611
v -0.833255 0.310985 0.999814
vn -0.294913 0.934655 0.198611
v 1.052001 -0.607073 0.370245
vn 0.900369 -0.338934 -0.272873
v 1.145753 0.463675 -0.650197
vn 0.900369 -0.338934 -0.272873
v 0.769532 -0.707800 -0.436513
vn 0.900369 -0.338934 -0.272873
f 3//3 2//2 1//1
f 6//6 5//5 4//4
f 9//9 8//8 7//7
f 12//12 11//11 10//10
f 15//15 14//14 13//13
f 18//18 17//17 16//16
f 21//21 20//20 19//19
f 24//24 23//23 22//22
f 27//27 26//26 25//25
f 30//30 29//29 28//28
f 33//33 32//32 31//31
f 36//36 35//35 34//34
f 39//39 38//38 37//37
f 42//42 41//41 40//40
f 45//45 44//44 43//43
f 48//48 47//47 46//46
f 51//51 50//50 49//49
f 54//54 53//53 52//52
f 57//57 56//56 55//55
f 60//60 59//59 58//58
f 63//63 62//62 61//61
f 66//66 65//65 64//64
f 69//69 68//68 67//67
f 72//72 71//71 70//70
f 75//75 74//74 73//73
f 78//78 77//77 76//76
f 81//81 80//80 79//79
f 84//84 83//83 82//82
f 87//87 86//86 85//85
f 90//90 89//89 88//88
f 93//93 92//92 91//91
f 96//96 95//95 94//94
f 99//99 98//98 97//97
f 102//102 101//101 100//100
f 105//105 104//104 103//103
f 108//108 107//107 106//106
f 111//111 110//110 109//109
f 114//114 113//113 112//112
f 117//117 116//116 115//115
f 120//120 119//119 118//118
f 123//123 122//122 121//121
f 126//126 125//125 124//124
f 129//129 128//128 127//127
f 132//132 131//131 130//130
f 135//135 134//134 133//133
f 138//138 137//137 136//136
f 141//141 140//140 139//139
f 144//144 143//143 142//142
f 147//147 146//146 145//145
f 150//150 149//149 148//148
f 153//153 152//152 151//151
f 156//156 155//155 154//154
f 159//159 158//158 157//157
f 162//162 161//161 160//160
f 165//165 164//164 163//163
f 168//168 167//167 166//166
