# Exported from Godot Engine
o MS_Rock_C_LOD2
v 0.780520 0.042163 -0.897995
vt 0.615181 0.303257
vn 0.329921 0.242818 -0.912245
v 1.183148 0.135698 -0.912606
vt 0.543906 0.263075
vn 0.147115 0.168536 -0.974655
v 0.702950 0.146757 -0.841178
vt 0.606791 0.336131
vn 0.260929 0.736767 -0.623771
v 0.926210 -0.230967 -0.783312
vt 0.618458 0.218050
vn 0.208501 -0.548145 -0.809978
v 0.631149 -0.077275 -1.118118
vt 0.681548 0.325796
vn 0.632963 -0.108716 -0.766510
v 0.797507 -0.095054 -0.863719
vt 0.646151 0.271904
vn 0.480169 -0.394844 -0.783286
v 0.353031 -0.310234 -1.099852
vt 0.750268 0.314984
vn 0.525391 -0.547227 -0.651542
v 0.571560 -0.434894 -0.633785
vt 0.718122 0.192017
vn 0.280394 -0.648542 -0.707653
v 0.508673 -0.367915 -0.778600
vt 0.737462 0.242169
vn 0.551773 -0.694994 -0.461010
v 0.523299 -0.711299 -0.428414
vt 0.764560 0.114561
vn 0.303683 -0.693449 -0.653379
v 0.292336 -0.607895 -0.676346
vt 0.803851 0.198540
vn 0.598891 -0.579133 -0.553113
v 0.178985 -0.770388 -0.679028
vt 0.855283 0.195814
vn 0.632394 -0.430538 -0.643984
v -0.024325 -0.857359 -0.831061
vt 0.913827 0.244631
vn 0.519793 -0.644977 -0.560196
v 0.145446 -0.540730 -1.073343
vt 0.830773 0.309890
vn 0.574255 -0.606947 -0.549406
v -0.237322 -0.792728 -1.016211
vt 0.940783 0.320126
vn 0.486504 -0.793462 -0.365694
v -0.171625 -0.857600 -0.922957
vt 0.942556 0.283425
vn 0.437899 -0.563539 -0.700477
v -0.351139 -0.838469 -1.210464
vt 0.950063 0.378796
vn 0.408178 -0.603853 -0.684655
v -0.031184 -0.579793 -1.216367
vt 0.846846 0.350077
vn 0.558686 -0.455828 -0.692886
v -0.246711 -0.332349 -1.456134
vt 0.831277 0.437166
vn 0.415308 -0.336359 -0.845211
v -0.431752 -0.844817 -1.235341
vt 0.964954 0.396871
vn 0.283598 -0.504457 -0.815534
v 0.033896 -0.215374 -1.353539
vt 0.779363 0.390357
vn 0.461970 -0.382223 -0.800305
v 0.261529 -0.126432 -1.210301
vt 0.741621 0.357089
vn 0.506900 -0.280742 -0.815007
v -0.118781 0.086404 -1.503006
vt 0.755121 0.457178
vn 0.342164 0.225340 -0.912220
v 0.338039 0.090360 -1.218432
vt 0.698185 0.385081
vn 0.605551 0.298067 -0.737878
v 0.134686 0.081666 -1.451249
vt 0.738820 0.421548
vn 0.464210 0.270905 -0.843279
v -0.510745 -0.440221 -1.537456
vt 0.868531 0.478267
vn 0.296980 -0.327533 -0.896953
v -0.602905 -0.771243 -1.323225
vt 0.963818 0.459836
vn 0.251767 -0.574215 -0.779032
v -0.675008 -0.786142 -1.344344
vt 0.970342 0.480019
vn 0.301571 -0.581936 -0.755252
v 0.462292 0.199284 -0.966504
vt 0.633312 0.383494
vn 0.374367 0.785254 -0.493179
v -0.056552 0.208767 -1.294813
vt 0.711262 0.456198
vn 0.372804 0.811300 -0.450343
v 0.585070 0.340005 -0.645609
vt 0.577149 0.384220
vn 0.299063 0.789352 -0.536176
v -0.070726 0.507325 -0.746530
vt 0.623108 0.481987
vn 0.285805 0.863100 -0.416383
v -0.294533 0.273123 -1.481066
vt 0.745852 0.498960
vn 0.378823 0.722327 -0.578564
v -0.137962 0.377771 -1.052694
vt 0.661779 0.488367
vn 0.300628 0.862148 -0.407827
v 0.161218 0.552938 -0.485567
vt 0.572897 0.472396
vn 0.211254 0.829087 -0.517674
v 0.889328 0.381734 -0.423641
vt 0.511167 0.360366
vn 0.091730 0.814235 -0.573242
v -0.338979 0.757018 -0.350148
vt 0.568973 0.548579
vn 0.209324 0.858253 -0.468600
v 0.372721 0.834854 -0.085865
vt 0.489439 0.475052
vn 0.207432 0.907934 -0.364180
v -0.497911 0.735594 -0.557325
vt 0.610248 0.558704
vn 0.162406 0.883944 -0.438483
v -0.818559 0.548087 -0.829883
vt 0.663694 0.583071
vn 0.080208 0.898774 -0.431013
v -1.029990 0.532655 -1.022837
vt 0.699416 0.599025
vn 0.196712 0.965671 -0.169658
v -1.243726 0.789257 -0.527879
vt 0.639988 0.647916
vn -0.040537 0.883317 -0.467020
v -1.582795 0.649709 -0.712947
vt 0.685188 0.679849
vn -0.520318 0.853387 -0.031630
v -0.828419 0.926368 -0.204569
vt 0.582374 0.621307
vn -0.056927 0.699306 -0.712552
v -1.506661 0.840323 -0.306914
vt 0.629662 0.689261
vn -0.604755 0.775082 -0.183086
v -1.409424 0.945168 -0.063546
vt 0.595075 0.695608
vn -0.527349 0.802028 -0.280452
v -0.973218 1.051692 -0.125484
vt 0.567080 0.643465
vn -0.128427 0.722552 -0.679283
v -0.505183 1.134322 0.137053
vt 0.518640 0.610880
vn 0.200120 0.933368 -0.297952
v 0.073383 0.966714 0.032357
vt 0.490412 0.535623
vn 0.280739 0.924547 -0.257679
v -0.895290 1.238863 0.318969
vt 0.521088 0.661117
vn -0.056918 0.985379 0.160586
v -1.271846 1.137721 0.328943
vt 0.540617 0.693801
vn -0.442530 0.873780 0.201681
v -0.592127 1.163273 0.387391
vt 0.492859 0.637423
vn 0.211207 0.931721 0.295444
v -0.971051 0.981868 0.592044
vt 0.492556 0.694552
vn -0.260946 0.851751 0.454342
v -0.136380 1.031055 0.355903
vt 0.466028 0.582877
vn 0.345062 0.866983 0.359546
v 0.337527 0.822981 0.286684
vt 0.436632 0.511869
vn 0.412759 0.778464 0.472888
v 0.677128 0.807179 -0.040375
vt 0.461339 0.447058
vn 0.416235 0.899247 -0.134549
v 0.640918 0.596490 -0.272028
vt 0.502820 0.412873
vn 0.280021 0.756773 -0.590662
v 1.103554 0.513817 -0.243970
vt 0.461032 0.352536
vn 0.020316 0.856356 -0.515985
v 0.943036 0.627649 -0.015810
vt 0.439471 0.389960
vn 0.378182 0.920030 0.102577
v 0.673634 0.571036 0.284084
vt 0.394209 0.454137
vn 0.396061 0.718869 0.571282
v 1.535032 0.508370 -0.291363
vt 0.440864 0.295347
vn 0.122010 0.987860 -0.096154
v 1.183652 0.401699 0.163513
vt 0.380769 0.361641
vn 0.368382 0.791100 0.488318
v 0.133694 0.689372 0.494567
vt 0.409312 0.548937
vn 0.521182 0.608780 0.598127
v 0.089118 0.664841 0.621526
vt 0.394707 0.571838
vn 0.735924 0.411481 0.537679
v 1.297467 0.323512 -0.706311
vt 0.506870 0.284407
vn -0.042639 0.820977 -0.569366
v 0.536235 0.330734 0.617507
vt 0.333826 0.494499
vn 0.329054 0.656306 0.678959
v 0.922395 0.287165 0.549368
vt 0.328140 0.427193
vn 0.269174 0.743756 0.611859
v -0.037151 0.341017 0.957218
vt 0.331127 0.611402
vn 0.458796 0.572353 0.679645
v 1.529697 0.162801 -0.807185
vt 0.495827 0.241411
vn 0.308011 0.023326 -0.951097
v 0.782845 -0.137410 0.895495
vt 0.220278 0.457079
vn 0.068575 0.510620 0.857067
v -0.231421 0.619430 0.816925
vt 0.383999 0.617387
vn 0.390086 0.645357 0.656770
v -0.298516 0.881552 0.581194
vt 0.448634 0.616660
vn 0.366885 0.696213 0.616996
v -0.471914 0.607064 0.996024
vt 0.384928 0.663746
vn 0.533606 0.631412 0.562658
v -0.752674 0.966771 0.893885
vt 0.446072 0.684640
vn 0.200396 0.868460 0.453452
v -0.989527 0.948527 0.848312
vt 0.468666 0.711279
vn -0.420120 0.887377 0.189896
v -1.222907 0.740077 0.743738
vt 0.490575 0.748339
vn -0.761071 0.471576 0.445407
v -1.011295 0.815783 1.207318
vt 0.427738 0.736229
vn -0.316048 0.743334 0.589549
v -0.669607 0.640397 1.217495
vt 0.386102 0.707991
vn 0.480707 0.609778 0.630152
v -0.537171 0.379986 1.331087
vt 0.347736 0.708789
vn 0.496575 0.564885 0.659028
v -1.019862 0.457286 1.506526
vt 0.379746 0.770124
vn -0.186136 0.747109 0.638108
v -1.282496 0.348045 1.146871
vt 0.437930 0.810557
vn -0.869042 0.422003 0.258223
v -0.758439 0.267246 1.582014
vt 0.336918 0.757264
vn 0.389374 0.627556 0.674212
v -1.272226 0.857203 0.656733
vt 0.516990 0.731187
vn -0.517839 0.462379 0.719755
v -1.431764 1.003638 0.243302
vt 0.557495 0.710837
vn -0.736120 0.670082 0.095484
v -1.421953 0.662761 0.446363
vt 0.538202 0.760249
vn -0.708714 0.107798 0.697211
v -1.692552 0.573306 0.123464
vt 0.601672 0.763346
vn -0.946025 0.314892 -0.076682
v -1.644742 0.697680 0.275370
vt 0.572517 0.752658
vn -0.861238 0.416578 0.291085
v -1.338340 0.304635 0.851231
vt 0.482887 0.811360
vn -0.829805 0.443840 0.338273
v -1.675951 0.370180 0.405231
vt 0.565540 0.803767
vn -0.905043 0.223390 0.361931
v -1.589234 0.654187 -0.092511
vt 0.620677 0.734561
vn -0.893805 0.433388 -0.115269
v -1.652868 0.442609 -0.349291
vt 0.668125 0.734334
vn -0.915946 0.401075 0.013501
v -1.767453 0.264989 0.071979
vt 0.627392 0.795581
vn -0.971027 0.213982 0.106390
v -1.682406 0.157854 0.329872
vt 0.593116 0.835075
vn -0.965658 0.037282 0.257128
v -1.629812 0.112817 0.669609
vt 0.535234 0.853608
vn -0.904942 0.255588 0.340226
v -1.822665 -0.075157 0.037150
vt 0.655593 0.840613
vn -0.972745 0.150500 0.176399
v -1.448064 0.061417 1.008194
vt 0.467689 0.855506
vn -0.847033 0.397863 0.352477
v -1.619096 -0.164227 0.534251
vt 0.570795 0.894969
vn -0.983101 0.137174 0.121223
v -1.683694 -0.348413 0.868744
vt 0.499370 0.950254
vn -0.958532 0.080777 0.273297
v -1.718373 -0.286350 0.328987
vt 0.621711 0.915433
vn -0.904166 0.240296 0.353188
v -1.697054 -0.369482 0.569454
vt 0.575451 0.958261
vn -0.965307 0.210292 0.154791
v -1.692039 -0.497036 0.602937
vt 0.572566 0.987710
vn -0.977145 -0.111814 0.180789
v -1.799818 -0.476458 0.289753
vt 0.650313 0.949332
vn -0.853421 -0.424625 0.302270
v -1.608988 -0.504450 1.057039
vt 0.444471 0.982286
vn -0.923215 0.040561 0.382138
v -1.715749 -0.496285 0.339265
vt 0.642598 0.978923
vn -0.280122 -0.955441 0.093077
v -1.738190 -0.534741 0.171148
vt 0.690952 0.969033
vn -0.437397 -0.876020 0.203159
v -1.853737 -0.523534 -0.058470
vt 0.743877 0.924252
vn -0.946622 -0.215121 0.240062
v -1.851087 -0.198538 -0.065722
vt 0.696049 0.856318
vn -0.972052 0.168081 0.163902
v -1.419683 -0.131003 1.317139
vt 0.409374 0.881032
vn -0.902054 0.368511 0.224720
v -1.773359 0.094834 -0.207188
vt 0.683179 0.798257
vn -0.964607 0.254177 0.070197
v -1.814390 0.208795 -0.412711
vt 0.700074 0.762673
vn -0.932609 0.345093 0.105603
v -1.831031 -0.037285 -0.370775
vt 0.722954 0.795800
vn -0.923760 0.334608 0.186295
v -1.799675 0.196470 -0.610134
vt 0.722187 0.741620
vn -0.925673 0.352492 0.137398
v -1.158715 0.246962 1.774412
vt 0.354211 0.807084
vn -0.384748 0.631141 0.673521
v -1.967397 -0.404367 -0.304462
vt 0.764697 0.849325
vn -0.959427 -0.107508 0.260656
v -1.849224 -0.537415 -0.194666
vt 0.776609 0.905417
vn -0.793227 -0.594032 0.133856
v -1.909976 -0.555151 -0.367095
vt 0.808555 0.869679
vn -0.803419 -0.555733 0.213725
v -1.962466 -0.185421 -0.395909
vt 0.753572 0.812954
vn -0.848592 0.386357 0.361413
v -2.004436 -0.411605 -0.646663
vt 0.804460 0.798218
vn -0.994615 -0.094679 -0.042143
v -1.923770 -0.118429 -0.620886
vt 0.762488 0.777657
vn -0.914335 0.364895 0.175621
v -1.825970 0.168576 -0.777328
vt 0.741047 0.730101
vn -0.780454 -0.480367 0.400175
v -1.973538 -0.051367 -0.819869
vt 0.774763 0.744004
vn -0.960507 0.234859 0.149221
v -1.932000 0.137741 -0.933147
vt 0.764175 0.716331
vn -0.924443 0.300069 0.235293
v -1.955479 -0.591494 -0.656119
vt 0.836202 0.816144
vn -0.695991 -0.700592 -0.157376
v -1.536983 -0.717467 -0.759179
vt 0.935592 0.802577
vn -0.394266 -0.798288 -0.455292
v -1.943753 -0.324121 -0.915772
vt 0.819576 0.752105
vn -0.868549 -0.394973 -0.299366
v -1.971051 -0.132294 -0.983971
vt 0.797152 0.726611
vn -0.980153 -0.107617 0.166488
v -1.685608 -0.534041 -0.884290
vt 0.881688 0.764471
vn -0.449085 -0.740276 -0.500315
v -1.340975 -0.665544 -0.982964
vt 0.970645 0.731073
vn -0.405017 -0.882728 -0.238227
v -1.318681 -0.659998 -1.104666
vt 0.964913 0.693138
vn -0.465508 -0.782001 -0.414459
v -1.917253 -0.318423 -1.018428
vt 0.827568 0.732780
vn -0.706736 -0.625492 -0.330583
v -2.086467 -0.049974 -1.242195
vt 0.798334 0.694458
vn -0.945001 -0.324479 -0.041055
v -1.599850 -0.288322 -1.282548
vt 0.858902 0.677146
vn -0.473277 -0.762249 -0.441570
v -1.101938 -0.439060 -1.656022
vt 0.858709 0.601444
vn -0.143377 -0.530078 -0.835739
v -1.048868 -0.650801 -1.304969
vt 0.966770 0.600458
vn -0.357294 -0.829131 -0.429981
v -1.944034 0.115883 -1.070096
vt 0.770161 0.703239
vn -0.864457 0.477488 0.157226
v -2.046756 0.244966 -1.322092
vt 0.781599 0.677903
vn -0.807273 0.586123 0.069067
v -1.883487 0.343883 -1.198458
vt 0.761062 0.680067
vn -0.866106 0.479779 0.140258
v -2.023854 0.176873 -1.627797
vt 0.792654 0.662225
vn -0.808348 0.129686 -0.574243
v -1.835002 0.458631 -1.009859
vt 0.741285 0.686483
vn -0.871420 0.461458 0.166387
v -1.735985 0.627861 -1.142200
vt 0.736949 0.662995
vn -0.492855 0.860837 -0.126704
v -1.622716 0.664362 -0.861450
vt 0.710798 0.667710
vn -0.320726 0.939419 0.120944
v -1.274176 0.593250 -1.220208
vt 0.730810 0.625953
vn 0.214725 0.963133 -0.162076
v -1.423665 0.534822 -1.512475
vt 0.762132 0.623206
vn -0.016717 0.905780 -0.423419
v -1.044124 0.446293 -1.447384
vt 0.746997 0.585302
vn 0.199809 0.939665 -0.277678
v -1.885310 -0.028490 -1.561873
vt 0.814640 0.664213
vn -0.515078 -0.667486 -0.537732
v -1.651689 0.274839 -1.921761
vt 0.793900 0.635085
vn -0.282939 0.279687 -0.917453
v -1.472045 -0.063783 -1.787813
vt 0.820266 0.626729
vn -0.099902 -0.421403 -0.901354
v -1.088307 0.281932 -1.784377
vt 0.786252 0.587041
vn 0.173304 0.311826 -0.934200
v -1.367252 0.071657 -1.770482
vt 0.809681 0.610493
vn 0.258981 -0.217028 -0.941184
v -0.833118 0.393644 -1.729707
vt 0.770083 0.564163
vn 0.209845 0.626047 -0.751019
v -0.939158 0.006904 -1.671473
vt 0.812357 0.562604
vn 0.232868 -0.162409 -0.958851
v -0.397033 0.204541 -1.551629
vt 0.764521 0.501293
vn 0.323451 0.048136 -0.945020
v -0.920079 -0.577409 -1.591369
vt 0.902289 0.552933
vn -0.078962 -0.607406 -0.790457
v -0.742742 -0.753217 -1.389946
vt 0.963514 0.504565
vn 0.019659 -0.744626 -0.667192
v -0.216075 -0.068899 -1.505903
vt 0.788574 0.463332
vn 0.229214 -0.124733 -0.965351
v -0.531277 -0.075109 -1.561027
vt 0.805949 0.501286
vn 0.306578 -0.009714 -0.951796
v -0.448053 -0.039421 -1.480461
vt 0.794949 0.489611
vn 0.324943 0.253527 -0.911118
v 1.900942 0.395454 -0.512105
vt 0.438093 0.245600
vn 0.498554 0.747728 -0.438574
v 1.600427 0.475752 -0.185366
vt 0.417218 0.291129
vn 0.324482 0.863277 0.386607
v 2.133099 0.221968 -0.305432
vt 0.411617 0.225173
vn 0.852431 0.520919 0.044771
v 1.630086 0.222210 0.044317
vt 0.373598 0.290784
vn 0.440465 0.755262 0.485355
v 2.046685 0.106412 -0.493052
vt 0.430812 0.214750
vn 0.712792 -0.029731 -0.700745
v 2.203817 -0.230487 -0.121674
vt 0.377050 0.175585
vn 0.975655 -0.127545 -0.178410
v 1.939211 -0.250959 -0.405655
vt 0.434584 0.166573
vn 0.500220 -0.293525 -0.814631
v 2.168088 -0.077173 -0.053460
vt 0.376082 0.202572
vn 0.852448 0.491589 0.177968
v 1.341838 0.179135 0.486193
vt 0.308555 0.345327
vn 0.337864 0.776778 0.531474
v 1.865640 0.039675 0.275978
vt 0.330508 0.256134
vn 0.437881 0.776716 0.452739
v 1.130521 0.202391 0.459129
vt 0.321387 0.384664
vn 0.269704 0.953028 0.137831
v 1.006231 -0.046450 0.897960
vt 0.230117 0.415227
vn 0.056791 0.589785 0.805561
v 1.436655 -0.090046 0.665728
vt 0.253526 0.326467
vn 0.449795 0.599317 0.662197
v 1.189452 -0.342232 1.029490
vt 0.164861 0.376515
vn 0.279466 0.493566 0.823584
v 1.404603 -0.344898 0.978505
vt 0.169512 0.328221
vn 0.395976 0.406495 0.823386
v 1.856202 -0.481929 0.666603
vt 0.218129 0.231970
vn 0.497464 0.408166 0.765461
v 2.097558 -0.023558 0.134827
vt 0.346637 0.215151
vn 0.515907 0.849894 0.107335
v 1.374374 -0.737621 1.002912
vt 0.070973 0.309563
vn 0.551465 0.196794 0.810653
v 1.146616 -0.439654 1.115801
vt 0.136730 0.391266
vn 0.145194 0.312787 0.938660
v 1.633421 -0.693290 0.866279
vt 0.118087 0.241483
vn 0.398686 0.371683 0.838392
v 1.785623 -0.710827 0.783965
vt 0.140699 0.198669
vn 0.431549 0.302580 0.849830
v 1.962439 -0.670254 0.702557
vt 0.185090 0.159019
vn 0.579970 0.286766 0.762496
v 1.148929 -0.575656 1.134278
vt 0.093530 0.396760
vn 0.272979 0.323462 0.906010
v 1.281214 -0.725825 1.115448
vt 0.063866 0.349407
vn 0.619928 0.466984 0.630568
v 1.112524 -0.784112 1.236765
vt 0.038117 0.407220
vn 0.182157 0.431644 0.883461
v 0.730335 -0.506055 1.103155
vt 0.130240 0.495489
vn 0.126789 0.454848 0.881498
v 0.908065 -0.812938 1.269320
vt 0.031027 0.461395
vn -0.089045 0.433920 0.896540
v 0.795962 -0.857593 1.248565
vt 0.007357 0.496354
vn 0.044402 0.301698 0.952369
v 0.453346 -0.243120 1.027498
vt 0.200350 0.538639
vn 0.304373 0.446561 0.841392
v 0.353117 -0.299011 1.111040
vt 0.184131 0.582531
vn 0.473578 0.505491 0.721251
v -0.045277 0.018655 1.211038
vt 0.267891 0.644525
vn 0.554073 0.534101 0.638545
v 0.328861 -0.649431 1.382479
vt 0.101456 0.619225
vn 0.606289 0.301101 0.736038
v 0.605448 -0.914990 1.283193
vt 0.009612 0.552545
vn 0.250100 -0.099619 0.963081
v 0.355777 -0.815478 1.388788
vt 0.043714 0.629724
vn 0.394899 -0.051415 0.917284
v 0.066359 -0.510359 1.617334
vt 0.147280 0.699642
vn 0.341766 -0.077523 0.936582
v -0.337981 -0.234595 1.722703
vt 0.231150 0.756609
vn 0.346593 0.076788 0.934867
v -0.456408 0.135644 1.442560
vt 0.297282 0.714253
vn 0.532161 0.559569 0.635363
v -0.183763 -0.522896 1.548499
vt 0.146285 0.752829
vn -0.080846 -0.571259 0.816779
v -0.080866 -0.762694 1.409752
vt 0.072027 0.751098
vn -0.051710 -0.511401 0.857785
v -0.257129 -0.718860 1.412293
vt 0.099371 0.799517
vn -0.115212 -0.624514 0.772469
v -0.761603 -0.452215 1.609352
vt 0.234455 0.852040
vn -0.158637 -0.658786 0.735415
v -0.377515 -0.633484 1.421195
vt 0.129372 0.823068
vn -0.506468 -0.829781 -0.234420
v -0.487376 -0.632472 1.403748
vt 0.141856 0.850520
vn -0.089511 -0.805060 0.586400
v -0.810820 -0.601151 1.413256
vt 0.208658 0.909658
vn -0.346044 -0.703329 0.620953
v -0.960052 -0.565333 1.316043
vt 0.240640 0.946894
vn -0.290923 -0.689020 0.663788
v -0.733025 -0.074318 1.857041
vt 0.291258 0.792590
vn 0.253195 -0.003530 0.967409
v -1.040894 -0.326421 1.540856
vt 0.296451 0.889091
vn -0.363033 -0.866225 0.343308
v -1.176824 -0.520898 1.364399
vt 0.302797 0.953503
vn -0.172445 -0.610643 0.772902
v -0.871867 -0.206605 1.730029
vt 0.288055 0.829699
vn 0.012768 -0.576716 0.816845
v -1.164593 -0.301699 1.697675
vt 0.318197 0.864826
vn -0.351716 -0.835618 0.421946
v -1.503259 -0.319052 1.385024
vt 0.383128 0.923518
vn -0.841234 -0.126446 0.525677
v -1.433638 -0.498854 1.267390
vt 0.374638 0.969441
vn -0.480843 -0.602806 0.636722
v -1.357904 -0.175154 1.629836
vt 0.351113 0.867819
vn -0.842370 -0.248911 0.477971
v -1.223559 -0.027342 1.880926
vt 0.336306 0.830310
vn -0.512936 -0.031913 0.857833
v -0.903572 -0.062065 1.890603
vt 0.310576 0.809791
vn 0.112805 -0.137517 0.984055
v 2.094900 -0.445583 0.457195
vt 0.264100 0.169150
vn 0.932002 0.009290 0.362334
v 2.033238 -0.657800 0.482472
vt 0.233008 0.125503
vn 0.957148 -0.263926 0.119212
v 2.020712 -0.694973 0.428712
vt 0.242474 0.108751
vn 0.957214 -0.274240 -0.092376
v 2.010596 -0.666036 0.292057
vt 0.276794 0.101703
vn 0.926676 -0.351434 -0.133290
v 2.097183 -0.167777 0.360954
vt 0.308437 0.202390
vn 0.730997 0.379668 0.567006
v 2.092032 -0.391276 0.050163
vt 0.344645 0.148968
vn 0.904531 -0.410948 0.113778
v 1.945203 -0.687635 0.098016
vt 0.330966 0.077904
vn 0.892860 -0.448662 -0.038775
v 2.209881 -0.190239 0.124042
vt 0.344342 0.187791
vn 0.965625 -0.035432 0.257514
v 1.939420 -0.743847 -0.048877
vt 0.367258 0.067370
vn 0.808729 -0.524148 -0.266883
v 2.161455 -0.383675 -0.213253
vt 0.389426 0.155101
vn 0.869389 -0.293034 -0.397863
v 1.842224 -0.521683 -0.372436
vt 0.446572 0.112010
vn 0.267272 -0.486829 -0.831603
v 1.858881 -0.798072 -0.108733
vt 0.392595 0.048734
vn 0.454187 -0.600547 -0.658071
v 1.380076 -0.828985 -0.164672
vt 0.523119 0.012227
vn 0.053257 -0.583136 -0.810627
v 1.607523 -0.067026 -0.563098
vt 0.482805 0.197024
vn 0.061596 -0.636016 -0.769213
v 1.541364 -0.375991 -0.394556
vt 0.496619 0.127755
vn -0.058976 -0.452694 -0.889714
v 1.352574 -0.282100 -0.450829
vt 0.536394 0.150790
vn 0.220509 -0.591950 -0.775223
v 1.469432 -0.634049 -0.264261
vt 0.511852 0.073711
vn -0.060955 -0.410543 -0.909801
v 1.034533 -0.710117 -0.287936
vt 0.623797 0.058500
vn 0.251970 -0.448735 -0.857408
v 1.141029 -0.731918 -0.203756
vt 0.592716 0.029633
vn -0.400088 -0.872610 0.280144
v 1.216378 -0.497379 -0.297456
vt 0.565198 0.099262
vn 0.215098 -0.481728 -0.849512
v 0.912895 -0.691846 -0.356005
vt 0.668228 0.086901
vn 0.324591 -0.688735 -0.648294
v 1.168601 -0.315387 -0.557051
vt 0.587151 0.169283
vn 0.460271 -0.612456 -0.642689
v 0.705905 -0.654297 -0.336968
vt 0.716223 0.081956
vn -0.080326 -0.766052 0.637739
v 0.184436 -0.811501 1.393506
vt 0.056350 0.675457
vn 0.022171 -0.205132 0.978483
f 3/3/3 2/2/2 1/1/1
f 1/1/1 2/2/2 4/4/4
f 5/5/5 3/3/3 1/1/1
f 6/6/6 1/1/1 4/4/4
f 6/6/6 5/5/5 1/1/1
f 5/5/5 6/6/6 7/7/7
f 4/4/4 8/8/8 6/6/6
f 8/8/8 9/9/9 6/6/6
f 7/7/7 6/6/6 9/9/9
f 4/4/4 10/10/10 8/8/8
f 8/8/8 11/11/11 9/9/9
f 8/8/8 10/10/10 11/11/11
f 10/10/10 12/12/12 11/11/11
f 11/11/11 12/12/12 13/13/13
f 11/11/11 14/14/14 9/9/9
f 13/13/13 14/14/14 11/11/11
f 7/7/7 9/9/9 14/14/14
f 13/13/13 16/16/16 15/15/15
f 15/15/15 14/14/14 13/13/13
f 17/17/17 14/14/14 15/15/15
f 17/17/17 18/18/18 14/14/14
f 18/18/18 17/17/17 19/19/19
f 18/18/18 19/19/19 14/14/14
f 19/19/19 17/17/17 20/20/20
f 14/14/14 21/21/21 7/7/7
f 21/21/21 14/14/14 19/19/19
f 7/7/7 21/21/21 22/22/22
f 5/5/5 7/7/7 22/22/22
f 19/19/19 23/23/23 21/21/21
f 5/5/5 22/22/22 24/24/24
f 21/21/21 25/25/25 22/22/22
f 24/24/24 22/22/22 25/25/25
f 25/25/25 21/21/21 23/23/23
f 5/5/5 24/24/24 3/3/3
f 19/19/19 20/20/20 26/26/26
f 26/26/26 20/20/20 27/27/27
f 26/26/26 27/27/27 28/28/28
f 25/25/25 29/29/29 24/24/24
f 29/29/29 3/3/3 24/24/24
f 30/30/30 29/29/29 25/25/25
f 30/30/30 25/25/25 23/23/23
f 31/31/31 3/3/3 29/29/29
f 30/30/30 32/32/32 29/29/29
f 31/31/31 29/29/29 32/32/32
f 33/33/33 30/30/30 23/23/23
f 32/32/32 30/30/30 34/34/34
f 33/33/33 34/34/34 30/30/30
f 35/35/35 31/31/31 32/32/32
f 3/3/3 31/31/31 36/36/36
f 37/37/37 35/35/35 32/32/32
f 31/31/31 35/35/35 38/38/38
f 38/38/38 35/35/35 37/37/37
f 39/39/39 32/32/32 34/34/34
f 32/32/32 39/39/39 37/37/37
f 3/3/3 36/36/36 2/2/2
f 39/39/39 34/34/34 40/40/40
f 40/40/40 34/34/34 41/41/41
f 34/34/34 33/33/33 41/41/41
f 40/40/40 42/42/42 39/39/39
f 40/40/40 43/43/43 42/42/42
f 40/40/40 41/41/41 43/43/43
f 42/42/42 44/44/44 39/39/39
f 44/44/44 37/37/37 39/39/39
f 44/44/44 42/42/42 45/45/45
f 43/43/43 45/45/45 42/42/42
f 46/46/46 44/44/44 45/45/45
f 47/47/47 37/37/37 44/44/44
f 46/46/46 47/47/47 44/44/44
f 47/47/47 48/48/48 37/37/37
f 49/49/49 37/37/37 48/48/48
f 37/37/37 49/49/49 38/38/38
f 48/48/48 47/47/47 50/50/50
f 51/51/51 50/50/50 47/47/47
f 51/51/51 47/47/47 46/46/46
f 50/50/50 52/52/52 48/48/48
f 51/51/51 53/53/53 50/50/50
f 53/53/53 52/52/52 50/50/50
f 54/54/54 48/48/48 52/52/52
f 54/54/54 49/49/49 48/48/48
f 38/38/38 49/49/49 55/55/55
f 54/54/54 55/55/55 49/49/49
f 55/55/55 56/56/56 38/38/38
f 57/57/57 38/38/38 56/56/56
f 38/38/38 57/57/57 31/31/31
f 36/36/36 31/31/31 57/57/57
f 57/57/57 58/58/58 36/36/36
f 56/56/56 59/59/59 57/57/57
f 57/57/57 59/59/59 58/58/58
f 60/60/60 56/56/56 55/55/55
f 60/60/60 59/59/59 56/56/56
f 61/61/61 58/58/58 59/59/59
f 58/58/58 61/61/61 36/36/36
f 59/59/59 60/60/60 62/62/62
f 62/62/62 61/61/61 59/59/59
f 60/60/60 55/55/55 63/63/63
f 54/54/54 63/63/63 55/55/55
f 63/63/63 54/54/54 64/64/64
f 61/61/61 65/65/65 36/36/36
f 36/36/36 65/65/65 2/2/2
f 66/66/66 60/60/60 63/63/63
f 66/66/66 67/67/67 60/60/60
f 60/60/60 67/67/67 62/62/62
f 66/66/66 63/63/63 68/68/68
f 63/63/63 64/64/64 68/68/68
f 2/2/2 65/65/65 69/69/69
f 70/70/70 66/66/66 68/68/68
f 70/70/70 67/67/67 66/66/66
f 64/64/64 54/54/54 71/71/71
f 71/71/71 68/68/68 64/64/64
f 54/54/54 72/72/72 71/71/71
f 54/54/54 52/52/52 72/72/72
f 72/72/72 73/73/73 71/71/71
f 71/71/71 73/73/73 68/68/68
f 52/52/52 74/74/74 72/72/72
f 73/73/73 72/72/72 74/74/74
f 52/52/52 53/53/53 74/74/74
f 74/74/74 53/53/53 75/75/75
f 76/76/76 75/75/75 53/53/53
f 74/74/74 75/75/75 77/77/77
f 76/76/76 77/77/77 75/75/75
f 78/78/78 73/73/73 74/74/74
f 74/74/74 77/77/77 78/78/78
f 78/78/78 79/79/79 73/73/73
f 79/79/79 68/68/68 73/73/73
f 80/80/80 78/78/78 77/77/77
f 80/80/80 79/79/79 78/78/78
f 81/81/81 80/80/80 77/77/77
f 81/81/81 77/77/77 76/76/76
f 82/82/82 79/79/79 80/80/80
f 76/76/76 53/53/53 83/83/83
f 83/83/83 53/53/53 51/51/51
f 51/51/51 84/84/84 83/83/83
f 84/84/84 51/51/51 46/46/46
f 85/85/85 76/76/76 83/83/83
f 86/86/86 84/84/84 46/46/46
f 87/87/87 83/83/83 84/84/84
f 87/87/87 85/85/85 83/83/83
f 86/86/86 87/87/87 84/84/84
f 88/88/88 76/76/76 85/85/85
f 81/81/81 76/76/76 88/88/88
f 85/85/85 87/87/87 89/89/89
f 88/88/88 85/85/85 89/89/89
f 89/89/89 87/87/87 86/86/86
f 46/46/46 90/90/90 86/86/86
f 90/90/90 46/46/46 45/45/45
f 45/45/45 91/91/91 90/90/90
f 92/92/92 86/86/86 90/90/90
f 92/92/92 90/90/90 91/91/91
f 93/93/93 89/89/89 86/86/86
f 86/86/86 92/92/92 93/93/93
f 91/91/91 45/45/45 43/43/43
f 93/93/93 94/94/94 89/89/89
f 88/88/88 89/89/89 94/94/94
f 95/95/95 93/93/93 92/92/92
f 94/94/94 96/96/96 88/88/88
f 81/81/81 88/88/88 96/96/96
f 97/97/97 94/94/94 93/93/93
f 98/98/98 96/96/96 94/94/94
f 98/98/98 94/94/94 97/97/97
f 99/99/99 97/97/97 93/93/93
f 93/93/93 95/95/95 99/99/99
f 98/98/98 97/97/97 100/100/100
f 99/99/99 100/100/100 97/97/97
f 101/101/101 98/98/98 100/100/100
f 102/102/102 100/100/100 99/99/99
f 100/100/100 102/102/102 101/101/101
f 99/99/99 95/95/95 102/102/102
f 98/98/98 101/101/101 103/103/103
f 98/98/98 103/103/103 96/96/96
f 104/104/104 101/101/101 102/102/102
f 102/102/102 105/105/105 104/104/104
f 106/106/106 105/105/105 102/102/102
f 102/102/102 95/95/95 107/107/107
f 106/106/106 102/102/102 107/107/107
f 103/103/103 108/108/108 96/96/96
f 109/109/109 107/107/107 95/95/95
f 92/92/92 109/109/109 95/95/95
f 109/109/109 92/92/92 91/91/91
f 108/108/108 81/81/81 96/96/96
f 110/110/110 109/109/109 91/91/91
f 109/109/109 111/111/111 107/107/107
f 111/111/111 109/109/109 110/110/110
f 112/112/112 110/110/110 91/91/91
f 111/111/111 110/110/110 112/112/112
f 43/43/43 112/112/112 91/91/91
f 108/108/108 113/113/113 81/81/81
f 81/81/81 113/113/113 80/80/80
f 107/107/107 111/111/111 114/114/114
f 106/106/106 107/107/107 114/114/114
f 115/115/115 106/106/106 114/114/114
f 116/116/116 115/115/115 114/114/114
f 111/111/111 117/117/117 114/114/114
f 118/118/118 116/116/116 114/114/114
f 117/117/117 118/118/118 114/114/114
f 119/119/119 117/117/117 111/111/111
f 119/119/119 111/111/111 112/112/112
f 118/118/118 117/117/117 119/119/119
f 120/120/120 119/119/119 112/112/112
f 121/121/121 119/119/119 120/120/120
f 118/118/118 119/119/119 121/121/121
f 120/120/120 122/122/122 121/121/121
f 123/123/123 116/116/116 118/118/118
f 124/124/124 116/116/116 123/123/123
f 125/125/125 118/118/118 121/121/121
f 118/118/118 125/125/125 123/123/123
f 125/125/125 121/121/121 126/126/126
f 122/122/122 126/126/126 121/121/121
f 124/124/124 123/123/123 127/127/127
f 127/127/127 123/123/123 125/125/125
f 128/128/128 124/124/124 127/127/127
f 129/129/129 128/128/128 127/127/127
f 130/130/130 127/127/127 125/125/125
f 130/130/130 125/125/125 126/126/126
f 129/129/129 127/127/127 130/130/130
f 130/130/130 126/126/126 131/131/131
f 131/131/131 126/126/126 122/122/122
f 132/132/132 129/129/129 130/130/130
f 132/132/132 130/130/130 131/131/131
f 133/133/133 129/129/129 132/132/132
f 132/132/132 131/131/131 133/133/133
f 129/129/129 133/133/133 134/134/134
f 122/122/122 135/135/135 131/131/131
f 135/135/135 136/136/136 131/131/131
f 137/137/137 135/135/135 122/122/122
f 135/135/135 137/137/137 136/136/136
f 131/131/131 136/136/136 138/138/138
f 138/138/138 136/136/136 137/137/137
f 137/137/137 122/122/122 139/139/139
f 122/122/122 112/112/112 139/139/139
f 112/112/112 43/43/43 139/139/139
f 139/139/139 140/140/140 137/137/137
f 138/138/138 137/137/137 140/140/140
f 139/139/139 43/43/43 141/141/141
f 141/141/141 140/140/140 139/139/139
f 43/43/43 41/41/41 141/141/141
f 141/141/141 142/142/142 140/140/140
f 141/141/141 41/41/41 142/142/142
f 143/143/143 138/138/138 140/140/140
f 143/143/143 140/140/140 142/142/142
f 144/144/144 142/142/142 41/41/41
f 144/144/144 143/143/143 142/142/142
f 41/41/41 33/33/33 144/144/144
f 131/131/131 138/138/138 145/145/145
f 133/133/133 131/131/131 145/145/145
f 143/143/143 146/146/146 138/138/138
f 145/145/145 138/138/138 146/146/146
f 145/145/145 146/146/146 147/147/147
f 147/147/147 133/133/133 145/145/145
f 148/148/148 146/146/146 143/143/143
f 148/148/148 143/143/143 144/144/144
f 146/146/146 149/149/149 147/147/147
f 133/133/133 147/147/147 149/149/149
f 148/148/148 149/149/149 146/146/146
f 144/144/144 150/150/150 148/148/148
f 144/144/144 33/33/33 150/150/150
f 151/151/151 149/149/149 148/148/148
f 151/151/151 148/148/148 150/150/150
f 149/149/149 151/151/151 133/133/133
f 150/150/150 33/33/33 152/152/152
f 150/150/150 152/152/152 151/151/151
f 152/152/152 33/33/33 23/23/23
f 151/151/151 153/153/153 133/133/133
f 134/134/134 133/133/133 153/153/153
f 134/134/134 153/153/153 154/154/154
f 153/153/153 28/28/28 154/154/154
f 28/28/28 153/153/153 26/26/26
f 26/26/26 153/153/153 151/151/151
f 155/155/155 152/152/152 23/23/23
f 23/23/23 19/19/19 155/155/155
f 19/19/19 26/26/26 155/155/155
f 156/156/156 26/26/26 151/151/151
f 155/155/155 26/26/26 156/156/156
f 156/156/156 151/151/151 152/152/152
f 157/157/157 155/155/155 156/156/156
f 155/155/155 157/157/157 152/152/152
f 152/152/152 157/157/157 156/156/156
f 61/61/61 158/158/158 65/65/65
f 69/69/69 65/65/65 158/158/158
f 158/158/158 61/61/61 159/159/159
f 61/61/61 62/62/62 159/159/159
f 159/159/159 160/160/160 158/158/158
f 62/62/62 161/161/161 159/159/159
f 161/161/161 160/160/160 159/159/159
f 162/162/162 158/158/158 160/160/160
f 162/162/162 69/69/69 158/158/158
f 163/163/163 162/162/162 160/160/160
f 164/164/164 69/69/69 162/162/162
f 162/162/162 163/163/163 164/164/164
f 165/165/165 160/160/160 161/161/161
f 165/165/165 163/163/163 160/160/160
f 62/62/62 166/166/166 161/161/161
f 161/161/161 167/167/167 165/165/165
f 167/167/167 161/161/161 166/166/166
f 168/168/168 166/166/166 62/62/62
f 67/67/67 168/168/168 62/62/62
f 67/67/67 166/166/166 168/168/168
f 166/166/166 67/67/67 169/169/169
f 70/70/70 169/169/169 67/67/67
f 166/166/166 169/169/169 170/170/170
f 170/170/170 167/167/167 166/166/166
f 170/170/170 169/169/169 171/171/171
f 70/70/70 171/171/171 169/169/169
f 170/170/170 171/171/171 172/172/172
f 173/173/173 167/167/167 170/170/170
f 173/173/173 170/170/170 172/172/172
f 165/165/165 167/167/167 174/174/174
f 172/172/172 171/171/171 175/175/175
f 172/172/172 175/175/175 173/173/173
f 176/176/176 175/175/175 171/171/171
f 171/171/171 70/70/70 176/176/176
f 177/177/177 173/173/173 175/175/175
f 177/177/177 178/178/178 173/173/173
f 179/179/179 173/173/173 178/178/178
f 175/175/175 176/176/176 180/180/180
f 70/70/70 180/180/180 176/176/176
f 181/181/181 175/175/175 180/180/180
f 180/180/180 182/182/182 181/181/181
f 182/182/182 180/180/180 183/183/183
f 70/70/70 183/183/183 180/180/180
f 182/182/182 183/183/183 184/184/184
f 183/183/183 185/185/185 184/184/184
f 70/70/70 186/186/186 183/183/183
f 70/70/70 68/68/68 186/186/186
f 187/187/187 183/183/183 186/186/186
f 68/68/68 187/187/187 186/186/186
f 187/187/187 185/185/185 183/183/183
f 187/187/187 68/68/68 188/188/188
f 187/187/187 189/189/189 185/185/185
f 190/190/190 185/185/185 189/189/189
f 189/189/189 191/191/191 190/190/190
f 192/192/192 189/189/189 187/187/187
f 192/192/192 191/191/191 189/189/189
f 188/188/188 193/193/193 187/187/187
f 187/187/187 193/193/193 192/192/192
f 188/188/188 68/68/68 194/194/194
f 188/188/188 194/194/194 193/193/193
f 194/194/194 68/68/68 79/79/79
f 194/194/194 79/79/79 82/82/82
f 193/193/193 194/194/194 82/82/82
f 195/195/195 191/191/191 192/192/192
f 195/195/195 192/192/192 193/193/193
f 196/196/196 191/191/191 195/195/195
f 197/197/197 196/196/196 195/195/195
f 198/198/198 197/197/197 195/195/195
f 195/195/195 193/193/193 198/198/198
f 197/197/197 198/198/198 199/199/199
f 198/198/198 200/200/200 199/199/199
f 200/200/200 198/198/198 201/201/201
f 198/198/198 202/202/202 201/201/201
f 203/203/203 193/193/193 82/82/82
f 204/204/204 202/202/202 198/198/198
f 202/202/202 204/204/204 205/205/205
f 198/198/198 193/193/193 206/206/206
f 203/203/203 206/206/206 193/193/193
f 207/207/207 204/204/204 198/198/198
f 206/206/206 207/207/207 198/198/198
f 205/205/205 204/204/204 208/208/208
f 209/209/209 205/205/205 208/208/208
f 208/208/208 103/103/103 209/209/209
f 103/103/103 208/208/208 108/108/108
f 210/210/210 208/208/208 204/204/204
f 208/208/208 210/210/210 108/108/108
f 207/207/207 210/210/210 204/204/204
f 108/108/108 210/210/210 113/113/113
f 113/113/113 82/82/82 80/80/80
f 207/207/207 211/211/211 210/210/210
f 211/211/211 113/113/113 210/210/210
f 207/207/207 206/206/206 211/211/211
f 212/212/212 82/82/82 113/113/113
f 212/212/212 113/113/113 211/211/211
f 211/211/211 206/206/206 212/212/212
f 203/203/203 82/82/82 212/212/212
f 212/212/212 206/206/206 203/203/203
f 179/179/179 214/214/214 213/213/213
f 214/214/214 215/215/215 213/213/213
f 213/213/213 173/173/173 179/179/179
f 213/213/213 215/215/215 216/216/216
f 213/213/213 217/217/217 173/173/173
f 173/173/173 217/217/217 167/167/167
f 167/167/167 217/217/217 174/174/174
f 213/213/213 216/216/216 218/218/218
f 213/213/213 218/218/218 217/217/217
f 216/216/216 219/219/219 218/218/218
f 174/174/174 217/217/217 220/220/220
f 217/217/217 218/218/218 220/220/220
f 220/220/220 165/165/165 174/174/174
f 163/163/163 165/165/165 220/220/220
f 163/163/163 220/220/220 218/218/218
f 219/219/219 221/221/221 218/218/218
f 218/218/218 222/222/222 163/163/163
f 218/218/218 221/221/221 222/222/222
f 164/164/164 163/163/163 222/222/222
f 222/222/222 221/221/221 223/223/223
f 164/164/164 222/222/222 223/223/223
f 223/223/223 221/221/221 224/224/224
f 224/224/224 225/225/225 223/223/223
f 226/226/226 164/164/164 223/223/223
f 226/226/226 69/69/69 164/164/164
f 223/223/223 227/227/227 226/226/226
f 69/69/69 226/226/226 228/228/228
f 227/227/227 228/228/228 226/226/226
f 2/2/2 69/69/69 228/228/228
f 229/229/229 227/227/227 223/223/223
f 229/229/229 228/228/228 227/227/227
f 223/223/223 225/225/225 229/229/229
f 225/225/225 230/230/230 229/229/229
f 230/230/230 225/225/225 231/231/231
f 232/232/232 229/229/229 230/230/230
f 232/232/232 228/228/228 229/229/229
f 230/230/230 233/233/233 232/232/232
f 234/234/234 2/2/2 228/228/228
f 234/234/234 228/228/228 232/232/232
f 232/232/232 233/233/233 234/234/234
f 4/4/4 2/2/2 234/234/234
f 4/4/4 234/234/234 233/233/233
f 10/10/10 4/4/4 233/233/233
f 235/235/235 10/10/10 233/233/233
f 196/196/196 236/236/236 191/191/191
f 122/122/122 120/120/120 112/112/112
