# Exported from Godot Engine
o MS_Rock_C_Collider
v 0.827159 0.046462 -0.938847
vn -0.229735 0.961430 -0.151240
v 1.483526 0.225752 -0.796280
vn -0.229735 0.961430 -0.151240
v 2.018146 0.408219 -0.448579
vn -0.229735 0.961430 -0.151240
v 0.774717 0.735752 -0.013893
vn 0.164990 0.795323 -0.583301
v -0.436016 1.162971 0.226222
vn 0.164990 0.795323 -0.583301
v 0.827159 0.046462 -0.938847
vn 0.164990 0.795323 -0.583301
v 0.827159 0.046462 -0.938847
vn 0.002525 0.801919 -0.597427
v 2.018146 0.408219 -0.448579
vn 0.002525 0.801919 -0.597427
v 0.774717 0.735752 -0.013893
vn 0.002525 0.801919 -0.597427
v 2.018146 0.408219 -0.448579
vn 0.967622 -0.052123 -0.246962
v 2.026352 -0.707654 -0.180936
vn 0.967622 -0.052123 -0.246962
v 2.184449 -0.313928 0.355231
vn 0.967622 -0.052123 -0.246962
v 2.018146 0.408219 -0.448579
vn 0.579560 -0.186115 -0.793393
v 1.483526 0.225752 -0.796280
vn 0.579560 -0.186115 -0.793393
v 2.026352 -0.707654 -0.180936
vn 0.579560 -0.186115 -0.793393
v 2.026352 -0.707654 -0.180936
vn -0.018048 -0.557600 -0.829914
v 1.483526 0.225752 -0.796280
vn -0.018048 -0.557600 -0.829914
v 1.117838 -0.719380 -0.153350
vn -0.018048 -0.557600 -0.829914
v -1.692138 0.278471 -1.913103
vn 0.230630 -0.171990 -0.957721
v -0.594241 -0.809724 -1.453297
vn 0.230630 -0.171990 -0.957721
v -0.017051 0.118057 -1.481000
vn 0.230630 -0.171990 -0.957721
v -0.594241 -0.809724 -1.453297
vn 0.574294 -0.676431 -0.461115
v 0.288564 -0.816683 -0.343458
vn 0.574294 -0.676431 -0.461115
v 0.827159 0.046462 -0.938847
vn 0.574294 -0.676431 -0.461115
v 0.827159 0.046462 -0.938847
vn 0.490444 -0.329123 -0.806934
v -0.017051 0.118057 -1.481000
vn 0.490444 -0.329123 -0.806934
v -0.594241 -0.809724 -1.453297
vn 0.490444 -0.329123 -0.806934
v 1.117838 -0.719380 -0.153350
vn 0.324028 -0.614599 -0.719218
v 1.483526 0.225752 -0.796280
vn 0.324028 -0.614599 -0.719218
v 0.827159 0.046462 -0.938847
vn 0.324028 -0.614599 -0.719218
v 1.117838 -0.719380 -0.153350
vn 0.241475 -0.648630 -0.721782
v 0.827159 0.046462 -0.938847
vn 0.241475 -0.648630 -0.721782
v 0.288564 -0.816683 -0.343458
vn 0.241475 -0.648630 -0.721782
v -1.692138 0.278471 -1.913103
vn -0.492441 -0.709762 -0.503726
v -2.017052 -0.156947 -0.982222
vn -0.492441 -0.709762 -0.503726
v -0.594241 -0.809724 -1.453297
vn -0.492441 -0.709762 -0.503726
v -1.935952 -0.422767 -0.198133
vn -0.610390 -0.767183 -0.197116
v -1.161045 -0.847062 -0.946184
vn -0.610390 -0.767183 -0.197116
v -2.017052 -0.156947 -0.982222
vn -0.610390 -0.767183 -0.197116
v -0.689317 -0.731423 0.798368
vn -0.255967 -0.966464 0.020706
v -1.935952 -0.422767 -0.198133
vn -0.255967 -0.966464 0.020706
v -1.618475 -0.481047 1.000392
vn -0.255967 -0.966464 0.020706
v -1.618475 -0.481047 1.000392
vn -0.188437 -0.936860 0.294591
v -0.736823 -0.477679 1.574768
vn -0.188437 -0.936860 0.294591
v -0.689317 -0.731423 0.798368
vn -0.188437 -0.936860 0.294591
v -1.618475 -0.481047 1.000392
vn -0.384601 -0.706239 0.594398
v -1.142132 0.044873 1.933386
vn -0.384601 -0.706239 0.594398
v -0.736823 -0.477679 1.574768
vn -0.384601 -0.706239 0.594398
v 0.616107 -0.919579 1.348973
vn -0.061413 -0.596793 0.800042
v -0.736823 -0.477679 1.574768
vn -0.061413 -0.596793 0.800042
v -1.142132 0.044873 1.933386
vn -0.061413 -0.596793 0.800042
v 2.184449 -0.313928 0.355231
vn 0.624113 -0.706091 0.334542
v 2.026352 -0.707654 -0.180936
vn 0.624113 -0.706091 0.334542
v 1.352227 -0.691638 1.110912
vn 0.624113 -0.706091 0.334542
v 2.026352 -0.707654 -0.180936
vn 0.013512 -0.999722 0.019321
v 1.117838 -0.719380 -0.153350
vn 0.013512 -0.999722 0.019321
v 1.352227 -0.691638 1.110912
vn 0.013512 -0.999722 0.019321
v 1.117838 -0.719380 -0.153350
vn 0.286208 -0.957632 -0.032034
v 0.616107 -0.919579 1.348973
vn 0.286208 -0.957632 -0.032034
v 1.352227 -0.691638 1.110912
vn 0.286208 -0.957632 -0.032034
v 0.288564 -0.816683 -0.343458
vn 0.135596 -0.986993 -0.086366
v 0.616107 -0.919579 1.348973
vn 0.135596 -0.986993 -0.086366
v 1.117838 -0.719380 -0.153350
vn 0.135596 -0.986993 -0.086366
v 0.616107 -0.919579 1.348973
vn -0.127965 -0.991138 -0.035647
v 0.288564 -0.816683 -0.343458
vn -0.127965 -0.991138 -0.035647
v -0.689317 -0.731423 0.798368
vn -0.127965 -0.991138 -0.035647
v 0.616107 -0.919579 1.348973
vn -0.254086 -0.923814 0.286368
v -0.689317 -0.731423 0.798368
vn -0.254086 -0.923814 0.286368
v -0.736823 -0.477679 1.574768
vn -0.254086 -0.923814 0.286368
v 0.774717 0.735752 -0.013893
vn 0.380754 0.773859 0.506131
v 2.018146 0.408219 -0.448579
vn 0.380754 0.773859 0.506131
v 1.156112 0.166773 0.569287
vn 0.380754 0.773859 0.506131
v 1.156112 0.166773 0.569287
vn 0.445343 0.709821 0.545733
v 2.018146 0.408219 -0.448579
vn 0.445343 0.709821 0.545733
v 2.184449 -0.313928 0.355231
vn 0.445343 0.709821 0.545733
v 1.352227 -0.691638 1.110912
vn 0.409154 0.551985 0.726571
v 1.156112 0.166773 0.569287
vn 0.409154 0.551985 0.726571
v 2.184449 -0.313928 0.355231
vn 0.409154 0.551985 0.726571
v -0.437875 0.386484 1.200830
vn 0.504357 0.487723 0.712566
v 0.616107 -0.919579 1.348973
vn 0.504357 0.487723 0.712566
v -1.142132 0.044873 1.933386
vn 0.504357 0.487723 0.712566
v -0.993203 0.896674 0.961595
vn 0.344619 0.679063 0.648160
v -0.437875 0.386484 1.200830
vn 0.344619 0.679063 0.648160
v -1.142132 0.044873 1.933386
vn 0.344619 0.679063 0.648160
v -0.993203 0.896674 0.961595
vn 0.409925 0.712955 0.568909
v -0.436016 1.162971 0.226222
vn 0.409925 0.712955 0.568909
v -0.437875 0.386484 1.200830
vn 0.409925 0.712955 0.568909
v 0.517568 0.154951 0.742903
vn 0.471657 0.465546 0.748870
v 0.616107 -0.919579 1.348973
vn 0.471657 0.465546 0.748870
v -0.437875 0.386484 1.200830
vn 0.471657 0.465546 0.748870
v -0.437875 0.386484 1.200830
vn 0.438795 0.702394 0.560448
v -0.436016 1.162971 0.226222
vn 0.438795 0.702394 0.560448
v 0.517568 0.154951 0.742903
vn 0.438795 0.702394 0.560448
v 0.774717 0.735752 -0.013893
vn 0.158437 0.756409 0.634621
v 1.156112 0.166773 0.569287
vn 0.158437 0.756409 0.634621
v 0.517568 0.154951 0.742903
vn 0.158437 0.756409 0.634621
v 0.774717 0.735752 -0.013893
vn 0.365175 0.674378 0.641765
v 0.517568 0.154951 0.742903
vn 0.365175 0.674378 0.641765
v -0.436016 1.162971 0.226222
vn 0.365175 0.674378 0.641765
v 1.352227 -0.691638 1.110912
vn 0.124243 0.496049 0.859360
v 0.616107 -0.919579 1.348973
vn 0.124243 0.496049 0.859360
v 0.517568 0.154951 0.742903
vn 0.124243 0.496049 0.859360
v 1.156112 0.166773 0.569287
vn 0.208598 0.555425 0.804978
v 1.352227 -0.691638 1.110912
vn 0.208598 0.555425 0.804978
v 0.517568 0.154951 0.742903
vn 0.208598 0.555425 0.804978
v -1.692138 0.278471 -1.913103
vn 0.179360 0.917666 -0.354569
v -0.017051 0.118057 -1.481000
vn 0.179360 0.917666 -0.354569
v -1.679893 0.651287 -0.942075
vn 0.179360 0.917666 -0.354569
v 0.827159 0.046462 -0.938847
vn 0.345163 0.835840 -0.426890
v -0.436016 1.162971 0.226222
vn 0.345163 0.835840 -0.426890
v -0.017051 0.118057 -1.481000
vn 0.345163 0.835840 -0.426890
v -1.679893 0.651287 -0.942075
vn 0.114315 0.859560 -0.498084
v -0.017051 0.118057 -1.481000
vn 0.114315 0.859560 -0.498084
v -0.436016 1.162971 0.226222
vn 0.114315 0.859560 -0.498084
v -0.436016 1.162971 0.226222
vn -0.060118 0.936317 -0.345971
v -1.440696 1.046188 0.085123
vn -0.060118 0.936317 -0.345971
v -1.679893 0.651287 -0.942075
vn -0.060118 0.936317 -0.345971
v -1.692138 0.278471 -1.913103
vn -0.911757 0.387196 -0.137036
v -1.679893 0.651287 -0.942075
vn -0.911757 0.387196 -0.137036
v -2.017052 -0.156947 -0.982222
vn -0.911757 0.387196 -0.137036
v -1.541734 0.147706 0.725823
vn -0.934410 0.270423 0.231840
v -1.935952 -0.422767 -0.198133
vn -0.934410 0.270423 0.231840
v -1.440696 1.046188 0.085123
vn -0.934410 0.270423 0.231840
v -1.440696 1.046188 0.085123
vn -0.921942 0.381271 0.068233
v -2.017052 -0.156947 -0.982222
vn -0.921942 0.381271 0.068233
v -1.679893 0.651287 -0.942075
vn -0.921942 0.381271 0.068233
v -1.440696 1.046188 0.085123
vn -0.940528 0.279990 0.192385
v -1.935952 -0.422767 -0.198133
vn -0.940528 0.279990 0.192385
v -2.017052 -0.156947 -0.982222
vn -0.940528 0.279990 0.192385
v -1.618475 -0.481047 1.000392
vn -0.938388 0.227884 0.259802
v -1.935952 -0.422767 -0.198133
vn -0.938388 0.227884 0.259802
v -1.541734 0.147706 0.725823
vn -0.938388 0.227884 0.259802
v -1.440696 1.046188 0.085123
vn -0.776615 0.421270 0.468403
v -0.993203 0.896674 0.961595
vn -0.776615 0.421270 0.468403
v -1.541734 0.147706 0.725823
vn -0.776615 0.421270 0.468403
v -0.436016 1.162971 0.226222
vn -0.145037 0.960380 0.237980
v -0.993203 0.896674 0.961595
vn -0.145037 0.960380 0.237980
v -1.440696 1.046188 0.085123
vn -0.145037 0.960380 0.237980
v -0.993203 0.896674 0.961595
vn -0.810830 0.496020 0.310675
v -1.142132 0.044873 1.933386
vn -0.810830 0.496020 0.310675
v -1.541734 0.147706 0.725823
vn -0.810830 0.496020 0.310675
v -1.541734 0.147706 0.725823
vn -0.911974 0.252475 0.323357
v -1.142132 0.044873 1.933386
vn -0.911974 0.252475 0.323357
v -1.618475 -0.481047 1.000392
vn -0.911974 0.252475 0.323357
v -2.017052 -0.156947 -0.982222
vn -0.489546 -0.638207 -0.594169
v -1.161045 -0.847062 -0.946184
vn -0.489546 -0.638207 -0.594169
v -0.594241 -0.809724 -1.453297
vn -0.489546 -0.638207 -0.594169
v -0.689317 -0.731423 0.798368
vn -0.353620 -0.922176 0.156666
v -1.161045 -0.847062 -0.946184
vn -0.353620 -0.922176 0.156666
v -1.935952 -0.422767 -0.198133
vn -0.353620 -0.922176 0.156666
v -0.594241 -0.809724 -1.453297
vn 0.035277 -0.998792 -0.034195
v -1.161045 -0.847062 -0.946184
vn 0.035277 -0.998792 -0.034195
v 0.288564 -0.816683 -0.343458
vn 0.035277 -0.998792 -0.034195
v 0.288564 -0.816683 -0.343458
vn -0.007459 -0.997659 0.067974
v -1.161045 -0.847062 -0.946184
vn -0.007459 -0.997659 0.067974
v -0.689317 -0.731423 0.798368
vn -0.007459 -0.997659 0.067974
f 3//3 2//2 1//1
f 6//6 5//5 4//4
f 9//9 8//8 7//7
f 12//12 11//11 10//10
f 15//15 14//14 13//13
f 18//18 17//17 16//16
f 21//21 20//20 19//19
f 24//24 23//23 22//22
f 27//27 26//26 25//25
f 30//30 29//29 28//28
f 33//33 32//32 31//31
f 36//36 35//35 34//34
f 39//39 38//38 37//37
f 42//42 41//41 40//40
f 45//45 44//44 43//43
f 48//48 47//47 46//46
f 51//51 50//50 49//49
f 54//54 53//53 52//52
f 57//57 56//56 55//55
f 60//60 59//59 58//58
f 63//63 62//62 61//61
f 66//66 65//65 64//64
f 69//69 68//68 67//67
f 72//72 71//71 70//70
f 75//75 74//74 73//73
f 78//78 77//77 76//76
f 81//81 80//80 79//79
f 84//84 83//83 82//82
f 87//87 86//86 85//85
f 90//90 89//89 88//88
f 93//93 92//92 91//91
f 96//96 95//95 94//94
f 99//99 98//98 97//97
f 102//102 101//101 100//100
f 105//105 104//104 103//103
f 108//108 107//107 106//106
f 111//111 110//110 109//109
f 114//114 113//113 112//112
f 117//117 116//116 115//115
f 120//120 119//119 118//118
f 123//123 122//122 121//121
f 126//126 125//125 124//124
f 129//129 128//128 127//127
f 132//132 131//131 130//130
f 135//135 134//134 133//133
f 138//138 137//137 136//136
f 141//141 140//140 139//139
f 144//144 143//143 142//142
f 147//147 146//146 145//145
f 150//150 149//149 148//148
f 153//153 152//152 151//151
f 156//156 155//155 154//154
