# Exported from Godot Engine
o MS_Rock_D_Collider
v 0.416460 -0.868006 2.702990
vn -0.336196 0.287231 0.896923
v -0.712194 0.600550 1.809507
vn -0.336196 0.287231 0.896923
v -0.016176 0.971167 1.951709
vn -0.336196 0.287231 0.896923
v -1.226439 -0.729670 1.850725
vn -0.438430 0.196660 0.876986
v -0.712194 0.600550 1.809507
vn -0.438430 0.196660 0.876986
v 0.416460 -0.868006 2.702990
vn -0.438430 0.196660 0.876986
v -1.226439 -0.729670 1.850725
vn -0.226819 0.117649 0.966805
v -2.085353 0.208401 1.535065
vn -0.226819 0.117649 0.966805
v -0.712194 0.600550 1.809507
vn -0.226819 0.117649 0.966805
v -1.445449 -0.857182 0.873432
vn -0.754625 -0.607325 0.248391
v -2.085353 0.208401 1.535065
vn -0.754625 -0.607325 0.248391
v -1.226439 -0.729670 1.850725
vn -0.754625 -0.607325 0.248391
v -1.445449 -0.857182 0.873432
vn -0.872715 -0.483937 -0.064595
v -1.908640 0.057208 0.279380
vn -0.872715 -0.483937 -0.064595
v -2.085353 0.208401 1.535065
vn -0.872715 -0.483937 -0.064595
v -1.908640 0.057208 0.279380
vn -0.919490 -0.351340 0.176347
v -1.445449 -0.857182 0.873432
vn -0.919490 -0.351340 0.176347
v -1.840913 -0.592115 -0.661246
vn -0.919490 -0.351340 0.176347
v 0.941538 -0.278395 2.021350
vn 0.782273 0.023080 0.622508
v 2.166074 -0.830726 0.503073
vn 0.782273 0.023080 0.622508
v 0.416460 -0.868006 2.702990
vn 0.782273 0.023080 0.622508
v 0.941538 -0.278395 2.021350
vn 0.500553 0.425635 0.753844
v 0.416460 -0.868006 2.702990
vn 0.500553 0.425635 0.753844
v -0.016176 0.971167 1.951709
vn 0.500553 0.425635 0.753844
v -0.016176 0.971167 1.951709
vn 0.355059 0.321072 0.877978
v 1.464152 1.050339 1.324081
vn 0.355059 0.321072 0.877978
v 0.941538 -0.278395 2.021350
vn 0.355059 0.321072 0.877978
v 0.941538 -0.278395 2.021350
vn 0.781671 0.019575 0.623384
v 1.464152 1.050339 1.324081
vn 0.781671 0.019575 0.623384
v 2.166074 -0.830726 0.503073
vn 0.781671 0.019575 0.623384
v -1.710714 -0.386446 -2.099749
vn -0.536166 0.110875 -0.836799
v -0.218384 0.603520 -2.924536
vn -0.536166 0.110875 -0.836799
v -1.269320 0.722396 -2.235511
vn -0.536166 0.110875 -0.836799
v 0.118694 -0.880589 -2.144831
vn -0.152640 -0.486632 -0.860169
v -0.218384 0.603520 -2.924536
vn -0.152640 -0.486632 -0.860169
v -1.710714 -0.386446 -2.099749
vn -0.152640 -0.486632 -0.860169
v 0.118694 -0.880589 -2.144831
vn -0.128933 -0.394171 -0.909948
v -1.710714 -0.386446 -2.099749
vn -0.128933 -0.394171 -0.909948
v -1.657778 -1.005678 -1.839046
vn -0.128933 -0.394171 -0.909948
v 1.522667 1.014153 0.430512
vn 0.942531 0.330595 0.048413
v 2.166074 -0.830726 0.503073
vn 0.942531 0.330595 0.048413
v 1.464152 1.050339 1.324081
vn 0.942531 0.330595 0.048413
v 0.378639 1.054599 -1.666361
vn -0.249249 0.960376 -0.124709
v 0.893208 1.347411 -0.439357
vn -0.249249 0.960376 -0.124709
v -0.475928 1.005126 -0.339403
vn -0.249249 0.960376 -0.124709
v -0.699739 0.866281 0.608951
vn -0.158731 0.981582 0.106305
v -1.554630 0.903796 -1.014088
vn -0.158731 0.981582 0.106305
v -0.475928 1.005126 -0.339403
vn -0.158731 0.981582 0.106305
v 0.893208 1.347411 -0.439357
vn -0.235768 0.967987 0.086104
v -0.699739 0.866281 0.608951
vn -0.235768 0.967987 0.086104
v -0.475928 1.005126 -0.339403
vn -0.235768 0.967987 0.086104
v 0.893208 1.347411 -0.439357
vn -0.255581 0.965241 0.054663
v -0.016176 0.971167 1.951709
vn -0.255581 0.965241 0.054663
v -0.699739 0.866281 0.608951
vn -0.255581 0.965241 0.054663
v 1.522667 1.014153 0.430512
vn 0.472872 0.881120 -0.004578
v 1.464152 1.050339 1.324081
vn 0.472872 0.881120 -0.004578
v 0.893208 1.347411 -0.439357
vn 0.472872 0.881120 -0.004578
v 1.464152 1.050339 1.324081
vn 0.015574 0.986780 0.161318
v -0.016176 0.971167 1.951709
vn 0.015574 0.986780 0.161318
v 0.893208 1.347411 -0.439357
vn 0.015574 0.986780 0.161318
v -0.699739 0.866281 0.608951
vn -0.082316 0.995955 -0.036028
v -0.016176 0.971167 1.951709
vn -0.082316 0.995955 -0.036028
v -1.852655 0.774096 0.689669
vn -0.082316 0.995955 -0.036028
v -1.852655 0.774096 0.689669
vn -0.471491 0.661819 0.582831
v -0.016176 0.971167 1.951709
vn -0.471491 0.661819 0.582831
v -0.712194 0.600550 1.809507
vn -0.471491 0.661819 0.582831
v -0.712194 0.600550 1.809507
vn -0.327721 0.824338 0.461591
v -2.085353 0.208401 1.535065
vn -0.327721 0.824338 0.461591
v -1.852655 0.774096 0.689669
vn -0.327721 0.824338 0.461591
v -1.554630 0.903796 -1.014088
vn -0.973426 0.166188 -0.157554
v -1.852655 0.774096 0.689669
vn -0.973426 0.166188 -0.157554
v -1.908640 0.057208 0.279380
vn -0.973426 0.166188 -0.157554
v -2.085353 0.208401 1.535065
vn -0.973575 0.165891 -0.156945
v -1.908640 0.057208 0.279380
vn -0.973575 0.165891 -0.156945
v -1.852655 0.774096 0.689669
vn -0.973575 0.165891 -0.156945
v -0.011440 -1.200756 0.118115
vn -0.278230 -0.955959 -0.093442
v -1.840913 -0.592115 -0.661246
vn -0.278230 -0.955959 -0.093442
v -1.445449 -0.857182 0.873432
vn -0.278230 -0.955959 -0.093442
v -0.011440 -1.200756 0.118115
vn -0.282634 -0.953715 -0.102691
v -1.445449 -0.857182 0.873432
vn -0.282634 -0.953715 -0.102691
v -0.274888 -1.213574 0.962824
vn -0.282634 -0.953715 -0.102691
v 0.904691 -0.925803 0.964885
vn 0.236510 -0.969839 0.058945
v -0.011440 -1.200756 0.118115
vn 0.236510 -0.969839 0.058945
v -0.274888 -1.213574 0.962824
vn 0.236510 -0.969839 0.058945
v 0.904691 -0.925803 0.964885
vn 0.159833 -0.976570 0.144096
v 1.649753 -1.024280 -0.529263
vn 0.159833 -0.976570 0.144096
v -0.011440 -1.200756 0.118115
vn 0.159833 -0.976570 0.144096
v 0.904691 -0.925803 0.964885
vn 0.119885 -0.984919 0.124748
v 2.166074 -0.830726 0.503073
vn 0.119885 -0.984919 0.124748
v 1.649753 -1.024280 -0.529263
vn 0.119885 -0.984919 0.124748
v 0.904691 -0.925803 0.964885
vn 0.096996 -0.993456 0.060314
v 0.416460 -0.868006 2.702990
vn 0.096996 -0.993456 0.060314
v 2.166074 -0.830726 0.503073
vn 0.096996 -0.993456 0.060314
v 0.416460 -0.868006 2.702990
vn 0.235704 -0.966837 0.098329
v 0.904691 -0.925803 0.964885
vn 0.235704 -0.966837 0.098329
v -0.274888 -1.213574 0.962824
vn 0.235704 -0.966837 0.098329
v -0.274888 -1.213574 0.962824
vn -0.220777 -0.936181 0.273539
v -1.226439 -0.729670 1.850725
vn -0.220777 -0.936181 0.273539
v 0.416460 -0.868006 2.702990
vn -0.220777 -0.936181 0.273539
v -1.445449 -0.857182 0.873432
vn -0.299217 -0.935269 0.189056
v -1.226439 -0.729670 1.850725
vn -0.299217 -0.935269 0.189056
v -0.274888 -1.213574 0.962824
vn -0.299217 -0.935269 0.189056
v -0.011440 -1.200756 0.118115
vn 0.028948 -0.980799 -0.192862
v 1.649753 -1.024280 -0.529263
vn 0.028948 -0.980799 -0.192862
v 0.702158 -0.845927 -1.578601
vn 0.028948 -0.980799 -0.192862
v 0.702158 -0.845927 -1.578601
vn 0.162505 -0.980843 -0.107419
v 0.118694 -0.880589 -2.144831
vn 0.162505 -0.980843 -0.107419
v -0.513295 -1.068751 -1.382301
vn 0.162505 -0.980843 -0.107419
v 0.702158 -0.845927 -1.578601
vn 0.156880 -0.977873 -0.138397
v -0.513295 -1.068751 -1.382301
vn 0.156880 -0.977873 -0.138397
v -0.011440 -1.200756 0.118115
vn 0.156880 -0.977873 -0.138397
v -1.110707 -0.883520 -0.616250
vn -0.283842 -0.958815 0.010379
v -0.011440 -1.200756 0.118115
vn -0.283842 -0.958815 0.010379
v -0.513295 -1.068751 -1.382301
vn -0.283842 -0.958815 0.010379
v -1.110707 -0.883520 -0.616250
vn -0.374387 -0.912302 0.165950
v -1.840913 -0.592115 -0.661246
vn -0.374387 -0.912302 0.165950
v -0.011440 -1.200756 0.118115
vn -0.374387 -0.912302 0.165950
v -1.840913 -0.592115 -0.661246
vn -0.371840 -0.892460 0.255442
v -1.110707 -0.883520 -0.616250
vn -0.371840 -0.892460 0.255442
v -1.657778 -1.005678 -1.839046
vn -0.371840 -0.892460 0.255442
v -0.513295 -1.068751 -1.382301
vn -0.113613 -0.982323 0.148776
v -1.657778 -1.005678 -1.839046
vn -0.113613 -0.982323 0.148776
v -1.110707 -0.883520 -0.616250
vn -0.113613 -0.982323 0.148776
v -0.513295 -1.068751 -1.382301
vn 0.031797 -0.976213 -0.214468
v 0.118694 -0.880589 -2.144831
vn 0.031797 -0.976213 -0.214468
v -1.657778 -1.005678 -1.839046
vn 0.031797 -0.976213 -0.214468
v 1.649753 -1.024280 -0.529263
vn 0.838642 0.273946 -0.470779
v 2.166074 -0.830726 0.503073
vn 0.838642 0.273946 -0.470779
v 1.522667 1.014153 0.430512
vn 0.838642 0.273946 -0.470779
v 1.649753 -1.024280 -0.529263
vn 0.847881 0.268185 -0.457357
v 1.522667 1.014153 0.430512
vn 0.847881 0.268185 -0.457357
v 0.378639 1.054599 -1.666361
vn 0.847881 0.268185 -0.457357
v 0.702158 -0.845927 -1.578601
vn 0.746841 0.096825 -0.657916
v 1.649753 -1.024280 -0.529263
vn 0.746841 0.096825 -0.657916
v 0.378639 1.054599 -1.666361
vn 0.746841 0.096825 -0.657916
v 0.378639 1.054599 -1.666361
vn 0.809268 0.396122 -0.433788
v 1.522667 1.014153 0.430512
vn 0.809268 0.396122 -0.433788
v 0.893208 1.347411 -0.439357
vn 0.809268 0.396122 -0.433788
v -0.699739 0.866281 0.608951
vn -0.075261 0.995195 0.062629
v -1.852655 0.774096 0.689669
vn -0.075261 0.995195 0.062629
v -1.554630 0.903796 -1.014088
vn -0.075261 0.995195 0.062629
v -1.269320 0.722396 -2.235511
vn -0.088358 0.950228 -0.298762
v -0.218384 0.603520 -2.924536
vn -0.088358 0.950228 -0.298762
v 0.378639 1.054599 -1.666361
vn -0.088358 0.950228 -0.298762
v -1.269320 0.722396 -2.235511
vn -0.135540 0.974905 -0.176605
v 0.378639 1.054599 -1.666361
vn -0.135540 0.974905 -0.176605
v -1.554630 0.903796 -1.014088
vn -0.135540 0.974905 -0.176605
v 0.378639 1.054599 -1.666361
vn -0.083353 0.996385 -0.016387
v -0.475928 1.005126 -0.339403
vn -0.083353 0.996385 -0.016387
v -1.554630 0.903796 -1.014088
vn -0.083353 0.996385 -0.016387
v -1.554630 0.903796 -1.014088
vn -0.907498 0.329316 -0.260765
v -1.710714 -0.386446 -2.099749
vn -0.907498 0.329316 -0.260765
v -1.269320 0.722396 -2.235511
vn -0.907498 0.329316 -0.260765
v -1.840913 -0.592115 -0.661246
vn -0.982835 0.172991 -0.064108
v -1.710714 -0.386446 -2.099749
vn -0.982835 0.172991 -0.064108
v -1.554630 0.903796 -1.014088
vn -0.982835 0.172991 -0.064108
v -1.908640 0.057208 0.279380
vn -0.974378 0.146128 -0.170979
v -1.840913 -0.592115 -0.661246
vn -0.974378 0.146128 -0.170979
v -1.554630 0.903796 -1.014088
vn -0.974378 0.146128 -0.170979
v -1.657778 -1.005678 -1.839046
vn -0.985701 -0.129499 -0.107814
v -1.710714 -0.386446 -2.099749
vn -0.985701 -0.129499 -0.107814
v -1.840913 -0.592115 -0.661246
vn -0.985701 -0.129499 -0.107814
v -0.218384 0.603520 -2.924536
vn 0.687401 -0.209268 -0.695476
v 0.118694 -0.880589 -2.144831
vn 0.687401 -0.209268 -0.695476
v 0.702158 -0.845927 -1.578601
vn 0.687401 -0.209268 -0.695476
v 0.378639 1.054599 -1.666361
vn 0.877483 0.127966 -0.462220
v -0.218384 0.603520 -2.924536
vn 0.877483 0.127966 -0.462220
v 0.702158 -0.845927 -1.578601
vn 0.877483 0.127966 -0.462220
f 3//3 2//2 1//1
f 6//6 5//5 4//4
f 9//9 8//8 7//7
f 12//12 11//11 10//10
f 15//15 14//14 13//13
f 18//18 17//17 16//16
f 21//21 20//20 19//19
f 24//24 23//23 22//22
f 27//27 26//26 25//25
f 30//30 29//29 28//28
f 33//33 32//32 31//31
f 36//36 35//35 34//34
f 39//39 38//38 37//37
f 42//42 41//41 40//40
f 45//45 44//44 43//43
f 48//48 47//47 46//46
f 51//51 50//50 49//49
f 54//54 53//53 52//52
f 57//57 56//56 55//55
f 60//60 59//59 58//58
f 63//63 62//62 61//61
f 66//66 65//65 64//64
f 69//69 68//68 67//67
f 72//72 71//71 70//70
f 75//75 74//74 73//73
f 78//78 77//77 76//76
f 81//81 80//80 79//79
f 84//84 83//83 82//82
f 87//87 86//86 85//85
f 90//90 89//89 88//88
f 93//93 92//92 91//91
f 96//96 95//95 94//94
f 99//99 98//98 97//97
f 102//102 101//101 100//100
f 105//105 104//104 103//103
f 108//108 107//107 106//106
f 111//111 110//110 109//109
f 114//114 113//113 112//112
f 117//117 116//116 115//115
f 120//120 119//119 118//118
f 123//123 122//122 121//121
f 126//126 125//125 124//124
f 129//129 128//128 127//127
f 132//132 131//131 130//130
f 135//135 134//134 133//133
f 138//138 137//137 136//136
f 141//141 140//140 139//139
f 144//144 143//143 142//142
f 147//147 146//146 145//145
f 150//150 149//149 148//148
f 153//153 152//152 151//151
f 156//156 155//155 154//154
f 159//159 158//158 157//157
f 162//162 161//161 160//160
f 165//165 164//164 163//163
f 168//168 167//167 166//166
