# Exported from Godot Engine
o MS_Rock_B_LOD2
v -1.044080 0.433905 -1.092757
vt 0.723873 0.499626
vn -0.973088 -0.077405 -0.217044
v -0.926589 0.225050 -1.061760
vt 0.745144 0.498009
vn -0.515469 -0.324512 -0.793085
v -1.002905 0.410907 -1.181283
vt 0.728328 0.486976
vn -0.941649 -0.262831 -0.210278
v -0.848838 0.115816 -1.133317
vt 0.759441 0.490745
vn -0.835067 -0.523002 -0.170680
v -1.017402 0.150442 -1.062643
vt 0.746090 0.507744
vn -0.615059 -0.323965 -0.718853
v -0.819879 -0.017741 -1.070000
vt 0.774456 0.503349
vn -0.629194 -0.413866 -0.657898
v -1.069911 0.236794 -0.902511
vt 0.733410 0.520043
vn -0.990795 -0.093692 -0.097704
v -1.032820 0.040201 -0.769598
vt 0.750713 0.542580
vn -0.856582 -0.488768 -0.165447
v -1.055192 0.388858 -0.781124
vt 0.711223 0.526085
vn -0.930334 0.366696 -0.003517
v -1.076681 0.373171 -0.433982
vt 0.696590 0.560540
vn -0.980370 0.147738 -0.130570
v -0.958197 0.505749 -0.547914
vt 0.687861 0.536843
vn -0.912775 0.400998 -0.077740
v -0.960994 0.892229 -0.812856
vt 0.677668 0.494072
vn -0.759044 0.649829 0.039677
v -0.945981 0.037581 -0.858959
vt 0.760281 0.530419
vn -0.284581 -0.956654 0.061856
v -0.858884 -0.091946 -0.999816
vt 0.777325 0.514977
vn -0.598988 -0.623296 -0.502708
v -0.742791 -0.035587 -1.118604
vt 0.779950 0.492882
vn -0.425257 -0.483644 -0.765013
v -0.838756 -0.199914 -0.762781
vt 0.795163 0.546929
vn -0.423940 -0.848220 -0.317487
v -0.957535 -0.085009 -0.679944
vt 0.767941 0.556847
vn -0.759608 -0.581349 -0.291598
v -0.943773 -0.184284 -0.427606
vt 0.768215 0.604791
vn -0.938281 -0.321560 -0.127388
v -0.904106 -0.339601 -0.283267
vt 0.791531 0.648692
vn -0.524680 -0.756968 -0.389501
v -1.080950 -0.030751 -0.146725
vt 0.710369 0.636316
vn -0.960026 -0.227689 -0.162810
v -0.964121 -0.299995 -0.136769
vt 0.756451 0.677119
vn -0.883185 -0.415972 -0.216684
v -0.795042 -0.309580 -0.332263
vt 0.814206 0.631815
vn -0.286595 -0.856964 -0.428341
v -1.085954 0.446829 -0.254036
vt 0.672602 0.575204
vn -0.953062 0.298856 -0.048567
v -0.757362 -0.229302 -0.570622
vt 0.818189 0.578958
vn -0.155804 -0.943542 -0.292326
v -0.720124 -0.201813 -0.784312
vt 0.811002 0.536187
vn -0.335990 -0.904224 -0.263608
v -0.489006 -0.349704 -0.730411
vt 0.870008 0.532006
vn -0.809141 -0.565376 -0.160128
v -0.656503 -0.157573 -1.104381
vt 0.801312 0.488594
vn -0.406716 -0.624588 -0.666687
v -0.654406 -0.023987 -1.148080
vt 0.784405 0.481300
vn -0.545645 -0.758240 -0.356852
v -0.544127 -0.238282 -1.050578
vt 0.821637 0.480003
vn -0.616707 -0.578990 -0.533332
v -0.530513 -0.108986 -1.120222
vt 0.802350 0.471122
vn -0.631246 -0.663955 -0.400865
v -0.777600 -0.054671 -1.394483
vt 0.764324 0.462196
vn -0.674944 -0.737841 -0.006358
v -0.964452 0.267276 -1.374227
vt 0.739101 0.469917
vn -0.936630 -0.277034 -0.214423
v -0.470093 -0.533805 -0.981228
vt 0.882155 0.458656
vn -0.911115 -0.367819 -0.185955
v -0.529078 -0.205181 -1.316501
vt 0.792889 0.448310
vn -0.439555 -0.830253 -0.342740
v -0.469467 -0.316948 -1.214781
vt 0.822171 0.442374
vn -0.732515 -0.508734 -0.452341
v -0.773626 -0.020965 -1.505766
vt 0.758648 0.456031
vn -0.444240 -0.613557 -0.652839
v -0.451253 -0.176023 -1.347596
vt 0.790845 0.433692
vn 0.212354 -0.466328 -0.858746
v -0.398450 -0.522436 -1.078975
vt 0.872038 0.432532
vn -0.345443 -0.512269 -0.786288
v -0.380236 -0.676400 -1.049009
vt 0.906416 0.426307
vn -0.468763 -0.542615 -0.697015
v -0.415745 -0.636045 -0.690489
vt 0.949584 0.522393
vn -0.945790 -0.272461 -0.176766
v -0.652493 0.017404 -1.514496
vt 0.759213 0.447883
vn 0.318146 -0.189062 -0.928999
v -0.816016 0.152630 -1.569721
vt 0.745998 0.455467
vn -0.356020 -0.198059 -0.913248
v -0.363347 0.032170 -1.347399
vt 0.762066 0.410712
vn 0.499617 -0.146649 -0.853743
v -0.916985 0.449333 -1.480067
vt 0.727733 0.461585
vn -0.600739 0.058670 -0.797290
v -0.691129 0.329823 -1.557852
vt 0.734569 0.448920
vn 0.104260 0.113728 -0.988026
v -0.961766 0.592014 -1.397327
vt 0.716915 0.468772
vn -0.895219 0.277917 -0.348347
v -0.710705 0.515046 -1.453435
vt 0.723217 0.449271
vn 0.040362 0.053856 -0.997733
v -0.496034 0.588186 -1.460252
vt 0.717678 0.435737
vn 0.112897 -0.090481 -0.989478
v -0.608779 0.776547 -1.542795
vt 0.706050 0.445365
vn -0.132029 -0.062562 -0.989270
v -0.806853 0.748511 -1.519695
vt 0.709484 0.455299
vn -0.488315 0.264882 -0.831496
v -0.731458 0.932814 -1.453190
vt 0.698817 0.453178
vn -0.513215 0.722072 -0.463921
v -0.437307 0.867014 -1.590124
vt 0.697459 0.436561
vn -0.015043 0.118768 -0.992808
v -0.280113 0.528719 -1.432983
vt 0.717876 0.419867
vn 0.300088 -0.192545 -0.934277
v -0.036484 0.813419 -1.435436
vt 0.689906 0.414496
vn 0.338623 -0.150361 -0.928830
v -0.194120 0.981257 -1.533379
vt 0.688685 0.427039
vn 0.248120 0.479154 -0.841931
v -0.441245 1.029499 -1.398995
vt 0.685863 0.442252
vn -0.154903 0.955680 -0.250362
v -0.079573 1.020115 -1.427588
vt 0.680903 0.422156
vn 0.293958 0.792015 -0.535071
v 0.135539 0.612738 -1.309929
vt 0.695323 0.389624
vn 0.345530 -0.385836 -0.855418
v -0.755817 0.926625 -1.223953
vt 0.692409 0.460578
vn -0.578014 0.810925 -0.091109
v -0.123839 0.290677 -1.223855
vt 0.733135 0.389517
vn 0.482017 -0.343691 -0.805938
v 0.266350 0.910334 -1.344408
vt 0.673579 0.397253
vn 0.443811 0.247404 -0.861292
v 0.452944 0.657411 -1.204923
vt 0.671305 0.369436
vn 0.533259 -0.296803 -0.792176
v 0.178149 0.977198 -1.335678
vt 0.669291 0.405524
vn 0.329037 0.829333 -0.451598
v 0.497026 0.867043 -1.213506
vt 0.658946 0.379614
vn 0.620960 0.327553 -0.712122
v 0.214725 1.024318 -0.868670
vt 0.637690 0.408835
vn 0.097299 0.993787 -0.054039
v 0.340311 0.379072 -1.066272
vt 0.702785 0.347601
vn 0.386045 -0.471530 -0.792861
v 0.369895 0.959151 -1.115759
vt 0.651392 0.394629
vn 0.236284 0.936070 -0.260660
v 0.527494 0.962576 -1.041652
vt 0.644648 0.384222
vn 0.329315 0.885495 -0.327795
v 0.572864 0.692325 -1.053374
vt 0.656855 0.359411
vn 0.690694 -0.088714 -0.717685
v 0.722735 0.872915 -0.939736
vt 0.633265 0.363149
vn 0.662475 0.490928 -0.565789
v 0.653669 0.424205 -0.964504
vt 0.661295 0.328832
vn 0.431550 -0.406246 -0.805437
v 0.851596 0.690138 -0.913791
vt 0.630350 0.345510
vn 0.666553 0.189540 -0.720959
v 0.803724 0.940442 -0.673470
vt 0.605875 0.362280
vn 0.508058 0.834151 -0.214636
v 1.052983 0.665038 -0.602649
vt 0.595850 0.327825
vn 0.812881 0.461785 -0.354936
v 0.900057 0.939348 -0.308623
vt 0.569406 0.363180
vn 0.476831 0.869074 -0.131695
v 0.949732 0.467726 -0.820900
vt 0.629206 0.320165
vn 0.637876 -0.196893 -0.744546
v 1.129483 0.479239 -0.620452
vt 0.599649 0.302785
vn 0.889447 0.090158 -0.448058
v 1.139086 0.182450 -0.491659
vt 0.595193 0.266026
vn 0.826034 -0.314480 -0.467728
v 1.162636 0.592302 -0.254624
vt 0.554543 0.313130
vn 0.958116 0.256301 -0.127761
v 1.103652 0.730263 -0.180272
vt 0.548028 0.331548
vn 0.858115 0.491336 -0.149089
v 1.014420 0.882932 -0.164038
vt 0.549081 0.349615
vn 0.717765 0.662447 -0.214427
v 1.075208 0.894992 0.305570
vt 0.495384 0.360540
vn 0.690677 0.706763 0.153141
v 0.864843 0.969772 0.403905
vt 0.492836 0.387167
vn 0.314488 0.945657 0.082647
v 1.123669 0.768430 0.411311
vt 0.477623 0.353277
vn 0.804905 0.588439 0.076597
v 1.184677 0.672436 0.556436
vt 0.455268 0.344106
vn 0.923487 0.366092 0.114666
v 0.987633 0.843383 0.791902
vt 0.446082 0.382345
vn 0.439474 0.747062 0.498758
v 0.261971 1.031974 0.507832
vt 0.505791 0.452384
vn -0.030520 0.985821 0.165004
v 0.782713 0.950343 0.753401
vt 0.462470 0.406928
vn 0.171511 0.837460 0.518888
v -0.393115 1.038220 -0.603090
vt 0.634852 0.468772
vn -0.178333 0.983676 0.024057
v -0.422736 1.019683 -1.084419
vt 0.669154 0.452186
vn -0.770343 0.636608 0.036086
v -0.350836 1.018820 -0.260166
vt 0.605310 0.485573
vn -0.189533 0.977022 0.097492
v 0.046859 0.954517 0.688024
vt 0.490669 0.484474
vn -0.272677 0.851488 0.447901
v -0.568670 0.975241 -0.618196
vt 0.644663 0.481422
vn -0.206167 0.978235 0.023511
v -0.718763 0.965196 -0.887748
vt 0.669642 0.478660
vn -0.254324 0.966776 -0.025744
v -0.631519 0.964678 -0.395874
vt 0.630457 0.497978
vn -0.400059 0.900942 0.168096
v -0.845269 0.888775 -1.067891
vt 0.685664 0.477607
vn -0.673314 0.693141 -0.257301
v -0.873713 0.798854 -1.108942
vt 0.695338 0.478263
vn -0.717311 0.561188 -0.412956
v -0.943810 0.627188 -1.195310
vt 0.708202 0.479789
vn -0.783831 0.532858 -0.318858
v -0.974314 0.728737 -1.115367
vt 0.701076 0.484138
vn -0.636275 0.528126 -0.562349
v -1.014459 0.536490 -1.188542
vt 0.716320 0.484382
vn -0.936963 0.181373 -0.298670
v -1.031974 0.663283 -1.060681
vt 0.703929 0.489845
vn -0.960780 0.241261 -0.136733
v -0.891632 0.759219 -0.418729
vt 0.661311 0.525917
vn -0.783158 0.592759 0.187884
v -1.030539 0.539685 -0.372921
vt 0.670451 0.552316
vn -0.868157 0.462338 -0.180410
v -0.999446 0.549385 -0.098759
vt 0.640543 0.571145
vn -0.658333 0.751210 0.047766
v -0.645428 0.825019 -0.071293
vt 0.606424 0.531914
vn -0.581985 0.788458 0.199068
v -0.891485 0.678624 -0.137651
vt 0.628534 0.549569
vn -0.662560 0.722334 0.198109
v -0.901236 0.576701 0.048230
vt 0.618509 0.572625
vn -0.670787 0.734615 0.101907
v -0.839602 0.679805 0.223860
vt 0.597711 0.569329
vn -0.619369 0.752938 0.222412
v -0.524184 0.876801 0.084474
vt 0.585443 0.519158
vn -0.407778 0.863445 0.296950
v -0.341637 0.976249 0.037391
vt 0.577630 0.497658
vn -0.322200 0.907422 0.269762
v -1.069948 0.537325 0.118806
vt 0.622995 0.592813
vn -0.707078 0.706168 0.036975
v -0.950617 0.544607 0.305472
vt 0.593317 0.595285
vn -0.540546 0.795939 0.272564
v -0.495151 0.697161 0.567128
vt 0.533211 0.556222
vn -0.290666 0.842060 0.454367
v -0.305172 0.879017 0.214395
vt 0.557778 0.510094
vn -0.584081 0.694770 0.419695
v -0.124133 0.828617 0.678951
vt 0.497215 0.514992
vn -0.595979 0.722760 0.349896
v -0.284860 0.703206 0.639126
vt 0.506691 0.539422
vn -0.465667 0.778668 0.420511
v -0.236510 0.588272 0.990191
vt 0.458686 0.551400
vn -0.529872 0.502248 0.683361
v -0.823044 0.535425 0.525586
vt 0.554360 0.599146
vn -0.473826 0.822224 0.315336
v -0.312678 0.538476 0.840456
vt 0.478309 0.562509
vn -0.583221 0.611974 0.534173
v -0.788566 0.476332 0.724955
vt 0.531456 0.611749
vn -0.361910 0.860201 0.359269
v -1.126614 0.404286 0.343187
vt 0.597345 0.627390
vn -0.874761 0.471185 0.113036
v -0.480764 0.476188 0.838053
vt 0.487831 0.592370
vn -0.194507 0.772804 0.604103
v -1.123854 0.154702 0.191295
vt 0.651881 0.648630
vn -0.991653 0.001080 -0.128928
v -1.062294 -0.119262 -0.018177
vt 0.705928 0.674708
vn -0.947504 -0.284294 -0.146331
v -1.185709 0.060925 0.556926
vt 0.598825 0.691051
vn -0.997552 -0.013813 0.068548
v -0.999225 -0.362254 0.123073
vt 0.723812 0.727962
vn -0.868928 -0.425069 -0.253537
v -1.107921 -0.290064 0.339166
vt 0.662135 0.739971
vn -0.943199 -0.297802 -0.147271
v -0.854983 -0.657978 0.152696
vt 0.799832 0.784817
vn -0.796736 -0.530267 -0.289877
v -1.018359 -0.545031 0.507194
vt 0.654871 0.819974
vn -0.886927 -0.456749 -0.068848
v -1.090480 -0.330649 0.833345
vt 0.562173 0.789364
vn -0.947593 -0.258686 0.187482
v -1.128785 -0.007293 0.776747
vt 0.564324 0.725246
vn -0.976215 -0.071458 0.204691
v -1.117121 0.132539 0.803967
vt 0.549096 0.694774
vn -0.832904 0.482106 0.271745
v -0.809650 -0.425837 -0.150403
vt 0.816648 0.688014
vn -0.359109 -0.729917 -0.581602
v -0.585744 -0.544858 -0.361837
vt 0.900481 0.640955
vn -0.723944 -0.449508 -0.523304
v -0.593692 -0.598166 -0.314165
vt 0.913954 0.672724
vn -0.852855 -0.142917 -0.502208
v -0.457104 -0.519960 -0.559195
vt 0.914870 0.575723
vn -0.890448 -0.232439 -0.391247
v -0.474251 -0.655877 -0.584502
vt 0.969741 0.569863
vn -0.882674 0.022852 -0.469429
v -0.607012 -0.728499 -0.319560
vt 0.952865 0.691661
vn -0.903557 0.109637 -0.414204
v -0.422773 -0.684834 -0.615548
vt 0.981201 0.546075
vn -0.766454 -0.503191 -0.399183
v -0.637958 -0.727923 -0.250750
vt 0.935409 0.718791
vn -0.894588 0.018653 -0.446503
v -0.351609 -0.768911 -0.802017
vt 0.980056 0.454475
vn -0.768197 -0.615736 -0.175336
v -0.188049 -0.803337 -0.884119
vt 0.974929 0.378805
vn -0.178043 -0.905018 -0.386320
v -0.729103 -0.788973 0.027827
vt 0.871641 0.823606
vn -0.825455 -0.487666 -0.284264
v -0.687964 -0.786124 -0.099053
vt 0.910826 0.782269
vn -0.951235 0.014535 -0.308125
v -0.730832 -0.823341 0.267315
vt 0.802945 0.896757
vn -0.684269 -0.707261 -0.177643
v -0.895165 -0.718396 0.394881
vt 0.722713 0.867033
vn -0.753066 -0.639807 -0.153426
v -0.780728 -0.812634 0.452362
vt 0.727352 0.928420
vn -0.618157 -0.784118 -0.055139
v -0.763765 -0.829760 0.647954
vt 0.651148 0.962280
vn -0.565270 -0.822071 -0.068335
v -0.796661 -0.823025 0.806419
vt 0.587716 0.957473
vn -0.607157 -0.794223 -0.023883
v -0.853548 -0.781490 0.971162
vt 0.525475 0.931548
vn -0.729692 -0.671690 0.127992
v -0.773626 -0.827400 0.903136
vt 0.550317 0.970108
vn -0.453229 -0.888826 0.067617
v -0.783635 -0.815282 0.995341
vt 0.511833 0.961868
vn -0.454761 -0.887546 0.073851
v -0.757473 -0.820319 1.090734
vt 0.470756 0.960983
vn -0.468361 -0.878867 0.090725
v -0.678029 -0.848124 1.230267
vt 0.412482 0.957565
vn -0.630234 -0.627597 0.457085
v -0.804278 -0.740185 1.247482
vt 0.435203 0.911055
vn -0.795452 -0.352766 0.492760
v -0.887805 -0.660511 1.028496
vt 0.507897 0.883757
vn -0.893113 -0.198604 0.403614
v -0.943699 -0.477619 0.990142
vt 0.513573 0.840757
vn -0.770997 -0.293469 0.565190
v -0.659705 -0.682905 1.389762
vt 0.377096 0.881254
vn -0.733546 -0.244289 0.634219
v -0.574006 -0.824867 1.447439
vt 0.319585 0.929335
vn -0.781072 -0.239739 0.576586
v -0.990835 -0.253826 1.185587
vt 0.493034 0.770947
vn -0.839174 -0.355781 0.411347
v -0.796330 -0.520133 1.130853
vt 0.466026 0.848096
vn -0.861621 -0.195092 0.468560
v -0.729324 -0.506806 1.345131
vt 0.407645 0.826230
vn -0.792250 -0.316918 0.521443
v -0.894576 -0.346106 1.213494
vt 0.459709 0.786923
vn -0.752365 -0.553584 0.357060
v -0.981599 0.144887 1.341845
vt 0.465187 0.710033
vn -0.702729 0.559021 0.440076
v -1.001322 -0.024361 1.374411
vt 0.459937 0.729839
vn -0.956639 0.001026 0.291273
v -0.919082 -0.136244 1.503645
vt 0.434897 0.740215
vn -0.612347 -0.098774 0.784395
v -0.851414 -0.320489 1.436600
vt 0.426337 0.773098
vn -0.679723 -0.510335 0.526816
v -0.585450 -0.368989 1.567600
vt 0.353933 0.768841
vn -0.220929 0.006245 0.975270
v -0.444078 -0.807424 1.600853
vt 0.242588 0.874968
vn -0.629655 -0.145141 0.763197
v -0.746250 -0.205987 1.537732
vt 0.404379 0.745617
vn -0.135949 0.027081 0.990346
v -0.825546 0.152486 1.421396
vt 0.443702 0.696254
vn -0.152846 0.616023 0.772758
v -0.408643 -0.780885 1.624051
vt 0.234668 0.858717
vn -0.140965 0.035192 0.989389
v -0.065406 -0.788973 1.571426
vt 0.122652 0.757137
vn 0.088350 0.106152 0.990417
v -0.296267 -0.811281 1.594722
vt 0.186862 0.839399
vn 0.130029 -0.395172 0.909358
v -0.007342 -0.304456 1.457788
vt 0.268452 0.633829
vn 0.142532 0.346597 0.927122
v 0.224328 -0.456492 1.495308
vt 0.181918 0.601450
vn 0.091835 0.348251 0.932892
v -0.141759 -0.019900 1.358570
vt 0.344274 0.617411
vn 0.232056 0.449925 0.862391
v 0.482896 -0.767098 1.570690
vt 0.029557 0.545205
vn 0.124764 0.073461 0.989463
v 0.049178 -0.790010 1.538565
vt 0.092592 0.719432
vn 0.029939 -0.959252 0.280960
v 0.225837 -0.845188 1.537241
vt 0.038270 0.662928
vn -0.060592 -0.217291 0.974224
v 0.549792 -0.696980 1.551955
vt 0.054780 0.507759
vn 0.133638 0.151394 0.979398
v 0.579634 -0.779331 1.516936
vt 0.009689 0.501915
vn 0.152817 -0.339282 0.928189
v 0.694549 -0.733478 1.545432
vt 0.026612 0.445609
vn 0.171360 0.068074 0.982854
v 0.590305 -0.468725 1.416149
vt 0.150042 0.479622
vn 0.105846 0.476970 0.872523
v 0.407022 0.040460 1.203930
vt 0.306844 0.487404
vn 0.150661 0.456440 0.876906
v 0.851118 -0.571167 1.482605
vt 0.098177 0.393530
vn 0.348084 0.288990 0.891808
v 0.973576 -0.701125 1.405457
vt 0.073350 0.328511
vn 0.805207 -0.312193 0.504161
v 0.889864 -0.763874 1.453962
vt 0.031739 0.348638
vn 0.603732 -0.211164 0.768712
v 0.896709 -0.803797 1.234681
vt 0.039475 0.246586
vn 0.784414 -0.611392 0.104373
v 1.005405 -0.667132 1.133992
vt 0.117586 0.225788
vn 0.935350 -0.348556 0.060243
v 0.951572 -0.802099 1.024915
vt 0.096925 0.170886
vn 0.899412 -0.428487 0.086350
v 0.999334 -0.700175 0.671643
vt 0.231846 0.078859
vn 0.956770 -0.285468 0.055664
v 1.023951 -0.545866 1.314380
vt 0.137392 0.312612
vn 0.909135 0.016062 0.416192
v 1.047243 -0.449066 1.028790
vt 0.235874 0.247211
vn 0.995400 -0.093918 0.018952
v 1.027189 -0.639557 0.559428
vt 0.289265 0.072145
vn 0.971176 -0.229863 0.063095
v 0.915622 -0.333096 1.321295
vt 0.197696 0.362127
vn 0.289952 0.367597 0.883629
v 1.053719 -0.166956 1.209472
vt 0.252430 0.336629
vn 0.816006 0.239021 0.526311
v 1.062587 -0.352727 0.563449
vt 0.343511 0.169253
vn 0.975049 -0.165421 0.148040
v 1.041539 -0.182010 0.908433
vt 0.303731 0.268605
vn 0.996396 0.009789 0.084251
v 1.001210 0.112620 1.108145
vt 0.317861 0.356985
vn 0.603601 0.238512 0.760775
v 0.794304 0.046130 1.155964
vt 0.309697 0.414176
vn 0.073111 0.468114 0.880638
v 1.131764 -0.400536 0.228127
vt 0.434852 0.131212
vn 0.948087 -0.317451 0.018886
v 1.025827 -0.607405 0.436864
vt 0.345083 0.056489
vn 0.754828 -0.615424 -0.226910
v 0.993998 -0.574793 0.341618
vt 0.387488 0.045014
vn 0.652981 -0.701710 -0.284989
v 1.019608 -0.558387 0.171382
vt 0.459205 0.047044
vn 0.775122 -0.629806 0.050305
v 1.160502 -0.118571 0.401747
vt 0.419471 0.202091
vn 0.979691 -0.161711 0.118557
v 1.036277 -0.560229 -0.157417
vt 0.569741 0.074510
vn 0.786093 -0.593169 -0.173806
v 0.903589 -0.645026 -0.097631
vt 0.580804 0.011414
vn 0.532120 -0.846438 -0.019775
v 0.814101 -0.689324 -0.238194
vt 0.653651 0.010788
vn 0.435538 -0.876926 0.203243
v 0.760194 -0.759902 -0.383172
vt 0.715099 0.026200
vn 0.581355 -0.574946 -0.575729
v 1.118922 -0.225733 -0.254918
vt 0.571252 0.175021
vn 0.879408 -0.235780 -0.413582
v 0.857999 -0.523558 -0.449235
vt 0.677256 0.113878
vn 0.583171 -0.265971 -0.767575
v 1.007171 -0.516103 -0.261343
vt 0.604837 0.103075
vn 0.741007 -0.431298 -0.514675
v 0.661249 -0.731204 -0.464832
vt 0.764172 0.066804
vn 0.392639 -0.523341 -0.756273
v 0.614480 -0.782900 -0.435503
vt 0.786648 0.034607
vn 0.358198 -0.610950 -0.705999
v 0.917057 -0.079137 -0.461840
vt 0.638682 0.212192
vn 0.554360 -0.314081 -0.770739
v 0.708900 -0.326562 -0.532514
vt 0.704250 0.179736
vn 0.625747 -0.205356 -0.752509
v 0.540556 -0.497595 -0.696570
vt 0.778836 0.171847
vn 0.636513 -0.260816 -0.725828
v 0.347265 -0.801379 -0.601717
vt 0.900435 0.117449
vn 0.592324 -0.657652 -0.465453
v 1.098647 0.077159 -0.428734
vt 0.595636 0.241520
vn 0.255954 -0.515502 -0.817768
v 0.766155 0.052750 -0.634822
vt 0.667445 0.253727
vn 0.531068 -0.377086 -0.758797
v 1.225742 0.406186 0.242547
vt 0.482109 0.292119
vn 0.998524 0.035162 -0.041392
v 0.395321 0.275421 -0.958913
vt 0.703334 0.322881
vn 0.519799 -0.423052 -0.742183
v 0.292291 -0.050439 -0.925513
vt 0.748012 0.301091
vn 0.434724 -0.282901 -0.854975
v 0.649842 -0.191854 -0.685731
vt 0.709850 0.225788
vn 0.657407 -0.198515 -0.726916
v 0.445033 -0.344897 -0.762045
vt 0.768338 0.233860
vn 0.432401 -0.133160 -0.891795
v 0.396351 -0.526494 -0.788334
vt 0.820493 0.216114
vn 0.440614 -0.080804 -0.894053
v 0.316209 -0.755930 -0.786960
vt 0.895781 0.191821
vn 0.489939 -0.561900 -0.666505
v 0.145474 -0.816433 -0.804470
vt 0.954070 0.234989
vn 0.196981 -0.406218 -0.892292
v 0.063344 -0.483693 -0.902167
vt 0.863615 0.305379
vn 0.504895 -0.179791 -0.844249
v -0.062978 -0.844612 -0.818496
vt 0.989990 0.317418
vn 0.344780 -0.495776 -0.797078
v 0.046639 -0.238801 -0.952537
vt 0.806836 0.327230
vn 0.624287 -0.225652 -0.747895
v -0.005355 -0.007782 -1.062398
vt 0.769253 0.358877
vn 0.639214 -0.052630 -0.767226
v -0.102019 0.034674 -1.130669
vt 0.764828 0.376959
vn 0.597438 0.110402 -0.794279
v -0.008556 -0.063795 -1.130031
vt 0.778363 0.364813
vn 0.791839 0.171491 -0.586158
v -0.081781 -0.593848 -1.027919
vt 0.882811 0.360098
vn 0.510738 -0.370008 -0.776041
v -0.127004 -0.278033 -1.184717
vt 0.809171 0.381506
vn 0.517241 -0.251660 -0.818003
v -0.241330 -0.469589 -1.138173
vt 0.855802 0.399908
vn 0.083973 -0.659026 -0.747418
v -0.206189 -0.740012 -1.015462
vt 0.926925 0.386114
vn 0.102434 -0.637807 -0.763355
v -0.272754 -0.495379 -1.057886
vt 0.869017 0.405921
vn 0.047020 -0.700081 -0.712513
v -0.839455 0.240651 1.040659
vt 0.495644 0.663203
vn -0.438061 0.825277 0.356399
v -1.012840 0.201102 1.045416
vt 0.504860 0.692058
vn -0.510141 0.856184 0.081890
v -0.958970 0.221020 0.709211
vt 0.546304 0.661982
vn -0.733923 0.432648 0.523616
v -1.078595 0.333363 0.543586
vt 0.576150 0.650126
vn -0.700148 0.573899 0.424774
v -0.896821 0.310307 0.943500
vt 0.513222 0.650401
vn -0.837522 0.201294 0.507975
v -0.842399 0.390355 0.928934
vt 0.510765 0.636027
vn -0.420152 0.748747 0.512690
v -0.642484 0.315229 1.067879
vt 0.473869 0.638819
vn -0.180738 0.878513 0.442208
v -0.659889 0.262469 1.279558
vt 0.447410 0.661631
vn -0.108594 0.912462 0.394488
v -0.317314 0.252279 1.275536
vt 0.401984 0.623392
vn 0.212786 0.693438 0.688380
v -0.258735 0.395680 1.013046
vt 0.443305 0.577371
vn -0.492128 0.606035 0.624925
v -0.175354 0.249084 1.173130
vt 0.401465 0.586892
vn 0.219431 0.602835 0.767098
v 0.074641 0.095638 1.233553
vt 0.344488 0.556497
vn 0.153523 0.480278 0.863576
v 0.166484 0.507793 1.006229
vt 0.421637 0.503304
vn 0.092035 0.454398 0.886031
v 0.296780 0.884515 0.802544
vt 0.454795 0.468101
vn -0.019551 0.638025 0.769767
v 0.577390 0.216472 1.066898
vt 0.344701 0.447974
vn 0.149164 0.488215 0.859882
v 0.682848 0.316899 0.997646
vt 0.366812 0.423148
vn -0.057243 0.331708 0.941644
v 0.846739 0.349022 1.040316
vt 0.372076 0.394354
vn -0.112835 0.241987 0.963696
v 1.065162 0.591007 0.943500
vt 0.413703 0.372641
vn 0.468238 0.365142 0.804627
v 1.121240 0.733285 0.785133
vt 0.439979 0.367559
vn 0.796060 0.505317 0.333082
v 1.094784 0.487558 0.937566
vt 0.403128 0.359564
vn 0.761562 0.089733 0.641850
v 1.105344 0.246292 0.950808
vt 0.376913 0.342474
vn 0.909790 -0.100886 0.402621
v 1.223203 0.327031 0.515091
vt 0.431464 0.296727
vn 0.988353 -0.058996 0.140275
v 1.091325 0.018843 0.683414
vt 0.377798 0.268833
vn 0.957640 -0.142593 0.250185
f 3/3/3 2/2/2 1/1/1
f 4/4/4 2/2/2 3/3/3
f 2/2/2 5/5/5 1/1/1
f 2/2/2 6/6/6 5/5/5
f 6/6/6 2/2/2 4/4/4
f 1/1/1 5/5/5 7/7/7
f 5/5/5 8/8/8 7/7/7
f 6/6/6 8/8/8 5/5/5
f 1/1/1 7/7/7 9/9/9
f 7/7/7 10/10/10 9/9/9
f 8/8/8 10/10/10 7/7/7
f 1/1/1 9/9/9 11/11/11
f 9/9/9 10/10/10 11/11/11
f 12/12/12 1/1/1 11/11/11
f 6/6/6 13/13/13 8/8/8
f 14/14/14 13/13/13 6/6/6
f 6/6/6 15/15/15 14/14/14
f 15/15/15 6/6/6 4/4/4
f 14/14/14 16/16/16 13/13/13
f 16/16/16 14/14/14 15/15/15
f 17/17/17 8/8/8 13/13/13
f 17/17/17 13/13/13 16/16/16
f 18/18/18 8/8/8 17/17/17
f 8/8/8 18/18/18 10/10/10
f 19/19/19 18/18/18 17/17/17
f 17/17/17 16/16/16 19/19/19
f 10/10/10 18/18/18 20/20/20
f 21/21/21 18/18/18 19/19/19
f 18/18/18 21/21/21 20/20/20
f 22/22/22 19/19/19 16/16/16
f 23/23/23 10/10/10 20/20/20
f 24/24/24 22/22/22 16/16/16
f 24/24/24 16/16/16 25/25/25
f 25/25/25 16/16/16 15/15/15
f 25/25/25 26/26/26 24/24/24
f 26/26/26 22/22/22 24/24/24
f 15/15/15 27/27/27 25/25/25
f 27/27/27 15/15/15 28/28/28
f 28/28/28 15/15/15 4/4/4
f 25/25/25 27/27/27 29/29/29
f 29/29/29 26/26/26 25/25/25
f 28/28/28 30/30/30 27/27/27
f 30/30/30 29/29/29 27/27/27
f 4/4/4 31/31/31 28/28/28
f 30/30/30 28/28/28 31/31/31
f 4/4/4 32/32/32 31/31/31
f 33/33/33 26/26/26 29/29/29
f 30/30/30 33/33/33 29/29/29
f 3/3/3 32/32/32 4/4/4
f 30/30/30 31/31/31 34/34/34
f 35/35/35 30/30/30 34/34/34
f 33/33/33 30/30/30 35/35/35
f 31/31/31 36/36/36 34/34/34
f 36/36/36 31/31/31 32/32/32
f 37/37/37 35/35/35 34/34/34
f 37/37/37 34/34/34 36/36/36
f 38/38/38 33/33/33 35/35/35
f 37/37/37 38/38/38 35/35/35
f 38/38/38 39/39/39 33/33/33
f 33/33/33 40/40/40 26/26/26
f 39/39/39 40/40/40 33/33/33
f 36/36/36 41/41/41 37/37/37
f 41/41/41 36/36/36 42/42/42
f 42/42/42 36/36/36 32/32/32
f 43/43/43 37/37/37 41/41/41
f 43/43/43 41/41/41 42/42/42
f 44/44/44 42/42/42 32/32/32
f 45/45/45 43/43/43 42/42/42
f 45/45/45 42/42/42 44/44/44
f 32/32/32 46/46/46 44/44/44
f 3/3/3 46/46/46 32/32/32
f 47/47/47 45/45/45 44/44/44
f 48/48/48 45/45/45 47/47/47
f 47/47/47 44/44/44 49/49/49
f 48/48/48 47/47/47 49/49/49
f 49/49/49 44/44/44 50/50/50
f 50/50/50 44/44/44 46/46/46
f 49/49/49 50/50/50 51/51/51
f 50/50/50 46/46/46 51/51/51
f 48/48/48 49/49/49 52/52/52
f 51/51/51 52/52/52 49/49/49
f 53/53/53 45/45/45 48/48/48
f 43/43/43 45/45/45 53/53/53
f 52/52/52 54/54/54 48/48/48
f 53/53/53 48/48/48 54/54/54
f 51/51/51 55/55/55 52/52/52
f 55/55/55 54/54/54 52/52/52
f 55/55/55 51/51/51 56/56/56
f 54/54/54 55/55/55 57/57/57
f 57/57/57 55/55/55 56/56/56
f 53/53/53 54/54/54 58/58/58
f 56/56/56 51/51/51 59/59/59
f 51/51/51 46/46/46 59/59/59
f 58/58/58 60/60/60 53/53/53
f 60/60/60 43/43/43 53/53/53
f 54/54/54 61/61/61 58/58/58
f 61/61/61 54/54/54 57/57/57
f 62/62/62 58/58/58 61/61/61
f 61/61/61 57/57/57 63/63/63
f 64/64/64 61/61/61 63/63/63
f 61/61/61 64/64/64 62/62/62
f 57/57/57 65/65/65 63/63/63
f 62/62/62 66/66/66 58/58/58
f 66/66/66 60/60/60 58/58/58
f 67/67/67 64/64/64 63/63/63
f 63/63/63 65/65/65 67/67/67
f 68/68/68 64/64/64 67/67/67
f 68/68/68 67/67/67 65/65/65
f 64/64/64 69/69/69 62/62/62
f 68/68/68 70/70/70 64/64/64
f 70/70/70 69/69/69 64/64/64
f 71/71/71 62/62/62 69/69/69
f 66/66/66 62/62/62 71/71/71
f 70/70/70 72/72/72 69/69/69
f 72/72/72 71/71/71 69/69/69
f 70/70/70 68/68/68 73/73/73
f 72/72/72 70/70/70 73/73/73
f 68/68/68 65/65/65 73/73/73
f 74/74/74 72/72/72 73/73/73
f 75/75/75 73/73/73 65/65/65
f 74/74/74 73/73/73 75/75/75
f 72/72/72 74/74/74 76/76/76
f 72/72/72 76/76/76 71/71/71
f 77/77/77 76/76/76 74/74/74
f 78/78/78 71/71/71 76/76/76
f 77/77/77 78/78/78 76/76/76
f 74/74/74 79/79/79 77/77/77
f 79/79/79 78/78/78 77/77/77
f 74/74/74 80/80/80 79/79/79
f 74/74/74 75/75/75 80/80/80
f 81/81/81 80/80/80 75/75/75
f 81/81/81 75/75/75 82/82/82
f 80/80/80 81/81/81 82/82/82
f 83/83/83 82/82/82 75/75/75
f 83/83/83 75/75/75 65/65/65
f 80/80/80 82/82/82 84/84/84
f 82/82/82 83/83/83 84/84/84
f 79/79/79 80/80/80 85/85/85
f 85/85/85 80/80/80 84/84/84
f 84/84/84 83/83/83 86/86/86
f 85/85/85 84/84/84 86/86/86
f 83/83/83 65/65/65 87/87/87
f 88/88/88 86/86/86 83/83/83
f 88/88/88 83/83/83 87/87/87
f 65/65/65 89/89/89 87/87/87
f 89/89/89 65/65/65 57/57/57
f 57/57/57 56/56/56 89/89/89
f 89/89/89 56/56/56 90/90/90
f 90/90/90 56/56/56 59/59/59
f 87/87/87 89/89/89 91/91/91
f 92/92/92 88/88/88 87/87/87
f 87/87/87 91/91/91 92/92/92
f 90/90/90 93/93/93 89/89/89
f 89/89/89 93/93/93 91/91/91
f 90/90/90 94/94/94 93/93/93
f 90/90/90 59/59/59 94/94/94
f 95/95/95 91/91/91 93/93/93
f 95/95/95 93/93/93 94/94/94
f 59/59/59 96/96/96 94/94/94
f 94/94/94 96/96/96 12/12/12
f 95/95/95 94/94/94 12/12/12
f 97/97/97 96/96/96 59/59/59
f 12/12/12 96/96/96 97/97/97
f 59/59/59 98/98/98 97/97/97
f 46/46/46 98/98/98 59/59/59
f 97/97/97 98/98/98 99/99/99
f 12/12/12 97/97/97 99/99/99
f 46/46/46 100/100/100 98/98/98
f 46/46/46 3/3/3 100/100/100
f 100/100/100 3/3/3 1/1/1
f 101/101/101 98/98/98 100/100/100
f 100/100/100 1/1/1 101/101/101
f 101/101/101 99/99/99 98/98/98
f 101/101/101 1/1/1 12/12/12
f 99/99/99 101/101/101 12/12/12
f 95/95/95 12/12/12 102/102/102
f 102/102/102 12/12/12 11/11/11
f 11/11/11 103/103/103 102/102/102
f 103/103/103 11/11/11 10/10/10
f 10/10/10 23/23/23 103/103/103
f 103/103/103 104/104/104 102/102/102
f 103/103/103 23/23/23 104/104/104
f 102/102/102 105/105/105 95/95/95
f 106/106/106 102/102/102 104/104/104
f 105/105/105 102/102/102 106/106/106
f 107/107/107 106/106/106 104/104/104
f 108/108/108 105/105/105 106/106/106
f 108/108/108 106/106/106 107/107/107
f 105/105/105 109/109/109 95/95/95
f 109/109/109 105/105/105 108/108/108
f 110/110/110 95/95/95 109/109/109
f 91/91/91 95/95/95 110/110/110
f 92/92/92 91/91/91 110/110/110
f 107/107/107 104/104/104 111/111/111
f 23/23/23 111/111/111 104/104/104
f 107/107/107 112/112/112 108/108/108
f 107/107/107 111/111/111 112/112/112
f 109/109/109 108/108/108 113/113/113
f 108/108/108 112/112/112 113/113/113
f 110/110/110 109/109/109 114/114/114
f 113/113/113 114/114/114 109/109/109
f 114/114/114 115/115/115 110/110/110
f 92/92/92 110/110/110 115/115/115
f 115/115/115 114/114/114 116/116/116
f 116/116/116 114/114/114 113/113/113
f 117/117/117 92/92/92 115/115/115
f 117/117/117 115/115/115 116/116/116
f 118/118/118 113/113/113 112/112/112
f 116/116/116 113/113/113 119/119/119
f 116/116/116 119/119/119 117/117/117
f 118/118/118 120/120/120 113/113/113
f 120/120/120 118/118/118 112/112/112
f 119/119/119 113/113/113 120/120/120
f 120/120/120 112/112/112 121/121/121
f 121/121/121 112/112/112 111/111/111
f 119/119/119 120/120/120 122/122/122
f 123/123/123 121/121/121 111/111/111
f 111/111/111 23/23/23 123/123/123
f 20/20/20 123/123/123 23/23/23
f 20/20/20 124/124/124 123/123/123
f 20/20/20 21/21/21 124/124/124
f 124/124/124 125/125/125 123/123/123
f 121/121/121 123/123/123 125/125/125
f 21/21/21 126/126/126 124/124/124
f 125/125/125 124/124/124 127/127/127
f 127/127/127 124/124/124 126/126/126
f 128/128/128 126/126/126 21/21/21
f 21/21/21 19/19/19 128/128/128
f 126/126/126 129/129/129 127/127/127
f 128/128/128 129/129/129 126/126/126
f 129/129/129 130/130/130 127/127/127
f 127/127/127 131/131/131 125/125/125
f 127/127/127 130/130/130 131/131/131
f 131/131/131 132/132/132 125/125/125
f 121/121/121 125/125/125 132/132/132
f 133/133/133 128/128/128 19/19/19
f 22/22/22 133/133/133 19/19/19
f 134/134/134 133/133/133 22/22/22
f 133/133/133 134/134/134 135/135/135
f 133/133/133 135/135/135 128/128/128
f 22/22/22 136/136/136 134/134/134
f 136/136/136 135/135/135 134/134/134
f 26/26/26 136/136/136 22/22/22
f 26/26/26 40/40/40 136/136/136
f 136/136/136 137/137/137 135/135/135
f 136/136/136 40/40/40 137/137/137
f 138/138/138 135/135/135 137/137/137
f 137/137/137 40/40/40 139/139/139
f 138/138/138 140/140/140 135/135/135
f 141/141/141 139/139/139 40/40/40
f 135/135/135 140/140/140 128/128/128
f 141/141/141 40/40/40 39/39/39
f 141/141/141 39/39/39 142/142/142
f 140/140/140 143/143/143 128/128/128
f 140/140/140 144/144/144 143/143/143
f 145/145/145 128/128/128 143/143/143
f 145/145/145 146/146/146 128/128/128
f 146/146/146 145/145/145 147/147/147
f 148/148/148 146/146/146 147/147/147
f 128/128/128 146/146/146 129/129/129
f 148/148/148 149/149/149 146/146/146
f 150/150/150 129/129/129 146/146/146
f 149/149/149 150/150/150 146/146/146
f 149/149/149 151/151/151 150/150/150
f 150/150/150 151/151/151 152/152/152
f 153/153/153 150/150/150 152/152/152
f 153/153/153 154/154/154 150/150/150
f 129/129/129 150/150/150 130/130/130
f 154/154/154 155/155/155 150/150/150
f 150/150/150 156/156/156 130/130/130
f 156/156/156 150/150/150 155/155/155
f 130/130/130 156/156/156 157/157/157
f 158/158/158 155/155/155 154/154/154
f 159/159/159 158/158/158 154/154/154
f 160/160/160 130/130/130 157/157/157
f 161/161/161 157/157/157 156/156/156
f 155/155/155 161/161/161 156/156/156
f 157/157/157 161/161/161 160/160/160
f 160/160/160 131/131/131 130/130/130
f 161/161/161 155/155/155 162/162/162
f 162/162/162 155/155/155 158/158/158
f 163/163/163 160/160/160 161/161/161
f 162/162/162 163/163/163 161/161/161
f 160/160/160 164/164/164 131/131/131
f 160/160/160 163/163/163 165/165/165
f 164/164/164 160/160/160 165/165/165
f 163/163/163 166/166/166 165/165/165
f 166/166/166 164/164/164 165/165/165
f 167/167/167 163/163/163 162/162/162
f 163/163/163 167/167/167 166/166/166
f 162/162/162 158/158/158 168/168/168
f 162/162/162 168/168/168 167/167/167
f 168/168/168 158/158/158 159/159/159
f 159/159/159 169/169/169 168/168/168
f 170/170/170 166/166/166 167/167/167
f 170/170/170 167/167/167 168/168/168
f 170/170/170 171/171/171 166/166/166
f 171/171/171 170/170/170 168/168/168
f 166/166/166 171/171/171 164/164/164
f 169/169/169 172/172/172 168/168/168
f 172/172/172 173/173/173 168/168/168
f 173/173/173 172/172/172 174/174/174
f 175/175/175 168/168/168 173/173/173
f 168/168/168 175/175/175 171/171/171
f 173/173/173 176/176/176 175/175/175
f 177/177/177 171/171/171 175/175/175
f 173/173/173 178/178/178 176/176/176
f 179/179/179 178/178/178 173/173/173
f 180/180/180 178/178/178 179/179/179
f 176/176/176 178/178/178 181/181/181
f 181/181/181 178/178/178 182/182/182
f 183/183/183 181/181/181 182/182/182
f 184/184/184 176/176/176 181/181/181
f 175/175/175 176/176/176 185/185/185
f 184/184/184 185/185/185 176/176/176
f 186/186/186 184/184/184 181/181/181
f 183/183/183 186/186/186 181/181/181
f 187/187/187 186/186/186 183/183/183
f 187/187/187 183/183/183 188/188/188
f 187/187/187 188/188/188 189/189/189
f 189/189/189 190/190/190 187/187/187
f 190/190/190 189/189/189 191/191/191
f 190/190/190 191/191/191 192/192/192
f 187/187/187 190/190/190 193/193/193
f 193/193/193 186/186/186 187/187/187
f 190/190/190 192/192/192 194/194/194
f 190/190/190 194/194/194 193/193/193
f 195/195/195 194/194/194 192/192/192
f 193/193/193 196/196/196 186/186/186
f 196/196/196 184/184/184 186/186/186
f 193/193/193 194/194/194 197/197/197
f 196/196/196 193/193/193 197/197/197
f 198/198/198 194/194/194 195/195/195
f 194/194/194 199/199/199 197/197/197
f 194/194/194 198/198/198 199/199/199
f 200/200/200 196/196/196 197/197/197
f 199/199/199 200/200/200 197/197/197
f 196/196/196 201/201/201 184/184/184
f 200/200/200 201/201/201 196/196/196
f 201/201/201 185/185/185 184/184/184
f 195/195/195 202/202/202 198/198/198
f 195/195/195 203/203/203 202/202/202
f 203/203/203 204/204/204 202/202/202
f 202/202/202 204/204/204 205/205/205
f 206/206/206 198/198/198 202/202/202
f 198/198/198 206/206/206 199/199/199
f 207/207/207 202/202/202 205/205/205
f 207/207/207 205/205/205 208/208/208
f 207/207/207 208/208/208 209/209/209
f 207/207/207 209/209/209 210/210/210
f 207/207/207 211/211/211 202/202/202
f 206/206/206 202/202/202 211/211/211
f 210/210/210 212/212/212 207/207/207
f 213/213/213 211/211/211 207/207/207
f 213/213/213 207/207/207 212/212/212
f 212/212/212 210/210/210 214/214/214
f 214/214/214 210/210/210 215/215/215
f 212/212/212 216/216/216 213/213/213
f 213/213/213 216/216/216 211/211/211
f 214/214/214 217/217/217 212/212/212
f 217/217/217 216/216/216 212/212/212
f 214/214/214 215/215/215 218/218/218
f 218/218/218 217/217/217 214/214/214
f 218/218/218 215/215/215 219/219/219
f 211/211/211 216/216/216 220/220/220
f 216/216/216 217/217/217 221/221/221
f 221/221/221 220/220/220 216/216/216
f 78/78/78 211/211/211 220/220/220
f 78/78/78 220/220/220 221/221/221
f 78/78/78 222/222/222 211/211/211
f 206/206/206 211/211/211 222/222/222
f 222/222/222 78/78/78 79/79/79
f 71/71/71 78/78/78 221/221/221
f 85/85/85 222/222/222 79/79/79
f 221/221/221 223/223/223 71/71/71
f 71/71/71 223/223/223 66/66/66
f 224/224/224 66/66/66 223/223/223
f 223/223/223 221/221/221 224/224/224
f 60/60/60 66/66/66 224/224/224
f 217/217/217 225/225/225 221/221/221
f 225/225/225 224/224/224 221/221/221
f 225/225/225 217/217/217 218/218/218
f 224/224/224 225/225/225 226/226/226
f 225/225/225 218/218/218 226/226/226
f 218/218/218 227/227/227 226/226/226
f 218/218/218 228/228/228 227/227/227
f 228/228/228 218/218/218 219/219/219
f 228/228/228 219/219/219 229/229/229
f 230/230/230 227/227/227 228/228/228
f 230/230/230 228/228/228 229/229/229
f 226/226/226 227/227/227 230/230/230
f 231/231/231 230/230/230 229/229/229
f 226/226/226 232/232/232 224/224/224
f 226/226/226 230/230/230 232/232/232
f 224/224/224 232/232/232 233/233/233
f 60/60/60 224/224/224 233/233/233
f 60/60/60 233/233/233 234/234/234
f 43/43/43 60/60/60 234/234/234
f 233/233/233 235/235/235 234/234/234
f 233/233/233 232/232/232 235/235/235
f 43/43/43 234/234/234 235/235/235
f 232/232/232 230/230/230 236/236/236
f 235/235/235 232/232/232 236/236/236
f 231/231/231 236/236/236 230/230/230
f 235/235/235 237/237/237 43/43/43
f 235/235/235 236/236/236 237/237/237
f 43/43/43 237/237/237 37/37/37
f 37/37/37 237/237/237 238/238/238
f 238/238/238 237/237/237 236/236/236
f 37/37/37 238/238/238 38/38/38
f 236/236/236 231/231/231 239/239/239
f 239/239/239 231/231/231 142/142/142
f 142/142/142 39/39/39 239/239/239
f 236/236/236 239/239/239 240/240/240
f 240/240/240 239/239/239 39/39/39
f 240/240/240 238/238/238 236/236/236
f 240/240/240 39/39/39 38/38/38
f 238/238/238 240/240/240 38/38/38
f 242/242/242 164/164/164 241/241/241
f 164/164/164 242/242/242 132/132/132
f 241/241/241 132/132/132 242/242/242
f 131/131/131 164/164/164 132/132/132
f 241/241/241 243/243/243 132/132/132
f 244/244/244 132/132/132 243/243/243
f 244/244/244 121/121/121 132/132/132
f 243/243/243 245/245/245 244/244/244
f 245/245/245 243/243/243 241/241/241
f 246/246/246 121/121/121 244/244/244
f 244/244/244 245/245/245 246/246/246
f 241/241/241 246/246/246 245/245/245
f 120/120/120 121/121/121 246/246/246
f 246/246/246 122/122/122 120/120/120
f 246/246/246 241/241/241 247/247/247
f 247/247/247 122/122/122 246/246/246
f 248/248/248 241/241/241 164/164/164
f 247/247/247 241/241/241 248/248/248
f 171/171/171 248/248/248 164/164/164
f 249/249/249 247/247/247 248/248/248
f 249/249/249 248/248/248 171/171/171
f 122/122/122 247/247/247 249/249/249
f 177/177/177 249/249/249 171/171/171
f 250/250/250 122/122/122 249/249/249
f 119/119/119 122/122/122 250/250/250
f 251/251/251 249/249/249 177/177/177
f 250/250/250 249/249/249 251/251/251
f 119/119/119 250/250/250 117/117/117
f 251/251/251 117/117/117 250/250/250
f 251/251/251 177/177/177 252/252/252
f 252/252/252 117/117/117 251/251/251
f 252/252/252 177/177/177 175/175/175
f 185/185/185 252/252/252 175/175/175
f 117/117/117 252/252/252 253/253/253
f 185/185/185 253/253/253 252/252/252
f 254/254/254 117/117/117 253/253/253
f 253/253/253 185/185/185 254/254/254
f 254/254/254 92/92/92 117/117/117
f 88/88/88 92/92/92 254/254/254
f 255/255/255 254/254/254 185/185/185
f 201/201/201 255/255/255 185/185/185
f 255/255/255 201/201/201 256/256/256
f 256/256/256 254/254/254 255/255/255
f 200/200/200 256/256/256 201/201/201
f 257/257/257 254/254/254 256/256/256
f 257/257/257 256/256/256 200/200/200
f 254/254/254 258/258/258 88/88/88
f 258/258/258 254/254/254 257/257/257
f 258/258/258 257/257/257 200/200/200
f 258/258/258 86/86/86 88/88/88
f 259/259/259 86/86/86 258/258/258
f 86/86/86 259/259/259 85/85/85
f 260/260/260 259/259/259 258/258/258
f 259/259/259 260/260/260 85/85/85
f 200/200/200 261/261/261 258/258/258
f 260/260/260 258/258/258 261/261/261
f 260/260/260 262/262/262 85/85/85
f 262/262/262 260/260/260 261/261/261
f 85/85/85 262/262/262 222/222/222
f 206/206/206 222/222/222 262/262/262
f 263/263/263 262/262/262 261/261/261
f 261/261/261 200/200/200 263/263/263
f 262/262/262 263/263/263 206/206/206
f 263/263/263 200/200/200 199/199/199
f 263/263/263 199/199/199 206/206/206
