# Exported from Godot Engine
o MS_Rock_A_Collider
v -0.103131 0.060843 -0.909863
vn -0.102643 0.589617 -0.801134
v 0.789042 0.649380 -0.591012
vn -0.102643 0.589617 -0.801134
v 0.151239 0.921733 -0.308822
vn -0.102643 0.589617 -0.801134
v -0.457095 0.076120 -0.806970
vn -0.199307 0.599898 -0.774854
v -0.103131 0.060843 -0.909863
vn -0.199307 0.599898 -0.774854
v 0.151239 0.921733 -0.308822
vn -0.199307 0.599898 -0.774854
v -1.267006 -0.724086 -0.246965
vn -0.753769 0.395459 -0.524827
v -0.457095 0.076120 -0.806970
vn -0.753769 0.395459 -0.524827
v -0.802981 0.201491 -0.215799
vn -0.753769 0.395459 -0.524827
v 0.572939 0.919945 -0.316215
vn -0.009300 0.708801 -0.705347
v 0.151239 0.921733 -0.308822
vn -0.009300 0.708801 -0.705347
v 0.789042 0.649380 -0.591012
vn -0.009300 0.708801 -0.705347
v -0.465818 -0.811475 1.056652
vn -0.612257 0.507160 0.606573
v -0.996100 -0.806261 0.516858
vn -0.612257 0.507160 0.606573
v -0.232041 -0.187988 0.771240
vn -0.612257 0.507160 0.606573
v -0.818910 -0.135669 0.163179
vn -0.847517 0.413692 0.332526
v -1.267006 -0.724086 -0.246965
vn -0.847517 0.413692 0.332526
v -0.802981 0.201491 -0.215799
vn -0.847517 0.413692 0.332526
v -0.802981 0.201491 -0.215799
vn -0.584511 0.618166 0.525565
v -0.287527 0.313008 0.226393
vn -0.584511 0.618166 0.525565
v -0.818910 -0.135669 0.163179
vn -0.584511 0.618166 0.525565
v -0.818910 -0.135669 0.163179
vn -0.846988 0.405282 0.344032
v -0.996100 -0.806261 0.516858
vn -0.846988 0.405282 0.344032
v -1.267006 -0.724086 -0.246965
vn -0.846988 0.405282 0.344032
v -0.818910 -0.135669 0.163179
vn -0.605480 0.490456 0.626775
v -0.232041 -0.187988 0.771240
vn -0.605480 0.490456 0.626775
v -0.996100 -0.806261 0.516858
vn -0.605480 0.490456 0.626775
v -0.818910 -0.135669 0.163179
vn -0.560409 0.580325 0.590902
v -0.287527 0.313008 0.226393
vn -0.560409 0.580325 0.590902
v -0.232041 -0.187988 0.771240
vn -0.560409 0.580325 0.590902
v 0.326268 0.568538 0.559826
vn -0.561893 0.579560 0.590243
v -0.232041 -0.187988 0.771240
vn -0.561893 0.579560 0.590243
v -0.287527 0.313008 0.226393
vn -0.561893 0.579560 0.590243
v -0.802981 0.201491 -0.215799
vn -0.623781 0.499384 0.601260
v 0.076373 1.005849 0.028409
vn -0.623781 0.499384 0.601260
v -0.287527 0.313008 0.226393
vn -0.623781 0.499384 0.601260
v 0.789042 0.649380 -0.591012
vn 0.787997 0.299117 -0.538136
v 1.155142 -0.271952 -0.567036
vn 0.787997 0.299117 -0.538136
v 1.218479 0.528890 -0.029345
vn 0.787997 0.299117 -0.538136
v 1.155142 -0.271952 -0.567036
vn 0.983277 -0.148537 0.105377
v 1.085434 0.096156 0.602319
vn 0.983277 -0.148537 0.105377
v 1.218479 0.528890 -0.029345
vn 0.983277 -0.148537 0.105377
v -0.103131 0.060843 -0.909863
vn -0.075318 0.560925 -0.824434
v 0.675264 -0.060617 -1.063692
vn -0.075318 0.560925 -0.824434
v 0.789042 0.649380 -0.591012
vn -0.075318 0.560925 -0.824434
v 0.675264 -0.060617 -1.063692
vn 0.747159 0.281253 -0.602204
v 1.155142 -0.271952 -0.567036
vn 0.747159 0.281253 -0.602204
v 0.789042 0.649380 -0.591012
vn 0.747159 0.281253 -0.602204
v 0.675264 -0.060617 -1.063692
vn 0.746265 0.209735 -0.631744
v 0.983603 -0.566524 -0.867437
vn 0.746265 0.209735 -0.631744
v 1.155142 -0.271952 -0.567036
vn 0.746265 0.209735 -0.631744
v 1.124460 -0.817537 -0.384686
vn 0.918443 -0.170893 -0.356732
v 1.155142 -0.271952 -0.567036
vn 0.918443 -0.170893 -0.356732
v 0.983603 -0.566524 -0.867437
vn 0.918443 -0.170893 -0.356732
v 0.338215 -0.513539 -0.730564
vn -0.221611 -0.387328 -0.894911
v 0.761697 -0.896561 -0.669657
vn -0.221611 -0.387328 -0.894911
v 0.983603 -0.566524 -0.867437
vn -0.221611 -0.387328 -0.894911
v 0.338215 -0.513539 -0.730564
vn -0.240466 -0.452729 -0.858611
v 0.675264 -0.060617 -1.063692
vn -0.240466 -0.452729 -0.858611
v -0.103131 0.060843 -0.909863
vn -0.240466 -0.452729 -0.858611
v -0.457095 0.076120 -0.806970
vn -0.275549 -0.348264 -0.895983
v -1.267006 -0.724086 -0.246965
vn -0.275549 -0.348264 -0.895983
v -0.103131 0.060843 -0.909863
vn -0.275549 -0.348264 -0.895983
v -0.408587 -0.823297 -0.427212
vn -0.232498 -0.403005 -0.885173
v -0.103131 0.060843 -0.909863
vn -0.232498 -0.403005 -0.885173
v -1.267006 -0.724086 -0.246965
vn -0.232498 -0.403005 -0.885173
v -0.408587 -0.823297 -0.427212
vn -0.186387 -0.420412 -0.887983
v 0.338215 -0.513539 -0.730564
vn -0.186387 -0.420412 -0.887983
v -0.103131 0.060843 -0.909863
vn -0.186387 -0.420412 -0.887983
v -0.408587 -0.823297 -0.427212
vn -0.291559 -0.210934 -0.933006
v -0.035129 -0.980646 -0.508332
vn -0.291559 -0.210934 -0.933006
v 0.338215 -0.513539 -0.730564
vn -0.291559 -0.210934 -0.933006
v 0.675264 -0.060617 -1.063692
vn -0.220019 -0.466507 -0.856716
v 0.338215 -0.513539 -0.730564
vn -0.220019 -0.466507 -0.856716
v 0.983603 -0.566524 -0.867437
vn -0.220019 -0.466507 -0.856716
v 1.124460 -0.817537 -0.384686
vn 0.991391 -0.074207 0.107880
v 1.027597 -0.790651 0.524421
vn 0.991391 -0.074207 0.107880
v 1.085434 0.096156 0.602319
vn 0.991391 -0.074207 0.107880
v 1.085434 0.096156 0.602319
vn 0.980513 -0.079690 0.179567
v 1.027597 -0.790651 0.524421
vn 0.980513 -0.079690 0.179567
v 0.949280 -0.606263 1.034134
vn 0.980513 -0.079690 0.179567
v 1.124460 -0.817537 -0.384686
vn 0.997024 -0.032829 0.069752
v 1.085434 0.096156 0.602319
vn 0.997024 -0.032829 0.069752
v 1.155142 -0.271952 -0.567036
vn 0.997024 -0.032829 0.069752
v 0.761697 -0.896561 -0.669657
vn 0.543784 -0.669094 -0.506570
v 1.124460 -0.817537 -0.384686
vn 0.543784 -0.669094 -0.506570
v 0.983603 -0.566524 -0.867437
vn 0.543784 -0.669094 -0.506570
v -0.232041 -0.187988 0.771240
vn -0.085737 0.441025 0.893390
v 0.202288 -0.888467 1.158798
vn -0.085737 0.441025 0.893390
v -0.465818 -0.811475 1.056652
vn -0.085737 0.441025 0.893390
v 0.202288 -0.888467 1.158798
vn -0.030115 0.469474 0.882433
v -0.232041 -0.187988 0.771240
vn -0.030115 0.469474 0.882433
v 0.949280 -0.606263 1.034134
vn -0.030115 0.469474 0.882433
v 0.326268 0.568538 0.559826
vn 0.442807 0.755258 0.483225
v 0.793859 0.584513 0.106172
vn 0.442807 0.755258 0.483225
v 1.085434 0.096156 0.602319
vn 0.442807 0.755258 0.483225
v 0.793859 0.584513 0.106172
vn 0.413840 0.788792 0.454471
v 0.326268 0.568538 0.559826
vn 0.413840 0.788792 0.454471
v 0.076373 1.005849 0.028409
vn 0.413840 0.788792 0.454471
v 1.218479 0.528890 -0.029345
vn 0.285505 0.761520 0.581872
v 1.085434 0.096156 0.602319
vn 0.285505 0.761520 0.581872
v 0.793859 0.584513 0.106172
vn 0.285505 0.761520 0.581872
v 1.085434 0.096156 0.602319
vn 0.078656 0.213948 0.973673
v -0.232041 -0.187988 0.771240
vn 0.078656 0.213948 0.973673
v 0.326268 0.568538 0.559826
vn 0.078656 0.213948 0.973673
v 0.949280 -0.606263 1.034134
vn -0.003938 0.524138 0.851624
v -0.232041 -0.187988 0.771240
vn -0.003938 0.524138 0.851624
v 1.085434 0.096156 0.602319
vn -0.003938 0.524138 0.851624
v 0.949280 -0.606263 1.034134
vn 0.145040 -0.923090 0.356187
v 1.027597 -0.790651 0.524421
vn 0.145040 -0.923090 0.356187
v 0.149040 -0.901501 0.594926
vn 0.145040 -0.923090 0.356187
v 0.949280 -0.606263 1.034134
vn 0.351696 -0.936042 -0.011626
v 0.149040 -0.901501 0.594926
vn 0.351696 -0.936042 -0.011626
v 0.202288 -0.888467 1.158798
vn 0.351696 -0.936042 -0.011626
v -0.465818 -0.811475 1.056652
vn -0.119660 -0.992229 0.034122
v 0.202288 -0.888467 1.158798
vn -0.119660 -0.992229 0.034122
v 0.149040 -0.901501 0.594926
vn -0.119660 -0.992229 0.034122
v 0.149040 -0.901501 0.594926
vn 0.129572 -0.989822 0.058844
v 1.027597 -0.790651 0.524421
vn 0.129572 -0.989822 0.058844
v 0.761697 -0.896561 -0.669657
vn 0.129572 -0.989822 0.058844
v 0.149040 -0.901501 0.594926
vn 0.115159 -0.991988 0.051938
v 0.761697 -0.896561 -0.669657
vn 0.115159 -0.991988 0.051938
v -0.035129 -0.980646 -0.508332
vn 0.115159 -0.991988 0.051938
v 1.124460 -0.817537 -0.384686
vn 0.176621 -0.983115 0.047858
v 0.761697 -0.896561 -0.669657
vn 0.176621 -0.983115 0.047858
v 1.027597 -0.790651 0.524421
vn 0.176621 -0.983115 0.047858
v 0.149040 -0.901501 0.594926
vn -0.088450 -0.992371 0.085880
v -0.035129 -0.980646 -0.508332
vn -0.088450 -0.992371 0.085880
v -0.996100 -0.806261 0.516858
vn -0.088450 -0.992371 0.085880
v -0.465818 -0.811475 1.056652
vn -0.087861 -0.993178 0.076672
v 0.149040 -0.901501 0.594926
vn -0.087861 -0.993178 0.076672
v -0.996100 -0.806261 0.516858
vn -0.087861 -0.993178 0.076672
v -0.408587 -0.823297 -0.427212
vn -0.421329 -0.872773 -0.246475
v -0.996100 -0.806261 0.516858
vn -0.421329 -0.872773 -0.246475
v -0.035129 -0.980646 -0.508332
vn -0.421329 -0.872773 -0.246475
v -0.408587 -0.823297 -0.427212
vn -0.127335 -0.989951 -0.061496
v -1.267006 -0.724086 -0.246965
vn -0.127335 -0.989951 -0.061496
v -0.996100 -0.806261 0.516858
vn -0.127335 -0.989951 -0.061496
v 0.572939 0.919945 -0.316215
vn 0.269414 0.817741 0.508641
v 1.218479 0.528890 -0.029345
vn 0.269414 0.817741 0.508641
v 0.793859 0.584513 0.106172
vn 0.269414 0.817741 0.508641
v 0.572939 0.919945 -0.316215
vn 0.586249 0.758227 -0.285314
v 0.789042 0.649380 -0.591012
vn 0.586249 0.758227 -0.285314
v 1.218479 0.528890 -0.029345
vn 0.586249 0.758227 -0.285314
v 0.572939 0.919945 -0.316215
vn 0.426875 0.803490 0.414947
v 0.793859 0.584513 0.106172
vn 0.426875 0.803490 0.414947
v 0.076373 1.005849 0.028409
vn 0.426875 0.803490 0.414947
v 0.151239 0.921733 -0.308822
vn -0.000113 0.970277 -0.241996
v 0.572939 0.919945 -0.316215
vn -0.000113 0.970277 -0.241996
v 0.076373 1.005849 0.028409
vn -0.000113 0.970277 -0.241996
v 0.326268 0.568538 0.559826
vn -0.564661 0.486928 0.666377
v -0.287527 0.313008 0.226393
vn -0.564661 0.486928 0.666377
v 0.076373 1.005849 0.028409
vn -0.564661 0.486928 0.666377
v -0.035129 -0.980646 -0.508332
vn -0.155410 -0.320324 -0.934473
v 0.761697 -0.896561 -0.669657
vn -0.155410 -0.320324 -0.934473
v 0.338215 -0.513539 -0.730564
vn -0.155410 -0.320324 -0.934473
v 0.076373 1.005849 0.028409
vn -0.526543 0.715145 -0.459695
v -0.802981 0.201491 -0.215799
vn -0.526543 0.715145 -0.459695
v -0.457095 0.076120 -0.806970
vn -0.526543 0.715145 -0.459695
v 0.151239 0.921733 -0.308822
vn -0.672038 0.669660 -0.316102
v 0.076373 1.005849 0.028409
vn -0.672038 0.669660 -0.316102
v -0.457095 0.076120 -0.806970
vn -0.672038 0.669660 -0.316102
f 3//3 2//2 1//1
f 6//6 5//5 4//4
f 9//9 8//8 7//7
f 12//12 11//11 10//10
f 15//15 14//14 13//13
f 18//18 17//17 16//16
f 21//21 20//20 19//19
f 24//24 23//23 22//22
f 27//27 26//26 25//25
f 30//30 29//29 28//28
f 33//33 32//32 31//31
f 36//36 35//35 34//34
f 39//39 38//38 37//37
f 42//42 41//41 40//40
f 45//45 44//44 43//43
f 48//48 47//47 46//46
f 51//51 50//50 49//49
f 54//54 53//53 52//52
f 57//57 56//56 55//55
f 60//60 59//59 58//58
f 63//63 62//62 61//61
f 66//66 65//65 64//64
f 69//69 68//68 67//67
f 72//72 71//71 70//70
f 75//75 74//74 73//73
f 78//78 77//77 76//76
f 81//81 80//80 79//79
f 84//84 83//83 82//82
f 87//87 86//86 85//85
f 90//90 89//89 88//88
f 93//93 92//92 91//91
f 96//96 95//95 94//94
f 99//99 98//98 97//97
f 102//102 101//101 100//100
f 105//105 104//104 103//103
f 108//108 107//107 106//106
f 111//111 110//110 109//109
f 114//114 113//113 112//112
f 117//117 116//116 115//115
f 120//120 119//119 118//118
f 123//123 122//122 121//121
f 126//126 125//125 124//124
f 129//129 128//128 127//127
f 132//132 131//131 130//130
f 135//135 134//134 133//133
f 138//138 137//137 136//136
f 141//141 140//140 139//139
f 144//144 143//143 142//142
f 147//147 146//146 145//145
f 150//150 149//149 148//148
f 153//153 152//152 151//151
f 156//156 155//155 154//154
f 159//159 158//158 157//157
f 162//162 161//161 160//160
