# Exported from Godot Engine
o MS_Grass
v -0.521962 -0.050000 -0.312549
vt 0.000000 0.000000
vn -0.826900 0.464614 0.316812
v -0.340201 0.352092 -0.427928
vt 0.000000 0.468757
vn -0.822467 0.471668 0.317926
v -0.052135 -0.050000 0.914228
vt 1.000000 0.000000
vn -0.810855 0.489507 0.320777
v 0.153772 0.352092 0.810262
vt 1.000000 0.468757
vn -0.806410 0.496144 0.321783
v -0.435907 0.264942 0.728318
vt 0.000000 0.468757
vn 0.374304 0.512238 0.772987
v 0.453174 0.264942 0.297819
vt 1.000000 0.468757
vn 0.361100 0.531863 0.765982
v -0.330760 -0.050000 0.886130
vt 0.000000 0.000000
vn 0.370424 0.517980 0.771027
v 0.550389 -0.050000 0.474094
vt 1.000000 0.000000
vn 0.357120 0.537569 0.763862
v 1.023690 -0.050000 -0.353739
vt 1.000000 0.000000
vn 0.639730 0.505360 0.579101
v 0.370698 -0.050000 0.367711
vt 0.000000 0.000000
vn 0.655045 0.483587 0.580568
v 0.903312 0.264942 -0.495638
vt 1.000000 0.468757
vn 0.644328 0.498911 0.579594
v 0.250109 0.264942 0.245919
vt 0.000000 0.468757
vn 0.659496 0.477079 0.580913
v -0.184271 -0.050000 0.256158
vt 1.000000 0.000000
vn -0.706122 0.565949 -0.425550
v 0.493814 -0.050000 -0.868767
vt 0.000000 0.000000
vn -0.722356 0.545704 -0.424745
v 0.056416 0.352092 0.391478
vt 1.000000 0.468757
vn -0.710763 0.560244 -0.425372
v 0.728675 0.352092 -0.759498
vt 0.000000 0.468757
vn -0.726932 0.539858 -0.424409
v -0.054662 -0.050000 -0.900625
vt 0.000000 0.000000
vn -0.755461 0.456342 -0.470139
v 0.142190 0.352092 -0.826738
vt 0.000000 0.468757
vn -0.753844 0.463257 -0.465953
v -0.738082 -0.050000 0.197445
vt 1.000000 0.000000
vn -0.749435 0.480530 -0.455454
v -0.536737 0.352092 0.297684
vt 1.000000 0.468757
vn -0.747703 0.487084 -0.451319
v -0.825611 -0.050000 0.146519
vt 0.000000 0.000000
vn -0.275599 0.456905 0.845744
v -0.796516 0.352092 -0.061211
vt 0.000000 0.468757
vn -0.271879 0.463894 0.843139
v 0.422430 -0.050000 0.553218
vt 1.000000 0.000000
vn -0.262279 0.482109 0.835931
v 0.475564 0.352092 0.333839
vt 1.000000 0.468757
vn -0.258669 0.488667 0.833244
v -0.860215 -0.050000 0.162062
vt 0.000000 0.500008
vn -0.790611 0.329892 0.515855
v -0.727062 0.400000 0.078339
vt 0.000000 1.000000
vn -0.793156 0.326076 0.514371
v -0.474267 -0.050000 0.753563
vt 0.468742 0.500008
vn -0.794896 0.323628 0.513231
v -0.345676 0.400000 0.672727
vt 0.468742 1.000000
vn -0.797431 0.319831 0.511675
v -0.003563 -0.050000 -0.412620
vt 0.468742 0.500008
vn 0.914840 0.348771 -0.203534
v 0.149911 -0.050000 0.276938
vt 0.000000 0.500008
vn 0.913447 0.355107 -0.198782
v -0.173637 0.400000 -0.406007
vt 0.468742 1.000000
vn 0.913979 0.352715 -0.200586
v -0.025463 0.400000 0.284693
vt 0.000000 1.000000
vn 0.912602 0.358935 -0.195764
v 0.456718 -0.050000 0.563255
vt 1.000000 0.500008
vn -0.134560 0.407286 0.903334
v 0.461842 0.288096 0.411620
vt 1.000000 1.000000
vn -0.136902 0.404237 0.904351
v 1.011477 -0.050000 0.645938
vt 0.499992 0.500008
vn -0.138475 0.402129 0.905051
v 1.016144 0.288096 0.497761
vt 0.499992 1.000000
vn -0.140817 0.399074 0.906041
v -0.470091 -0.050000 -1.028459
vt 0.499992 0.500008
vn -0.872443 0.454817 -0.178843
v -0.302403 0.288096 -0.986598
vt 0.499992 1.000000
vn -0.873361 0.452151 -0.181106
v -0.582853 -0.050000 -0.478451
vt 1.000000 0.500008
vn -0.873914 0.450465 -0.182635
v -0.418605 0.288096 -0.437261
vt 1.000000 1.000000
vn -0.874856 0.447637 -0.185061
v 0.776546 -0.050000 -0.714782
vt 1.000000 0.500008
vn 0.757764 0.435777 -0.485687
v 1.079422 -0.050000 -0.242253
vt 0.499992 0.500008
vn 0.757647 0.440599 -0.481502
v 0.632899 0.288096 -0.635490
vt 1.000000 1.000000
vn 0.757738 0.438675 -0.483112
v 0.932897 0.288096 -0.161014
vt 0.499992 1.000000
vn 0.757636 0.443361 -0.478976
v 1.097777 -0.050000 -0.306170
vt 0.000000 0.500008
vn -0.181163 0.489994 -0.852693
v 1.122344 0.263129 -0.131473
vt 0.000000 1.000000
vn -0.178721 0.486849 -0.855007
v 0.635496 -0.050000 -0.207978
vt 0.468742 0.500008
vn -0.177734 0.485534 -0.855960
v 0.659326 0.263129 -0.036839
vt 0.468742 1.000000
vn -0.175470 0.482525 -0.858126
v 0.198378 0.263129 -0.717435
vt 0.000000 1.000000
vn 0.769333 0.448557 0.454888
v 0.439030 0.263129 -1.124536
vt 0.468742 1.000000
vn 0.773593 0.443466 0.452650
v 0.319810 -0.050000 -0.613939
vt 0.000000 0.500008
vn 0.772296 0.445062 0.453298
v 0.557338 -0.050000 -1.022887
vt 0.468742 0.500008
vn 0.776512 0.439885 0.451143
v 0.456753 0.263129 0.427667
vt 0.000000 1.000000
vn 0.881350 0.451559 0.138982
v 0.614579 -0.050000 0.444149
vt 0.000000 0.500008
vn 0.880135 0.454810 0.136055
v 0.383087 0.263129 0.894925
vt 0.468742 1.000000
vn 0.879500 0.456432 0.134719
v 0.544493 -0.050000 0.911979
vt 0.468742 0.500008
vn 0.878241 0.459733 0.131675
v 0.057188 -0.050000 0.628247
vt 1.000000 0.500008
vn -0.277445 0.337438 0.899533
v -0.655150 -0.050000 0.408498
vt 0.499992 0.500008
vn -0.280355 0.343452 0.896349
v 0.127906 0.382861 0.487622
vt 1.000000 1.000000
vn -0.279088 0.340786 0.897761
v -0.583134 0.382861 0.263409
vt 0.499992 1.000000
vn -0.282094 0.346701 0.894551
v -0.613422 0.352092 -0.003068
vt 1.000000 0.468757
vn -0.166005 0.528901 -0.832290
v -0.677857 -0.050000 -0.245711
vt 1.000000 0.000000
vn -0.164369 0.522643 -0.836557
v 0.692807 0.352092 -0.263671
vt 0.000000 0.468757
vn -0.159675 0.506164 -0.847527
v 0.612789 -0.050000 -0.484594
vt 0.000000 0.000000
vn -0.157780 0.499468 -0.851843
v -0.512627 0.288096 -0.220131
vt 0.499992 1.000000
vn -0.159992 0.468719 -0.868738
v -1.064332 0.288096 -0.118548
vt 1.000000 1.000000
vn -0.163746 0.464177 -0.870475
v -0.542634 -0.050000 -0.396943
vt 0.499992 0.500008
vn -0.162337 0.465900 -0.869818
v -1.093637 -0.050000 -0.291970
vt 1.000000 0.500008
vn -0.166113 0.461337 -0.871536
v 0.633144 -0.050000 -0.020222
vt 1.000000 0.500008
vn 0.619657 0.378770 -0.687429
v 1.049942 -0.050000 0.355491
vt 0.499992 0.500008
vn 0.620943 0.383935 -0.683391
v 0.544633 0.288096 0.086295
vt 1.000000 1.000000
vn 0.620432 0.381681 -0.685116
v 0.959114 0.288096 0.464627
vt 0.499992 1.000000
vn 0.621710 0.386779 -0.681086
v -0.732396 0.288096 0.925810
vt 0.499992 1.000000
vn 0.483297 0.466582 0.740760
v -0.262464 0.288096 0.619216
vt 1.000000 1.000000
vn 0.487405 0.462085 0.740887
v -0.635286 -0.050000 1.075464
vt 0.499992 0.500008
vn 0.485795 0.463844 0.740846
v -0.167320 -0.050000 0.765950
vt 1.000000 0.500008
vn 0.490026 0.459380 0.740840
v -0.978839 0.263129 0.348979
vt 0.000000 1.000000
vn -0.758210 0.542052 -0.362349
v -1.177656 -0.050000 0.296610
vt 0.000000 0.500008
vn -0.757638 0.545155 -0.358875
v -0.774932 0.263129 -0.077761
vt 0.468742 1.000000
vn -0.757426 0.546187 -0.357750
v -0.977014 -0.050000 -0.131674
vt 0.468742 0.500008
vn -0.756659 0.549325 -0.354554
v -0.124713 -0.050000 -0.569257
vt 0.468742 0.500008
vn -0.898636 0.432056 0.076033
v -0.164582 -0.050000 -1.040611
vt 0.000000 0.500008
vn -0.896527 0.437141 0.071740
v 0.025356 0.263129 -0.574695
vt 0.468742 1.000000
vn -0.897230 0.435453 0.073205
v -0.010933 0.263129 -1.046352
vt 0.000000 1.000000
vn -0.895102 0.440504 0.068910
v 0.366452 0.288096 -0.320404
vt 0.499992 1.000000
vn 0.466003 0.510787 -0.722452
v -0.105095 0.288096 -0.624547
vt 1.000000 1.000000
vn 0.464547 0.506853 -0.726152
v 0.468440 -0.050000 -0.493725
vt 0.499992 0.500008
vn 0.465036 0.508312 -0.724818
v -0.004931 -0.050000 -0.794880
vt 1.000000 0.500008
vn 0.463592 0.504223 -0.728589
f 3/3/3 2/2/2 1/1/1
f 2/2/2 3/3/3 4/4/4
f 7/7/7 6/6/6 5/5/5
f 6/6/6 7/7/7 8/8/8
f 11/11/11 10/10/10 9/9/9
f 10/10/10 11/11/11 12/12/12
f 15/15/15 14/14/14 13/13/13
f 14/14/14 15/15/15 16/16/16
f 19/19/19 18/18/18 17/17/17
f 18/18/18 19/19/19 20/20/20
f 23/23/23 22/22/22 21/21/21
f 22/22/22 23/23/23 24/24/24
f 27/27/27 26/26/26 25/25/25
f 26/26/26 27/27/27 28/28/28
f 31/31/31 30/30/30 29/29/29
f 30/30/30 31/31/31 32/32/32
f 35/35/35 34/34/34 33/33/33
f 34/34/34 35/35/35 36/36/36
f 39/39/39 38/38/38 37/37/37
f 38/38/38 39/39/39 40/40/40
f 43/43/43 42/42/42 41/41/41
f 42/42/42 43/43/43 44/44/44
f 47/47/47 46/46/46 45/45/45
f 46/46/46 47/47/47 48/48/48
f 51/51/51 50/50/50 49/49/49
f 50/50/50 51/51/51 52/52/52
f 55/55/55 54/54/54 53/53/53
f 54/54/54 55/55/55 56/56/56
f 59/59/59 58/58/58 57/57/57
f 58/58/58 59/59/59 60/60/60
f 63/63/63 62/62/62 61/61/61
f 62/62/62 63/63/63 64/64/64
f 67/67/67 66/66/66 65/65/65
f 66/66/66 67/67/67 68/68/68
f 71/71/71 70/70/70 69/69/69
f 70/70/70 71/71/71 72/72/72
f 75/75/75 74/74/74 73/73/73
f 74/74/74 75/75/75 76/76/76
f 79/79/79 78/78/78 77/77/77
f 78/78/78 79/79/79 80/80/80
f 83/83/83 82/82/82 81/81/81
f 82/82/82 83/83/83 84/84/84
f 87/87/87 86/86/86 85/85/85
f 86/86/86 87/87/87 88/88/88
